ISO-10303-21;
HEADER;
/* Generated by software containing ST-Developer
 * from STEP Tools, Inc. (www.steptools.com) 
 */

FILE_DESCRIPTION(
/* description */ (''),
/* implementation_level */ '2;1');

FILE_NAME(
/* name */ 'ArduinoHolder.step',
/* time_stamp */ '2026-02-04T07:48:57+02:00',
/* author */ (''),
/* organization */ (''),
/* preprocessor_version */ 'ST-DEVELOPER v20.1',
/* originating_system */ 'Autodesk Translation Framework v14.21.0.0',
/* authorisation */ '');

FILE_SCHEMA (('AUTOMOTIVE_DESIGN { 1 0 10303 214 3 1 1 }'));
ENDSEC;

DATA;
#10=MECHANICAL_DESIGN_GEOMETRIC_PRESENTATION_REPRESENTATION('',(#13),#1371);
#11=SHAPE_REPRESENTATION_RELATIONSHIP('SRR','None',#1378,#12);
#12=ADVANCED_BREP_SHAPE_REPRESENTATION('',(#14),#1370);
#13=STYLED_ITEM('',(#1387),#14);
#14=MANIFOLD_SOLID_BREP('Body1',#863);
#15=FACE_OUTER_BOUND('',#57,.T.);
#16=FACE_OUTER_BOUND('',#58,.T.);
#17=FACE_OUTER_BOUND('',#59,.T.);
#18=FACE_OUTER_BOUND('',#60,.T.);
#19=FACE_OUTER_BOUND('',#61,.T.);
#20=FACE_OUTER_BOUND('',#62,.T.);
#21=FACE_OUTER_BOUND('',#63,.T.);
#22=FACE_OUTER_BOUND('',#64,.T.);
#23=FACE_OUTER_BOUND('',#65,.T.);
#24=FACE_OUTER_BOUND('',#66,.T.);
#25=FACE_OUTER_BOUND('',#67,.T.);
#26=FACE_OUTER_BOUND('',#68,.T.);
#27=FACE_OUTER_BOUND('',#69,.T.);
#28=FACE_OUTER_BOUND('',#70,.T.);
#29=FACE_OUTER_BOUND('',#71,.T.);
#30=FACE_OUTER_BOUND('',#72,.T.);
#31=FACE_OUTER_BOUND('',#73,.T.);
#32=FACE_OUTER_BOUND('',#74,.T.);
#33=FACE_OUTER_BOUND('',#75,.T.);
#34=FACE_OUTER_BOUND('',#76,.T.);
#35=FACE_OUTER_BOUND('',#77,.T.);
#36=FACE_OUTER_BOUND('',#78,.T.);
#37=FACE_OUTER_BOUND('',#79,.T.);
#38=FACE_OUTER_BOUND('',#80,.T.);
#39=FACE_OUTER_BOUND('',#81,.T.);
#40=FACE_OUTER_BOUND('',#82,.T.);
#41=FACE_OUTER_BOUND('',#83,.T.);
#42=FACE_OUTER_BOUND('',#84,.T.);
#43=FACE_OUTER_BOUND('',#85,.T.);
#44=FACE_OUTER_BOUND('',#86,.T.);
#45=FACE_OUTER_BOUND('',#87,.T.);
#46=FACE_OUTER_BOUND('',#88,.T.);
#47=FACE_OUTER_BOUND('',#89,.T.);
#48=FACE_OUTER_BOUND('',#90,.T.);
#49=FACE_OUTER_BOUND('',#91,.T.);
#50=FACE_OUTER_BOUND('',#92,.T.);
#51=FACE_OUTER_BOUND('',#93,.T.);
#52=FACE_OUTER_BOUND('',#94,.T.);
#53=FACE_OUTER_BOUND('',#95,.T.);
#54=FACE_OUTER_BOUND('',#96,.T.);
#55=FACE_OUTER_BOUND('',#97,.T.);
#56=FACE_OUTER_BOUND('',#98,.T.);
#57=EDGE_LOOP('',(#539,#540,#541,#542));
#58=EDGE_LOOP('',(#543,#544,#545,#546,#547,#548,#549,#550,#551,#552,#553,
#554));
#59=EDGE_LOOP('',(#555,#556,#557,#558,#559,#560,#561,#562,#563,#564,#565,
#566));
#60=EDGE_LOOP('',(#567,#568,#569,#570));
#61=EDGE_LOOP('',(#571,#572,#573,#574));
#62=EDGE_LOOP('',(#575,#576,#577,#578));
#63=EDGE_LOOP('',(#579,#580,#581,#582,#583,#584,#585,#586));
#64=EDGE_LOOP('',(#587,#588,#589,#590,#591,#592,#593,#594));
#65=EDGE_LOOP('',(#595,#596,#597,#598,#599,#600,#601,#602,#603,#604,#605,
#606));
#66=EDGE_LOOP('',(#607,#608,#609,#610));
#67=EDGE_LOOP('',(#611,#612,#613,#614,#615,#616,#617,#618));
#68=EDGE_LOOP('',(#619,#620,#621,#622));
#69=EDGE_LOOP('',(#623,#624,#625,#626));
#70=EDGE_LOOP('',(#627,#628,#629,#630));
#71=EDGE_LOOP('',(#631,#632,#633,#634));
#72=EDGE_LOOP('',(#635,#636,#637,#638));
#73=EDGE_LOOP('',(#639,#640,#641,#642));
#74=EDGE_LOOP('',(#643,#644,#645,#646));
#75=EDGE_LOOP('',(#647,#648,#649,#650));
#76=EDGE_LOOP('',(#651,#652,#653,#654));
#77=EDGE_LOOP('',(#655,#656,#657,#658));
#78=EDGE_LOOP('',(#659,#660,#661,#662));
#79=EDGE_LOOP('',(#663,#664,#665,#666));
#80=EDGE_LOOP('',(#667,#668,#669,#670));
#81=EDGE_LOOP('',(#671,#672,#673,#674));
#82=EDGE_LOOP('',(#675,#676,#677,#678));
#83=EDGE_LOOP('',(#679,#680,#681,#682));
#84=EDGE_LOOP('',(#683,#684,#685,#686));
#85=EDGE_LOOP('',(#687,#688,#689,#690));
#86=EDGE_LOOP('',(#691,#692,#693,#694));
#87=EDGE_LOOP('',(#695,#696,#697,#698));
#88=EDGE_LOOP('',(#699,#700,#701,#702));
#89=EDGE_LOOP('',(#703,#704,#705,#706));
#90=EDGE_LOOP('',(#707,#708,#709,#710,#711,#712,#713,#714));
#91=EDGE_LOOP('',(#715,#716,#717,#718));
#92=EDGE_LOOP('',(#719,#720,#721,#722));
#93=EDGE_LOOP('',(#723,#724,#725,#726));
#94=EDGE_LOOP('',(#727,#728,#729,#730,#731,#732,#733,#734,#735,#736,#737,
#738,#739,#740,#741,#742,#743,#744,#745,#746,#747,#748,#749,#750,#751,#752,
#753,#754,#755,#756,#757,#758,#759,#760,#761,#762));
#95=EDGE_LOOP('',(#763,#764,#765,#766));
#96=EDGE_LOOP('',(#767,#768,#769,#770));
#97=EDGE_LOOP('',(#771,#772,#773,#774));
#98=EDGE_LOOP('',(#775,#776,#777,#778));
#99=LINE('',#1129,#219);
#100=LINE('',#1131,#220);
#101=LINE('',#1133,#221);
#102=LINE('',#1134,#222);
#103=LINE('',#1137,#223);
#104=LINE('',#1139,#224);
#105=LINE('',#1141,#225);
#106=LINE('',#1143,#226);
#107=LINE('',#1145,#227);
#108=LINE('',#1147,#228);
#109=LINE('',#1149,#229);
#110=LINE('',#1151,#230);
#111=LINE('',#1153,#231);
#112=LINE('',#1155,#232);
#113=LINE('',#1156,#233);
#114=LINE('',#1159,#234);
#115=LINE('',#1161,#235);
#116=LINE('',#1163,#236);
#117=LINE('',#1165,#237);
#118=LINE('',#1167,#238);
#119=LINE('',#1169,#239);
#120=LINE('',#1171,#240);
#121=LINE('',#1173,#241);
#122=LINE('',#1175,#242);
#123=LINE('',#1176,#243);
#124=LINE('',#1179,#244);
#125=LINE('',#1181,#245);
#126=LINE('',#1182,#246);
#127=LINE('',#1186,#247);
#128=LINE('',#1188,#248);
#129=LINE('',#1190,#249);
#130=LINE('',#1191,#250);
#131=LINE('',#1194,#251);
#132=LINE('',#1196,#252);
#133=LINE('',#1197,#253);
#134=LINE('',#1201,#254);
#135=LINE('',#1203,#255);
#136=LINE('',#1205,#256);
#137=LINE('',#1207,#257);
#138=LINE('',#1209,#258);
#139=LINE('',#1211,#259);
#140=LINE('',#1213,#260);
#141=LINE('',#1214,#261);
#142=LINE('',#1218,#262);
#143=LINE('',#1220,#263);
#144=LINE('',#1222,#264);
#145=LINE('',#1224,#265);
#146=LINE('',#1226,#266);
#147=LINE('',#1228,#267);
#148=LINE('',#1230,#268);
#149=LINE('',#1231,#269);
#150=LINE('',#1234,#270);
#151=LINE('',#1235,#271);
#152=LINE('',#1237,#272);
#153=LINE('',#1239,#273);
#154=LINE('',#1240,#274);
#155=LINE('',#1242,#275);
#156=LINE('',#1244,#276);
#157=LINE('',#1245,#277);
#158=LINE('',#1248,#278);
#159=LINE('',#1250,#279);
#160=LINE('',#1251,#280);
#161=LINE('',#1254,#281);
#162=LINE('',#1255,#282);
#163=LINE('',#1257,#283);
#164=LINE('',#1259,#284);
#165=LINE('',#1260,#285);
#166=LINE('',#1263,#286);
#167=LINE('',#1264,#287);
#168=LINE('',#1267,#288);
#169=LINE('',#1268,#289);
#170=LINE('',#1271,#290);
#171=LINE('',#1272,#291);
#172=LINE('',#1275,#292);
#173=LINE('',#1276,#293);
#174=LINE('',#1279,#294);
#175=LINE('',#1280,#295);
#176=LINE('',#1283,#296);
#177=LINE('',#1284,#297);
#178=LINE('',#1286,#298);
#179=LINE('',#1289,#299);
#180=LINE('',#1290,#300);
#181=LINE('',#1292,#301);
#182=LINE('',#1295,#302);
#183=LINE('',#1296,#303);
#184=LINE('',#1299,#304);
#185=LINE('',#1300,#305);
#186=LINE('',#1302,#306);
#187=LINE('',#1305,#307);
#188=LINE('',#1306,#308);
#189=LINE('',#1308,#309);
#190=LINE('',#1311,#310);
#191=LINE('',#1312,#311);
#192=LINE('',#1315,#312);
#193=LINE('',#1317,#313);
#194=LINE('',#1318,#314);
#195=LINE('',#1321,#315);
#196=LINE('',#1322,#316);
#197=LINE('',#1325,#317);
#198=LINE('',#1326,#318);
#199=LINE('',#1329,#319);
#200=LINE('',#1330,#320);
#201=LINE('',#1333,#321);
#202=LINE('',#1334,#322);
#203=LINE('',#1337,#323);
#204=LINE('',#1338,#324);
#205=LINE('',#1341,#325);
#206=LINE('',#1342,#326);
#207=LINE('',#1345,#327);
#208=LINE('',#1346,#328);
#209=LINE('',#1347,#329);
#210=LINE('',#1349,#330);
#211=LINE('',#1352,#331);
#212=LINE('',#1353,#332);
#213=LINE('',#1355,#333);
#214=LINE('',#1359,#334);
#215=LINE('',#1361,#335);
#216=LINE('',#1362,#336);
#217=LINE('',#1364,#337);
#218=LINE('',#1366,#338);
#219=VECTOR('',#923,10.);
#220=VECTOR('',#924,10.);
#221=VECTOR('',#925,10.);
#222=VECTOR('',#926,10.);
#223=VECTOR('',#929,10.);
#224=VECTOR('',#930,10.);
#225=VECTOR('',#931,10.);
#226=VECTOR('',#932,10.);
#227=VECTOR('',#933,10.);
#228=VECTOR('',#934,10.);
#229=VECTOR('',#935,10.);
#230=VECTOR('',#936,10.);
#231=VECTOR('',#937,10.);
#232=VECTOR('',#938,10.);
#233=VECTOR('',#939,10.);
#234=VECTOR('',#942,10.);
#235=VECTOR('',#943,10.);
#236=VECTOR('',#944,10.);
#237=VECTOR('',#945,10.);
#238=VECTOR('',#946,10.);
#239=VECTOR('',#947,10.);
#240=VECTOR('',#948,10.);
#241=VECTOR('',#949,10.);
#242=VECTOR('',#950,10.);
#243=VECTOR('',#951,10.);
#244=VECTOR('',#954,10.);
#245=VECTOR('',#955,10.);
#246=VECTOR('',#956,10.);
#247=VECTOR('',#959,10.);
#248=VECTOR('',#960,10.);
#249=VECTOR('',#961,10.);
#250=VECTOR('',#962,10.);
#251=VECTOR('',#965,10.);
#252=VECTOR('',#966,10.);
#253=VECTOR('',#967,10.);
#254=VECTOR('',#970,10.);
#255=VECTOR('',#971,10.);
#256=VECTOR('',#972,10.);
#257=VECTOR('',#973,10.);
#258=VECTOR('',#974,10.);
#259=VECTOR('',#975,10.);
#260=VECTOR('',#976,10.);
#261=VECTOR('',#977,10.);
#262=VECTOR('',#980,10.);
#263=VECTOR('',#981,10.);
#264=VECTOR('',#982,10.);
#265=VECTOR('',#983,10.);
#266=VECTOR('',#984,10.);
#267=VECTOR('',#985,10.);
#268=VECTOR('',#986,10.);
#269=VECTOR('',#987,10.);
#270=VECTOR('',#990,10.);
#271=VECTOR('',#991,10.);
#272=VECTOR('',#992,10.);
#273=VECTOR('',#993,10.);
#274=VECTOR('',#994,10.);
#275=VECTOR('',#995,10.);
#276=VECTOR('',#996,10.);
#277=VECTOR('',#997,10.);
#278=VECTOR('',#1000,10.);
#279=VECTOR('',#1001,10.);
#280=VECTOR('',#1002,10.);
#281=VECTOR('',#1005,10.);
#282=VECTOR('',#1006,10.);
#283=VECTOR('',#1007,10.);
#284=VECTOR('',#1008,10.);
#285=VECTOR('',#1009,10.);
#286=VECTOR('',#1012,10.);
#287=VECTOR('',#1013,10.);
#288=VECTOR('',#1016,10.);
#289=VECTOR('',#1017,10.);
#290=VECTOR('',#1020,10.);
#291=VECTOR('',#1021,10.);
#292=VECTOR('',#1024,10.);
#293=VECTOR('',#1025,10.);
#294=VECTOR('',#1028,10.);
#295=VECTOR('',#1029,10.);
#296=VECTOR('',#1032,10.);
#297=VECTOR('',#1033,10.);
#298=VECTOR('',#1036,10.);
#299=VECTOR('',#1039,10.);
#300=VECTOR('',#1040,10.);
#301=VECTOR('',#1043,10.);
#302=VECTOR('',#1046,10.);
#303=VECTOR('',#1047,10.);
#304=VECTOR('',#1050,10.);
#305=VECTOR('',#1051,10.);
#306=VECTOR('',#1054,10.);
#307=VECTOR('',#1057,10.);
#308=VECTOR('',#1058,10.);
#309=VECTOR('',#1061,10.);
#310=VECTOR('',#1064,10.);
#311=VECTOR('',#1065,10.);
#312=VECTOR('',#1068,10.);
#313=VECTOR('',#1069,10.);
#314=VECTOR('',#1070,10.);
#315=VECTOR('',#1073,10.);
#316=VECTOR('',#1074,10.);
#317=VECTOR('',#1077,10.);
#318=VECTOR('',#1078,10.);
#319=VECTOR('',#1081,10.);
#320=VECTOR('',#1082,10.);
#321=VECTOR('',#1085,10.);
#322=VECTOR('',#1086,10.);
#323=VECTOR('',#1089,10.);
#324=VECTOR('',#1090,10.);
#325=VECTOR('',#1093,10.);
#326=VECTOR('',#1094,10.);
#327=VECTOR('',#1097,10.);
#328=VECTOR('',#1098,10.);
#329=VECTOR('',#1099,10.);
#330=VECTOR('',#1102,10.);
#331=VECTOR('',#1105,10.);
#332=VECTOR('',#1106,10.);
#333=VECTOR('',#1109,10.);
#334=VECTOR('',#1114,10.);
#335=VECTOR('',#1115,10.);
#336=VECTOR('',#1116,10.);
#337=VECTOR('',#1119,10.);
#338=VECTOR('',#1122,10.);
#339=VERTEX_POINT('',#1127);
#340=VERTEX_POINT('',#1128);
#341=VERTEX_POINT('',#1130);
#342=VERTEX_POINT('',#1132);
#343=VERTEX_POINT('',#1136);
#344=VERTEX_POINT('',#1138);
#345=VERTEX_POINT('',#1140);
#346=VERTEX_POINT('',#1142);
#347=VERTEX_POINT('',#1144);
#348=VERTEX_POINT('',#1146);
#349=VERTEX_POINT('',#1148);
#350=VERTEX_POINT('',#1150);
#351=VERTEX_POINT('',#1152);
#352=VERTEX_POINT('',#1154);
#353=VERTEX_POINT('',#1158);
#354=VERTEX_POINT('',#1160);
#355=VERTEX_POINT('',#1162);
#356=VERTEX_POINT('',#1164);
#357=VERTEX_POINT('',#1166);
#358=VERTEX_POINT('',#1168);
#359=VERTEX_POINT('',#1170);
#360=VERTEX_POINT('',#1172);
#361=VERTEX_POINT('',#1174);
#362=VERTEX_POINT('',#1178);
#363=VERTEX_POINT('',#1180);
#364=VERTEX_POINT('',#1184);
#365=VERTEX_POINT('',#1185);
#366=VERTEX_POINT('',#1187);
#367=VERTEX_POINT('',#1189);
#368=VERTEX_POINT('',#1193);
#369=VERTEX_POINT('',#1195);
#370=VERTEX_POINT('',#1199);
#371=VERTEX_POINT('',#1200);
#372=VERTEX_POINT('',#1202);
#373=VERTEX_POINT('',#1204);
#374=VERTEX_POINT('',#1206);
#375=VERTEX_POINT('',#1208);
#376=VERTEX_POINT('',#1210);
#377=VERTEX_POINT('',#1212);
#378=VERTEX_POINT('',#1216);
#379=VERTEX_POINT('',#1217);
#380=VERTEX_POINT('',#1219);
#381=VERTEX_POINT('',#1221);
#382=VERTEX_POINT('',#1223);
#383=VERTEX_POINT('',#1225);
#384=VERTEX_POINT('',#1227);
#385=VERTEX_POINT('',#1229);
#386=VERTEX_POINT('',#1233);
#387=VERTEX_POINT('',#1236);
#388=VERTEX_POINT('',#1238);
#389=VERTEX_POINT('',#1241);
#390=VERTEX_POINT('',#1243);
#391=VERTEX_POINT('',#1247);
#392=VERTEX_POINT('',#1249);
#393=VERTEX_POINT('',#1253);
#394=VERTEX_POINT('',#1256);
#395=VERTEX_POINT('',#1258);
#396=VERTEX_POINT('',#1262);
#397=VERTEX_POINT('',#1266);
#398=VERTEX_POINT('',#1270);
#399=VERTEX_POINT('',#1274);
#400=VERTEX_POINT('',#1278);
#401=VERTEX_POINT('',#1282);
#402=VERTEX_POINT('',#1288);
#403=VERTEX_POINT('',#1294);
#404=VERTEX_POINT('',#1298);
#405=VERTEX_POINT('',#1304);
#406=VERTEX_POINT('',#1310);
#407=VERTEX_POINT('',#1314);
#408=VERTEX_POINT('',#1316);
#409=VERTEX_POINT('',#1320);
#410=VERTEX_POINT('',#1324);
#411=VERTEX_POINT('',#1328);
#412=VERTEX_POINT('',#1332);
#413=VERTEX_POINT('',#1336);
#414=VERTEX_POINT('',#1340);
#415=VERTEX_POINT('',#1344);
#416=VERTEX_POINT('',#1351);
#417=VERTEX_POINT('',#1358);
#418=VERTEX_POINT('',#1360);
#419=EDGE_CURVE('',#339,#340,#99,.T.);
#420=EDGE_CURVE('',#341,#339,#100,.T.);
#421=EDGE_CURVE('',#342,#341,#101,.T.);
#422=EDGE_CURVE('',#340,#342,#102,.T.);
#423=EDGE_CURVE('',#343,#340,#103,.T.);
#424=EDGE_CURVE('',#344,#343,#104,.T.);
#425=EDGE_CURVE('',#345,#344,#105,.T.);
#426=EDGE_CURVE('',#346,#345,#106,.T.);
#427=EDGE_CURVE('',#346,#347,#107,.T.);
#428=EDGE_CURVE('',#347,#348,#108,.T.);
#429=EDGE_CURVE('',#349,#348,#109,.T.);
#430=EDGE_CURVE('',#350,#349,#110,.T.);
#431=EDGE_CURVE('',#350,#351,#111,.T.);
#432=EDGE_CURVE('',#351,#352,#112,.T.);
#433=EDGE_CURVE('',#339,#352,#113,.T.);
#434=EDGE_CURVE('',#342,#353,#114,.T.);
#435=EDGE_CURVE('',#353,#354,#115,.T.);
#436=EDGE_CURVE('',#354,#355,#116,.T.);
#437=EDGE_CURVE('',#355,#356,#117,.T.);
#438=EDGE_CURVE('',#356,#357,#118,.T.);
#439=EDGE_CURVE('',#357,#358,#119,.T.);
#440=EDGE_CURVE('',#358,#359,#120,.T.);
#441=EDGE_CURVE('',#359,#360,#121,.T.);
#442=EDGE_CURVE('',#360,#361,#122,.T.);
#443=EDGE_CURVE('',#361,#343,#123,.T.);
#444=EDGE_CURVE('',#362,#355,#124,.T.);
#445=EDGE_CURVE('',#363,#362,#125,.T.);
#446=EDGE_CURVE('',#356,#363,#126,.T.);
#447=EDGE_CURVE('',#364,#365,#127,.T.);
#448=EDGE_CURVE('',#366,#364,#128,.T.);
#449=EDGE_CURVE('',#366,#367,#129,.T.);
#450=EDGE_CURVE('',#365,#367,#130,.T.);
#451=EDGE_CURVE('',#364,#368,#131,.T.);
#452=EDGE_CURVE('',#368,#369,#132,.T.);
#453=EDGE_CURVE('',#366,#369,#133,.T.);
#454=EDGE_CURVE('',#370,#371,#134,.T.);
#455=EDGE_CURVE('',#372,#370,#135,.T.);
#456=EDGE_CURVE('',#373,#372,#136,.T.);
#457=EDGE_CURVE('',#374,#373,#137,.T.);
#458=EDGE_CURVE('',#374,#375,#138,.T.);
#459=EDGE_CURVE('',#376,#375,#139,.T.);
#460=EDGE_CURVE('',#376,#377,#140,.T.);
#461=EDGE_CURVE('',#377,#371,#141,.T.);
#462=EDGE_CURVE('',#378,#379,#142,.T.);
#463=EDGE_CURVE('',#380,#379,#143,.T.);
#464=EDGE_CURVE('',#381,#380,#144,.T.);
#465=EDGE_CURVE('',#382,#381,#145,.T.);
#466=EDGE_CURVE('',#383,#382,#146,.T.);
#467=EDGE_CURVE('',#384,#383,#147,.T.);
#468=EDGE_CURVE('',#385,#384,#148,.T.);
#469=EDGE_CURVE('',#378,#385,#149,.T.);
#470=EDGE_CURVE('',#386,#365,#150,.T.);
#471=EDGE_CURVE('',#351,#386,#151,.T.);
#472=EDGE_CURVE('',#350,#387,#152,.T.);
#473=EDGE_CURVE('',#388,#387,#153,.T.);
#474=EDGE_CURVE('',#347,#388,#154,.T.);
#475=EDGE_CURVE('',#346,#389,#155,.T.);
#476=EDGE_CURVE('',#390,#389,#156,.T.);
#477=EDGE_CURVE('',#390,#368,#157,.T.);
#478=EDGE_CURVE('',#391,#358,#158,.T.);
#479=EDGE_CURVE('',#392,#391,#159,.T.);
#480=EDGE_CURVE('',#392,#359,#160,.T.);
#481=EDGE_CURVE('',#393,#392,#161,.T.);
#482=EDGE_CURVE('',#371,#393,#162,.T.);
#483=EDGE_CURVE('',#377,#394,#163,.T.);
#484=EDGE_CURVE('',#395,#394,#164,.T.);
#485=EDGE_CURVE('',#395,#360,#165,.T.);
#486=EDGE_CURVE('',#396,#393,#166,.T.);
#487=EDGE_CURVE('',#370,#396,#167,.T.);
#488=EDGE_CURVE('',#397,#396,#168,.T.);
#489=EDGE_CURVE('',#372,#397,#169,.T.);
#490=EDGE_CURVE('',#398,#397,#170,.T.);
#491=EDGE_CURVE('',#373,#398,#171,.T.);
#492=EDGE_CURVE('',#399,#398,#172,.T.);
#493=EDGE_CURVE('',#374,#399,#173,.T.);
#494=EDGE_CURVE('',#400,#399,#174,.T.);
#495=EDGE_CURVE('',#375,#400,#175,.T.);
#496=EDGE_CURVE('',#401,#400,#176,.T.);
#497=EDGE_CURVE('',#376,#401,#177,.T.);
#498=EDGE_CURVE('',#394,#401,#178,.T.);
#499=EDGE_CURVE('',#402,#395,#179,.T.);
#500=EDGE_CURVE('',#402,#361,#180,.T.);
#501=EDGE_CURVE('',#344,#402,#181,.T.);
#502=EDGE_CURVE('',#403,#345,#182,.T.);
#503=EDGE_CURVE('',#389,#403,#183,.T.);
#504=EDGE_CURVE('',#404,#403,#184,.T.);
#505=EDGE_CURVE('',#390,#404,#185,.T.);
#506=EDGE_CURVE('',#369,#404,#186,.T.);
#507=EDGE_CURVE('',#405,#367,#187,.T.);
#508=EDGE_CURVE('',#386,#405,#188,.T.);
#509=EDGE_CURVE('',#352,#405,#189,.T.);
#510=EDGE_CURVE('',#406,#341,#190,.T.);
#511=EDGE_CURVE('',#406,#353,#191,.T.);
#512=EDGE_CURVE('',#380,#407,#192,.T.);
#513=EDGE_CURVE('',#408,#407,#193,.T.);
#514=EDGE_CURVE('',#381,#408,#194,.T.);
#515=EDGE_CURVE('',#409,#408,#195,.T.);
#516=EDGE_CURVE('',#382,#409,#196,.T.);
#517=EDGE_CURVE('',#410,#409,#197,.T.);
#518=EDGE_CURVE('',#383,#410,#198,.T.);
#519=EDGE_CURVE('',#411,#410,#199,.T.);
#520=EDGE_CURVE('',#384,#411,#200,.T.);
#521=EDGE_CURVE('',#412,#411,#201,.T.);
#522=EDGE_CURVE('',#385,#412,#202,.T.);
#523=EDGE_CURVE('',#413,#412,#203,.T.);
#524=EDGE_CURVE('',#378,#413,#204,.T.);
#525=EDGE_CURVE('',#414,#413,#205,.T.);
#526=EDGE_CURVE('',#379,#414,#206,.T.);
#527=EDGE_CURVE('',#415,#414,#207,.T.);
#528=EDGE_CURVE('',#415,#354,#208,.T.);
#529=EDGE_CURVE('',#407,#406,#209,.T.);
#530=EDGE_CURVE('',#362,#415,#210,.T.);
#531=EDGE_CURVE('',#416,#363,#211,.T.);
#532=EDGE_CURVE('',#357,#416,#212,.T.);
#533=EDGE_CURVE('',#391,#416,#213,.T.);
#534=EDGE_CURVE('',#387,#417,#214,.T.);
#535=EDGE_CURVE('',#418,#417,#215,.T.);
#536=EDGE_CURVE('',#388,#418,#216,.T.);
#537=EDGE_CURVE('',#348,#418,#217,.T.);
#538=EDGE_CURVE('',#417,#349,#218,.T.);
#539=ORIENTED_EDGE('',*,*,#419,.F.);
#540=ORIENTED_EDGE('',*,*,#420,.F.);
#541=ORIENTED_EDGE('',*,*,#421,.F.);
#542=ORIENTED_EDGE('',*,*,#422,.F.);
#543=ORIENTED_EDGE('',*,*,#419,.T.);
#544=ORIENTED_EDGE('',*,*,#423,.F.);
#545=ORIENTED_EDGE('',*,*,#424,.F.);
#546=ORIENTED_EDGE('',*,*,#425,.F.);
#547=ORIENTED_EDGE('',*,*,#426,.F.);
#548=ORIENTED_EDGE('',*,*,#427,.T.);
#549=ORIENTED_EDGE('',*,*,#428,.T.);
#550=ORIENTED_EDGE('',*,*,#429,.F.);
#551=ORIENTED_EDGE('',*,*,#430,.F.);
#552=ORIENTED_EDGE('',*,*,#431,.T.);
#553=ORIENTED_EDGE('',*,*,#432,.T.);
#554=ORIENTED_EDGE('',*,*,#433,.F.);
#555=ORIENTED_EDGE('',*,*,#422,.T.);
#556=ORIENTED_EDGE('',*,*,#434,.T.);
#557=ORIENTED_EDGE('',*,*,#435,.T.);
#558=ORIENTED_EDGE('',*,*,#436,.T.);
#559=ORIENTED_EDGE('',*,*,#437,.T.);
#560=ORIENTED_EDGE('',*,*,#438,.T.);
#561=ORIENTED_EDGE('',*,*,#439,.T.);
#562=ORIENTED_EDGE('',*,*,#440,.T.);
#563=ORIENTED_EDGE('',*,*,#441,.T.);
#564=ORIENTED_EDGE('',*,*,#442,.T.);
#565=ORIENTED_EDGE('',*,*,#443,.T.);
#566=ORIENTED_EDGE('',*,*,#423,.T.);
#567=ORIENTED_EDGE('',*,*,#444,.F.);
#568=ORIENTED_EDGE('',*,*,#445,.F.);
#569=ORIENTED_EDGE('',*,*,#446,.F.);
#570=ORIENTED_EDGE('',*,*,#437,.F.);
#571=ORIENTED_EDGE('',*,*,#447,.F.);
#572=ORIENTED_EDGE('',*,*,#448,.F.);
#573=ORIENTED_EDGE('',*,*,#449,.T.);
#574=ORIENTED_EDGE('',*,*,#450,.F.);
#575=ORIENTED_EDGE('',*,*,#448,.T.);
#576=ORIENTED_EDGE('',*,*,#451,.T.);
#577=ORIENTED_EDGE('',*,*,#452,.T.);
#578=ORIENTED_EDGE('',*,*,#453,.F.);
#579=ORIENTED_EDGE('',*,*,#454,.F.);
#580=ORIENTED_EDGE('',*,*,#455,.F.);
#581=ORIENTED_EDGE('',*,*,#456,.F.);
#582=ORIENTED_EDGE('',*,*,#457,.F.);
#583=ORIENTED_EDGE('',*,*,#458,.T.);
#584=ORIENTED_EDGE('',*,*,#459,.F.);
#585=ORIENTED_EDGE('',*,*,#460,.T.);
#586=ORIENTED_EDGE('',*,*,#461,.T.);
#587=ORIENTED_EDGE('',*,*,#462,.T.);
#588=ORIENTED_EDGE('',*,*,#463,.F.);
#589=ORIENTED_EDGE('',*,*,#464,.F.);
#590=ORIENTED_EDGE('',*,*,#465,.F.);
#591=ORIENTED_EDGE('',*,*,#466,.F.);
#592=ORIENTED_EDGE('',*,*,#467,.F.);
#593=ORIENTED_EDGE('',*,*,#468,.F.);
#594=ORIENTED_EDGE('',*,*,#469,.F.);
#595=ORIENTED_EDGE('',*,*,#447,.T.);
#596=ORIENTED_EDGE('',*,*,#470,.F.);
#597=ORIENTED_EDGE('',*,*,#471,.F.);
#598=ORIENTED_EDGE('',*,*,#431,.F.);
#599=ORIENTED_EDGE('',*,*,#472,.T.);
#600=ORIENTED_EDGE('',*,*,#473,.F.);
#601=ORIENTED_EDGE('',*,*,#474,.F.);
#602=ORIENTED_EDGE('',*,*,#427,.F.);
#603=ORIENTED_EDGE('',*,*,#475,.T.);
#604=ORIENTED_EDGE('',*,*,#476,.F.);
#605=ORIENTED_EDGE('',*,*,#477,.T.);
#606=ORIENTED_EDGE('',*,*,#451,.F.);
#607=ORIENTED_EDGE('',*,*,#478,.F.);
#608=ORIENTED_EDGE('',*,*,#479,.F.);
#609=ORIENTED_EDGE('',*,*,#480,.T.);
#610=ORIENTED_EDGE('',*,*,#440,.F.);
#611=ORIENTED_EDGE('',*,*,#480,.F.);
#612=ORIENTED_EDGE('',*,*,#481,.F.);
#613=ORIENTED_EDGE('',*,*,#482,.F.);
#614=ORIENTED_EDGE('',*,*,#461,.F.);
#615=ORIENTED_EDGE('',*,*,#483,.T.);
#616=ORIENTED_EDGE('',*,*,#484,.F.);
#617=ORIENTED_EDGE('',*,*,#485,.T.);
#618=ORIENTED_EDGE('',*,*,#441,.F.);
#619=ORIENTED_EDGE('',*,*,#454,.T.);
#620=ORIENTED_EDGE('',*,*,#482,.T.);
#621=ORIENTED_EDGE('',*,*,#486,.F.);
#622=ORIENTED_EDGE('',*,*,#487,.F.);
#623=ORIENTED_EDGE('',*,*,#455,.T.);
#624=ORIENTED_EDGE('',*,*,#487,.T.);
#625=ORIENTED_EDGE('',*,*,#488,.F.);
#626=ORIENTED_EDGE('',*,*,#489,.F.);
#627=ORIENTED_EDGE('',*,*,#456,.T.);
#628=ORIENTED_EDGE('',*,*,#489,.T.);
#629=ORIENTED_EDGE('',*,*,#490,.F.);
#630=ORIENTED_EDGE('',*,*,#491,.F.);
#631=ORIENTED_EDGE('',*,*,#457,.T.);
#632=ORIENTED_EDGE('',*,*,#491,.T.);
#633=ORIENTED_EDGE('',*,*,#492,.F.);
#634=ORIENTED_EDGE('',*,*,#493,.F.);
#635=ORIENTED_EDGE('',*,*,#458,.F.);
#636=ORIENTED_EDGE('',*,*,#493,.T.);
#637=ORIENTED_EDGE('',*,*,#494,.F.);
#638=ORIENTED_EDGE('',*,*,#495,.F.);
#639=ORIENTED_EDGE('',*,*,#459,.T.);
#640=ORIENTED_EDGE('',*,*,#495,.T.);
#641=ORIENTED_EDGE('',*,*,#496,.F.);
#642=ORIENTED_EDGE('',*,*,#497,.F.);
#643=ORIENTED_EDGE('',*,*,#460,.F.);
#644=ORIENTED_EDGE('',*,*,#497,.T.);
#645=ORIENTED_EDGE('',*,*,#498,.F.);
#646=ORIENTED_EDGE('',*,*,#483,.F.);
#647=ORIENTED_EDGE('',*,*,#485,.F.);
#648=ORIENTED_EDGE('',*,*,#499,.F.);
#649=ORIENTED_EDGE('',*,*,#500,.T.);
#650=ORIENTED_EDGE('',*,*,#442,.F.);
#651=ORIENTED_EDGE('',*,*,#500,.F.);
#652=ORIENTED_EDGE('',*,*,#501,.F.);
#653=ORIENTED_EDGE('',*,*,#424,.T.);
#654=ORIENTED_EDGE('',*,*,#443,.F.);
#655=ORIENTED_EDGE('',*,*,#475,.F.);
#656=ORIENTED_EDGE('',*,*,#426,.T.);
#657=ORIENTED_EDGE('',*,*,#502,.F.);
#658=ORIENTED_EDGE('',*,*,#503,.F.);
#659=ORIENTED_EDGE('',*,*,#476,.T.);
#660=ORIENTED_EDGE('',*,*,#503,.T.);
#661=ORIENTED_EDGE('',*,*,#504,.F.);
#662=ORIENTED_EDGE('',*,*,#505,.F.);
#663=ORIENTED_EDGE('',*,*,#477,.F.);
#664=ORIENTED_EDGE('',*,*,#505,.T.);
#665=ORIENTED_EDGE('',*,*,#506,.F.);
#666=ORIENTED_EDGE('',*,*,#452,.F.);
#667=ORIENTED_EDGE('',*,*,#450,.T.);
#668=ORIENTED_EDGE('',*,*,#507,.F.);
#669=ORIENTED_EDGE('',*,*,#508,.F.);
#670=ORIENTED_EDGE('',*,*,#470,.T.);
#671=ORIENTED_EDGE('',*,*,#471,.T.);
#672=ORIENTED_EDGE('',*,*,#508,.T.);
#673=ORIENTED_EDGE('',*,*,#509,.F.);
#674=ORIENTED_EDGE('',*,*,#432,.F.);
#675=ORIENTED_EDGE('',*,*,#510,.F.);
#676=ORIENTED_EDGE('',*,*,#511,.T.);
#677=ORIENTED_EDGE('',*,*,#434,.F.);
#678=ORIENTED_EDGE('',*,*,#421,.T.);
#679=ORIENTED_EDGE('',*,*,#464,.T.);
#680=ORIENTED_EDGE('',*,*,#512,.T.);
#681=ORIENTED_EDGE('',*,*,#513,.F.);
#682=ORIENTED_EDGE('',*,*,#514,.F.);
#683=ORIENTED_EDGE('',*,*,#465,.T.);
#684=ORIENTED_EDGE('',*,*,#514,.T.);
#685=ORIENTED_EDGE('',*,*,#515,.F.);
#686=ORIENTED_EDGE('',*,*,#516,.F.);
#687=ORIENTED_EDGE('',*,*,#466,.T.);
#688=ORIENTED_EDGE('',*,*,#516,.T.);
#689=ORIENTED_EDGE('',*,*,#517,.F.);
#690=ORIENTED_EDGE('',*,*,#518,.F.);
#691=ORIENTED_EDGE('',*,*,#467,.T.);
#692=ORIENTED_EDGE('',*,*,#518,.T.);
#693=ORIENTED_EDGE('',*,*,#519,.F.);
#694=ORIENTED_EDGE('',*,*,#520,.F.);
#695=ORIENTED_EDGE('',*,*,#468,.T.);
#696=ORIENTED_EDGE('',*,*,#520,.T.);
#697=ORIENTED_EDGE('',*,*,#521,.F.);
#698=ORIENTED_EDGE('',*,*,#522,.F.);
#699=ORIENTED_EDGE('',*,*,#469,.T.);
#700=ORIENTED_EDGE('',*,*,#522,.T.);
#701=ORIENTED_EDGE('',*,*,#523,.F.);
#702=ORIENTED_EDGE('',*,*,#524,.F.);
#703=ORIENTED_EDGE('',*,*,#462,.F.);
#704=ORIENTED_EDGE('',*,*,#524,.T.);
#705=ORIENTED_EDGE('',*,*,#525,.F.);
#706=ORIENTED_EDGE('',*,*,#526,.F.);
#707=ORIENTED_EDGE('',*,*,#526,.T.);
#708=ORIENTED_EDGE('',*,*,#527,.F.);
#709=ORIENTED_EDGE('',*,*,#528,.T.);
#710=ORIENTED_EDGE('',*,*,#435,.F.);
#711=ORIENTED_EDGE('',*,*,#511,.F.);
#712=ORIENTED_EDGE('',*,*,#529,.F.);
#713=ORIENTED_EDGE('',*,*,#512,.F.);
#714=ORIENTED_EDGE('',*,*,#463,.T.);
#715=ORIENTED_EDGE('',*,*,#528,.F.);
#716=ORIENTED_EDGE('',*,*,#530,.F.);
#717=ORIENTED_EDGE('',*,*,#444,.T.);
#718=ORIENTED_EDGE('',*,*,#436,.F.);
#719=ORIENTED_EDGE('',*,*,#446,.T.);
#720=ORIENTED_EDGE('',*,*,#531,.F.);
#721=ORIENTED_EDGE('',*,*,#532,.F.);
#722=ORIENTED_EDGE('',*,*,#438,.F.);
#723=ORIENTED_EDGE('',*,*,#532,.T.);
#724=ORIENTED_EDGE('',*,*,#533,.F.);
#725=ORIENTED_EDGE('',*,*,#478,.T.);
#726=ORIENTED_EDGE('',*,*,#439,.F.);
#727=ORIENTED_EDGE('',*,*,#420,.T.);
#728=ORIENTED_EDGE('',*,*,#433,.T.);
#729=ORIENTED_EDGE('',*,*,#509,.T.);
#730=ORIENTED_EDGE('',*,*,#507,.T.);
#731=ORIENTED_EDGE('',*,*,#449,.F.);
#732=ORIENTED_EDGE('',*,*,#453,.T.);
#733=ORIENTED_EDGE('',*,*,#506,.T.);
#734=ORIENTED_EDGE('',*,*,#504,.T.);
#735=ORIENTED_EDGE('',*,*,#502,.T.);
#736=ORIENTED_EDGE('',*,*,#425,.T.);
#737=ORIENTED_EDGE('',*,*,#501,.T.);
#738=ORIENTED_EDGE('',*,*,#499,.T.);
#739=ORIENTED_EDGE('',*,*,#484,.T.);
#740=ORIENTED_EDGE('',*,*,#498,.T.);
#741=ORIENTED_EDGE('',*,*,#496,.T.);
#742=ORIENTED_EDGE('',*,*,#494,.T.);
#743=ORIENTED_EDGE('',*,*,#492,.T.);
#744=ORIENTED_EDGE('',*,*,#490,.T.);
#745=ORIENTED_EDGE('',*,*,#488,.T.);
#746=ORIENTED_EDGE('',*,*,#486,.T.);
#747=ORIENTED_EDGE('',*,*,#481,.T.);
#748=ORIENTED_EDGE('',*,*,#479,.T.);
#749=ORIENTED_EDGE('',*,*,#533,.T.);
#750=ORIENTED_EDGE('',*,*,#531,.T.);
#751=ORIENTED_EDGE('',*,*,#445,.T.);
#752=ORIENTED_EDGE('',*,*,#530,.T.);
#753=ORIENTED_EDGE('',*,*,#527,.T.);
#754=ORIENTED_EDGE('',*,*,#525,.T.);
#755=ORIENTED_EDGE('',*,*,#523,.T.);
#756=ORIENTED_EDGE('',*,*,#521,.T.);
#757=ORIENTED_EDGE('',*,*,#519,.T.);
#758=ORIENTED_EDGE('',*,*,#517,.T.);
#759=ORIENTED_EDGE('',*,*,#515,.T.);
#760=ORIENTED_EDGE('',*,*,#513,.T.);
#761=ORIENTED_EDGE('',*,*,#529,.T.);
#762=ORIENTED_EDGE('',*,*,#510,.T.);
#763=ORIENTED_EDGE('',*,*,#473,.T.);
#764=ORIENTED_EDGE('',*,*,#534,.T.);
#765=ORIENTED_EDGE('',*,*,#535,.F.);
#766=ORIENTED_EDGE('',*,*,#536,.F.);
#767=ORIENTED_EDGE('',*,*,#474,.T.);
#768=ORIENTED_EDGE('',*,*,#536,.T.);
#769=ORIENTED_EDGE('',*,*,#537,.F.);
#770=ORIENTED_EDGE('',*,*,#428,.F.);
#771=ORIENTED_EDGE('',*,*,#472,.F.);
#772=ORIENTED_EDGE('',*,*,#430,.T.);
#773=ORIENTED_EDGE('',*,*,#538,.F.);
#774=ORIENTED_EDGE('',*,*,#534,.F.);
#775=ORIENTED_EDGE('',*,*,#538,.T.);
#776=ORIENTED_EDGE('',*,*,#429,.T.);
#777=ORIENTED_EDGE('',*,*,#537,.T.);
#778=ORIENTED_EDGE('',*,*,#535,.T.);
#779=PLANE('',#877);
#780=PLANE('',#878);
#781=PLANE('',#879);
#782=PLANE('',#880);
#783=PLANE('',#881);
#784=PLANE('',#882);
#785=PLANE('',#883);
#786=PLANE('',#884);
#787=PLANE('',#885);
#788=PLANE('',#886);
#789=PLANE('',#887);
#790=PLANE('',#888);
#791=PLANE('',#889);
#792=PLANE('',#890);
#793=PLANE('',#891);
#794=PLANE('',#892);
#795=PLANE('',#893);
#796=PLANE('',#894);
#797=PLANE('',#895);
#798=PLANE('',#896);
#799=PLANE('',#897);
#800=PLANE('',#898);
#801=PLANE('',#899);
#802=PLANE('',#900);
#803=PLANE('',#901);
#804=PLANE('',#902);
#805=PLANE('',#903);
#806=PLANE('',#904);
#807=PLANE('',#905);
#808=PLANE('',#906);
#809=PLANE('',#907);
#810=PLANE('',#908);
#811=PLANE('',#909);
#812=PLANE('',#910);
#813=PLANE('',#911);
#814=PLANE('',#912);
#815=PLANE('',#913);
#816=PLANE('',#914);
#817=PLANE('',#915);
#818=PLANE('',#916);
#819=PLANE('',#917);
#820=PLANE('',#918);
#821=ADVANCED_FACE('',(#15),#779,.F.);
#822=ADVANCED_FACE('',(#16),#780,.T.);
#823=ADVANCED_FACE('',(#17),#781,.T.);
#824=ADVANCED_FACE('',(#18),#782,.F.);
#825=ADVANCED_FACE('',(#19),#783,.T.);
#826=ADVANCED_FACE('',(#20),#784,.T.);
#827=ADVANCED_FACE('',(#21),#785,.F.);
#828=ADVANCED_FACE('',(#22),#786,.F.);
#829=ADVANCED_FACE('',(#23),#787,.F.);
#830=ADVANCED_FACE('',(#24),#788,.T.);
#831=ADVANCED_FACE('',(#25),#789,.T.);
#832=ADVANCED_FACE('',(#26),#790,.T.);
#833=ADVANCED_FACE('',(#27),#791,.T.);
#834=ADVANCED_FACE('',(#28),#792,.T.);
#835=ADVANCED_FACE('',(#29),#793,.T.);
#836=ADVANCED_FACE('',(#30),#794,.T.);
#837=ADVANCED_FACE('',(#31),#795,.T.);
#838=ADVANCED_FACE('',(#32),#796,.T.);
#839=ADVANCED_FACE('',(#33),#797,.T.);
#840=ADVANCED_FACE('',(#34),#798,.T.);
#841=ADVANCED_FACE('',(#35),#799,.T.);
#842=ADVANCED_FACE('',(#36),#800,.T.);
#843=ADVANCED_FACE('',(#37),#801,.T.);
#844=ADVANCED_FACE('',(#38),#802,.T.);
#845=ADVANCED_FACE('',(#39),#803,.T.);
#846=ADVANCED_FACE('',(#40),#804,.T.);
#847=ADVANCED_FACE('',(#41),#805,.T.);
#848=ADVANCED_FACE('',(#42),#806,.T.);
#849=ADVANCED_FACE('',(#43),#807,.T.);
#850=ADVANCED_FACE('',(#44),#808,.T.);
#851=ADVANCED_FACE('',(#45),#809,.T.);
#852=ADVANCED_FACE('',(#46),#810,.T.);
#853=ADVANCED_FACE('',(#47),#811,.T.);
#854=ADVANCED_FACE('',(#48),#812,.T.);
#855=ADVANCED_FACE('',(#49),#813,.T.);
#856=ADVANCED_FACE('',(#50),#814,.T.);
#857=ADVANCED_FACE('',(#51),#815,.T.);
#858=ADVANCED_FACE('',(#52),#816,.T.);
#859=ADVANCED_FACE('',(#53),#817,.T.);
#860=ADVANCED_FACE('',(#54),#818,.T.);
#861=ADVANCED_FACE('',(#55),#819,.T.);
#862=ADVANCED_FACE('',(#56),#820,.T.);
#863=CLOSED_SHELL('',(#821,#822,#823,#824,#825,#826,#827,#828,#829,#830,
#831,#832,#833,#834,#835,#836,#837,#838,#839,#840,#841,#842,#843,#844,#845,
#846,#847,#848,#849,#850,#851,#852,#853,#854,#855,#856,#857,#858,#859,#860,
#861,#862));
#864=DERIVED_UNIT_ELEMENT(#866,1.);
#865=DERIVED_UNIT_ELEMENT(#1373,-3.);
#866=(
MASS_UNIT()
NAMED_UNIT(*)
SI_UNIT(.KILO.,.GRAM.)
);
#867=DERIVED_UNIT((#864,#865));
#868=MEASURE_REPRESENTATION_ITEM('density measure',
POSITIVE_RATIO_MEASURE(7850.),#867);
#869=PROPERTY_DEFINITION_REPRESENTATION(#874,#871);
#870=PROPERTY_DEFINITION_REPRESENTATION(#875,#872);
#871=REPRESENTATION('material name',(#873),#1370);
#872=REPRESENTATION('density',(#868),#1370);
#873=DESCRIPTIVE_REPRESENTATION_ITEM('Steel','Steel');
#874=PROPERTY_DEFINITION('material property','material name',#1380);
#875=PROPERTY_DEFINITION('material property','density of part',#1380);
#876=AXIS2_PLACEMENT_3D('',#1125,#919,#920);
#877=AXIS2_PLACEMENT_3D('',#1126,#921,#922);
#878=AXIS2_PLACEMENT_3D('',#1135,#927,#928);
#879=AXIS2_PLACEMENT_3D('',#1157,#940,#941);
#880=AXIS2_PLACEMENT_3D('',#1177,#952,#953);
#881=AXIS2_PLACEMENT_3D('',#1183,#957,#958);
#882=AXIS2_PLACEMENT_3D('',#1192,#963,#964);
#883=AXIS2_PLACEMENT_3D('',#1198,#968,#969);
#884=AXIS2_PLACEMENT_3D('',#1215,#978,#979);
#885=AXIS2_PLACEMENT_3D('',#1232,#988,#989);
#886=AXIS2_PLACEMENT_3D('',#1246,#998,#999);
#887=AXIS2_PLACEMENT_3D('',#1252,#1003,#1004);
#888=AXIS2_PLACEMENT_3D('',#1261,#1010,#1011);
#889=AXIS2_PLACEMENT_3D('',#1265,#1014,#1015);
#890=AXIS2_PLACEMENT_3D('',#1269,#1018,#1019);
#891=AXIS2_PLACEMENT_3D('',#1273,#1022,#1023);
#892=AXIS2_PLACEMENT_3D('',#1277,#1026,#1027);
#893=AXIS2_PLACEMENT_3D('',#1281,#1030,#1031);
#894=AXIS2_PLACEMENT_3D('',#1285,#1034,#1035);
#895=AXIS2_PLACEMENT_3D('',#1287,#1037,#1038);
#896=AXIS2_PLACEMENT_3D('',#1291,#1041,#1042);
#897=AXIS2_PLACEMENT_3D('',#1293,#1044,#1045);
#898=AXIS2_PLACEMENT_3D('',#1297,#1048,#1049);
#899=AXIS2_PLACEMENT_3D('',#1301,#1052,#1053);
#900=AXIS2_PLACEMENT_3D('',#1303,#1055,#1056);
#901=AXIS2_PLACEMENT_3D('',#1307,#1059,#1060);
#902=AXIS2_PLACEMENT_3D('',#1309,#1062,#1063);
#903=AXIS2_PLACEMENT_3D('',#1313,#1066,#1067);
#904=AXIS2_PLACEMENT_3D('',#1319,#1071,#1072);
#905=AXIS2_PLACEMENT_3D('',#1323,#1075,#1076);
#906=AXIS2_PLACEMENT_3D('',#1327,#1079,#1080);
#907=AXIS2_PLACEMENT_3D('',#1331,#1083,#1084);
#908=AXIS2_PLACEMENT_3D('',#1335,#1087,#1088);
#909=AXIS2_PLACEMENT_3D('',#1339,#1091,#1092);
#910=AXIS2_PLACEMENT_3D('',#1343,#1095,#1096);
#911=AXIS2_PLACEMENT_3D('',#1348,#1100,#1101);
#912=AXIS2_PLACEMENT_3D('',#1350,#1103,#1104);
#913=AXIS2_PLACEMENT_3D('',#1354,#1107,#1108);
#914=AXIS2_PLACEMENT_3D('',#1356,#1110,#1111);
#915=AXIS2_PLACEMENT_3D('',#1357,#1112,#1113);
#916=AXIS2_PLACEMENT_3D('',#1363,#1117,#1118);
#917=AXIS2_PLACEMENT_3D('',#1365,#1120,#1121);
#918=AXIS2_PLACEMENT_3D('',#1367,#1123,#1124);
#919=DIRECTION('axis',(0.,0.,1.));
#920=DIRECTION('refdir',(1.,0.,0.));
#921=DIRECTION('center_axis',(-1.,-2.22044604925031E-16,0.));
#922=DIRECTION('ref_axis',(0.,0.,1.));
#923=DIRECTION('',(0.,0.,-1.));
#924=DIRECTION('',(-2.22044604925031E-16,1.,0.));
#925=DIRECTION('',(0.,0.,1.));
#926=DIRECTION('',(2.22044604925031E-16,-1.,0.));
#927=DIRECTION('center_axis',(-2.22044604925031E-16,1.,0.));
#928=DIRECTION('ref_axis',(-1.,-2.22044604925031E-16,-4.09394740330526E-16));
#929=DIRECTION('',(1.,2.22044604925031E-16,0.));
#930=DIRECTION('',(0.,0.,-1.));
#931=DIRECTION('',(-1.,-2.22044604925031E-16,-4.09394740330526E-16));
#932=DIRECTION('',(0.,0.,1.));
#933=DIRECTION('',(1.,2.22044604925031E-16,0.));
#934=DIRECTION('',(0.,0.,1.));
#935=DIRECTION('',(-1.,-2.22044604925031E-16,-4.09394740330526E-16));
#936=DIRECTION('',(0.,0.,1.));
#937=DIRECTION('',(1.,2.22044604925031E-16,0.));
#938=DIRECTION('',(0.,0.,1.));
#939=DIRECTION('',(-1.,-2.22044604925031E-16,-4.09394740330526E-16));
#940=DIRECTION('center_axis',(0.,0.,-1.));
#941=DIRECTION('ref_axis',(2.22044604925031E-16,-1.,0.));
#942=DIRECTION('',(1.,2.22044604925031E-16,0.));
#943=DIRECTION('',(2.22044604925031E-16,-1.,0.));
#944=DIRECTION('',(-1.,-2.22044604925031E-16,0.));
#945=DIRECTION('',(2.22044604925031E-16,-1.,0.));
#946=DIRECTION('',(-1.,-2.22044604925031E-16,0.));
#947=DIRECTION('',(-2.22044604925031E-16,1.,0.));
#948=DIRECTION('',(-1.,-2.22044604925031E-16,0.));
#949=DIRECTION('',(-2.22044604925031E-16,1.,0.));
#950=DIRECTION('',(1.,2.22044604925031E-16,0.));
#951=DIRECTION('',(-2.22044604925031E-16,1.,0.));
#952=DIRECTION('center_axis',(-1.,-2.22044604925031E-16,0.));
#953=DIRECTION('ref_axis',(0.,0.,1.));
#954=DIRECTION('',(0.,0.,-1.));
#955=DIRECTION('',(-2.22044604925031E-16,1.,0.));
#956=DIRECTION('',(0.,0.,1.));
#957=DIRECTION('center_axis',(-1.,-2.22044604925031E-16,0.));
#958=DIRECTION('ref_axis',(0.,0.,1.));
#959=DIRECTION('',(-2.22044604925031E-16,1.,0.));
#960=DIRECTION('',(0.,0.,-1.));
#961=DIRECTION('',(-2.22044604925031E-16,1.,-8.32667268468866E-17));
#962=DIRECTION('',(0.,0.,1.));
#963=DIRECTION('center_axis',(-2.22044604925031E-16,1.,0.));
#964=DIRECTION('ref_axis',(-1.,-2.22044604925031E-16,-4.09394740330526E-16));
#965=DIRECTION('',(-1.,-2.22044604925031E-16,-4.09394740330526E-16));
#966=DIRECTION('',(0.,0.,1.));
#967=DIRECTION('',(-1.,-2.22044604925031E-16,-4.09394740330526E-16));
#968=DIRECTION('center_axis',(0.,0.,-1.));
#969=DIRECTION('ref_axis',(-2.22044604925031E-16,1.,0.));
#970=DIRECTION('',(-1.,-2.22044604925031E-16,-4.09394740330526E-16));
#971=DIRECTION('',(-2.22044604925031E-16,1.,-8.32667268468866E-17));
#972=DIRECTION('',(-1.,-2.22044604925031E-16,-4.09394740330526E-16));
#973=DIRECTION('',(2.22044604925031E-16,-1.,8.32667268468866E-17));
#974=DIRECTION('',(-1.,-2.22044604925031E-16,-4.09394740330526E-16));
#975=DIRECTION('',(-2.22044604925031E-16,1.,-8.32667268468866E-17));
#976=DIRECTION('',(-1.,-2.22044604925031E-16,-4.09394740330526E-16));
#977=DIRECTION('',(2.22044604925031E-16,-1.,0.));
#978=DIRECTION('center_axis',(0.,0.,-1.));
#979=DIRECTION('ref_axis',(-2.22044604925031E-16,1.,0.));
#980=DIRECTION('',(1.,2.22044604925031E-16,4.09394740330526E-16));
#981=DIRECTION('',(2.22044604925031E-16,-1.,0.));
#982=DIRECTION('',(1.,2.22044604925031E-16,4.09394740330526E-16));
#983=DIRECTION('',(2.22044604925031E-16,-1.,8.32667268468866E-17));
#984=DIRECTION('',(1.,2.22044604925031E-16,4.09394740330526E-16));
#985=DIRECTION('',(-2.22044604925031E-16,1.,-8.32667268468866E-17));
#986=DIRECTION('',(-1.,-2.22044604925031E-16,-4.09394740330526E-16));
#987=DIRECTION('',(2.22044604925031E-16,-1.,8.32667268468866E-17));
#988=DIRECTION('center_axis',(0.,0.,-1.));
#989=DIRECTION('ref_axis',(-2.22044604925031E-16,1.,0.));
#990=DIRECTION('',(1.,2.22044604925031E-16,4.09394740330526E-16));
#991=DIRECTION('',(2.22044604925031E-16,-1.,8.32667268468866E-17));
#992=DIRECTION('',(2.22044604925031E-16,-1.,8.32667268468866E-17));
#993=DIRECTION('',(1.,2.22044604925031E-16,4.09394740330526E-16));
#994=DIRECTION('',(2.22044604925031E-16,-1.,8.32667268468866E-17));
#995=DIRECTION('',(2.22044604925031E-16,-1.,8.32667268468866E-17));
#996=DIRECTION('',(1.,2.22044604925031E-16,4.09394740330526E-16));
#997=DIRECTION('',(2.22044604925031E-16,-1.,8.32667268468866E-17));
#998=DIRECTION('center_axis',(2.22044604925031E-16,-1.,0.));
#999=DIRECTION('ref_axis',(1.,2.22044604925031E-16,4.09394740330526E-16));
#1000=DIRECTION('',(0.,0.,-1.));
#1001=DIRECTION('',(1.,2.22044604925031E-16,4.09394740330526E-16));
#1002=DIRECTION('',(0.,0.,-1.));
#1003=DIRECTION('center_axis',(-1.,-2.22044604925031E-16,0.));
#1004=DIRECTION('ref_axis',(2.22044604925031E-16,-1.,8.32667268468866E-17));
#1005=DIRECTION('',(2.22044604925031E-16,-1.,8.32667268468866E-17));
#1006=DIRECTION('',(0.,0.,1.));
#1007=DIRECTION('',(0.,0.,1.));
#1008=DIRECTION('',(2.22044604925031E-16,-1.,8.32667268468866E-17));
#1009=DIRECTION('',(0.,0.,-1.));
#1010=DIRECTION('center_axis',(-2.22044604925031E-16,1.,0.));
#1011=DIRECTION('ref_axis',(-1.,-2.22044604925031E-16,-4.09394740330526E-16));
#1012=DIRECTION('',(-1.,-2.22044604925031E-16,-4.09394740330526E-16));
#1013=DIRECTION('',(0.,0.,1.));
#1014=DIRECTION('center_axis',(1.,2.22044604925031E-16,0.));
#1015=DIRECTION('ref_axis',(-2.22044604925031E-16,1.,-8.32667268468866E-17));
#1016=DIRECTION('',(-2.22044604925031E-16,1.,-8.32667268468866E-17));
#1017=DIRECTION('',(0.,0.,1.));
#1018=DIRECTION('center_axis',(-2.22044604925031E-16,1.,0.));
#1019=DIRECTION('ref_axis',(-1.,-2.22044604925031E-16,-4.09394740330526E-16));
#1020=DIRECTION('',(-1.,-2.22044604925031E-16,-4.09394740330526E-16));
#1021=DIRECTION('',(0.,0.,1.));
#1022=DIRECTION('center_axis',(-1.,-2.22044604925031E-16,0.));
#1023=DIRECTION('ref_axis',(2.22044604925031E-16,-1.,8.32667268468866E-17));
#1024=DIRECTION('',(2.22044604925031E-16,-1.,8.32667268468866E-17));
#1025=DIRECTION('',(0.,0.,1.));
#1026=DIRECTION('center_axis',(2.22044604925031E-16,-1.,0.));
#1027=DIRECTION('ref_axis',(1.,2.22044604925031E-16,4.09394740330526E-16));
#1028=DIRECTION('',(1.,2.22044604925031E-16,4.09394740330526E-16));
#1029=DIRECTION('',(0.,0.,1.));
#1030=DIRECTION('center_axis',(1.,2.22044604925031E-16,0.));
#1031=DIRECTION('ref_axis',(-2.22044604925031E-16,1.,-8.32667268468866E-17));
#1032=DIRECTION('',(-2.22044604925031E-16,1.,-8.32667268468866E-17));
#1033=DIRECTION('',(0.,0.,1.));
#1034=DIRECTION('center_axis',(2.22044604925031E-16,-1.,0.));
#1035=DIRECTION('ref_axis',(1.,2.22044604925031E-16,4.09394740330526E-16));
#1036=DIRECTION('',(1.,2.22044604925031E-16,4.09394740330526E-16));
#1037=DIRECTION('center_axis',(-2.22044604925031E-16,1.,0.));
#1038=DIRECTION('ref_axis',(-1.,-2.22044604925031E-16,-4.09394740330526E-16));
#1039=DIRECTION('',(-1.,-2.22044604925031E-16,-4.09394740330526E-16));
#1040=DIRECTION('',(0.,0.,-1.));
#1041=DIRECTION('center_axis',(-1.,-2.22044604925031E-16,0.));
#1042=DIRECTION('ref_axis',(2.22044604925031E-16,-1.,8.32667268468866E-17));
#1043=DIRECTION('',(2.22044604925031E-16,-1.,8.32667268468866E-17));
#1044=DIRECTION('center_axis',(1.,2.22044604925031E-16,0.));
#1045=DIRECTION('ref_axis',(-2.22044604925031E-16,1.,-8.32667268468866E-17));
#1046=DIRECTION('',(-2.22044604925031E-16,1.,-8.32667268468866E-17));
#1047=DIRECTION('',(0.,0.,1.));
#1048=DIRECTION('center_axis',(2.22044604925031E-16,-1.,0.));
#1049=DIRECTION('ref_axis',(1.,2.22044604925031E-16,4.09394740330526E-16));
#1050=DIRECTION('',(1.,2.22044604925031E-16,4.09394740330526E-16));
#1051=DIRECTION('',(0.,0.,1.));
#1052=DIRECTION('center_axis',(1.,2.22044604925031E-16,0.));
#1053=DIRECTION('ref_axis',(-2.22044604925031E-16,1.,-8.32667268468866E-17));
#1054=DIRECTION('',(-2.22044604925031E-16,1.,-8.32667268468866E-17));
#1055=DIRECTION('center_axis',(2.22044604925031E-16,-1.,0.));
#1056=DIRECTION('ref_axis',(1.,2.22044604925031E-16,4.09394740330526E-16));
#1057=DIRECTION('',(1.,2.22044604925031E-16,4.09394740330526E-16));
#1058=DIRECTION('',(0.,0.,1.));
#1059=DIRECTION('center_axis',(-1.,-2.22044604925031E-16,0.));
#1060=DIRECTION('ref_axis',(2.22044604925031E-16,-1.,8.32667268468866E-17));
#1061=DIRECTION('',(2.22044604925031E-16,-1.,8.32667268468866E-17));
#1062=DIRECTION('center_axis',(-2.22044604925031E-16,1.,0.));
#1063=DIRECTION('ref_axis',(-1.,-2.22044604925031E-16,-4.09394740330526E-16));
#1064=DIRECTION('',(-1.,-2.22044604925031E-16,-4.09394740330526E-16));
#1065=DIRECTION('',(0.,0.,-1.));
#1066=DIRECTION('center_axis',(2.22044604925031E-16,-1.,0.));
#1067=DIRECTION('ref_axis',(1.,2.22044604925031E-16,4.09394740330526E-16));
#1068=DIRECTION('',(0.,0.,1.));
#1069=DIRECTION('',(1.,2.22044604925031E-16,4.09394740330526E-16));
#1070=DIRECTION('',(0.,0.,1.));
#1071=DIRECTION('center_axis',(-1.,-2.22044604925031E-16,0.));
#1072=DIRECTION('ref_axis',(2.22044604925031E-16,-1.,8.32667268468866E-17));
#1073=DIRECTION('',(2.22044604925031E-16,-1.,8.32667268468866E-17));
#1074=DIRECTION('',(0.,0.,1.));
#1075=DIRECTION('center_axis',(2.22044604925031E-16,-1.,0.));
#1076=DIRECTION('ref_axis',(1.,2.22044604925031E-16,4.09394740330526E-16));
#1077=DIRECTION('',(1.,2.22044604925031E-16,4.09394740330526E-16));
#1078=DIRECTION('',(0.,0.,1.));
#1079=DIRECTION('center_axis',(1.,2.22044604925031E-16,0.));
#1080=DIRECTION('ref_axis',(-2.22044604925031E-16,1.,-8.32667268468866E-17));
#1081=DIRECTION('',(-2.22044604925031E-16,1.,-8.32667268468866E-17));
#1082=DIRECTION('',(0.,0.,1.));
#1083=DIRECTION('center_axis',(-2.22044604925031E-16,1.,0.));
#1084=DIRECTION('ref_axis',(-1.,-2.22044604925031E-16,-4.09394740330526E-16));
#1085=DIRECTION('',(-1.,-2.22044604925031E-16,-4.09394740330526E-16));
#1086=DIRECTION('',(0.,0.,1.));
#1087=DIRECTION('center_axis',(-1.,-2.22044604925031E-16,0.));
#1088=DIRECTION('ref_axis',(2.22044604925031E-16,-1.,8.32667268468866E-17));
#1089=DIRECTION('',(2.22044604925031E-16,-1.,8.32667268468866E-17));
#1090=DIRECTION('',(0.,0.,1.));
#1091=DIRECTION('center_axis',(-2.22044604925031E-16,1.,0.));
#1092=DIRECTION('ref_axis',(-1.,-2.22044604925031E-16,-4.09394740330526E-16));
#1093=DIRECTION('',(-1.,-2.22044604925031E-16,-4.09394740330526E-16));
#1094=DIRECTION('',(0.,0.,1.));
#1095=DIRECTION('center_axis',(1.,2.22044604925031E-16,0.));
#1096=DIRECTION('ref_axis',(-2.22044604925031E-16,1.,-8.32667268468866E-17));
#1097=DIRECTION('',(-2.22044604925031E-16,1.,-8.32667268468866E-17));
#1098=DIRECTION('',(0.,0.,-1.));
#1099=DIRECTION('',(-2.22044604925031E-16,1.,-8.32667268468866E-17));
#1100=DIRECTION('center_axis',(2.22044604925031E-16,-1.,0.));
#1101=DIRECTION('ref_axis',(1.,2.22044604925031E-16,4.09394740330526E-16));
#1102=DIRECTION('',(1.,2.22044604925031E-16,0.));
#1103=DIRECTION('center_axis',(2.22044604925031E-16,-1.,0.));
#1104=DIRECTION('ref_axis',(1.,2.22044604925031E-16,4.09394740330526E-16));
#1105=DIRECTION('',(1.,2.22044604925031E-16,4.09394740330526E-16));
#1106=DIRECTION('',(0.,0.,1.));
#1107=DIRECTION('center_axis',(-1.,-2.22044604925031E-16,0.));
#1108=DIRECTION('ref_axis',(2.22044604925031E-16,-1.,8.32667268468866E-17));
#1109=DIRECTION('',(2.22044604925031E-16,-1.,8.32667268468866E-17));
#1110=DIRECTION('center_axis',(0.,0.,1.));
#1111=DIRECTION('ref_axis',(-2.22044604925031E-16,1.,0.));
#1112=DIRECTION('center_axis',(2.22044604925031E-16,-1.,0.));
#1113=DIRECTION('ref_axis',(1.,2.22044604925031E-16,4.09394740330526E-16));
#1114=DIRECTION('',(0.,0.,1.));
#1115=DIRECTION('',(1.,2.22044604925031E-16,4.09394740330526E-16));
#1116=DIRECTION('',(0.,0.,1.));
#1117=DIRECTION('center_axis',(-1.,-2.22044604925031E-16,0.));
#1118=DIRECTION('ref_axis',(2.22044604925031E-16,-1.,8.32667268468866E-17));
#1119=DIRECTION('',(2.22044604925031E-16,-1.,8.32667268468866E-17));
#1120=DIRECTION('center_axis',(1.,2.22044604925031E-16,0.));
#1121=DIRECTION('ref_axis',(-2.22044604925031E-16,1.,-8.32667268468866E-17));
#1122=DIRECTION('',(-2.22044604925031E-16,1.,-8.32667268468866E-17));
#1123=DIRECTION('center_axis',(0.,0.,1.));
#1124=DIRECTION('ref_axis',(-2.22044604925031E-16,1.,0.));
#1125=CARTESIAN_POINT('',(0.,0.,0.));
#1126=CARTESIAN_POINT('Origin',(282.000002399087,-82.0000013560057,-49.5610955806175));
#1127=CARTESIAN_POINT('',(282.000002399087,-75.0000012516976,-39.5610955806175));
#1128=CARTESIAN_POINT('',(282.000002399087,-75.0000012516976,-50.5610955806175));
#1129=CARTESIAN_POINT('',(282.000002399087,-75.0000012814999,-49.5610955806175));
#1130=CARTESIAN_POINT('',(282.000002399087,-82.0000013560057,-39.5610955806175));
#1131=CARTESIAN_POINT('',(282.000002399087,-105.750001709908,-39.5610955806175));
#1132=CARTESIAN_POINT('',(282.000002399087,-82.0000013560057,-50.5610955806175));
#1133=CARTESIAN_POINT('',(282.000002399087,-82.0000013560057,-49.5610955806175));
#1134=CARTESIAN_POINT('',(282.000002399087,-105.750001709908,-50.5610955806175));
#1135=CARTESIAN_POINT('Origin',(257.000002011657,-75.0000012814999,-49.5610955806175));
#1136=CARTESIAN_POINT('',(222.000001490116,-75.0000012516975,-50.5610955806175));
#1137=CARTESIAN_POINT('',(222.000001490116,-75.0000012516975,-50.5610955806175));
#1138=CARTESIAN_POINT('',(222.000001490116,-75.0000012516975,-39.5610955806175));
#1139=CARTESIAN_POINT('',(222.000001490116,-75.0000012516975,-49.5610955806175));
#1140=CARTESIAN_POINT('',(229.000001594424,-75.0000012516975,-39.5610955806175));
#1141=CARTESIAN_POINT('',(186.000000953674,-75.0000012814999,-39.5610955806175));
#1142=CARTESIAN_POINT('',(229.000001594424,-75.0000012516975,-49.5610955806175));
#1143=CARTESIAN_POINT('',(229.000001594424,-75.0000012516975,-49.5610955806175));
#1144=CARTESIAN_POINT('',(239.000001743436,-75.0000012516975,-49.5610955806175));
#1145=CARTESIAN_POINT('',(222.000001490116,-75.0000012516975,-49.5610955806175));
#1146=CARTESIAN_POINT('',(239.000001743436,-75.0000012516975,-39.5610955806175));
#1147=CARTESIAN_POINT('',(239.000001743436,-75.0000012516975,-49.5610955806175));
#1148=CARTESIAN_POINT('',(257.000002011657,-75.0000012516975,-39.5610955806175));
#1149=CARTESIAN_POINT('',(186.000000953674,-75.0000012814999,-39.5610955806175));
#1150=CARTESIAN_POINT('',(257.000002011657,-75.0000012516975,-49.5610955806175));
#1151=CARTESIAN_POINT('',(257.000002011657,-75.0000012516975,-49.5610955806175));
#1152=CARTESIAN_POINT('',(271.000002220273,-75.0000012516976,-49.5610955806175));
#1153=CARTESIAN_POINT('',(222.000001490116,-75.0000012516975,-49.5610955806175));
#1154=CARTESIAN_POINT('',(271.000002220273,-75.0000012516976,-39.5610955806175));
#1155=CARTESIAN_POINT('',(271.000002220273,-75.0000012516976,-49.5610955806175));
#1156=CARTESIAN_POINT('',(186.000000953674,-75.0000012814999,-39.5610955806175));
#1157=CARTESIAN_POINT('Origin',(252.000001937151,-129.500002063811,-50.5610955806175));
#1158=CARTESIAN_POINT('',(318.000002920628,-82.0000013560057,-50.5610955806175));
#1159=CARTESIAN_POINT('',(267.500002168119,-82.0000013560056,-50.5610955806175));
#1160=CARTESIAN_POINT('',(318.000002920628,-151.000002384186,-50.5610955806175));
#1161=CARTESIAN_POINT('',(318.000002920628,-82.0000013560057,-50.5610955806175));
#1162=CARTESIAN_POINT('',(282.000002399087,-151.000002384186,-50.5610955806175));
#1163=CARTESIAN_POINT('',(318.000002920628,-151.000002384186,-50.5610955806175));
#1164=CARTESIAN_POINT('',(282.000002399087,-184.000002875924,-50.5610955806175));
#1165=CARTESIAN_POINT('',(282.000002399087,-156.750002469867,-50.5610955806175));
#1166=CARTESIAN_POINT('',(222.000001490116,-184.000002875924,-50.5610955806175));
#1167=CARTESIAN_POINT('',(283.000002399087,-184.000002875924,-50.5610955806175));
#1168=CARTESIAN_POINT('',(222.000001490116,-150.000002369285,-50.5610955806175));
#1169=CARTESIAN_POINT('',(222.000001490116,-184.000002875924,-50.5610955806175));
#1170=CARTESIAN_POINT('',(186.000000953674,-150.000002369285,-50.5610955806175));
#1171=CARTESIAN_POINT('',(186.000000953674,-150.000002369285,-50.5610955806175));
#1172=CARTESIAN_POINT('',(186.000000953674,-82.0000013560057,-50.5610955806175));
#1173=CARTESIAN_POINT('',(186.000000953674,-82.0000013560057,-50.5610955806175));
#1174=CARTESIAN_POINT('',(222.000001490116,-82.0000013560056,-50.5610955806175));
#1175=CARTESIAN_POINT('',(222.000001490116,-82.0000013560056,-50.5610955806175));
#1176=CARTESIAN_POINT('',(222.000001490116,-184.000002875924,-50.5610955806175));
#1177=CARTESIAN_POINT('Origin',(282.000002399087,-184.000002875924,-49.5610955806175));
#1178=CARTESIAN_POINT('',(282.000002399087,-151.000002384186,-39.5610955806175));
#1179=CARTESIAN_POINT('',(282.000002399087,-151.000002384186,-49.5610955806175));
#1180=CARTESIAN_POINT('',(282.000002399087,-184.000002875924,-39.5610955806175));
#1181=CARTESIAN_POINT('',(282.000002399087,-156.750002469867,-39.5610955806175));
#1182=CARTESIAN_POINT('',(282.000002399087,-184.000002875924,-49.5610955806175));
#1183=CARTESIAN_POINT('Origin',(280.000002369285,-77.0000012814999,-49.5610955806175));
#1184=CARTESIAN_POINT('',(280.000002369285,-182.000002846122,-49.5610955806175));
#1185=CARTESIAN_POINT('',(280.000002369285,-77.0000012814999,-49.5610955806175));
#1186=CARTESIAN_POINT('',(280.000002369285,-103.250001672655,-49.5610955806175));
#1187=CARTESIAN_POINT('',(280.000002369285,-182.000002846122,-39.5610955806175));
#1188=CARTESIAN_POINT('',(280.000002369285,-182.000002846122,-49.5610955806175));
#1189=CARTESIAN_POINT('',(280.000002369285,-77.0000012814999,-39.5610955806175));
#1190=CARTESIAN_POINT('',(280.000002369285,-149.000002354383,-39.5610955806175));
#1191=CARTESIAN_POINT('',(280.000002369285,-77.0000012814999,-49.5610955806175));
#1192=CARTESIAN_POINT('Origin',(281.000002369285,-182.000002846122,-49.5610955806175));
#1193=CARTESIAN_POINT('',(224.000001519918,-182.000002846122,-49.5610955806175));
#1194=CARTESIAN_POINT('',(316.000002890825,-182.000002846122,-49.5610955806175));
#1195=CARTESIAN_POINT('',(224.000001519918,-182.000002846122,-39.5610955806175));
#1196=CARTESIAN_POINT('',(224.000001519918,-182.000002846122,-49.5610955806175));
#1197=CARTESIAN_POINT('',(316.000002890825,-182.000002846122,-39.5610955806175));
#1198=CARTESIAN_POINT('Origin',(252.000001937151,-129.500002063811,-49.5610955806175));
#1199=CARTESIAN_POINT('',(188.000000983477,-119.500001914799,-49.5610955806175));
#1200=CARTESIAN_POINT('',(186.000000953674,-119.500001914799,-49.5610955806175));
#1201=CARTESIAN_POINT('',(188.000000983477,-119.500001914799,-49.5610955806175));
#1202=CARTESIAN_POINT('',(188.000000983477,-148.000002339482,-49.5610955806175));
#1203=CARTESIAN_POINT('',(188.000000983477,-182.000002846122,-49.5610955806175));
#1204=CARTESIAN_POINT('',(217.00000141561,-148.000002339482,-49.5610955806175));
#1205=CARTESIAN_POINT('',(224.000001519918,-148.000002339482,-49.5610955806175));
#1206=CARTESIAN_POINT('',(217.00000141561,-84.000001385808,-49.5610955806175));
#1207=CARTESIAN_POINT('',(217.00000141561,-84.000001385808,-49.5610955806175));
#1208=CARTESIAN_POINT('',(188.000000983477,-84.000001385808,-49.5610955806175));
#1209=CARTESIAN_POINT('',(224.000001519918,-84.000001385808,-49.5610955806175));
#1210=CARTESIAN_POINT('',(188.000000983477,-112.000001803041,-49.5610955806175));
#1211=CARTESIAN_POINT('',(188.000000983477,-182.000002846122,-49.5610955806175));
#1212=CARTESIAN_POINT('',(186.000000953674,-112.000001803041,-49.5610955806175));
#1213=CARTESIAN_POINT('',(188.000000983477,-112.000001803041,-49.5610955806175));
#1214=CARTESIAN_POINT('',(186.000000953674,-82.0000013560057,-49.5610955806175));
#1215=CARTESIAN_POINT('Origin',(252.000001937151,-129.500002063811,-49.5610955806175));
#1216=CARTESIAN_POINT('',(316.000002890825,-120.00000192225,-49.5610955806175));
#1217=CARTESIAN_POINT('',(318.000002890825,-120.00000192225,-49.5610955806175));
#1218=CARTESIAN_POINT('',(316.000002890825,-120.00000192225,-49.5610955806175));
#1219=CARTESIAN_POINT('',(318.000002890825,-112.500001810491,-49.5610955806175));
#1220=CARTESIAN_POINT('',(318.000002920628,-82.0000013560057,-49.5610955806175));
#1221=CARTESIAN_POINT('',(316.000002890825,-112.500001810491,-49.5610955806175));
#1222=CARTESIAN_POINT('',(316.000002890825,-112.500001810491,-49.5610955806175));
#1223=CARTESIAN_POINT('',(316.000002890825,-84.000001385808,-49.5610955806175));
#1224=CARTESIAN_POINT('',(316.000002890825,-77.0000012814999,-49.5610955806175));
#1225=CARTESIAN_POINT('',(287.000002458692,-84.000001385808,-49.5610955806175));
#1226=CARTESIAN_POINT('',(281.000002369285,-84.000001385808,-49.5610955806175));
#1227=CARTESIAN_POINT('',(287.000002458692,-149.000002354383,-49.5610955806175));
#1228=CARTESIAN_POINT('',(287.000002458692,-149.000002354383,-49.5610955806175));
#1229=CARTESIAN_POINT('',(316.000002890825,-149.000002354383,-49.5610955806175));
#1230=CARTESIAN_POINT('',(316.000002890825,-149.000002354383,-49.5610955806175));
#1231=CARTESIAN_POINT('',(316.000002890825,-77.0000012814999,-49.5610955806175));
#1232=CARTESIAN_POINT('Origin',(252.000001937151,-129.500002063811,-49.5610955806175));
#1233=CARTESIAN_POINT('',(271.000002220273,-77.0000012814999,-49.5610955806175));
#1234=CARTESIAN_POINT('',(188.000000983477,-77.0000012814999,-49.5610955806175));
#1235=CARTESIAN_POINT('',(271.000002220273,-75.0000012516976,-49.5610955806175));
#1236=CARTESIAN_POINT('',(257.000002011657,-77.0000012814998,-49.5610955806175));
#1237=CARTESIAN_POINT('',(257.000002011657,-75.0000012516975,-49.5610955806175));
#1238=CARTESIAN_POINT('',(239.000001743436,-77.0000012814998,-49.5610955806175));
#1239=CARTESIAN_POINT('',(188.000000983477,-77.0000012814999,-49.5610955806175));
#1240=CARTESIAN_POINT('',(239.000001743436,-75.0000012516975,-49.5610955806175));
#1241=CARTESIAN_POINT('',(229.000001594424,-77.0000012814998,-49.5610955806175));
#1242=CARTESIAN_POINT('',(229.000001594424,-75.0000012516975,-49.5610955806175));
#1243=CARTESIAN_POINT('',(224.000001519918,-77.0000012814998,-49.5610955806175));
#1244=CARTESIAN_POINT('',(188.000000983477,-77.0000012814999,-49.5610955806175));
#1245=CARTESIAN_POINT('',(224.000001519918,-77.0000012814998,-49.5610955806175));
#1246=CARTESIAN_POINT('Origin',(186.000000953674,-150.000002369285,-49.5610955806175));
#1247=CARTESIAN_POINT('',(222.000001490116,-150.000002369285,-39.5610955806175));
#1248=CARTESIAN_POINT('',(222.000001490116,-150.000002369285,-49.5610955806175));
#1249=CARTESIAN_POINT('',(186.000000953674,-150.000002369285,-39.5610955806175));
#1250=CARTESIAN_POINT('',(222.000001490116,-150.000002369285,-39.5610955806175));
#1251=CARTESIAN_POINT('',(186.000000953674,-150.000002369285,-49.5610955806175));
#1252=CARTESIAN_POINT('Origin',(186.000000953674,-119.500001914799,-49.5610955806175));
#1253=CARTESIAN_POINT('',(186.000000953674,-119.500001914799,-39.5610955806175));
#1254=CARTESIAN_POINT('',(186.000000953674,-184.000002875924,-39.5610955806175));
#1255=CARTESIAN_POINT('',(186.000000953674,-119.500001914799,-49.5610955806175));
#1256=CARTESIAN_POINT('',(186.000000953674,-112.000001803041,-39.5610955806175));
#1257=CARTESIAN_POINT('',(186.000000953674,-112.000001803041,-49.5610955806175));
#1258=CARTESIAN_POINT('',(186.000000953674,-82.0000013560057,-39.5610955806175));
#1259=CARTESIAN_POINT('',(186.000000953674,-184.000002875924,-39.5610955806175));
#1260=CARTESIAN_POINT('',(186.000000953674,-82.0000013560057,-49.5610955806175));
#1261=CARTESIAN_POINT('Origin',(188.000000983477,-119.500001914799,-49.5610955806175));
#1262=CARTESIAN_POINT('',(188.000000983477,-119.500001914799,-39.5610955806175));
#1263=CARTESIAN_POINT('',(188.000000983477,-119.500001914799,-39.5610955806175));
#1264=CARTESIAN_POINT('',(188.000000983477,-119.500001914799,-49.5610955806175));
#1265=CARTESIAN_POINT('Origin',(188.000000983477,-148.000002339482,-49.5610955806175));
#1266=CARTESIAN_POINT('',(188.000000983477,-148.000002339482,-39.5610955806175));
#1267=CARTESIAN_POINT('',(188.000000983477,-182.000002846122,-39.5610955806175));
#1268=CARTESIAN_POINT('',(188.000000983477,-148.000002339482,-49.5610955806175));
#1269=CARTESIAN_POINT('Origin',(217.00000141561,-148.000002339482,-49.5610955806175));
#1270=CARTESIAN_POINT('',(217.00000141561,-148.000002339482,-39.5610955806175));
#1271=CARTESIAN_POINT('',(224.000001519918,-148.000002339482,-39.5610955806175));
#1272=CARTESIAN_POINT('',(217.00000141561,-148.000002339482,-49.5610955806175));
#1273=CARTESIAN_POINT('Origin',(217.00000141561,-84.000001385808,-49.5610955806175));
#1274=CARTESIAN_POINT('',(217.00000141561,-84.000001385808,-39.5610955806175));
#1275=CARTESIAN_POINT('',(217.00000141561,-84.000001385808,-39.5610955806175));
#1276=CARTESIAN_POINT('',(217.00000141561,-84.000001385808,-49.5610955806175));
#1277=CARTESIAN_POINT('Origin',(188.000000983477,-84.000001385808,-49.5610955806175));
#1278=CARTESIAN_POINT('',(188.000000983477,-84.000001385808,-39.5610955806175));
#1279=CARTESIAN_POINT('',(224.000001519918,-84.000001385808,-39.5610955806175));
#1280=CARTESIAN_POINT('',(188.000000983477,-84.000001385808,-49.5610955806175));
#1281=CARTESIAN_POINT('Origin',(188.000000983477,-112.000001803041,-49.5610955806175));
#1282=CARTESIAN_POINT('',(188.000000983477,-112.000001803041,-39.5610955806175));
#1283=CARTESIAN_POINT('',(188.000000983477,-182.000002846122,-39.5610955806175));
#1284=CARTESIAN_POINT('',(188.000000983477,-112.000001803041,-49.5610955806175));
#1285=CARTESIAN_POINT('Origin',(186.000000953674,-112.000001803041,-49.5610955806175));
#1286=CARTESIAN_POINT('',(188.000000983477,-112.000001803041,-39.5610955806175));
#1287=CARTESIAN_POINT('Origin',(222.000001490116,-82.0000013560056,-49.5610955806175));
#1288=CARTESIAN_POINT('',(222.000001490116,-82.0000013560056,-39.5610955806175));
#1289=CARTESIAN_POINT('',(188.000000983477,-82.0000013560057,-39.5610955806175));
#1290=CARTESIAN_POINT('',(222.000001490116,-82.0000013560056,-49.5610955806175));
#1291=CARTESIAN_POINT('Origin',(222.000001490116,-75.0000012516975,-49.5610955806175));
#1292=CARTESIAN_POINT('',(222.000001490116,-77.0000012814998,-39.5610955806175));
#1293=CARTESIAN_POINT('Origin',(229.000001594424,-77.0000012814998,-49.5610955806175));
#1294=CARTESIAN_POINT('',(229.000001594424,-77.0000012814998,-39.5610955806175));
#1295=CARTESIAN_POINT('',(229.000001594424,-75.0000012516975,-39.5610955806175));
#1296=CARTESIAN_POINT('',(229.000001594424,-77.0000012814998,-49.5610955806175));
#1297=CARTESIAN_POINT('Origin',(224.000001519918,-77.0000012814998,-49.5610955806175));
#1298=CARTESIAN_POINT('',(224.000001519918,-77.0000012814998,-39.5610955806175));
#1299=CARTESIAN_POINT('',(188.000000983477,-77.0000012814999,-39.5610955806175));
#1300=CARTESIAN_POINT('',(224.000001519918,-77.0000012814998,-49.5610955806175));
#1301=CARTESIAN_POINT('Origin',(224.000001519918,-182.000002846122,-49.5610955806175));
#1302=CARTESIAN_POINT('',(224.000001519918,-77.0000012814998,-39.5610955806175));
#1303=CARTESIAN_POINT('Origin',(271.000002220273,-77.0000012814999,-49.5610955806175));
#1304=CARTESIAN_POINT('',(271.000002220273,-77.0000012814999,-39.5610955806175));
#1305=CARTESIAN_POINT('',(188.000000983477,-77.0000012814999,-39.5610955806175));
#1306=CARTESIAN_POINT('',(271.000002220273,-77.0000012814999,-49.5610955806175));
#1307=CARTESIAN_POINT('Origin',(271.000002220273,-75.0000012516976,-49.5610955806175));
#1308=CARTESIAN_POINT('',(271.000002220273,-75.0000012516976,-39.5610955806175));
#1309=CARTESIAN_POINT('Origin',(318.000002920628,-82.0000013560057,-49.5610955806175));
#1310=CARTESIAN_POINT('',(318.000002920628,-82.0000013560057,-39.5610955806175));
#1311=CARTESIAN_POINT('',(283.000002399087,-82.0000013560057,-39.5610955806175));
#1312=CARTESIAN_POINT('',(318.000002920628,-82.0000013560057,-49.5610955806175));
#1313=CARTESIAN_POINT('Origin',(316.000002890825,-112.500001810491,-49.5610955806175));
#1314=CARTESIAN_POINT('',(318.000002890825,-112.500001810491,-39.5610955806175));
#1315=CARTESIAN_POINT('',(318.000002890825,-112.500001810491,-49.5610955806175));
#1316=CARTESIAN_POINT('',(316.000002890825,-112.500001810491,-39.5610955806175));
#1317=CARTESIAN_POINT('',(316.000002890825,-112.500001810491,-39.5610955806175));
#1318=CARTESIAN_POINT('',(316.000002890825,-112.500001810491,-49.5610955806175));
#1319=CARTESIAN_POINT('Origin',(316.000002890825,-84.000001385808,-49.5610955806175));
#1320=CARTESIAN_POINT('',(316.000002890825,-84.000001385808,-39.5610955806175));
#1321=CARTESIAN_POINT('',(316.000002890825,-77.0000012814999,-39.5610955806175));
#1322=CARTESIAN_POINT('',(316.000002890825,-84.000001385808,-49.5610955806175));
#1323=CARTESIAN_POINT('Origin',(287.000002458692,-84.000001385808,-49.5610955806175));
#1324=CARTESIAN_POINT('',(287.000002458692,-84.000001385808,-39.5610955806175));
#1325=CARTESIAN_POINT('',(281.000002369285,-84.000001385808,-39.5610955806175));
#1326=CARTESIAN_POINT('',(287.000002458692,-84.000001385808,-49.5610955806175));
#1327=CARTESIAN_POINT('Origin',(287.000002458692,-149.000002354383,-49.5610955806175));
#1328=CARTESIAN_POINT('',(287.000002458692,-149.000002354383,-39.5610955806175));
#1329=CARTESIAN_POINT('',(287.000002458692,-149.000002354383,-39.5610955806175));
#1330=CARTESIAN_POINT('',(287.000002458692,-149.000002354383,-49.5610955806175));
#1331=CARTESIAN_POINT('Origin',(316.000002890825,-149.000002354383,-49.5610955806175));
#1332=CARTESIAN_POINT('',(316.000002890825,-149.000002354383,-39.5610955806175));
#1333=CARTESIAN_POINT('',(316.000002890825,-149.000002354383,-39.5610955806175));
#1334=CARTESIAN_POINT('',(316.000002890825,-149.000002354383,-49.5610955806175));
#1335=CARTESIAN_POINT('Origin',(316.000002890825,-120.00000192225,-49.5610955806175));
#1336=CARTESIAN_POINT('',(316.000002890825,-120.00000192225,-39.5610955806175));
#1337=CARTESIAN_POINT('',(316.000002890825,-77.0000012814999,-39.5610955806175));
#1338=CARTESIAN_POINT('',(316.000002890825,-120.00000192225,-49.5610955806175));
#1339=CARTESIAN_POINT('Origin',(318.000002890825,-120.00000192225,-49.5610955806175));
#1340=CARTESIAN_POINT('',(318.000002890825,-120.00000192225,-39.5610955806175));
#1341=CARTESIAN_POINT('',(316.000002890825,-120.00000192225,-39.5610955806175));
#1342=CARTESIAN_POINT('',(318.000002890825,-120.00000192225,-49.5610955806175));
#1343=CARTESIAN_POINT('Origin',(318.000002890825,-151.000002384186,-49.5610955806175));
#1344=CARTESIAN_POINT('',(318.000002890825,-151.000002384186,-39.5610955806175));
#1345=CARTESIAN_POINT('',(318.000002890825,-75.0000012814999,-39.5610955806175));
#1346=CARTESIAN_POINT('',(318.000002920628,-151.000002384186,-49.5610955806175));
#1347=CARTESIAN_POINT('',(318.000002890825,-75.0000012814999,-39.5610955806175));
#1348=CARTESIAN_POINT('Origin',(283.000002399087,-151.000002384186,-49.5610955806175));
#1349=CARTESIAN_POINT('',(267.500002168119,-151.000002384186,-39.5610955806175));
#1350=CARTESIAN_POINT('Origin',(222.000001490116,-184.000002875924,-49.5610955806175));
#1351=CARTESIAN_POINT('',(222.000001490116,-184.000002875924,-39.5610955806175));
#1352=CARTESIAN_POINT('',(318.000002890825,-184.000002875924,-39.5610955806175));
#1353=CARTESIAN_POINT('',(222.000001490116,-184.000002875924,-49.5610955806175));
#1354=CARTESIAN_POINT('Origin',(222.000001490116,-150.000002369285,-49.5610955806175));
#1355=CARTESIAN_POINT('',(222.000001490116,-182.000002846122,-39.5610955806175));
#1356=CARTESIAN_POINT('Origin',(252.000001937151,-129.500002063811,-39.5610955806175));
#1357=CARTESIAN_POINT('Origin',(239.000001743436,-77.0000012814998,-49.5610955806175));
#1358=CARTESIAN_POINT('',(257.000002011657,-77.0000012814998,-39.5610955806175));
#1359=CARTESIAN_POINT('',(257.000002011657,-77.0000012814998,-49.5610955806175));
#1360=CARTESIAN_POINT('',(239.000001743436,-77.0000012814998,-39.5610955806175));
#1361=CARTESIAN_POINT('',(188.000000983477,-77.0000012814999,-39.5610955806175));
#1362=CARTESIAN_POINT('',(239.000001743436,-77.0000012814998,-49.5610955806175));
#1363=CARTESIAN_POINT('Origin',(239.000001743436,-75.0000012516975,-49.5610955806175));
#1364=CARTESIAN_POINT('',(239.000001743436,-75.0000012516975,-39.5610955806175));
#1365=CARTESIAN_POINT('Origin',(257.000002011657,-77.0000012814998,-49.5610955806175));
#1366=CARTESIAN_POINT('',(257.000002011657,-75.0000012516975,-39.5610955806175));
#1367=CARTESIAN_POINT('Origin',(248.000001877546,-76.0000012665987,-39.5610955806175));
#1368=UNCERTAINTY_MEASURE_WITH_UNIT(LENGTH_MEASURE(0.01),#1372,
'DISTANCE_ACCURACY_VALUE',
'Maximum model space distance between geometric entities at asserted c
onnectivities');
#1369=UNCERTAINTY_MEASURE_WITH_UNIT(LENGTH_MEASURE(0.01),#1372,
'DISTANCE_ACCURACY_VALUE',
'Maximum model space distance between geometric entities at asserted c
onnectivities');
#1370=(
GEOMETRIC_REPRESENTATION_CONTEXT(3)
GLOBAL_UNCERTAINTY_ASSIGNED_CONTEXT((#1368))
GLOBAL_UNIT_ASSIGNED_CONTEXT((#1372,#1374,#1375))
REPRESENTATION_CONTEXT('','3D')
);
#1371=(
GEOMETRIC_REPRESENTATION_CONTEXT(3)
GLOBAL_UNCERTAINTY_ASSIGNED_CONTEXT((#1369))
GLOBAL_UNIT_ASSIGNED_CONTEXT((#1372,#1374,#1375))
REPRESENTATION_CONTEXT('','3D')
);
#1372=(
LENGTH_UNIT()
NAMED_UNIT(*)
SI_UNIT(.MILLI.,.METRE.)
);
#1373=(
LENGTH_UNIT()
NAMED_UNIT(*)
SI_UNIT($,.METRE.)
);
#1374=(
NAMED_UNIT(*)
PLANE_ANGLE_UNIT()
SI_UNIT($,.RADIAN.)
);
#1375=(
NAMED_UNIT(*)
SI_UNIT($,.STERADIAN.)
SOLID_ANGLE_UNIT()
);
#1376=SHAPE_DEFINITION_REPRESENTATION(#1377,#1378);
#1377=PRODUCT_DEFINITION_SHAPE('',$,#1380);
#1378=SHAPE_REPRESENTATION('',(#876),#1370);
#1379=PRODUCT_DEFINITION_CONTEXT('part definition',#1384,'design');
#1380=PRODUCT_DEFINITION('ArduinoHolder','ArduinoHolder v1',#1381,#1379);
#1381=PRODUCT_DEFINITION_FORMATION('',$,#1386);
#1382=PRODUCT_RELATED_PRODUCT_CATEGORY('ArduinoHolder v1',
'ArduinoHolder v1',(#1386));
#1383=APPLICATION_PROTOCOL_DEFINITION('international standard',
'automotive_design',2009,#1384);
#1384=APPLICATION_CONTEXT(
'Core Data for Automotive Mechanical Design Process');
#1385=PRODUCT_CONTEXT('part definition',#1384,'mechanical');
#1386=PRODUCT('ArduinoHolder','ArduinoHolder v1',$,(#1385));
#1387=PRESENTATION_STYLE_ASSIGNMENT((#1388));
#1388=SURFACE_STYLE_USAGE(.BOTH.,#1389);
#1389=SURFACE_SIDE_STYLE('',(#1390));
#1390=SURFACE_STYLE_FILL_AREA(#1391);
#1391=FILL_AREA_STYLE('Steel - Satin',(#1392));
#1392=FILL_AREA_STYLE_COLOUR('Steel - Satin',#1393);
#1393=COLOUR_RGB('Steel - Satin',0.627450980392157,0.627450980392157,0.627450980392157);
ENDSEC;
END-ISO-10303-21;
