ISO-10303-21;
HEADER;
/* Generated by software containing ST-Developer
 * from STEP Tools, Inc. (www.steptools.com) 
 */

FILE_DESCRIPTION(
/* description */ (''),
/* implementation_level */ '2;1');

FILE_NAME(
/* name */ 'Arm1.step',
/* time_stamp */ '2026-02-04T07:49:17+02:00',
/* author */ (''),
/* organization */ (''),
/* preprocessor_version */ 'ST-DEVELOPER v20.1',
/* originating_system */ 'Autodesk Translation Framework v14.21.0.0',
/* authorisation */ '');

FILE_SCHEMA (('AUTOMOTIVE_DESIGN { 1 0 10303 214 3 1 1 }'));
ENDSEC;

DATA;
#10=MECHANICAL_DESIGN_GEOMETRIC_PRESENTATION_REPRESENTATION('',(#13),#360);
#11=SHAPE_REPRESENTATION_RELATIONSHIP('SRR','None',#367,#12);
#12=ADVANCED_BREP_SHAPE_REPRESENTATION('',(#14),#359);
#13=STYLED_ITEM('',(#376),#14);
#14=MANIFOLD_SOLID_BREP('Body1',#216);
#15=FACE_BOUND('',#39,.T.);
#16=CIRCLE('',#236,3.1);
#17=CIRCLE('',#237,3.1);
#18=CYLINDRICAL_SURFACE('',#235,3.1);
#19=FACE_OUTER_BOUND('',#31,.T.);
#20=FACE_OUTER_BOUND('',#32,.T.);
#21=FACE_OUTER_BOUND('',#33,.T.);
#22=FACE_OUTER_BOUND('',#34,.T.);
#23=FACE_OUTER_BOUND('',#35,.T.);
#24=FACE_OUTER_BOUND('',#36,.T.);
#25=FACE_OUTER_BOUND('',#37,.T.);
#26=FACE_OUTER_BOUND('',#38,.T.);
#27=FACE_OUTER_BOUND('',#40,.T.);
#28=FACE_OUTER_BOUND('',#41,.T.);
#29=FACE_OUTER_BOUND('',#42,.T.);
#30=FACE_OUTER_BOUND('',#43,.T.);
#31=EDGE_LOOP('',(#139,#140,#141,#142));
#32=EDGE_LOOP('',(#143,#144,#145,#146));
#33=EDGE_LOOP('',(#147,#148,#149,#150,#151,#152,#153,#154));
#34=EDGE_LOOP('',(#155,#156,#157,#158));
#35=EDGE_LOOP('',(#159,#160,#161,#162,#163,#164,#165,#166));
#36=EDGE_LOOP('',(#167,#168,#169,#170));
#37=EDGE_LOOP('',(#171));
#38=EDGE_LOOP('',(#172,#173,#174,#175));
#39=EDGE_LOOP('',(#176));
#40=EDGE_LOOP('',(#177,#178,#179,#180));
#41=EDGE_LOOP('',(#181,#182,#183,#184));
#42=EDGE_LOOP('',(#185,#186,#187,#188));
#43=EDGE_LOOP('',(#189,#190,#191,#192));
#44=LINE('',#303,#69);
#45=LINE('',#305,#70);
#46=LINE('',#307,#71);
#47=LINE('',#308,#72);
#48=LINE('',#312,#73);
#49=LINE('',#313,#74);
#50=LINE('',#314,#75);
#51=LINE('',#317,#76);
#52=LINE('',#319,#77);
#53=LINE('',#321,#78);
#54=LINE('',#323,#79);
#55=LINE('',#325,#80);
#56=LINE('',#326,#81);
#57=LINE('',#329,#82);
#58=LINE('',#330,#83);
#59=LINE('',#333,#84);
#60=LINE('',#335,#85);
#61=LINE('',#337,#86);
#62=LINE('',#339,#87);
#63=LINE('',#340,#88);
#64=LINE('',#345,#89);
#65=LINE('',#349,#90);
#66=LINE('',#350,#91);
#67=LINE('',#352,#92);
#68=LINE('',#355,#93);
#69=VECTOR('',#248,10.);
#70=VECTOR('',#249,10.);
#71=VECTOR('',#250,10.);
#72=VECTOR('',#251,10.);
#73=VECTOR('',#254,10.);
#74=VECTOR('',#255,10.);
#75=VECTOR('',#256,10.);
#76=VECTOR('',#259,10.);
#77=VECTOR('',#260,10.);
#78=VECTOR('',#261,10.);
#79=VECTOR('',#262,10.);
#80=VECTOR('',#263,10.);
#81=VECTOR('',#264,10.);
#82=VECTOR('',#267,10.);
#83=VECTOR('',#268,10.);
#84=VECTOR('',#271,10.);
#85=VECTOR('',#272,10.);
#86=VECTOR('',#273,10.);
#87=VECTOR('',#274,10.);
#88=VECTOR('',#275,10.);
#89=VECTOR('',#280,3.1);
#90=VECTOR('',#287,10.);
#91=VECTOR('',#288,10.);
#92=VECTOR('',#291,10.);
#93=VECTOR('',#296,10.);
#94=VERTEX_POINT('',#301);
#95=VERTEX_POINT('',#302);
#96=VERTEX_POINT('',#304);
#97=VERTEX_POINT('',#306);
#98=VERTEX_POINT('',#310);
#99=VERTEX_POINT('',#311);
#100=VERTEX_POINT('',#316);
#101=VERTEX_POINT('',#318);
#102=VERTEX_POINT('',#320);
#103=VERTEX_POINT('',#322);
#104=VERTEX_POINT('',#324);
#105=VERTEX_POINT('',#328);
#106=VERTEX_POINT('',#332);
#107=VERTEX_POINT('',#334);
#108=VERTEX_POINT('',#336);
#109=VERTEX_POINT('',#338);
#110=VERTEX_POINT('',#342);
#111=VERTEX_POINT('',#344);
#112=EDGE_CURVE('',#94,#95,#44,.T.);
#113=EDGE_CURVE('',#95,#96,#45,.T.);
#114=EDGE_CURVE('',#96,#97,#46,.T.);
#115=EDGE_CURVE('',#97,#94,#47,.T.);
#116=EDGE_CURVE('',#98,#99,#48,.T.);
#117=EDGE_CURVE('',#95,#98,#49,.T.);
#118=EDGE_CURVE('',#99,#94,#50,.T.);
#119=EDGE_CURVE('',#100,#99,#51,.T.);
#120=EDGE_CURVE('',#101,#97,#52,.T.);
#121=EDGE_CURVE('',#102,#101,#53,.T.);
#122=EDGE_CURVE('',#102,#103,#54,.T.);
#123=EDGE_CURVE('',#103,#104,#55,.T.);
#124=EDGE_CURVE('',#104,#100,#56,.T.);
#125=EDGE_CURVE('',#105,#96,#57,.T.);
#126=EDGE_CURVE('',#105,#101,#58,.T.);
#127=EDGE_CURVE('',#98,#106,#59,.T.);
#128=EDGE_CURVE('',#106,#107,#60,.T.);
#129=EDGE_CURVE('',#107,#108,#61,.T.);
#130=EDGE_CURVE('',#108,#109,#62,.T.);
#131=EDGE_CURVE('',#109,#105,#63,.T.);
#132=EDGE_CURVE('',#110,#110,#16,.T.);
#133=EDGE_CURVE('',#110,#111,#64,.T.);
#134=EDGE_CURVE('',#111,#111,#17,.T.);
#135=EDGE_CURVE('',#107,#104,#65,.T.);
#136=EDGE_CURVE('',#108,#103,#66,.T.);
#137=EDGE_CURVE('',#109,#102,#67,.T.);
#138=EDGE_CURVE('',#106,#100,#68,.T.);
#139=ORIENTED_EDGE('',*,*,#112,.T.);
#140=ORIENTED_EDGE('',*,*,#113,.T.);
#141=ORIENTED_EDGE('',*,*,#114,.T.);
#142=ORIENTED_EDGE('',*,*,#115,.T.);
#143=ORIENTED_EDGE('',*,*,#116,.F.);
#144=ORIENTED_EDGE('',*,*,#117,.F.);
#145=ORIENTED_EDGE('',*,*,#112,.F.);
#146=ORIENTED_EDGE('',*,*,#118,.F.);
#147=ORIENTED_EDGE('',*,*,#119,.T.);
#148=ORIENTED_EDGE('',*,*,#118,.T.);
#149=ORIENTED_EDGE('',*,*,#115,.F.);
#150=ORIENTED_EDGE('',*,*,#120,.F.);
#151=ORIENTED_EDGE('',*,*,#121,.F.);
#152=ORIENTED_EDGE('',*,*,#122,.T.);
#153=ORIENTED_EDGE('',*,*,#123,.T.);
#154=ORIENTED_EDGE('',*,*,#124,.T.);
#155=ORIENTED_EDGE('',*,*,#125,.F.);
#156=ORIENTED_EDGE('',*,*,#126,.T.);
#157=ORIENTED_EDGE('',*,*,#120,.T.);
#158=ORIENTED_EDGE('',*,*,#114,.F.);
#159=ORIENTED_EDGE('',*,*,#127,.T.);
#160=ORIENTED_EDGE('',*,*,#128,.T.);
#161=ORIENTED_EDGE('',*,*,#129,.T.);
#162=ORIENTED_EDGE('',*,*,#130,.T.);
#163=ORIENTED_EDGE('',*,*,#131,.T.);
#164=ORIENTED_EDGE('',*,*,#125,.T.);
#165=ORIENTED_EDGE('',*,*,#113,.F.);
#166=ORIENTED_EDGE('',*,*,#117,.T.);
#167=ORIENTED_EDGE('',*,*,#132,.F.);
#168=ORIENTED_EDGE('',*,*,#133,.T.);
#169=ORIENTED_EDGE('',*,*,#134,.T.);
#170=ORIENTED_EDGE('',*,*,#133,.F.);
#171=ORIENTED_EDGE('',*,*,#134,.F.);
#172=ORIENTED_EDGE('',*,*,#129,.F.);
#173=ORIENTED_EDGE('',*,*,#135,.T.);
#174=ORIENTED_EDGE('',*,*,#123,.F.);
#175=ORIENTED_EDGE('',*,*,#136,.F.);
#176=ORIENTED_EDGE('',*,*,#132,.T.);
#177=ORIENTED_EDGE('',*,*,#130,.F.);
#178=ORIENTED_EDGE('',*,*,#136,.T.);
#179=ORIENTED_EDGE('',*,*,#122,.F.);
#180=ORIENTED_EDGE('',*,*,#137,.F.);
#181=ORIENTED_EDGE('',*,*,#131,.F.);
#182=ORIENTED_EDGE('',*,*,#137,.T.);
#183=ORIENTED_EDGE('',*,*,#121,.T.);
#184=ORIENTED_EDGE('',*,*,#126,.F.);
#185=ORIENTED_EDGE('',*,*,#127,.F.);
#186=ORIENTED_EDGE('',*,*,#116,.T.);
#187=ORIENTED_EDGE('',*,*,#119,.F.);
#188=ORIENTED_EDGE('',*,*,#138,.F.);
#189=ORIENTED_EDGE('',*,*,#128,.F.);
#190=ORIENTED_EDGE('',*,*,#138,.T.);
#191=ORIENTED_EDGE('',*,*,#124,.F.);
#192=ORIENTED_EDGE('',*,*,#135,.F.);
#193=PLANE('',#230);
#194=PLANE('',#231);
#195=PLANE('',#232);
#196=PLANE('',#233);
#197=PLANE('',#234);
#198=PLANE('',#238);
#199=PLANE('',#239);
#200=PLANE('',#240);
#201=PLANE('',#241);
#202=PLANE('',#242);
#203=PLANE('',#243);
#204=ADVANCED_FACE('',(#19),#193,.T.);
#205=ADVANCED_FACE('',(#20),#194,.F.);
#206=ADVANCED_FACE('',(#21),#195,.T.);
#207=ADVANCED_FACE('',(#22),#196,.T.);
#208=ADVANCED_FACE('',(#23),#197,.F.);
#209=ADVANCED_FACE('',(#24),#18,.F.);
#210=ADVANCED_FACE('',(#25),#198,.T.);
#211=ADVANCED_FACE('',(#26,#15),#199,.T.);
#212=ADVANCED_FACE('',(#27),#200,.T.);
#213=ADVANCED_FACE('',(#28),#201,.T.);
#214=ADVANCED_FACE('',(#29),#202,.T.);
#215=ADVANCED_FACE('',(#30),#203,.T.);
#216=CLOSED_SHELL('',(#204,#205,#206,#207,#208,#209,#210,#211,#212,#213,
#214,#215));
#217=DERIVED_UNIT_ELEMENT(#219,1.);
#218=DERIVED_UNIT_ELEMENT(#362,-3.);
#219=(
MASS_UNIT()
NAMED_UNIT(*)
SI_UNIT(.KILO.,.GRAM.)
);
#220=DERIVED_UNIT((#217,#218));
#221=MEASURE_REPRESENTATION_ITEM('density measure',
POSITIVE_RATIO_MEASURE(7850.),#220);
#222=PROPERTY_DEFINITION_REPRESENTATION(#227,#224);
#223=PROPERTY_DEFINITION_REPRESENTATION(#228,#225);
#224=REPRESENTATION('material name',(#226),#359);
#225=REPRESENTATION('density',(#221),#359);
#226=DESCRIPTIVE_REPRESENTATION_ITEM('Steel','Steel');
#227=PROPERTY_DEFINITION('material property','material name',#369);
#228=PROPERTY_DEFINITION('material property','density of part',#369);
#229=AXIS2_PLACEMENT_3D('',#299,#244,#245);
#230=AXIS2_PLACEMENT_3D('',#300,#246,#247);
#231=AXIS2_PLACEMENT_3D('',#309,#252,#253);
#232=AXIS2_PLACEMENT_3D('',#315,#257,#258);
#233=AXIS2_PLACEMENT_3D('',#327,#265,#266);
#234=AXIS2_PLACEMENT_3D('',#331,#269,#270);
#235=AXIS2_PLACEMENT_3D('',#341,#276,#277);
#236=AXIS2_PLACEMENT_3D('',#343,#278,#279);
#237=AXIS2_PLACEMENT_3D('',#346,#281,#282);
#238=AXIS2_PLACEMENT_3D('',#347,#283,#284);
#239=AXIS2_PLACEMENT_3D('',#348,#285,#286);
#240=AXIS2_PLACEMENT_3D('',#351,#289,#290);
#241=AXIS2_PLACEMENT_3D('',#353,#292,#293);
#242=AXIS2_PLACEMENT_3D('',#354,#294,#295);
#243=AXIS2_PLACEMENT_3D('',#356,#297,#298);
#244=DIRECTION('axis',(0.,0.,1.));
#245=DIRECTION('refdir',(1.,0.,0.));
#246=DIRECTION('center_axis',(-3.1720657846433E-16,4.28228880926846E-15,
-1.));
#247=DIRECTION('ref_axis',(-1.,0.,3.1720657846433E-16));
#248=DIRECTION('',(0.,1.,4.2700885562506E-15));
#249=DIRECTION('',(1.,4.93038065763114E-32,-2.22044604925031E-16));
#250=DIRECTION('',(0.,-1.,-4.26048085699904E-15));
#251=DIRECTION('',(-1.,0.,0.));
#252=DIRECTION('center_axis',(1.,0.,0.));
#253=DIRECTION('ref_axis',(0.,0.,-1.));
#254=DIRECTION('',(0.,-1.,0.));
#255=DIRECTION('',(0.,-4.26048085699904E-15,1.));
#256=DIRECTION('',(-3.1720657846433E-16,4.28228880926846E-15,-1.));
#257=DIRECTION('center_axis',(-8.96712982106699E-31,-1.,-4.26048085699904E-15));
#258=DIRECTION('ref_axis',(1.,4.93038065763114E-32,-2.22044604925031E-16));
#259=DIRECTION('',(1.,4.93038065763114E-32,-2.22044604925031E-16));
#260=DIRECTION('',(0.,4.26048085699904E-15,-1.));
#261=DIRECTION('',(1.,0.,0.));
#262=DIRECTION('',(-2.22044604925031E-16,4.26048085699904E-15,-1.));
#263=DIRECTION('',(1.,4.93038065763114E-32,-2.22044604925031E-16));
#264=DIRECTION('',(2.22044604925031E-16,-4.26048085699904E-15,1.));
#265=DIRECTION('center_axis',(1.,0.,0.));
#266=DIRECTION('ref_axis',(0.,0.,-1.));
#267=DIRECTION('',(-3.1720657846433E-16,4.28228880926846E-15,-1.));
#268=DIRECTION('',(0.,-1.,-4.26048085699904E-15));
#269=DIRECTION('center_axis',(-8.96712982106699E-31,-1.,-4.26048085699904E-15));
#270=DIRECTION('ref_axis',(1.,4.93038065763114E-32,-2.22044604925031E-16));
#271=DIRECTION('',(-1.,-4.93038065763114E-32,2.22044604925031E-16));
#272=DIRECTION('',(-2.22044604925031E-16,4.26048085699904E-15,-1.));
#273=DIRECTION('',(-1.,-4.93038065763114E-32,2.22044604925031E-16));
#274=DIRECTION('',(2.22044604925031E-16,-4.26048085699904E-15,1.));
#275=DIRECTION('',(1.,0.,0.));
#276=DIRECTION('center_axis',(2.22044604925031E-16,-4.26048085699904E-15,
1.));
#277=DIRECTION('ref_axis',(1.,4.93038065763114E-32,-2.22044604925031E-16));
#278=DIRECTION('center_axis',(2.22044604925031E-16,-4.26048085699904E-15,
1.));
#279=DIRECTION('ref_axis',(1.,4.93038065763114E-32,-2.22044604925031E-16));
#280=DIRECTION('',(2.22044604925031E-16,-4.26048085699904E-15,1.));
#281=DIRECTION('center_axis',(2.22044604925031E-16,-4.26048085699904E-15,
1.));
#282=DIRECTION('ref_axis',(1.,4.93038065763114E-32,-2.22044604925031E-16));
#283=DIRECTION('center_axis',(-2.22044604925031E-16,4.26048085699904E-15,
-1.));
#284=DIRECTION('ref_axis',(1.,4.93038065763114E-32,-2.22044604925031E-16));
#285=DIRECTION('center_axis',(-2.22044604925031E-16,4.26048085699904E-15,
-1.));
#286=DIRECTION('ref_axis',(1.,4.93038065763114E-32,-2.22044604925031E-16));
#287=DIRECTION('',(-8.96712982106699E-31,-1.,-4.26048085699904E-15));
#288=DIRECTION('',(-8.96712982106699E-31,-1.,-4.26048085699904E-15));
#289=DIRECTION('center_axis',(-1.,-4.93038065763114E-32,2.22044604925031E-16));
#290=DIRECTION('ref_axis',(-2.22044604925031E-16,4.26048085699904E-15,-1.));
#291=DIRECTION('',(-8.96712982106699E-31,-1.,-4.26048085699904E-15));
#292=DIRECTION('center_axis',(2.22044604925031E-16,-4.26048085699904E-15,
1.));
#293=DIRECTION('ref_axis',(-1.,-4.93038065763114E-32,2.22044604925031E-16));
#294=DIRECTION('center_axis',(-2.22044604925031E-16,4.26048085699904E-15,
-1.));
#295=DIRECTION('ref_axis',(1.,4.93038065763114E-32,-2.22044604925031E-16));
#296=DIRECTION('',(-8.96712982106699E-31,-1.,-4.26048085699904E-15));
#297=DIRECTION('center_axis',(1.,4.93038065763114E-32,-2.22044604925031E-16));
#298=DIRECTION('ref_axis',(2.22044604925031E-16,-4.26048085699904E-15,1.));
#299=CARTESIAN_POINT('',(0.,0.,0.));
#300=CARTESIAN_POINT('Origin',(-10.9999999403954,-7.99552800978102,44.195528456816));
#301=CARTESIAN_POINT('',(33.0000000596046,-17.995528009781,44.1955284568159));
#302=CARTESIAN_POINT('',(33.0000000596046,-7.99552800978105,44.1955284568159));
#303=CARTESIAN_POINT('',(33.0000000596046,-10.495528009781,44.195528456816));
#304=CARTESIAN_POINT('',(37.0000000596046,-7.99552800978102,44.195528456816));
#305=CARTESIAN_POINT('',(-4.99999994039536,-7.99552800978102,44.195528456816));
#306=CARTESIAN_POINT('',(37.0000000596046,-17.995528009781,44.1955284568159));
#307=CARTESIAN_POINT('',(37.0000000596046,-7.99552800978102,44.195528456816));
#308=CARTESIAN_POINT('',(33.0000000596046,-17.995528009781,44.1955284568159));
#309=CARTESIAN_POINT('Origin',(33.0000000596047,-12.9955280097812,88.195528456816));
#310=CARTESIAN_POINT('',(33.0000000596047,-7.99552800978122,92.195528456816));
#311=CARTESIAN_POINT('',(33.0000000596047,-17.9955280097812,92.195528456816));
#312=CARTESIAN_POINT('',(33.0000000596047,-7.99552800978122,92.195528456816));
#313=CARTESIAN_POINT('',(33.0000000596046,-7.99552800978121,90.695528456816));
#314=CARTESIAN_POINT('',(33.0000000596046,-17.9955280097811,58.195528456816));
#315=CARTESIAN_POINT('Origin',(-33.0000000149012,-17.9955280097812,93.195528456816));
#316=CARTESIAN_POINT('',(-50.9999999403953,-17.9955280097812,92.195528456816));
#317=CARTESIAN_POINT('',(-10.9999999403954,-17.9955280097812,92.195528456816));
#318=CARTESIAN_POINT('',(37.0000000596047,-17.9955280097813,102.195528456816));
#319=CARTESIAN_POINT('',(37.0000000596047,-17.9955280097812,88.695528456816));
#320=CARTESIAN_POINT('',(-61.000000089407,-17.9955280097813,102.195528456816));
#321=CARTESIAN_POINT('',(-4.99999994039535,-17.9955280097813,102.195528456816));
#322=CARTESIAN_POINT('',(-61.000000089407,-17.9955280097812,90.195528278002));
#323=CARTESIAN_POINT('',(-61.000000089407,-17.9955280097812,90.195528278002));
#324=CARTESIAN_POINT('',(-50.9999999403953,-17.9955280097812,90.195528278002));
#325=CARTESIAN_POINT('',(-50.9999999403953,-17.9955280097812,90.195528278002));
#326=CARTESIAN_POINT('',(-50.9999999403953,-17.9955280097813,102.195528456816));
#327=CARTESIAN_POINT('Origin',(37.0000000596047,-7.99552800978119,84.195528456816));
#328=CARTESIAN_POINT('',(37.0000000596047,-7.99552800978126,102.195528456816));
#329=CARTESIAN_POINT('',(37.0000000596046,-7.99552800978108,58.195528456816));
#330=CARTESIAN_POINT('',(37.0000000596046,-7.99552800978127,102.195528456816));
#331=CARTESIAN_POINT('Origin',(-33.0000000149012,-7.99552800978122,93.195528456816));
#332=CARTESIAN_POINT('',(-50.9999999403953,-7.99552800978122,92.195528456816));
#333=CARTESIAN_POINT('',(-10.9999999403954,-7.99552800978122,92.195528456816));
#334=CARTESIAN_POINT('',(-50.9999999403953,-7.99552800978121,90.1955282780021));
#335=CARTESIAN_POINT('',(-50.9999999403953,-7.99552800978126,102.195528456816));
#336=CARTESIAN_POINT('',(-61.000000089407,-7.99552800978121,90.1955282780021));
#337=CARTESIAN_POINT('',(-50.9999999403953,-7.99552800978121,90.1955282780021));
#338=CARTESIAN_POINT('',(-61.000000089407,-7.99552800978126,102.195528456816));
#339=CARTESIAN_POINT('',(-61.000000089407,-7.99552800978121,90.1955282780021));
#340=CARTESIAN_POINT('',(32.0000000596047,-7.99552800978126,102.195528456816));
#341=CARTESIAN_POINT('Origin',(-56.0000000149012,-12.9955280097812,90.1955282780021));
#342=CARTESIAN_POINT('',(-59.1000000149012,-12.9955280097812,90.1955282780021));
#343=CARTESIAN_POINT('Origin',(-56.0000000149012,-12.9955280097812,90.1955282780021));
#344=CARTESIAN_POINT('',(-59.1000000149011,-12.9955280097813,100.195528278002));
#345=CARTESIAN_POINT('',(-59.1000000149012,-12.9955280097812,90.1955282780021));
#346=CARTESIAN_POINT('Origin',(-56.0000000149012,-12.9955280097813,100.195528278002));
#347=CARTESIAN_POINT('Origin',(-56.0000000149012,-12.9955280097813,100.195528278002));
#348=CARTESIAN_POINT('Origin',(-61.000000089407,-7.99552800978121,90.1955282780021));
#349=CARTESIAN_POINT('',(-50.9999999403953,-7.99552800978121,90.1955282780021));
#350=CARTESIAN_POINT('',(-61.000000089407,-7.99552800978121,90.1955282780021));
#351=CARTESIAN_POINT('Origin',(-61.000000089407,-7.99552800978126,102.195528456816));
#352=CARTESIAN_POINT('',(-61.000000089407,-7.99552800978126,102.195528456816));
#353=CARTESIAN_POINT('Origin',(-4.99999994039535,-7.99552800978126,102.195528456816));
#354=CARTESIAN_POINT('Origin',(-50.9999999403953,-7.99552800978122,92.195528456816));
#355=CARTESIAN_POINT('',(-50.9999999403953,-7.99552800978122,92.195528456816));
#356=CARTESIAN_POINT('Origin',(-50.9999999403953,-7.99552800978121,90.1955282780021));
#357=UNCERTAINTY_MEASURE_WITH_UNIT(LENGTH_MEASURE(0.01),#361,
'DISTANCE_ACCURACY_VALUE',
'Maximum model space distance between geometric entities at asserted c
onnectivities');
#358=UNCERTAINTY_MEASURE_WITH_UNIT(LENGTH_MEASURE(0.01),#361,
'DISTANCE_ACCURACY_VALUE',
'Maximum model space distance between geometric entities at asserted c
onnectivities');
#359=(
GEOMETRIC_REPRESENTATION_CONTEXT(3)
GLOBAL_UNCERTAINTY_ASSIGNED_CONTEXT((#357))
GLOBAL_UNIT_ASSIGNED_CONTEXT((#361,#363,#364))
REPRESENTATION_CONTEXT('','3D')
);
#360=(
GEOMETRIC_REPRESENTATION_CONTEXT(3)
GLOBAL_UNCERTAINTY_ASSIGNED_CONTEXT((#358))
GLOBAL_UNIT_ASSIGNED_CONTEXT((#361,#363,#364))
REPRESENTATION_CONTEXT('','3D')
);
#361=(
LENGTH_UNIT()
NAMED_UNIT(*)
SI_UNIT(.MILLI.,.METRE.)
);
#362=(
LENGTH_UNIT()
NAMED_UNIT(*)
SI_UNIT($,.METRE.)
);
#363=(
NAMED_UNIT(*)
PLANE_ANGLE_UNIT()
SI_UNIT($,.RADIAN.)
);
#364=(
NAMED_UNIT(*)
SI_UNIT($,.STERADIAN.)
SOLID_ANGLE_UNIT()
);
#365=SHAPE_DEFINITION_REPRESENTATION(#366,#367);
#366=PRODUCT_DEFINITION_SHAPE('',$,#369);
#367=SHAPE_REPRESENTATION('',(#229),#359);
#368=PRODUCT_DEFINITION_CONTEXT('part definition',#373,'design');
#369=PRODUCT_DEFINITION('Arm1','Arm1 v1',#370,#368);
#370=PRODUCT_DEFINITION_FORMATION('',$,#375);
#371=PRODUCT_RELATED_PRODUCT_CATEGORY('Arm1 v1','Arm1 v1',(#375));
#372=APPLICATION_PROTOCOL_DEFINITION('international standard',
'automotive_design',2009,#373);
#373=APPLICATION_CONTEXT(
'Core Data for Automotive Mechanical Design Process');
#374=PRODUCT_CONTEXT('part definition',#373,'mechanical');
#375=PRODUCT('Arm1','Arm1 v1',$,(#374));
#376=PRESENTATION_STYLE_ASSIGNMENT((#377));
#377=SURFACE_STYLE_USAGE(.BOTH.,#378);
#378=SURFACE_SIDE_STYLE('',(#379));
#379=SURFACE_STYLE_FILL_AREA(#380);
#380=FILL_AREA_STYLE('Steel - Satin',(#381));
#381=FILL_AREA_STYLE_COLOUR('Steel - Satin',#382);
#382=COLOUR_RGB('Steel - Satin',0.627450980392157,0.627450980392157,0.627450980392157);
ENDSEC;
END-ISO-10303-21;
