ISO-10303-21;
HEADER;
/* Generated by software containing ST-Developer
 * from STEP Tools, Inc. (www.steptools.com) 
 */

FILE_DESCRIPTION(
/* description */ (''),
/* implementation_level */ '2;1');

FILE_NAME(
/* name */ 'Arm2.step',
/* time_stamp */ '2026-02-04T07:49:43+02:00',
/* author */ (''),
/* organization */ (''),
/* preprocessor_version */ 'ST-DEVELOPER v20.1',
/* originating_system */ 'Autodesk Translation Framework v14.21.0.0',
/* authorisation */ '');

FILE_SCHEMA (('AUTOMOTIVE_DESIGN { 1 0 10303 214 3 1 1 }'));
ENDSEC;

DATA;
#10=MECHANICAL_DESIGN_GEOMETRIC_PRESENTATION_REPRESENTATION('',(#13),#360);
#11=SHAPE_REPRESENTATION_RELATIONSHIP('SRR','None',#367,#12);
#12=ADVANCED_BREP_SHAPE_REPRESENTATION('',(#14),#359);
#13=STYLED_ITEM('',(#376),#14);
#14=MANIFOLD_SOLID_BREP('Body1',#216);
#15=FACE_BOUND('',#37,.T.);
#16=CIRCLE('',#234,3.1);
#17=CIRCLE('',#235,3.1);
#18=CYLINDRICAL_SURFACE('',#233,3.1);
#19=FACE_OUTER_BOUND('',#31,.T.);
#20=FACE_OUTER_BOUND('',#32,.T.);
#21=FACE_OUTER_BOUND('',#33,.T.);
#22=FACE_OUTER_BOUND('',#34,.T.);
#23=FACE_OUTER_BOUND('',#35,.T.);
#24=FACE_OUTER_BOUND('',#36,.T.);
#25=FACE_OUTER_BOUND('',#38,.T.);
#26=FACE_OUTER_BOUND('',#39,.T.);
#27=FACE_OUTER_BOUND('',#40,.T.);
#28=FACE_OUTER_BOUND('',#41,.T.);
#29=FACE_OUTER_BOUND('',#42,.T.);
#30=FACE_OUTER_BOUND('',#43,.T.);
#31=EDGE_LOOP('',(#139,#140,#141,#142));
#32=EDGE_LOOP('',(#143,#144,#145,#146));
#33=EDGE_LOOP('',(#147,#148,#149,#150));
#34=EDGE_LOOP('',(#151,#152,#153,#154));
#35=EDGE_LOOP('',(#155));
#36=EDGE_LOOP('',(#156,#157,#158,#159));
#37=EDGE_LOOP('',(#160));
#38=EDGE_LOOP('',(#161,#162,#163,#164));
#39=EDGE_LOOP('',(#165,#166,#167,#168));
#40=EDGE_LOOP('',(#169,#170,#171,#172));
#41=EDGE_LOOP('',(#173,#174,#175,#176));
#42=EDGE_LOOP('',(#177,#178,#179,#180,#181,#182,#183,#184));
#43=EDGE_LOOP('',(#185,#186,#187,#188,#189,#190,#191,#192));
#44=LINE('',#303,#69);
#45=LINE('',#305,#70);
#46=LINE('',#307,#71);
#47=LINE('',#308,#72);
#48=LINE('',#311,#73);
#49=LINE('',#313,#74);
#50=LINE('',#314,#75);
#51=LINE('',#317,#76);
#52=LINE('',#319,#77);
#53=LINE('',#320,#78);
#54=LINE('',#325,#79);
#55=LINE('',#331,#80);
#56=LINE('',#333,#81);
#57=LINE('',#335,#82);
#58=LINE('',#336,#83);
#59=LINE('',#339,#84);
#60=LINE('',#341,#85);
#61=LINE('',#342,#86);
#62=LINE('',#344,#87);
#63=LINE('',#345,#88);
#64=LINE('',#348,#89);
#65=LINE('',#350,#90);
#66=LINE('',#351,#91);
#67=LINE('',#353,#92);
#68=LINE('',#354,#93);
#69=VECTOR('',#248,10.);
#70=VECTOR('',#249,10.);
#71=VECTOR('',#250,10.);
#72=VECTOR('',#251,10.);
#73=VECTOR('',#254,10.);
#74=VECTOR('',#255,10.);
#75=VECTOR('',#256,10.);
#76=VECTOR('',#259,10.);
#77=VECTOR('',#260,10.);
#78=VECTOR('',#261,10.);
#79=VECTOR('',#266,3.1);
#80=VECTOR('',#273,10.);
#81=VECTOR('',#274,10.);
#82=VECTOR('',#275,10.);
#83=VECTOR('',#276,10.);
#84=VECTOR('',#279,10.);
#85=VECTOR('',#280,10.);
#86=VECTOR('',#281,10.);
#87=VECTOR('',#284,10.);
#88=VECTOR('',#285,10.);
#89=VECTOR('',#288,10.);
#90=VECTOR('',#289,10.);
#91=VECTOR('',#290,10.);
#92=VECTOR('',#293,10.);
#93=VECTOR('',#294,10.);
#94=VERTEX_POINT('',#301);
#95=VERTEX_POINT('',#302);
#96=VERTEX_POINT('',#304);
#97=VERTEX_POINT('',#306);
#98=VERTEX_POINT('',#310);
#99=VERTEX_POINT('',#312);
#100=VERTEX_POINT('',#316);
#101=VERTEX_POINT('',#318);
#102=VERTEX_POINT('',#322);
#103=VERTEX_POINT('',#324);
#104=VERTEX_POINT('',#329);
#105=VERTEX_POINT('',#330);
#106=VERTEX_POINT('',#332);
#107=VERTEX_POINT('',#334);
#108=VERTEX_POINT('',#338);
#109=VERTEX_POINT('',#340);
#110=VERTEX_POINT('',#347);
#111=VERTEX_POINT('',#349);
#112=EDGE_CURVE('',#94,#95,#44,.T.);
#113=EDGE_CURVE('',#95,#96,#45,.T.);
#114=EDGE_CURVE('',#96,#97,#46,.T.);
#115=EDGE_CURVE('',#97,#94,#47,.T.);
#116=EDGE_CURVE('',#95,#98,#48,.T.);
#117=EDGE_CURVE('',#99,#94,#49,.T.);
#118=EDGE_CURVE('',#98,#99,#50,.T.);
#119=EDGE_CURVE('',#100,#96,#51,.T.);
#120=EDGE_CURVE('',#100,#101,#52,.T.);
#121=EDGE_CURVE('',#101,#97,#53,.T.);
#122=EDGE_CURVE('',#102,#102,#16,.T.);
#123=EDGE_CURVE('',#102,#103,#54,.T.);
#124=EDGE_CURVE('',#103,#103,#17,.T.);
#125=EDGE_CURVE('',#104,#105,#55,.T.);
#126=EDGE_CURVE('',#104,#106,#56,.T.);
#127=EDGE_CURVE('',#107,#106,#57,.T.);
#128=EDGE_CURVE('',#105,#107,#58,.T.);
#129=EDGE_CURVE('',#105,#108,#59,.T.);
#130=EDGE_CURVE('',#109,#107,#60,.T.);
#131=EDGE_CURVE('',#108,#109,#61,.T.);
#132=EDGE_CURVE('',#108,#100,#62,.T.);
#133=EDGE_CURVE('',#109,#101,#63,.T.);
#134=EDGE_CURVE('',#98,#110,#64,.T.);
#135=EDGE_CURVE('',#111,#99,#65,.T.);
#136=EDGE_CURVE('',#110,#111,#66,.T.);
#137=EDGE_CURVE('',#110,#104,#67,.T.);
#138=EDGE_CURVE('',#106,#111,#68,.T.);
#139=ORIENTED_EDGE('',*,*,#112,.T.);
#140=ORIENTED_EDGE('',*,*,#113,.T.);
#141=ORIENTED_EDGE('',*,*,#114,.T.);
#142=ORIENTED_EDGE('',*,*,#115,.T.);
#143=ORIENTED_EDGE('',*,*,#116,.F.);
#144=ORIENTED_EDGE('',*,*,#112,.F.);
#145=ORIENTED_EDGE('',*,*,#117,.F.);
#146=ORIENTED_EDGE('',*,*,#118,.F.);
#147=ORIENTED_EDGE('',*,*,#119,.F.);
#148=ORIENTED_EDGE('',*,*,#120,.T.);
#149=ORIENTED_EDGE('',*,*,#121,.T.);
#150=ORIENTED_EDGE('',*,*,#114,.F.);
#151=ORIENTED_EDGE('',*,*,#122,.F.);
#152=ORIENTED_EDGE('',*,*,#123,.T.);
#153=ORIENTED_EDGE('',*,*,#124,.T.);
#154=ORIENTED_EDGE('',*,*,#123,.F.);
#155=ORIENTED_EDGE('',*,*,#124,.F.);
#156=ORIENTED_EDGE('',*,*,#125,.F.);
#157=ORIENTED_EDGE('',*,*,#126,.T.);
#158=ORIENTED_EDGE('',*,*,#127,.F.);
#159=ORIENTED_EDGE('',*,*,#128,.F.);
#160=ORIENTED_EDGE('',*,*,#122,.T.);
#161=ORIENTED_EDGE('',*,*,#129,.F.);
#162=ORIENTED_EDGE('',*,*,#128,.T.);
#163=ORIENTED_EDGE('',*,*,#130,.F.);
#164=ORIENTED_EDGE('',*,*,#131,.F.);
#165=ORIENTED_EDGE('',*,*,#132,.F.);
#166=ORIENTED_EDGE('',*,*,#131,.T.);
#167=ORIENTED_EDGE('',*,*,#133,.T.);
#168=ORIENTED_EDGE('',*,*,#120,.F.);
#169=ORIENTED_EDGE('',*,*,#134,.F.);
#170=ORIENTED_EDGE('',*,*,#118,.T.);
#171=ORIENTED_EDGE('',*,*,#135,.F.);
#172=ORIENTED_EDGE('',*,*,#136,.F.);
#173=ORIENTED_EDGE('',*,*,#137,.F.);
#174=ORIENTED_EDGE('',*,*,#136,.T.);
#175=ORIENTED_EDGE('',*,*,#138,.F.);
#176=ORIENTED_EDGE('',*,*,#126,.F.);
#177=ORIENTED_EDGE('',*,*,#117,.T.);
#178=ORIENTED_EDGE('',*,*,#115,.F.);
#179=ORIENTED_EDGE('',*,*,#121,.F.);
#180=ORIENTED_EDGE('',*,*,#133,.F.);
#181=ORIENTED_EDGE('',*,*,#130,.T.);
#182=ORIENTED_EDGE('',*,*,#127,.T.);
#183=ORIENTED_EDGE('',*,*,#138,.T.);
#184=ORIENTED_EDGE('',*,*,#135,.T.);
#185=ORIENTED_EDGE('',*,*,#134,.T.);
#186=ORIENTED_EDGE('',*,*,#137,.T.);
#187=ORIENTED_EDGE('',*,*,#125,.T.);
#188=ORIENTED_EDGE('',*,*,#129,.T.);
#189=ORIENTED_EDGE('',*,*,#132,.T.);
#190=ORIENTED_EDGE('',*,*,#119,.T.);
#191=ORIENTED_EDGE('',*,*,#113,.F.);
#192=ORIENTED_EDGE('',*,*,#116,.T.);
#193=PLANE('',#230);
#194=PLANE('',#231);
#195=PLANE('',#232);
#196=PLANE('',#236);
#197=PLANE('',#237);
#198=PLANE('',#238);
#199=PLANE('',#239);
#200=PLANE('',#240);
#201=PLANE('',#241);
#202=PLANE('',#242);
#203=PLANE('',#243);
#204=ADVANCED_FACE('',(#19),#193,.T.);
#205=ADVANCED_FACE('',(#20),#194,.F.);
#206=ADVANCED_FACE('',(#21),#195,.T.);
#207=ADVANCED_FACE('',(#22),#18,.F.);
#208=ADVANCED_FACE('',(#23),#196,.T.);
#209=ADVANCED_FACE('',(#24,#15),#197,.T.);
#210=ADVANCED_FACE('',(#25),#198,.T.);
#211=ADVANCED_FACE('',(#26),#199,.T.);
#212=ADVANCED_FACE('',(#27),#200,.T.);
#213=ADVANCED_FACE('',(#28),#201,.T.);
#214=ADVANCED_FACE('',(#29),#202,.T.);
#215=ADVANCED_FACE('',(#30),#203,.F.);
#216=CLOSED_SHELL('',(#204,#205,#206,#207,#208,#209,#210,#211,#212,#213,
#214,#215));
#217=DERIVED_UNIT_ELEMENT(#219,1.);
#218=DERIVED_UNIT_ELEMENT(#362,-3.);
#219=(
MASS_UNIT()
NAMED_UNIT(*)
SI_UNIT(.KILO.,.GRAM.)
);
#220=DERIVED_UNIT((#217,#218));
#221=MEASURE_REPRESENTATION_ITEM('density measure',
POSITIVE_RATIO_MEASURE(7850.),#220);
#222=PROPERTY_DEFINITION_REPRESENTATION(#227,#224);
#223=PROPERTY_DEFINITION_REPRESENTATION(#228,#225);
#224=REPRESENTATION('material name',(#226),#359);
#225=REPRESENTATION('density',(#221),#359);
#226=DESCRIPTIVE_REPRESENTATION_ITEM('Steel','Steel');
#227=PROPERTY_DEFINITION('material property','material name',#369);
#228=PROPERTY_DEFINITION('material property','density of part',#369);
#229=AXIS2_PLACEMENT_3D('',#299,#244,#245);
#230=AXIS2_PLACEMENT_3D('',#300,#246,#247);
#231=AXIS2_PLACEMENT_3D('',#309,#252,#253);
#232=AXIS2_PLACEMENT_3D('',#315,#257,#258);
#233=AXIS2_PLACEMENT_3D('',#321,#262,#263);
#234=AXIS2_PLACEMENT_3D('',#323,#264,#265);
#235=AXIS2_PLACEMENT_3D('',#326,#267,#268);
#236=AXIS2_PLACEMENT_3D('',#327,#269,#270);
#237=AXIS2_PLACEMENT_3D('',#328,#271,#272);
#238=AXIS2_PLACEMENT_3D('',#337,#277,#278);
#239=AXIS2_PLACEMENT_3D('',#343,#282,#283);
#240=AXIS2_PLACEMENT_3D('',#346,#286,#287);
#241=AXIS2_PLACEMENT_3D('',#352,#291,#292);
#242=AXIS2_PLACEMENT_3D('',#355,#295,#296);
#243=AXIS2_PLACEMENT_3D('',#356,#297,#298);
#244=DIRECTION('axis',(0.,0.,1.));
#245=DIRECTION('refdir',(1.,0.,0.));
#246=DIRECTION('center_axis',(0.,-1.,0.));
#247=DIRECTION('ref_axis',(0.,0.,-1.));
#248=DIRECTION('',(3.50324616081204E-46,0.,-1.));
#249=DIRECTION('',(1.,0.,1.22613615628421E-45));
#250=DIRECTION('',(-1.22613615628421E-45,0.,1.));
#251=DIRECTION('',(-1.,0.,-1.22613615628421E-45));
#252=DIRECTION('center_axis',(1.,0.,3.50324616081204E-46));
#253=DIRECTION('ref_axis',(3.50324616081204E-46,0.,-1.));
#254=DIRECTION('',(0.,1.,0.));
#255=DIRECTION('',(0.,-1.,0.));
#256=DIRECTION('',(-1.22613615628421E-45,0.,1.));
#257=DIRECTION('center_axis',(1.,0.,3.50324616081204E-46));
#258=DIRECTION('ref_axis',(3.50324616081204E-46,0.,-1.));
#259=DIRECTION('',(0.,-1.,0.));
#260=DIRECTION('',(-1.22613615628421E-45,0.,1.));
#261=DIRECTION('',(0.,-1.,0.));
#262=DIRECTION('center_axis',(0.,1.,0.));
#263=DIRECTION('ref_axis',(1.,0.,1.22613615628421E-45));
#264=DIRECTION('center_axis',(0.,1.,0.));
#265=DIRECTION('ref_axis',(1.,0.,1.22613615628421E-45));
#266=DIRECTION('',(0.,1.,0.));
#267=DIRECTION('center_axis',(0.,1.,0.));
#268=DIRECTION('ref_axis',(1.,0.,1.22613615628421E-45));
#269=DIRECTION('center_axis',(0.,-1.,0.));
#270=DIRECTION('ref_axis',(1.,0.,1.22613615628421E-45));
#271=DIRECTION('center_axis',(0.,-1.,0.));
#272=DIRECTION('ref_axis',(1.,0.,1.22613615628421E-45));
#273=DIRECTION('',(-1.,0.,-1.22613615628421E-45));
#274=DIRECTION('',(-1.22613615628421E-45,0.,1.));
#275=DIRECTION('',(1.,0.,1.22613615628421E-45));
#276=DIRECTION('',(-1.22613615628421E-45,0.,1.));
#277=DIRECTION('center_axis',(-1.,0.,-1.22613615628421E-45));
#278=DIRECTION('ref_axis',(0.,-1.,0.));
#279=DIRECTION('',(0.,1.,0.));
#280=DIRECTION('',(0.,-1.,0.));
#281=DIRECTION('',(-1.22613615628421E-45,0.,1.));
#282=DIRECTION('center_axis',(0.,1.,0.));
#283=DIRECTION('ref_axis',(-1.,0.,-1.22613615628421E-45));
#284=DIRECTION('',(1.,0.,3.50324616081204E-46));
#285=DIRECTION('',(1.,0.,3.50324616081204E-46));
#286=DIRECTION('center_axis',(0.,-1.,0.));
#287=DIRECTION('ref_axis',(1.,0.,1.22613615628421E-45));
#288=DIRECTION('',(-1.,0.,-1.22613615628421E-45));
#289=DIRECTION('',(1.,0.,1.22613615628421E-45));
#290=DIRECTION('',(-1.22613615628421E-45,0.,1.));
#291=DIRECTION('center_axis',(1.,0.,1.22613615628421E-45));
#292=DIRECTION('ref_axis',(0.,1.,0.));
#293=DIRECTION('',(0.,-1.,0.));
#294=DIRECTION('',(0.,1.,0.));
#295=DIRECTION('center_axis',(-1.22613615628421E-45,0.,1.));
#296=DIRECTION('ref_axis',(1.,0.,1.22613615628421E-45));
#297=DIRECTION('center_axis',(-1.22613615628421E-45,0.,1.));
#298=DIRECTION('ref_axis',(1.,0.,1.22613615628421E-45));
#299=CARTESIAN_POINT('',(0.,0.,0.));
#300=CARTESIAN_POINT('Origin',(39.0000000596046,2.00000044703483,-4.44089209850063E-15));
#301=CARTESIAN_POINT('',(45.0000000596046,2.00000044703483,10.));
#302=CARTESIAN_POINT('',(45.0000000596046,2.00000044703483,-4.44089209850063E-15));
#303=CARTESIAN_POINT('',(45.0000000596046,2.00000044703483,-4.44089209850063E-15));
#304=CARTESIAN_POINT('',(49.0000000596046,2.00000044703483,-4.44089209850063E-15));
#305=CARTESIAN_POINT('',(45.0000000596046,2.00000044703483,-4.44089209850063E-15));
#306=CARTESIAN_POINT('',(49.0000000596046,2.00000044703483,10.));
#307=CARTESIAN_POINT('',(49.0000000596046,2.00000044703483,-4.44089209850063E-15));
#308=CARTESIAN_POINT('',(45.0000000596046,2.00000044703483,10.));
#309=CARTESIAN_POINT('Origin',(45.0000000596046,25.0000004470348,-4.44089209850063E-15));
#310=CARTESIAN_POINT('',(45.0000000596046,25.0000004470348,-4.44089209850063E-15));
#311=CARTESIAN_POINT('',(45.0000000596046,25.5000004470348,-4.44089209850063E-15));
#312=CARTESIAN_POINT('',(45.0000000596046,25.0000004470348,10.));
#313=CARTESIAN_POINT('',(45.0000000596046,17.0000004470348,10.));
#314=CARTESIAN_POINT('',(45.0000000596046,25.0000004470348,-4.44089209850063E-15));
#315=CARTESIAN_POINT('Origin',(49.0000000596046,17.0000004470348,-4.44089209850063E-15));
#316=CARTESIAN_POINT('',(49.0000000596046,35.0000004470348,-4.44089209850063E-15));
#317=CARTESIAN_POINT('',(49.0000000596046,17.0000004470348,-4.44089209850063E-15));
#318=CARTESIAN_POINT('',(49.0000000596046,35.0000004470348,10.));
#319=CARTESIAN_POINT('',(49.0000000596046,35.0000004470348,-4.44089209850063E-15));
#320=CARTESIAN_POINT('',(49.0000000596046,35.0000004470348,10.));
#321=CARTESIAN_POINT('Origin',(-6.00000001490117,23.0000002682209,5.));
#322=CARTESIAN_POINT('',(-9.10000001490117,23.0000002682209,4.99999999999999));
#323=CARTESIAN_POINT('Origin',(-6.00000001490117,23.0000002682209,5.));
#324=CARTESIAN_POINT('',(-9.10000001490117,33.0000002682209,4.99999999999999));
#325=CARTESIAN_POINT('',(-9.10000001490117,23.0000002682209,5.));
#326=CARTESIAN_POINT('Origin',(-6.00000001490117,33.0000002682209,5.));
#327=CARTESIAN_POINT('Origin',(-6.00000001490117,33.0000002682209,5.));
#328=CARTESIAN_POINT('Origin',(-11.000000089407,23.0000002682209,-4.44089209850063E-15));
#329=CARTESIAN_POINT('',(-0.99999994039536,23.0000002682209,-4.44089209850063E-15));
#330=CARTESIAN_POINT('',(-11.000000089407,23.0000002682209,-4.44089209850063E-15));
#331=CARTESIAN_POINT('',(-0.99999994039536,23.0000002682209,-4.44089209850063E-15));
#332=CARTESIAN_POINT('',(-0.99999994039536,23.0000002682209,10.));
#333=CARTESIAN_POINT('',(-0.99999994039536,23.0000002682209,-4.44089209850063E-15));
#334=CARTESIAN_POINT('',(-11.000000089407,23.0000002682209,10.));
#335=CARTESIAN_POINT('',(-0.99999994039536,23.0000002682209,10.));
#336=CARTESIAN_POINT('',(-11.000000089407,23.0000002682209,-4.44089209850063E-15));
#337=CARTESIAN_POINT('Origin',(-11.000000089407,35.0000004470348,-4.44089209850063E-15));
#338=CARTESIAN_POINT('',(-11.000000089407,35.0000004470348,-4.44089209850063E-15));
#339=CARTESIAN_POINT('',(-11.000000089407,23.0000002682209,-4.44089209850063E-15));
#340=CARTESIAN_POINT('',(-11.000000089407,35.0000004470348,10.));
#341=CARTESIAN_POINT('',(-11.000000089407,23.0000002682209,10.));
#342=CARTESIAN_POINT('',(-11.000000089407,35.0000004470348,-4.44089209850063E-15));
#343=CARTESIAN_POINT('Origin',(45.0000000596046,35.0000004470348,-4.44089209850063E-15));
#344=CARTESIAN_POINT('',(45.0000000596046,35.0000004470348,-4.44089209850063E-15));
#345=CARTESIAN_POINT('',(45.0000000596046,35.0000004470348,10.));
#346=CARTESIAN_POINT('Origin',(-0.99999994039536,25.0000004470348,-4.44089209850063E-15));
#347=CARTESIAN_POINT('',(-0.99999994039536,25.0000004470348,-4.44089209850063E-15));
#348=CARTESIAN_POINT('',(39.0000000596046,25.0000004470348,-4.44089209850063E-15));
#349=CARTESIAN_POINT('',(-0.99999994039536,25.0000004470348,10.));
#350=CARTESIAN_POINT('',(39.0000000596046,25.0000004470348,10.));
#351=CARTESIAN_POINT('',(-0.99999994039536,25.0000004470348,-4.44089209850063E-15));
#352=CARTESIAN_POINT('Origin',(-0.99999994039536,23.0000002682209,-4.44089209850063E-15));
#353=CARTESIAN_POINT('',(-0.99999994039536,35.0000004470348,-4.44089209850063E-15));
#354=CARTESIAN_POINT('',(-0.99999994039536,35.0000004470348,10.));
#355=CARTESIAN_POINT('Origin',(16.9999999850988,26.0000004470348,10.));
#356=CARTESIAN_POINT('Origin',(16.9999999850988,26.0000004470348,-4.44089209850063E-15));
#357=UNCERTAINTY_MEASURE_WITH_UNIT(LENGTH_MEASURE(0.01),#361,
'DISTANCE_ACCURACY_VALUE',
'Maximum model space distance between geometric entities at asserted c
onnectivities');
#358=UNCERTAINTY_MEASURE_WITH_UNIT(LENGTH_MEASURE(0.01),#361,
'DISTANCE_ACCURACY_VALUE',
'Maximum model space distance between geometric entities at asserted c
onnectivities');
#359=(
GEOMETRIC_REPRESENTATION_CONTEXT(3)
GLOBAL_UNCERTAINTY_ASSIGNED_CONTEXT((#357))
GLOBAL_UNIT_ASSIGNED_CONTEXT((#361,#363,#364))
REPRESENTATION_CONTEXT('','3D')
);
#360=(
GEOMETRIC_REPRESENTATION_CONTEXT(3)
GLOBAL_UNCERTAINTY_ASSIGNED_CONTEXT((#358))
GLOBAL_UNIT_ASSIGNED_CONTEXT((#361,#363,#364))
REPRESENTATION_CONTEXT('','3D')
);
#361=(
LENGTH_UNIT()
NAMED_UNIT(*)
SI_UNIT(.MILLI.,.METRE.)
);
#362=(
LENGTH_UNIT()
NAMED_UNIT(*)
SI_UNIT($,.METRE.)
);
#363=(
NAMED_UNIT(*)
PLANE_ANGLE_UNIT()
SI_UNIT($,.RADIAN.)
);
#364=(
NAMED_UNIT(*)
SI_UNIT($,.STERADIAN.)
SOLID_ANGLE_UNIT()
);
#365=SHAPE_DEFINITION_REPRESENTATION(#366,#367);
#366=PRODUCT_DEFINITION_SHAPE('',$,#369);
#367=SHAPE_REPRESENTATION('',(#229),#359);
#368=PRODUCT_DEFINITION_CONTEXT('part definition',#373,'design');
#369=PRODUCT_DEFINITION('Arm2','Arm2 v1',#370,#368);
#370=PRODUCT_DEFINITION_FORMATION('',$,#375);
#371=PRODUCT_RELATED_PRODUCT_CATEGORY('Arm2 v1','Arm2 v1',(#375));
#372=APPLICATION_PROTOCOL_DEFINITION('international standard',
'automotive_design',2009,#373);
#373=APPLICATION_CONTEXT(
'Core Data for Automotive Mechanical Design Process');
#374=PRODUCT_CONTEXT('part definition',#373,'mechanical');
#375=PRODUCT('Arm2','Arm2 v1',$,(#374));
#376=PRESENTATION_STYLE_ASSIGNMENT((#377));
#377=SURFACE_STYLE_USAGE(.BOTH.,#378);
#378=SURFACE_SIDE_STYLE('',(#379));
#379=SURFACE_STYLE_FILL_AREA(#380);
#380=FILL_AREA_STYLE('Steel - Satin',(#381));
#381=FILL_AREA_STYLE_COLOUR('Steel - Satin',#382);
#382=COLOUR_RGB('Steel - Satin',0.627450980392157,0.627450980392157,0.627450980392157);
ENDSEC;
END-ISO-10303-21;
