ISO-10303-21;
HEADER;
/* Generated by software containing ST-Developer
 * from STEP Tools, Inc. (www.steptools.com) 
 */

FILE_DESCRIPTION(
/* description */ (''),
/* implementation_level */ '2;1');

FILE_NAME(
/* name */ 'Arm3.step',
/* time_stamp */ '2026-02-04T07:49:36+02:00',
/* author */ (''),
/* organization */ (''),
/* preprocessor_version */ 'ST-DEVELOPER v20.1',
/* originating_system */ 'Autodesk Translation Framework v14.21.0.0',
/* authorisation */ '');

FILE_SCHEMA (('AUTOMOTIVE_DESIGN { 1 0 10303 214 3 1 1 }'));
ENDSEC;

DATA;
#10=MECHANICAL_DESIGN_GEOMETRIC_PRESENTATION_REPRESENTATION('',(#13),#228);
#11=SHAPE_REPRESENTATION_RELATIONSHIP('SRR','None',#235,#12);
#12=ADVANCED_BREP_SHAPE_REPRESENTATION('',(#14),#227);
#13=STYLED_ITEM('',(#244),#14);
#14=MANIFOLD_SOLID_BREP('Body1',#132);
#15=CYLINDRICAL_SURFACE('',#155,3.1);
#16=FACE_BOUND('',#58,.T.);
#17=LINE('',#198,#30);
#18=LINE('',#200,#31);
#19=LINE('',#202,#32);
#20=LINE('',#203,#33);
#21=LINE('',#206,#34);
#22=LINE('',#208,#35);
#23=LINE('',#209,#36);
#24=LINE('',#212,#37);
#25=LINE('',#213,#38);
#26=LINE('',#216,#39);
#27=LINE('',#217,#40);
#28=LINE('',#219,#41);
#29=LINE('',#224,#42);
#30=VECTOR('',#164,10.);
#31=VECTOR('',#165,10.);
#32=VECTOR('',#166,10.);
#33=VECTOR('',#167,10.);
#34=VECTOR('',#170,10.);
#35=VECTOR('',#171,10.);
#36=VECTOR('',#172,10.);
#37=VECTOR('',#175,10.);
#38=VECTOR('',#176,10.);
#39=VECTOR('',#179,10.);
#40=VECTOR('',#180,10.);
#41=VECTOR('',#183,10.);
#42=VECTOR('',#190,3.1);
#43=FACE_OUTER_BOUND('',#51,.T.);
#44=FACE_OUTER_BOUND('',#52,.T.);
#45=FACE_OUTER_BOUND('',#53,.T.);
#46=FACE_OUTER_BOUND('',#54,.T.);
#47=FACE_OUTER_BOUND('',#55,.T.);
#48=FACE_OUTER_BOUND('',#56,.T.);
#49=FACE_OUTER_BOUND('',#57,.T.);
#50=FACE_OUTER_BOUND('',#59,.T.);
#51=EDGE_LOOP('',(#87));
#52=EDGE_LOOP('',(#88,#89,#90,#91));
#53=EDGE_LOOP('',(#92,#93,#94,#95));
#54=EDGE_LOOP('',(#96,#97,#98,#99));
#55=EDGE_LOOP('',(#100,#101,#102,#103));
#56=EDGE_LOOP('',(#104,#105,#106,#107));
#57=EDGE_LOOP('',(#108,#109,#110,#111));
#58=EDGE_LOOP('',(#112));
#59=EDGE_LOOP('',(#113,#114,#115,#116));
#60=CIRCLE('',#147,3.1);
#61=CIRCLE('',#154,3.1);
#62=VERTEX_POINT('',#193);
#63=VERTEX_POINT('',#196);
#64=VERTEX_POINT('',#197);
#65=VERTEX_POINT('',#199);
#66=VERTEX_POINT('',#201);
#67=VERTEX_POINT('',#205);
#68=VERTEX_POINT('',#207);
#69=VERTEX_POINT('',#211);
#70=VERTEX_POINT('',#215);
#71=VERTEX_POINT('',#221);
#72=EDGE_CURVE('',#62,#62,#60,.T.);
#73=EDGE_CURVE('',#63,#64,#17,.T.);
#74=EDGE_CURVE('',#64,#65,#18,.T.);
#75=EDGE_CURVE('',#65,#66,#19,.T.);
#76=EDGE_CURVE('',#66,#63,#20,.T.);
#77=EDGE_CURVE('',#63,#67,#21,.T.);
#78=EDGE_CURVE('',#67,#68,#22,.T.);
#79=EDGE_CURVE('',#68,#64,#23,.T.);
#80=EDGE_CURVE('',#69,#66,#24,.T.);
#81=EDGE_CURVE('',#69,#67,#25,.T.);
#82=EDGE_CURVE('',#65,#70,#26,.T.);
#83=EDGE_CURVE('',#70,#69,#27,.T.);
#84=EDGE_CURVE('',#70,#68,#28,.T.);
#85=EDGE_CURVE('',#71,#71,#61,.T.);
#86=EDGE_CURVE('',#71,#62,#29,.T.);
#87=ORIENTED_EDGE('',*,*,#72,.F.);
#88=ORIENTED_EDGE('',*,*,#73,.T.);
#89=ORIENTED_EDGE('',*,*,#74,.T.);
#90=ORIENTED_EDGE('',*,*,#75,.T.);
#91=ORIENTED_EDGE('',*,*,#76,.T.);
#92=ORIENTED_EDGE('',*,*,#77,.T.);
#93=ORIENTED_EDGE('',*,*,#78,.T.);
#94=ORIENTED_EDGE('',*,*,#79,.T.);
#95=ORIENTED_EDGE('',*,*,#73,.F.);
#96=ORIENTED_EDGE('',*,*,#80,.F.);
#97=ORIENTED_EDGE('',*,*,#81,.T.);
#98=ORIENTED_EDGE('',*,*,#77,.F.);
#99=ORIENTED_EDGE('',*,*,#76,.F.);
#100=ORIENTED_EDGE('',*,*,#82,.T.);
#101=ORIENTED_EDGE('',*,*,#83,.T.);
#102=ORIENTED_EDGE('',*,*,#80,.T.);
#103=ORIENTED_EDGE('',*,*,#75,.F.);
#104=ORIENTED_EDGE('',*,*,#79,.F.);
#105=ORIENTED_EDGE('',*,*,#84,.F.);
#106=ORIENTED_EDGE('',*,*,#82,.F.);
#107=ORIENTED_EDGE('',*,*,#74,.F.);
#108=ORIENTED_EDGE('',*,*,#84,.T.);
#109=ORIENTED_EDGE('',*,*,#78,.F.);
#110=ORIENTED_EDGE('',*,*,#81,.F.);
#111=ORIENTED_EDGE('',*,*,#83,.F.);
#112=ORIENTED_EDGE('',*,*,#85,.T.);
#113=ORIENTED_EDGE('',*,*,#85,.F.);
#114=ORIENTED_EDGE('',*,*,#86,.T.);
#115=ORIENTED_EDGE('',*,*,#72,.T.);
#116=ORIENTED_EDGE('',*,*,#86,.F.);
#117=PLANE('',#146);
#118=PLANE('',#148);
#119=PLANE('',#149);
#120=PLANE('',#150);
#121=PLANE('',#151);
#122=PLANE('',#152);
#123=PLANE('',#153);
#124=ADVANCED_FACE('',(#43),#117,.F.);
#125=ADVANCED_FACE('',(#44),#118,.T.);
#126=ADVANCED_FACE('',(#45),#119,.F.);
#127=ADVANCED_FACE('',(#46),#120,.F.);
#128=ADVANCED_FACE('',(#47),#121,.T.);
#129=ADVANCED_FACE('',(#48),#122,.F.);
#130=ADVANCED_FACE('',(#49,#16),#123,.F.);
#131=ADVANCED_FACE('',(#50),#15,.F.);
#132=CLOSED_SHELL('',(#124,#125,#126,#127,#128,#129,#130,#131));
#133=DERIVED_UNIT_ELEMENT(#135,1.);
#134=DERIVED_UNIT_ELEMENT(#230,-3.);
#135=(
MASS_UNIT()
NAMED_UNIT(*)
SI_UNIT(.KILO.,.GRAM.)
);
#136=DERIVED_UNIT((#133,#134));
#137=MEASURE_REPRESENTATION_ITEM('density measure',
POSITIVE_RATIO_MEASURE(7850.),#136);
#138=PROPERTY_DEFINITION_REPRESENTATION(#143,#140);
#139=PROPERTY_DEFINITION_REPRESENTATION(#144,#141);
#140=REPRESENTATION('material name',(#142),#227);
#141=REPRESENTATION('density',(#137),#227);
#142=DESCRIPTIVE_REPRESENTATION_ITEM('Steel','Steel');
#143=PROPERTY_DEFINITION('material property','material name',#237);
#144=PROPERTY_DEFINITION('material property','density of part',#237);
#145=AXIS2_PLACEMENT_3D('',#191,#156,#157);
#146=AXIS2_PLACEMENT_3D('',#192,#158,#159);
#147=AXIS2_PLACEMENT_3D('',#194,#160,#161);
#148=AXIS2_PLACEMENT_3D('',#195,#162,#163);
#149=AXIS2_PLACEMENT_3D('',#204,#168,#169);
#150=AXIS2_PLACEMENT_3D('',#210,#173,#174);
#151=AXIS2_PLACEMENT_3D('',#214,#177,#178);
#152=AXIS2_PLACEMENT_3D('',#218,#181,#182);
#153=AXIS2_PLACEMENT_3D('',#220,#184,#185);
#154=AXIS2_PLACEMENT_3D('',#222,#186,#187);
#155=AXIS2_PLACEMENT_3D('',#223,#188,#189);
#156=DIRECTION('axis',(0.,0.,1.));
#157=DIRECTION('refdir',(1.,0.,0.));
#158=DIRECTION('center_axis',(0.,0.,1.));
#159=DIRECTION('ref_axis',(-1.,0.,0.));
#160=DIRECTION('center_axis',(2.08166817117217E-16,-4.16333634234433E-15,
1.));
#161=DIRECTION('ref_axis',(1.,4.93038065763112E-32,-2.22044604925031E-16));
#162=DIRECTION('center_axis',(0.,0.,1.));
#163=DIRECTION('ref_axis',(1.,0.,0.));
#164=DIRECTION('',(-1.,0.,0.));
#165=DIRECTION('',(0.,-1.,0.));
#166=DIRECTION('',(1.,-2.01858730382788E-16,0.));
#167=DIRECTION('',(4.44089209850063E-16,1.,0.));
#168=DIRECTION('center_axis',(-8.96712982106699E-31,-1.,-4.26048085699904E-15));
#169=DIRECTION('ref_axis',(1.,4.93038065763112E-32,-2.22044604925031E-16));
#170=DIRECTION('',(0.,4.26048085699904E-15,-1.));
#171=DIRECTION('',(-1.,8.96712982106699E-31,3.81628036365805E-45));
#172=DIRECTION('',(0.,-4.26048085699904E-15,1.));
#173=DIRECTION('center_axis',(-1.,0.,0.));
#174=DIRECTION('ref_axis',(0.,0.,1.));
#175=DIRECTION('',(0.,0.,1.));
#176=DIRECTION('',(0.,1.,4.25585492772977E-15));
#177=DIRECTION('center_axis',(-8.96712982106699E-31,-1.,-4.26048085699904E-15));
#178=DIRECTION('ref_axis',(1.,4.93038065763112E-32,-2.22044604925031E-16));
#179=DIRECTION('',(0.,4.26048085699904E-15,-1.));
#180=DIRECTION('',(1.,-8.96712982106699E-31,-3.81628036365805E-45));
#181=DIRECTION('center_axis',(1.,0.,0.));
#182=DIRECTION('ref_axis',(0.,0.,-1.));
#183=DIRECTION('',(0.,1.,4.25585492772977E-15));
#184=DIRECTION('center_axis',(0.,-4.25585492772977E-15,1.));
#185=DIRECTION('ref_axis',(1.,0.,0.));
#186=DIRECTION('center_axis',(2.22044604925031E-16,-4.26048085699904E-15,
1.));
#187=DIRECTION('ref_axis',(1.,4.93038065763112E-32,-2.22044604925031E-16));
#188=DIRECTION('center_axis',(2.22044604925031E-16,-4.26048085699904E-15,
1.));
#189=DIRECTION('ref_axis',(1.,4.93038065763112E-32,-2.22044604925031E-16));
#190=DIRECTION('',(2.22044604925031E-16,-4.26048085699904E-15,1.));
#191=CARTESIAN_POINT('',(0.,0.,0.));
#192=CARTESIAN_POINT('Origin',(9.99999998509884,-12.9955280097808,51.195528456816));
#193=CARTESIAN_POINT('',(0.899999985098849,-12.995528009781,51.195528456816));
#194=CARTESIAN_POINT('Origin',(3.99999998509885,-12.995528009781,51.195528456816));
#195=CARTESIAN_POINT('Origin',(9.99999998509884,-12.9955280097808,52.1955284568159));
#196=CARTESIAN_POINT('',(21.0000000596047,-7.99552800978083,52.1955284568159));
#197=CARTESIAN_POINT('',(-1.00000008940697,-7.99552800978083,52.1955284568159));
#198=CARTESIAN_POINT('',(21.0000000596047,-7.99552800978083,52.1955284568159));
#199=CARTESIAN_POINT('',(-1.00000008940697,-17.9955280097808,52.1955284568159));
#200=CARTESIAN_POINT('',(-1.00000008940697,-7.99552800978083,52.1955284568159));
#201=CARTESIAN_POINT('',(21.0000000596047,-17.9955280097808,52.1955284568159));
#202=CARTESIAN_POINT('',(-1.00000008940697,-17.9955280097808,52.1955284568159));
#203=CARTESIAN_POINT('',(21.0000000596047,-17.9955280097808,52.1955284568159));
#204=CARTESIAN_POINT('Origin',(-3.00000001490115,-7.99552800978103,47.1955284568159));
#205=CARTESIAN_POINT('',(21.0000000596047,-7.99552800978102,44.195528456816));
#206=CARTESIAN_POINT('',(21.0000000596047,-7.99552800978101,42.695528456816));
#207=CARTESIAN_POINT('',(-1.00000008940696,-7.99552800978102,44.195528278002));
#208=CARTESIAN_POINT('',(8.00000002235175,-7.99552800978102,44.195528456816));
#209=CARTESIAN_POINT('',(-1.00000008940696,-7.99552800978105,51.695528456816));
#210=CARTESIAN_POINT('Origin',(21.0000000596047,-7.99552800978099,38.195528456816));
#211=CARTESIAN_POINT('',(21.0000000596047,-17.995528009781,44.1955284568159));
#212=CARTESIAN_POINT('',(21.0000000596047,-17.9955280097808,51.195528456816));
#213=CARTESIAN_POINT('',(21.0000000596047,-7.99552800978102,44.195528456816));
#214=CARTESIAN_POINT('Origin',(-3.00000001490115,-17.995528009781,47.1955284568159));
#215=CARTESIAN_POINT('',(-1.00000008940696,-17.995528009781,44.195528278002));
#216=CARTESIAN_POINT('',(-1.00000008940696,-17.9955280097811,51.6955284568159));
#217=CARTESIAN_POINT('',(8.00000002235175,-17.995528009781,44.1955284568159));
#218=CARTESIAN_POINT('Origin',(-1.00000008940696,-7.99552800978107,56.195528456816));
#219=CARTESIAN_POINT('',(-1.00000008940696,-7.99552800978102,44.195528456816));
#220=CARTESIAN_POINT('Origin',(19.0000000596047,-7.99552800978102,44.195528456816));
#221=CARTESIAN_POINT('',(0.899999985098852,-12.995528009781,44.195528278002));
#222=CARTESIAN_POINT('Origin',(3.99999998509885,-12.995528009781,44.195528278002));
#223=CARTESIAN_POINT('Origin',(3.99999998509885,-12.995528009781,44.195528278002));
#224=CARTESIAN_POINT('',(0.899999985098847,-12.995528009781,44.195528278002));
#225=UNCERTAINTY_MEASURE_WITH_UNIT(LENGTH_MEASURE(0.01),#229,
'DISTANCE_ACCURACY_VALUE',
'Maximum model space distance between geometric entities at asserted c
onnectivities');
#226=UNCERTAINTY_MEASURE_WITH_UNIT(LENGTH_MEASURE(0.01),#229,
'DISTANCE_ACCURACY_VALUE',
'Maximum model space distance between geometric entities at asserted c
onnectivities');
#227=(
GEOMETRIC_REPRESENTATION_CONTEXT(3)
GLOBAL_UNCERTAINTY_ASSIGNED_CONTEXT((#225))
GLOBAL_UNIT_ASSIGNED_CONTEXT((#229,#231,#232))
REPRESENTATION_CONTEXT('','3D')
);
#228=(
GEOMETRIC_REPRESENTATION_CONTEXT(3)
GLOBAL_UNCERTAINTY_ASSIGNED_CONTEXT((#226))
GLOBAL_UNIT_ASSIGNED_CONTEXT((#229,#231,#232))
REPRESENTATION_CONTEXT('','3D')
);
#229=(
LENGTH_UNIT()
NAMED_UNIT(*)
SI_UNIT(.MILLI.,.METRE.)
);
#230=(
LENGTH_UNIT()
NAMED_UNIT(*)
SI_UNIT($,.METRE.)
);
#231=(
NAMED_UNIT(*)
PLANE_ANGLE_UNIT()
SI_UNIT($,.RADIAN.)
);
#232=(
NAMED_UNIT(*)
SI_UNIT($,.STERADIAN.)
SOLID_ANGLE_UNIT()
);
#233=SHAPE_DEFINITION_REPRESENTATION(#234,#235);
#234=PRODUCT_DEFINITION_SHAPE('',$,#237);
#235=SHAPE_REPRESENTATION('',(#145),#227);
#236=PRODUCT_DEFINITION_CONTEXT('part definition',#241,'design');
#237=PRODUCT_DEFINITION('Arm3','Arm3 v1',#238,#236);
#238=PRODUCT_DEFINITION_FORMATION('',$,#243);
#239=PRODUCT_RELATED_PRODUCT_CATEGORY('Arm3 v1','Arm3 v1',(#243));
#240=APPLICATION_PROTOCOL_DEFINITION('international standard',
'automotive_design',2009,#241);
#241=APPLICATION_CONTEXT(
'Core Data for Automotive Mechanical Design Process');
#242=PRODUCT_CONTEXT('part definition',#241,'mechanical');
#243=PRODUCT('Arm3','Arm3 v1',$,(#242));
#244=PRESENTATION_STYLE_ASSIGNMENT((#245));
#245=SURFACE_STYLE_USAGE(.BOTH.,#246);
#246=SURFACE_SIDE_STYLE('',(#247));
#247=SURFACE_STYLE_FILL_AREA(#248);
#248=FILL_AREA_STYLE('Steel - Satin',(#249));
#249=FILL_AREA_STYLE_COLOUR('Steel - Satin',#250);
#250=COLOUR_RGB('Steel - Satin',0.627450980392157,0.627450980392157,0.627450980392157);
ENDSEC;
END-ISO-10303-21;
