ISO-10303-21;
HEADER;
/* Generated by software containing ST-Developer
 * from STEP Tools, Inc. (www.steptools.com) 
 */

FILE_DESCRIPTION(
/* description */ (''),
/* implementation_level */ '2;1');

FILE_NAME(
/* name */ 'PowerSupply.step',
/* time_stamp */ '2026-02-04T07:51:06+02:00',
/* author */ (''),
/* organization */ (''),
/* preprocessor_version */ 'ST-DEVELOPER v20.1',
/* originating_system */ 'Autodesk Translation Framework v14.21.0.0',
/* authorisation */ '');

FILE_SCHEMA (('AUTOMOTIVE_DESIGN { 1 0 10303 214 3 1 1 }'));
ENDSEC;

DATA;
#10=MECHANICAL_DESIGN_GEOMETRIC_PRESENTATION_REPRESENTATION('',(#13),#2031);
#11=SHAPE_REPRESENTATION_RELATIONSHIP('SRR','None',#2038,#12);
#12=ADVANCED_BREP_SHAPE_REPRESENTATION('',(#14),#2030);
#13=STYLED_ITEM('',(#2047),#14);
#14=MANIFOLD_SOLID_BREP('Body1',#1283);
#15=FACE_OUTER_BOUND('',#77,.T.);
#16=FACE_OUTER_BOUND('',#78,.T.);
#17=FACE_OUTER_BOUND('',#79,.T.);
#18=FACE_OUTER_BOUND('',#80,.T.);
#19=FACE_OUTER_BOUND('',#81,.T.);
#20=FACE_OUTER_BOUND('',#82,.T.);
#21=FACE_OUTER_BOUND('',#83,.T.);
#22=FACE_OUTER_BOUND('',#84,.T.);
#23=FACE_OUTER_BOUND('',#85,.T.);
#24=FACE_OUTER_BOUND('',#86,.T.);
#25=FACE_OUTER_BOUND('',#87,.T.);
#26=FACE_OUTER_BOUND('',#88,.T.);
#27=FACE_OUTER_BOUND('',#89,.T.);
#28=FACE_OUTER_BOUND('',#90,.T.);
#29=FACE_OUTER_BOUND('',#91,.T.);
#30=FACE_OUTER_BOUND('',#92,.T.);
#31=FACE_OUTER_BOUND('',#93,.T.);
#32=FACE_OUTER_BOUND('',#94,.T.);
#33=FACE_OUTER_BOUND('',#95,.T.);
#34=FACE_OUTER_BOUND('',#96,.T.);
#35=FACE_OUTER_BOUND('',#97,.T.);
#36=FACE_OUTER_BOUND('',#98,.T.);
#37=FACE_OUTER_BOUND('',#99,.T.);
#38=FACE_OUTER_BOUND('',#100,.T.);
#39=FACE_OUTER_BOUND('',#101,.T.);
#40=FACE_OUTER_BOUND('',#102,.T.);
#41=FACE_OUTER_BOUND('',#103,.T.);
#42=FACE_OUTER_BOUND('',#104,.T.);
#43=FACE_OUTER_BOUND('',#105,.T.);
#44=FACE_OUTER_BOUND('',#106,.T.);
#45=FACE_OUTER_BOUND('',#107,.T.);
#46=FACE_OUTER_BOUND('',#108,.T.);
#47=FACE_OUTER_BOUND('',#109,.T.);
#48=FACE_OUTER_BOUND('',#110,.T.);
#49=FACE_OUTER_BOUND('',#111,.T.);
#50=FACE_OUTER_BOUND('',#112,.T.);
#51=FACE_OUTER_BOUND('',#113,.T.);
#52=FACE_OUTER_BOUND('',#114,.T.);
#53=FACE_OUTER_BOUND('',#115,.T.);
#54=FACE_OUTER_BOUND('',#116,.T.);
#55=FACE_OUTER_BOUND('',#117,.T.);
#56=FACE_OUTER_BOUND('',#118,.T.);
#57=FACE_OUTER_BOUND('',#119,.T.);
#58=FACE_OUTER_BOUND('',#120,.T.);
#59=FACE_OUTER_BOUND('',#121,.T.);
#60=FACE_OUTER_BOUND('',#122,.T.);
#61=FACE_OUTER_BOUND('',#123,.T.);
#62=FACE_OUTER_BOUND('',#124,.T.);
#63=FACE_OUTER_BOUND('',#125,.T.);
#64=FACE_OUTER_BOUND('',#126,.T.);
#65=FACE_OUTER_BOUND('',#127,.T.);
#66=FACE_OUTER_BOUND('',#128,.T.);
#67=FACE_OUTER_BOUND('',#129,.T.);
#68=FACE_OUTER_BOUND('',#130,.T.);
#69=FACE_OUTER_BOUND('',#131,.T.);
#70=FACE_OUTER_BOUND('',#132,.T.);
#71=FACE_OUTER_BOUND('',#133,.T.);
#72=FACE_OUTER_BOUND('',#134,.T.);
#73=FACE_OUTER_BOUND('',#135,.T.);
#74=FACE_OUTER_BOUND('',#136,.T.);
#75=FACE_OUTER_BOUND('',#137,.T.);
#76=FACE_OUTER_BOUND('',#138,.T.);
#77=EDGE_LOOP('',(#799,#800,#801,#802,#803,#804,#805,#806));
#78=EDGE_LOOP('',(#807,#808,#809,#810,#811,#812));
#79=EDGE_LOOP('',(#813,#814,#815,#816,#817,#818,#819,#820,#821,#822,#823,
#824,#825,#826,#827,#828,#829,#830));
#80=EDGE_LOOP('',(#831,#832,#833,#834,#835,#836,#837,#838,#839,#840,#841,
#842,#843,#844,#845,#846));
#81=EDGE_LOOP('',(#847,#848,#849,#850));
#82=EDGE_LOOP('',(#851,#852,#853,#854));
#83=EDGE_LOOP('',(#855,#856,#857,#858));
#84=EDGE_LOOP('',(#859,#860,#861,#862));
#85=EDGE_LOOP('',(#863,#864,#865,#866,#867,#868,#869,#870,#871,#872,#873,
#874));
#86=EDGE_LOOP('',(#875,#876,#877,#878));
#87=EDGE_LOOP('',(#879,#880,#881,#882));
#88=EDGE_LOOP('',(#883,#884,#885,#886,#887,#888,#889,#890,#891,#892,#893,
#894));
#89=EDGE_LOOP('',(#895,#896,#897,#898));
#90=EDGE_LOOP('',(#899,#900,#901,#902,#903,#904,#905,#906));
#91=EDGE_LOOP('',(#907,#908,#909,#910,#911,#912,#913,#914,#915,#916,#917,
#918));
#92=EDGE_LOOP('',(#919,#920,#921,#922,#923,#924,#925,#926,#927,#928,#929,
#930));
#93=EDGE_LOOP('',(#931,#932,#933,#934,#935,#936,#937,#938,#939,#940,#941,
#942));
#94=EDGE_LOOP('',(#943,#944,#945,#946));
#95=EDGE_LOOP('',(#947,#948,#949,#950));
#96=EDGE_LOOP('',(#951,#952,#953,#954));
#97=EDGE_LOOP('',(#955,#956,#957,#958));
#98=EDGE_LOOP('',(#959,#960,#961,#962));
#99=EDGE_LOOP('',(#963,#964,#965,#966,#967,#968,#969,#970));
#100=EDGE_LOOP('',(#971,#972,#973,#974));
#101=EDGE_LOOP('',(#975,#976,#977,#978));
#102=EDGE_LOOP('',(#979,#980,#981,#982));
#103=EDGE_LOOP('',(#983,#984,#985,#986,#987,#988,#989,#990));
#104=EDGE_LOOP('',(#991,#992,#993,#994));
#105=EDGE_LOOP('',(#995,#996,#997,#998));
#106=EDGE_LOOP('',(#999,#1000,#1001,#1002));
#107=EDGE_LOOP('',(#1003,#1004,#1005,#1006));
#108=EDGE_LOOP('',(#1007,#1008,#1009,#1010));
#109=EDGE_LOOP('',(#1011,#1012,#1013,#1014));
#110=EDGE_LOOP('',(#1015,#1016,#1017,#1018));
#111=EDGE_LOOP('',(#1019,#1020,#1021,#1022));
#112=EDGE_LOOP('',(#1023,#1024,#1025,#1026));
#113=EDGE_LOOP('',(#1027,#1028,#1029,#1030));
#114=EDGE_LOOP('',(#1031,#1032,#1033,#1034));
#115=EDGE_LOOP('',(#1035,#1036,#1037,#1038));
#116=EDGE_LOOP('',(#1039,#1040,#1041,#1042));
#117=EDGE_LOOP('',(#1043,#1044,#1045,#1046));
#118=EDGE_LOOP('',(#1047,#1048,#1049,#1050));
#119=EDGE_LOOP('',(#1051,#1052,#1053,#1054));
#120=EDGE_LOOP('',(#1055,#1056,#1057,#1058,#1059,#1060,#1061,#1062,#1063,
#1064,#1065,#1066));
#121=EDGE_LOOP('',(#1067,#1068,#1069,#1070));
#122=EDGE_LOOP('',(#1071,#1072,#1073,#1074));
#123=EDGE_LOOP('',(#1075,#1076,#1077,#1078));
#124=EDGE_LOOP('',(#1079,#1080,#1081,#1082));
#125=EDGE_LOOP('',(#1083,#1084,#1085,#1086));
#126=EDGE_LOOP('',(#1087,#1088,#1089,#1090,#1091,#1092,#1093,#1094,#1095,
#1096,#1097,#1098));
#127=EDGE_LOOP('',(#1099,#1100,#1101,#1102));
#128=EDGE_LOOP('',(#1103,#1104,#1105,#1106,#1107,#1108,#1109,#1110));
#129=EDGE_LOOP('',(#1111,#1112,#1113,#1114));
#130=EDGE_LOOP('',(#1115,#1116,#1117,#1118));
#131=EDGE_LOOP('',(#1119,#1120,#1121,#1122));
#132=EDGE_LOOP('',(#1123,#1124,#1125,#1126));
#133=EDGE_LOOP('',(#1127,#1128,#1129,#1130));
#134=EDGE_LOOP('',(#1131,#1132,#1133,#1134));
#135=EDGE_LOOP('',(#1135,#1136,#1137,#1138,#1139,#1140,#1141,#1142,#1143,
#1144,#1145,#1146));
#136=EDGE_LOOP('',(#1147,#1148,#1149,#1150));
#137=EDGE_LOOP('',(#1151,#1152,#1153,#1154));
#138=EDGE_LOOP('',(#1155,#1156,#1157,#1158));
#139=LINE('',#1669,#319);
#140=LINE('',#1671,#320);
#141=LINE('',#1673,#321);
#142=LINE('',#1675,#322);
#143=LINE('',#1677,#323);
#144=LINE('',#1679,#324);
#145=LINE('',#1681,#325);
#146=LINE('',#1682,#326);
#147=LINE('',#1686,#327);
#148=LINE('',#1688,#328);
#149=LINE('',#1690,#329);
#150=LINE('',#1692,#330);
#151=LINE('',#1694,#331);
#152=LINE('',#1695,#332);
#153=LINE('',#1699,#333);
#154=LINE('',#1701,#334);
#155=LINE('',#1703,#335);
#156=LINE('',#1705,#336);
#157=LINE('',#1707,#337);
#158=LINE('',#1709,#338);
#159=LINE('',#1711,#339);
#160=LINE('',#1713,#340);
#161=LINE('',#1715,#341);
#162=LINE('',#1717,#342);
#163=LINE('',#1719,#343);
#164=LINE('',#1721,#344);
#165=LINE('',#1723,#345);
#166=LINE('',#1725,#346);
#167=LINE('',#1727,#347);
#168=LINE('',#1729,#348);
#169=LINE('',#1731,#349);
#170=LINE('',#1732,#350);
#171=LINE('',#1736,#351);
#172=LINE('',#1738,#352);
#173=LINE('',#1740,#353);
#174=LINE('',#1742,#354);
#175=LINE('',#1744,#355);
#176=LINE('',#1746,#356);
#177=LINE('',#1748,#357);
#178=LINE('',#1750,#358);
#179=LINE('',#1752,#359);
#180=LINE('',#1754,#360);
#181=LINE('',#1756,#361);
#182=LINE('',#1758,#362);
#183=LINE('',#1760,#363);
#184=LINE('',#1762,#364);
#185=LINE('',#1764,#365);
#186=LINE('',#1765,#366);
#187=LINE('',#1769,#367);
#188=LINE('',#1770,#368);
#189=LINE('',#1771,#369);
#190=LINE('',#1775,#370);
#191=LINE('',#1776,#371);
#192=LINE('',#1777,#372);
#193=LINE('',#1781,#373);
#194=LINE('',#1782,#374);
#195=LINE('',#1783,#375);
#196=LINE('',#1787,#376);
#197=LINE('',#1788,#377);
#198=LINE('',#1789,#378);
#199=LINE('',#1791,#379);
#200=LINE('',#1793,#380);
#201=LINE('',#1795,#381);
#202=LINE('',#1796,#382);
#203=LINE('',#1797,#383);
#204=LINE('',#1799,#384);
#205=LINE('',#1801,#385);
#206=LINE('',#1802,#386);
#207=LINE('',#1806,#387);
#208=LINE('',#1807,#388);
#209=LINE('',#1808,#389);
#210=LINE('',#1812,#390);
#211=LINE('',#1813,#391);
#212=LINE('',#1814,#392);
#213=LINE('',#1817,#393);
#214=LINE('',#1819,#394);
#215=LINE('',#1821,#395);
#216=LINE('',#1823,#396);
#217=LINE('',#1825,#397);
#218=LINE('',#1826,#398);
#219=LINE('',#1828,#399);
#220=LINE('',#1830,#400);
#221=LINE('',#1832,#401);
#222=LINE('',#1833,#402);
#223=LINE('',#1835,#403);
#224=LINE('',#1836,#404);
#225=LINE('',#1839,#405);
#226=LINE('',#1841,#406);
#227=LINE('',#1842,#407);
#228=LINE('',#1846,#408);
#229=LINE('',#1848,#409);
#230=LINE('',#1850,#410);
#231=LINE('',#1852,#411);
#232=LINE('',#1854,#412);
#233=LINE('',#1856,#413);
#234=LINE('',#1858,#414);
#235=LINE('',#1860,#415);
#236=LINE('',#1862,#416);
#237=LINE('',#1864,#417);
#238=LINE('',#1866,#418);
#239=LINE('',#1867,#419);
#240=LINE('',#1871,#420);
#241=LINE('',#1873,#421);
#242=LINE('',#1875,#422);
#243=LINE('',#1877,#423);
#244=LINE('',#1879,#424);
#245=LINE('',#1881,#425);
#246=LINE('',#1883,#426);
#247=LINE('',#1885,#427);
#248=LINE('',#1887,#428);
#249=LINE('',#1889,#429);
#250=LINE('',#1891,#430);
#251=LINE('',#1892,#431);
#252=LINE('',#1896,#432);
#253=LINE('',#1898,#433);
#254=LINE('',#1900,#434);
#255=LINE('',#1902,#435);
#256=LINE('',#1904,#436);
#257=LINE('',#1905,#437);
#258=LINE('',#1907,#438);
#259=LINE('',#1909,#439);
#260=LINE('',#1911,#440);
#261=LINE('',#1913,#441);
#262=LINE('',#1914,#442);
#263=LINE('',#1916,#443);
#264=LINE('',#1917,#444);
#265=LINE('',#1919,#445);
#266=LINE('',#1921,#446);
#267=LINE('',#1924,#447);
#268=LINE('',#1925,#448);
#269=LINE('',#1928,#449);
#270=LINE('',#1930,#450);
#271=LINE('',#1933,#451);
#272=LINE('',#1935,#452);
#273=LINE('',#1937,#453);
#274=LINE('',#1938,#454);
#275=LINE('',#1940,#455);
#276=LINE('',#1942,#456);
#277=LINE('',#1944,#457);
#278=LINE('',#1946,#458);
#279=LINE('',#1949,#459);
#280=LINE('',#1951,#460);
#281=LINE('',#1952,#461);
#282=LINE('',#1955,#462);
#283=LINE('',#1956,#463);
#284=LINE('',#1959,#464);
#285=LINE('',#1960,#465);
#286=LINE('',#1963,#466);
#287=LINE('',#1964,#467);
#288=LINE('',#1967,#468);
#289=LINE('',#1968,#469);
#290=LINE('',#1971,#470);
#291=LINE('',#1973,#471);
#292=LINE('',#1974,#472);
#293=LINE('',#1977,#473);
#294=LINE('',#1978,#474);
#295=LINE('',#1981,#475);
#296=LINE('',#1982,#476);
#297=LINE('',#1985,#477);
#298=LINE('',#1986,#478);
#299=LINE('',#1989,#479);
#300=LINE('',#1990,#480);
#301=LINE('',#1992,#481);
#302=LINE('',#1993,#482);
#303=LINE('',#1995,#483);
#304=LINE('',#1996,#484);
#305=LINE('',#1998,#485);
#306=LINE('',#2001,#486);
#307=LINE('',#2002,#487);
#308=LINE('',#2004,#488);
#309=LINE('',#2006,#489);
#310=LINE('',#2008,#490);
#311=LINE('',#2011,#491);
#312=LINE('',#2013,#492);
#313=LINE('',#2015,#493);
#314=LINE('',#2018,#494);
#315=LINE('',#2020,#495);
#316=LINE('',#2022,#496);
#317=LINE('',#2024,#497);
#318=LINE('',#2026,#498);
#319=VECTOR('',#1363,10.);
#320=VECTOR('',#1364,10.);
#321=VECTOR('',#1365,10.);
#322=VECTOR('',#1366,10.);
#323=VECTOR('',#1367,10.);
#324=VECTOR('',#1368,10.);
#325=VECTOR('',#1369,10.);
#326=VECTOR('',#1370,10.);
#327=VECTOR('',#1373,10.);
#328=VECTOR('',#1374,10.);
#329=VECTOR('',#1375,10.);
#330=VECTOR('',#1376,10.);
#331=VECTOR('',#1377,10.);
#332=VECTOR('',#1378,10.);
#333=VECTOR('',#1381,10.);
#334=VECTOR('',#1382,10.);
#335=VECTOR('',#1383,10.);
#336=VECTOR('',#1384,10.);
#337=VECTOR('',#1385,10.);
#338=VECTOR('',#1386,10.);
#339=VECTOR('',#1387,10.);
#340=VECTOR('',#1388,10.);
#341=VECTOR('',#1389,10.);
#342=VECTOR('',#1390,10.);
#343=VECTOR('',#1391,10.);
#344=VECTOR('',#1392,10.);
#345=VECTOR('',#1393,10.);
#346=VECTOR('',#1394,10.);
#347=VECTOR('',#1395,10.);
#348=VECTOR('',#1396,10.);
#349=VECTOR('',#1397,10.);
#350=VECTOR('',#1398,10.);
#351=VECTOR('',#1401,10.);
#352=VECTOR('',#1402,10.);
#353=VECTOR('',#1403,10.);
#354=VECTOR('',#1404,10.);
#355=VECTOR('',#1405,10.);
#356=VECTOR('',#1406,10.);
#357=VECTOR('',#1407,10.);
#358=VECTOR('',#1408,10.);
#359=VECTOR('',#1409,10.);
#360=VECTOR('',#1410,10.);
#361=VECTOR('',#1411,10.);
#362=VECTOR('',#1412,10.);
#363=VECTOR('',#1413,10.);
#364=VECTOR('',#1414,10.);
#365=VECTOR('',#1415,10.);
#366=VECTOR('',#1416,10.);
#367=VECTOR('',#1419,10.);
#368=VECTOR('',#1420,10.);
#369=VECTOR('',#1421,10.);
#370=VECTOR('',#1424,10.);
#371=VECTOR('',#1425,10.);
#372=VECTOR('',#1426,10.);
#373=VECTOR('',#1429,10.);
#374=VECTOR('',#1430,10.);
#375=VECTOR('',#1431,10.);
#376=VECTOR('',#1434,10.);
#377=VECTOR('',#1435,10.);
#378=VECTOR('',#1436,10.);
#379=VECTOR('',#1439,10.);
#380=VECTOR('',#1440,10.);
#381=VECTOR('',#1441,10.);
#382=VECTOR('',#1442,10.);
#383=VECTOR('',#1443,10.);
#384=VECTOR('',#1444,10.);
#385=VECTOR('',#1445,10.);
#386=VECTOR('',#1446,10.);
#387=VECTOR('',#1449,10.);
#388=VECTOR('',#1450,10.);
#389=VECTOR('',#1451,10.);
#390=VECTOR('',#1454,10.);
#391=VECTOR('',#1455,10.);
#392=VECTOR('',#1456,10.);
#393=VECTOR('',#1459,10.);
#394=VECTOR('',#1460,10.);
#395=VECTOR('',#1461,10.);
#396=VECTOR('',#1462,10.);
#397=VECTOR('',#1463,10.);
#398=VECTOR('',#1464,10.);
#399=VECTOR('',#1465,10.);
#400=VECTOR('',#1466,10.);
#401=VECTOR('',#1467,10.);
#402=VECTOR('',#1468,10.);
#403=VECTOR('',#1471,10.);
#404=VECTOR('',#1472,10.);
#405=VECTOR('',#1475,10.);
#406=VECTOR('',#1476,10.);
#407=VECTOR('',#1477,10.);
#408=VECTOR('',#1480,10.);
#409=VECTOR('',#1481,10.);
#410=VECTOR('',#1482,10.);
#411=VECTOR('',#1483,10.);
#412=VECTOR('',#1484,10.);
#413=VECTOR('',#1485,10.);
#414=VECTOR('',#1486,10.);
#415=VECTOR('',#1487,10.);
#416=VECTOR('',#1488,10.);
#417=VECTOR('',#1489,10.);
#418=VECTOR('',#1490,10.);
#419=VECTOR('',#1491,10.);
#420=VECTOR('',#1494,10.);
#421=VECTOR('',#1495,10.);
#422=VECTOR('',#1496,10.);
#423=VECTOR('',#1497,10.);
#424=VECTOR('',#1498,10.);
#425=VECTOR('',#1499,10.);
#426=VECTOR('',#1500,10.);
#427=VECTOR('',#1501,10.);
#428=VECTOR('',#1502,10.);
#429=VECTOR('',#1503,10.);
#430=VECTOR('',#1504,10.);
#431=VECTOR('',#1505,10.);
#432=VECTOR('',#1508,10.);
#433=VECTOR('',#1509,10.);
#434=VECTOR('',#1510,10.);
#435=VECTOR('',#1511,10.);
#436=VECTOR('',#1512,10.);
#437=VECTOR('',#1513,10.);
#438=VECTOR('',#1514,10.);
#439=VECTOR('',#1515,10.);
#440=VECTOR('',#1516,10.);
#441=VECTOR('',#1517,10.);
#442=VECTOR('',#1518,10.);
#443=VECTOR('',#1521,10.);
#444=VECTOR('',#1522,10.);
#445=VECTOR('',#1525,10.);
#446=VECTOR('',#1528,10.);
#447=VECTOR('',#1533,10.);
#448=VECTOR('',#1534,10.);
#449=VECTOR('',#1539,10.);
#450=VECTOR('',#1542,10.);
#451=VECTOR('',#1547,10.);
#452=VECTOR('',#1550,10.);
#453=VECTOR('',#1553,10.);
#454=VECTOR('',#1554,10.);
#455=VECTOR('',#1557,10.);
#456=VECTOR('',#1560,10.);
#457=VECTOR('',#1563,10.);
#458=VECTOR('',#1566,10.);
#459=VECTOR('',#1569,10.);
#460=VECTOR('',#1570,10.);
#461=VECTOR('',#1571,10.);
#462=VECTOR('',#1574,10.);
#463=VECTOR('',#1575,10.);
#464=VECTOR('',#1578,10.);
#465=VECTOR('',#1579,10.);
#466=VECTOR('',#1582,10.);
#467=VECTOR('',#1583,10.);
#468=VECTOR('',#1586,10.);
#469=VECTOR('',#1587,10.);
#470=VECTOR('',#1590,10.);
#471=VECTOR('',#1591,10.);
#472=VECTOR('',#1592,10.);
#473=VECTOR('',#1595,10.);
#474=VECTOR('',#1596,10.);
#475=VECTOR('',#1599,10.);
#476=VECTOR('',#1600,10.);
#477=VECTOR('',#1603,10.);
#478=VECTOR('',#1604,10.);
#479=VECTOR('',#1607,10.);
#480=VECTOR('',#1608,10.);
#481=VECTOR('',#1611,10.);
#482=VECTOR('',#1612,10.);
#483=VECTOR('',#1615,10.);
#484=VECTOR('',#1616,10.);
#485=VECTOR('',#1619,10.);
#486=VECTOR('',#1624,10.);
#487=VECTOR('',#1625,10.);
#488=VECTOR('',#1628,10.);
#489=VECTOR('',#1631,10.);
#490=VECTOR('',#1634,10.);
#491=VECTOR('',#1639,10.);
#492=VECTOR('',#1642,10.);
#493=VECTOR('',#1645,10.);
#494=VECTOR('',#1650,10.);
#495=VECTOR('',#1653,10.);
#496=VECTOR('',#1656,10.);
#497=VECTOR('',#1659,10.);
#498=VECTOR('',#1662,10.);
#499=VERTEX_POINT('',#1667);
#500=VERTEX_POINT('',#1668);
#501=VERTEX_POINT('',#1670);
#502=VERTEX_POINT('',#1672);
#503=VERTEX_POINT('',#1674);
#504=VERTEX_POINT('',#1676);
#505=VERTEX_POINT('',#1678);
#506=VERTEX_POINT('',#1680);
#507=VERTEX_POINT('',#1684);
#508=VERTEX_POINT('',#1685);
#509=VERTEX_POINT('',#1687);
#510=VERTEX_POINT('',#1689);
#511=VERTEX_POINT('',#1691);
#512=VERTEX_POINT('',#1693);
#513=VERTEX_POINT('',#1697);
#514=VERTEX_POINT('',#1698);
#515=VERTEX_POINT('',#1700);
#516=VERTEX_POINT('',#1702);
#517=VERTEX_POINT('',#1704);
#518=VERTEX_POINT('',#1706);
#519=VERTEX_POINT('',#1708);
#520=VERTEX_POINT('',#1710);
#521=VERTEX_POINT('',#1712);
#522=VERTEX_POINT('',#1714);
#523=VERTEX_POINT('',#1716);
#524=VERTEX_POINT('',#1718);
#525=VERTEX_POINT('',#1720);
#526=VERTEX_POINT('',#1722);
#527=VERTEX_POINT('',#1724);
#528=VERTEX_POINT('',#1726);
#529=VERTEX_POINT('',#1728);
#530=VERTEX_POINT('',#1730);
#531=VERTEX_POINT('',#1734);
#532=VERTEX_POINT('',#1735);
#533=VERTEX_POINT('',#1737);
#534=VERTEX_POINT('',#1739);
#535=VERTEX_POINT('',#1741);
#536=VERTEX_POINT('',#1743);
#537=VERTEX_POINT('',#1745);
#538=VERTEX_POINT('',#1747);
#539=VERTEX_POINT('',#1749);
#540=VERTEX_POINT('',#1751);
#541=VERTEX_POINT('',#1753);
#542=VERTEX_POINT('',#1755);
#543=VERTEX_POINT('',#1757);
#544=VERTEX_POINT('',#1759);
#545=VERTEX_POINT('',#1761);
#546=VERTEX_POINT('',#1763);
#547=VERTEX_POINT('',#1767);
#548=VERTEX_POINT('',#1768);
#549=VERTEX_POINT('',#1773);
#550=VERTEX_POINT('',#1774);
#551=VERTEX_POINT('',#1779);
#552=VERTEX_POINT('',#1780);
#553=VERTEX_POINT('',#1785);
#554=VERTEX_POINT('',#1786);
#555=VERTEX_POINT('',#1792);
#556=VERTEX_POINT('',#1794);
#557=VERTEX_POINT('',#1798);
#558=VERTEX_POINT('',#1800);
#559=VERTEX_POINT('',#1804);
#560=VERTEX_POINT('',#1805);
#561=VERTEX_POINT('',#1810);
#562=VERTEX_POINT('',#1811);
#563=VERTEX_POINT('',#1816);
#564=VERTEX_POINT('',#1818);
#565=VERTEX_POINT('',#1820);
#566=VERTEX_POINT('',#1822);
#567=VERTEX_POINT('',#1824);
#568=VERTEX_POINT('',#1827);
#569=VERTEX_POINT('',#1829);
#570=VERTEX_POINT('',#1831);
#571=VERTEX_POINT('',#1838);
#572=VERTEX_POINT('',#1840);
#573=VERTEX_POINT('',#1844);
#574=VERTEX_POINT('',#1845);
#575=VERTEX_POINT('',#1847);
#576=VERTEX_POINT('',#1849);
#577=VERTEX_POINT('',#1851);
#578=VERTEX_POINT('',#1853);
#579=VERTEX_POINT('',#1855);
#580=VERTEX_POINT('',#1857);
#581=VERTEX_POINT('',#1859);
#582=VERTEX_POINT('',#1861);
#583=VERTEX_POINT('',#1863);
#584=VERTEX_POINT('',#1865);
#585=VERTEX_POINT('',#1869);
#586=VERTEX_POINT('',#1870);
#587=VERTEX_POINT('',#1872);
#588=VERTEX_POINT('',#1874);
#589=VERTEX_POINT('',#1876);
#590=VERTEX_POINT('',#1878);
#591=VERTEX_POINT('',#1880);
#592=VERTEX_POINT('',#1882);
#593=VERTEX_POINT('',#1884);
#594=VERTEX_POINT('',#1886);
#595=VERTEX_POINT('',#1888);
#596=VERTEX_POINT('',#1890);
#597=VERTEX_POINT('',#1894);
#598=VERTEX_POINT('',#1895);
#599=VERTEX_POINT('',#1897);
#600=VERTEX_POINT('',#1899);
#601=VERTEX_POINT('',#1901);
#602=VERTEX_POINT('',#1903);
#603=VERTEX_POINT('',#1906);
#604=VERTEX_POINT('',#1908);
#605=VERTEX_POINT('',#1910);
#606=VERTEX_POINT('',#1912);
#607=VERTEX_POINT('',#1948);
#608=VERTEX_POINT('',#1950);
#609=VERTEX_POINT('',#1954);
#610=VERTEX_POINT('',#1958);
#611=VERTEX_POINT('',#1962);
#612=VERTEX_POINT('',#1966);
#613=VERTEX_POINT('',#1970);
#614=VERTEX_POINT('',#1972);
#615=VERTEX_POINT('',#1976);
#616=VERTEX_POINT('',#1980);
#617=VERTEX_POINT('',#1984);
#618=VERTEX_POINT('',#1988);
#619=EDGE_CURVE('',#499,#500,#139,.T.);
#620=EDGE_CURVE('',#500,#501,#140,.T.);
#621=EDGE_CURVE('',#501,#502,#141,.T.);
#622=EDGE_CURVE('',#502,#503,#142,.T.);
#623=EDGE_CURVE('',#503,#504,#143,.T.);
#624=EDGE_CURVE('',#504,#505,#144,.T.);
#625=EDGE_CURVE('',#505,#506,#145,.T.);
#626=EDGE_CURVE('',#506,#499,#146,.T.);
#627=EDGE_CURVE('',#507,#508,#147,.T.);
#628=EDGE_CURVE('',#508,#509,#148,.T.);
#629=EDGE_CURVE('',#509,#510,#149,.T.);
#630=EDGE_CURVE('',#510,#511,#150,.T.);
#631=EDGE_CURVE('',#511,#512,#151,.T.);
#632=EDGE_CURVE('',#512,#507,#152,.T.);
#633=EDGE_CURVE('',#513,#514,#153,.T.);
#634=EDGE_CURVE('',#514,#515,#154,.T.);
#635=EDGE_CURVE('',#515,#516,#155,.T.);
#636=EDGE_CURVE('',#516,#517,#156,.T.);
#637=EDGE_CURVE('',#517,#518,#157,.T.);
#638=EDGE_CURVE('',#518,#519,#158,.T.);
#639=EDGE_CURVE('',#519,#520,#159,.T.);
#640=EDGE_CURVE('',#520,#521,#160,.T.);
#641=EDGE_CURVE('',#521,#522,#161,.T.);
#642=EDGE_CURVE('',#522,#523,#162,.T.);
#643=EDGE_CURVE('',#523,#524,#163,.T.);
#644=EDGE_CURVE('',#524,#525,#164,.T.);
#645=EDGE_CURVE('',#525,#526,#165,.T.);
#646=EDGE_CURVE('',#526,#527,#166,.T.);
#647=EDGE_CURVE('',#527,#528,#167,.T.);
#648=EDGE_CURVE('',#528,#529,#168,.T.);
#649=EDGE_CURVE('',#529,#530,#169,.T.);
#650=EDGE_CURVE('',#530,#513,#170,.T.);
#651=EDGE_CURVE('',#531,#532,#171,.T.);
#652=EDGE_CURVE('',#532,#533,#172,.T.);
#653=EDGE_CURVE('',#533,#534,#173,.T.);
#654=EDGE_CURVE('',#534,#535,#174,.T.);
#655=EDGE_CURVE('',#535,#536,#175,.T.);
#656=EDGE_CURVE('',#536,#537,#176,.T.);
#657=EDGE_CURVE('',#537,#538,#177,.T.);
#658=EDGE_CURVE('',#538,#539,#178,.T.);
#659=EDGE_CURVE('',#539,#540,#179,.T.);
#660=EDGE_CURVE('',#540,#541,#180,.T.);
#661=EDGE_CURVE('',#541,#542,#181,.T.);
#662=EDGE_CURVE('',#542,#543,#182,.T.);
#663=EDGE_CURVE('',#543,#544,#183,.T.);
#664=EDGE_CURVE('',#544,#545,#184,.T.);
#665=EDGE_CURVE('',#545,#546,#185,.T.);
#666=EDGE_CURVE('',#546,#531,#186,.T.);
#667=EDGE_CURVE('',#547,#548,#187,.T.);
#668=EDGE_CURVE('',#547,#501,#188,.T.);
#669=EDGE_CURVE('',#548,#500,#189,.T.);
#670=EDGE_CURVE('',#549,#550,#190,.T.);
#671=EDGE_CURVE('',#549,#544,#191,.T.);
#672=EDGE_CURVE('',#550,#543,#192,.T.);
#673=EDGE_CURVE('',#551,#552,#193,.T.);
#674=EDGE_CURVE('',#551,#540,#194,.T.);
#675=EDGE_CURVE('',#552,#539,#195,.T.);
#676=EDGE_CURVE('',#553,#554,#196,.T.);
#677=EDGE_CURVE('',#553,#505,#197,.T.);
#678=EDGE_CURVE('',#554,#504,#198,.T.);
#679=EDGE_CURVE('',#548,#549,#199,.T.);
#680=EDGE_CURVE('',#555,#550,#200,.T.);
#681=EDGE_CURVE('',#556,#555,#201,.T.);
#682=EDGE_CURVE('',#556,#551,#202,.T.);
#683=EDGE_CURVE('',#552,#553,#203,.T.);
#684=EDGE_CURVE('',#557,#554,#204,.T.);
#685=EDGE_CURVE('',#558,#557,#205,.T.);
#686=EDGE_CURVE('',#558,#547,#206,.T.);
#687=EDGE_CURVE('',#559,#560,#207,.T.);
#688=EDGE_CURVE('',#559,#526,#208,.T.);
#689=EDGE_CURVE('',#560,#525,#209,.T.);
#690=EDGE_CURVE('',#561,#562,#210,.T.);
#691=EDGE_CURVE('',#561,#507,#211,.T.);
#692=EDGE_CURVE('',#562,#512,#212,.T.);
#693=EDGE_CURVE('',#563,#560,#213,.T.);
#694=EDGE_CURVE('',#564,#563,#214,.T.);
#695=EDGE_CURVE('',#565,#564,#215,.T.);
#696=EDGE_CURVE('',#565,#566,#216,.T.);
#697=EDGE_CURVE('',#566,#567,#217,.T.);
#698=EDGE_CURVE('',#561,#567,#218,.T.);
#699=EDGE_CURVE('',#568,#562,#219,.T.);
#700=EDGE_CURVE('',#569,#568,#220,.T.);
#701=EDGE_CURVE('',#569,#570,#221,.T.);
#702=EDGE_CURVE('',#570,#559,#222,.T.);
#703=EDGE_CURVE('',#566,#521,#223,.T.);
#704=EDGE_CURVE('',#567,#520,#224,.T.);
#705=EDGE_CURVE('',#571,#519,#225,.T.);
#706=EDGE_CURVE('',#572,#571,#226,.T.);
#707=EDGE_CURVE('',#572,#508,#227,.T.);
#708=EDGE_CURVE('',#573,#574,#228,.T.);
#709=EDGE_CURVE('',#575,#574,#229,.T.);
#710=EDGE_CURVE('',#576,#575,#230,.T.);
#711=EDGE_CURVE('',#577,#576,#231,.T.);
#712=EDGE_CURVE('',#577,#578,#232,.T.);
#713=EDGE_CURVE('',#578,#579,#233,.T.);
#714=EDGE_CURVE('',#580,#579,#234,.T.);
#715=EDGE_CURVE('',#581,#580,#235,.T.);
#716=EDGE_CURVE('',#582,#581,#236,.T.);
#717=EDGE_CURVE('',#583,#582,#237,.T.);
#718=EDGE_CURVE('',#584,#583,#238,.T.);
#719=EDGE_CURVE('',#584,#573,#239,.T.);
#720=EDGE_CURVE('',#585,#586,#240,.T.);
#721=EDGE_CURVE('',#587,#586,#241,.T.);
#722=EDGE_CURVE('',#588,#587,#242,.T.);
#723=EDGE_CURVE('',#589,#588,#243,.T.);
#724=EDGE_CURVE('',#589,#590,#244,.T.);
#725=EDGE_CURVE('',#590,#591,#245,.T.);
#726=EDGE_CURVE('',#592,#591,#246,.T.);
#727=EDGE_CURVE('',#593,#592,#247,.T.);
#728=EDGE_CURVE('',#594,#593,#248,.T.);
#729=EDGE_CURVE('',#595,#594,#249,.T.);
#730=EDGE_CURVE('',#596,#595,#250,.T.);
#731=EDGE_CURVE('',#596,#585,#251,.T.);
#732=EDGE_CURVE('',#597,#598,#252,.T.);
#733=EDGE_CURVE('',#598,#599,#253,.T.);
#734=EDGE_CURVE('',#599,#600,#254,.T.);
#735=EDGE_CURVE('',#600,#601,#255,.T.);
#736=EDGE_CURVE('',#601,#602,#256,.T.);
#737=EDGE_CURVE('',#602,#572,#257,.T.);
#738=EDGE_CURVE('',#571,#603,#258,.T.);
#739=EDGE_CURVE('',#603,#604,#259,.T.);
#740=EDGE_CURVE('',#604,#605,#260,.T.);
#741=EDGE_CURVE('',#605,#606,#261,.T.);
#742=EDGE_CURVE('',#606,#597,#262,.T.);
#743=EDGE_CURVE('',#499,#597,#263,.T.);
#744=EDGE_CURVE('',#598,#506,#264,.T.);
#745=EDGE_CURVE('',#557,#503,#265,.T.);
#746=EDGE_CURVE('',#558,#502,#266,.T.);
#747=EDGE_CURVE('',#605,#546,#267,.T.);
#748=EDGE_CURVE('',#606,#545,#268,.T.);
#749=EDGE_CURVE('',#555,#542,#269,.T.);
#750=EDGE_CURVE('',#556,#541,#270,.T.);
#751=EDGE_CURVE('',#599,#538,#271,.T.);
#752=EDGE_CURVE('',#600,#537,#272,.T.);
#753=EDGE_CURVE('',#579,#536,#273,.T.);
#754=EDGE_CURVE('',#580,#535,#274,.T.);
#755=EDGE_CURVE('',#581,#534,#275,.T.);
#756=EDGE_CURVE('',#582,#533,#276,.T.);
#757=EDGE_CURVE('',#583,#532,#277,.T.);
#758=EDGE_CURVE('',#584,#531,#278,.T.);
#759=EDGE_CURVE('',#573,#607,#279,.T.);
#760=EDGE_CURVE('',#608,#607,#280,.T.);
#761=EDGE_CURVE('',#574,#608,#281,.T.);
#762=EDGE_CURVE('',#609,#608,#282,.T.);
#763=EDGE_CURVE('',#575,#609,#283,.T.);
#764=EDGE_CURVE('',#610,#609,#284,.T.);
#765=EDGE_CURVE('',#576,#610,#285,.T.);
#766=EDGE_CURVE('',#611,#610,#286,.T.);
#767=EDGE_CURVE('',#577,#611,#287,.T.);
#768=EDGE_CURVE('',#612,#611,#288,.T.);
#769=EDGE_CURVE('',#578,#612,#289,.T.);
#770=EDGE_CURVE('',#591,#613,#290,.T.);
#771=EDGE_CURVE('',#614,#613,#291,.T.);
#772=EDGE_CURVE('',#592,#614,#292,.T.);
#773=EDGE_CURVE('',#615,#614,#293,.T.);
#774=EDGE_CURVE('',#593,#615,#294,.T.);
#775=EDGE_CURVE('',#616,#615,#295,.T.);
#776=EDGE_CURVE('',#594,#616,#296,.T.);
#777=EDGE_CURVE('',#617,#616,#297,.T.);
#778=EDGE_CURVE('',#595,#617,#298,.T.);
#779=EDGE_CURVE('',#618,#617,#299,.T.);
#780=EDGE_CURVE('',#596,#618,#300,.T.);
#781=EDGE_CURVE('',#613,#612,#301,.T.);
#782=EDGE_CURVE('',#607,#618,#302,.T.);
#783=EDGE_CURVE('',#569,#510,#303,.T.);
#784=EDGE_CURVE('',#570,#509,#304,.T.);
#785=EDGE_CURVE('',#568,#511,#305,.T.);
#786=EDGE_CURVE('',#588,#513,#306,.T.);
#787=EDGE_CURVE('',#589,#530,#307,.T.);
#788=EDGE_CURVE('',#590,#529,#308,.T.);
#789=EDGE_CURVE('',#601,#528,#309,.T.);
#790=EDGE_CURVE('',#602,#527,#310,.T.);
#791=EDGE_CURVE('',#563,#524,#311,.T.);
#792=EDGE_CURVE('',#564,#523,#312,.T.);
#793=EDGE_CURVE('',#565,#522,#313,.T.);
#794=EDGE_CURVE('',#603,#518,#314,.T.);
#795=EDGE_CURVE('',#604,#517,#315,.T.);
#796=EDGE_CURVE('',#585,#516,#316,.T.);
#797=EDGE_CURVE('',#586,#515,#317,.T.);
#798=EDGE_CURVE('',#587,#514,#318,.T.);
#799=ORIENTED_EDGE('',*,*,#619,.T.);
#800=ORIENTED_EDGE('',*,*,#620,.T.);
#801=ORIENTED_EDGE('',*,*,#621,.T.);
#802=ORIENTED_EDGE('',*,*,#622,.T.);
#803=ORIENTED_EDGE('',*,*,#623,.T.);
#804=ORIENTED_EDGE('',*,*,#624,.T.);
#805=ORIENTED_EDGE('',*,*,#625,.T.);
#806=ORIENTED_EDGE('',*,*,#626,.T.);
#807=ORIENTED_EDGE('',*,*,#627,.T.);
#808=ORIENTED_EDGE('',*,*,#628,.T.);
#809=ORIENTED_EDGE('',*,*,#629,.T.);
#810=ORIENTED_EDGE('',*,*,#630,.T.);
#811=ORIENTED_EDGE('',*,*,#631,.T.);
#812=ORIENTED_EDGE('',*,*,#632,.T.);
#813=ORIENTED_EDGE('',*,*,#633,.T.);
#814=ORIENTED_EDGE('',*,*,#634,.T.);
#815=ORIENTED_EDGE('',*,*,#635,.T.);
#816=ORIENTED_EDGE('',*,*,#636,.T.);
#817=ORIENTED_EDGE('',*,*,#637,.T.);
#818=ORIENTED_EDGE('',*,*,#638,.T.);
#819=ORIENTED_EDGE('',*,*,#639,.T.);
#820=ORIENTED_EDGE('',*,*,#640,.T.);
#821=ORIENTED_EDGE('',*,*,#641,.T.);
#822=ORIENTED_EDGE('',*,*,#642,.T.);
#823=ORIENTED_EDGE('',*,*,#643,.T.);
#824=ORIENTED_EDGE('',*,*,#644,.T.);
#825=ORIENTED_EDGE('',*,*,#645,.T.);
#826=ORIENTED_EDGE('',*,*,#646,.T.);
#827=ORIENTED_EDGE('',*,*,#647,.T.);
#828=ORIENTED_EDGE('',*,*,#648,.T.);
#829=ORIENTED_EDGE('',*,*,#649,.T.);
#830=ORIENTED_EDGE('',*,*,#650,.T.);
#831=ORIENTED_EDGE('',*,*,#651,.T.);
#832=ORIENTED_EDGE('',*,*,#652,.T.);
#833=ORIENTED_EDGE('',*,*,#653,.T.);
#834=ORIENTED_EDGE('',*,*,#654,.T.);
#835=ORIENTED_EDGE('',*,*,#655,.T.);
#836=ORIENTED_EDGE('',*,*,#656,.T.);
#837=ORIENTED_EDGE('',*,*,#657,.T.);
#838=ORIENTED_EDGE('',*,*,#658,.T.);
#839=ORIENTED_EDGE('',*,*,#659,.T.);
#840=ORIENTED_EDGE('',*,*,#660,.T.);
#841=ORIENTED_EDGE('',*,*,#661,.T.);
#842=ORIENTED_EDGE('',*,*,#662,.T.);
#843=ORIENTED_EDGE('',*,*,#663,.T.);
#844=ORIENTED_EDGE('',*,*,#664,.T.);
#845=ORIENTED_EDGE('',*,*,#665,.T.);
#846=ORIENTED_EDGE('',*,*,#666,.T.);
#847=ORIENTED_EDGE('',*,*,#667,.F.);
#848=ORIENTED_EDGE('',*,*,#668,.T.);
#849=ORIENTED_EDGE('',*,*,#620,.F.);
#850=ORIENTED_EDGE('',*,*,#669,.F.);
#851=ORIENTED_EDGE('',*,*,#670,.F.);
#852=ORIENTED_EDGE('',*,*,#671,.T.);
#853=ORIENTED_EDGE('',*,*,#663,.F.);
#854=ORIENTED_EDGE('',*,*,#672,.F.);
#855=ORIENTED_EDGE('',*,*,#673,.F.);
#856=ORIENTED_EDGE('',*,*,#674,.T.);
#857=ORIENTED_EDGE('',*,*,#659,.F.);
#858=ORIENTED_EDGE('',*,*,#675,.F.);
#859=ORIENTED_EDGE('',*,*,#676,.F.);
#860=ORIENTED_EDGE('',*,*,#677,.T.);
#861=ORIENTED_EDGE('',*,*,#624,.F.);
#862=ORIENTED_EDGE('',*,*,#678,.F.);
#863=ORIENTED_EDGE('',*,*,#667,.T.);
#864=ORIENTED_EDGE('',*,*,#679,.T.);
#865=ORIENTED_EDGE('',*,*,#670,.T.);
#866=ORIENTED_EDGE('',*,*,#680,.F.);
#867=ORIENTED_EDGE('',*,*,#681,.F.);
#868=ORIENTED_EDGE('',*,*,#682,.T.);
#869=ORIENTED_EDGE('',*,*,#673,.T.);
#870=ORIENTED_EDGE('',*,*,#683,.T.);
#871=ORIENTED_EDGE('',*,*,#676,.T.);
#872=ORIENTED_EDGE('',*,*,#684,.F.);
#873=ORIENTED_EDGE('',*,*,#685,.F.);
#874=ORIENTED_EDGE('',*,*,#686,.T.);
#875=ORIENTED_EDGE('',*,*,#687,.F.);
#876=ORIENTED_EDGE('',*,*,#688,.T.);
#877=ORIENTED_EDGE('',*,*,#645,.F.);
#878=ORIENTED_EDGE('',*,*,#689,.F.);
#879=ORIENTED_EDGE('',*,*,#690,.F.);
#880=ORIENTED_EDGE('',*,*,#691,.T.);
#881=ORIENTED_EDGE('',*,*,#632,.F.);
#882=ORIENTED_EDGE('',*,*,#692,.F.);
#883=ORIENTED_EDGE('',*,*,#693,.F.);
#884=ORIENTED_EDGE('',*,*,#694,.F.);
#885=ORIENTED_EDGE('',*,*,#695,.F.);
#886=ORIENTED_EDGE('',*,*,#696,.T.);
#887=ORIENTED_EDGE('',*,*,#697,.T.);
#888=ORIENTED_EDGE('',*,*,#698,.F.);
#889=ORIENTED_EDGE('',*,*,#690,.T.);
#890=ORIENTED_EDGE('',*,*,#699,.F.);
#891=ORIENTED_EDGE('',*,*,#700,.F.);
#892=ORIENTED_EDGE('',*,*,#701,.T.);
#893=ORIENTED_EDGE('',*,*,#702,.T.);
#894=ORIENTED_EDGE('',*,*,#687,.T.);
#895=ORIENTED_EDGE('',*,*,#697,.F.);
#896=ORIENTED_EDGE('',*,*,#703,.T.);
#897=ORIENTED_EDGE('',*,*,#640,.F.);
#898=ORIENTED_EDGE('',*,*,#704,.F.);
#899=ORIENTED_EDGE('',*,*,#698,.T.);
#900=ORIENTED_EDGE('',*,*,#704,.T.);
#901=ORIENTED_EDGE('',*,*,#639,.F.);
#902=ORIENTED_EDGE('',*,*,#705,.F.);
#903=ORIENTED_EDGE('',*,*,#706,.F.);
#904=ORIENTED_EDGE('',*,*,#707,.T.);
#905=ORIENTED_EDGE('',*,*,#627,.F.);
#906=ORIENTED_EDGE('',*,*,#691,.F.);
#907=ORIENTED_EDGE('',*,*,#708,.T.);
#908=ORIENTED_EDGE('',*,*,#709,.F.);
#909=ORIENTED_EDGE('',*,*,#710,.F.);
#910=ORIENTED_EDGE('',*,*,#711,.F.);
#911=ORIENTED_EDGE('',*,*,#712,.T.);
#912=ORIENTED_EDGE('',*,*,#713,.T.);
#913=ORIENTED_EDGE('',*,*,#714,.F.);
#914=ORIENTED_EDGE('',*,*,#715,.F.);
#915=ORIENTED_EDGE('',*,*,#716,.F.);
#916=ORIENTED_EDGE('',*,*,#717,.F.);
#917=ORIENTED_EDGE('',*,*,#718,.F.);
#918=ORIENTED_EDGE('',*,*,#719,.T.);
#919=ORIENTED_EDGE('',*,*,#720,.T.);
#920=ORIENTED_EDGE('',*,*,#721,.F.);
#921=ORIENTED_EDGE('',*,*,#722,.F.);
#922=ORIENTED_EDGE('',*,*,#723,.F.);
#923=ORIENTED_EDGE('',*,*,#724,.T.);
#924=ORIENTED_EDGE('',*,*,#725,.T.);
#925=ORIENTED_EDGE('',*,*,#726,.F.);
#926=ORIENTED_EDGE('',*,*,#727,.F.);
#927=ORIENTED_EDGE('',*,*,#728,.F.);
#928=ORIENTED_EDGE('',*,*,#729,.F.);
#929=ORIENTED_EDGE('',*,*,#730,.F.);
#930=ORIENTED_EDGE('',*,*,#731,.T.);
#931=ORIENTED_EDGE('',*,*,#732,.T.);
#932=ORIENTED_EDGE('',*,*,#733,.T.);
#933=ORIENTED_EDGE('',*,*,#734,.T.);
#934=ORIENTED_EDGE('',*,*,#735,.T.);
#935=ORIENTED_EDGE('',*,*,#736,.T.);
#936=ORIENTED_EDGE('',*,*,#737,.T.);
#937=ORIENTED_EDGE('',*,*,#706,.T.);
#938=ORIENTED_EDGE('',*,*,#738,.T.);
#939=ORIENTED_EDGE('',*,*,#739,.T.);
#940=ORIENTED_EDGE('',*,*,#740,.T.);
#941=ORIENTED_EDGE('',*,*,#741,.T.);
#942=ORIENTED_EDGE('',*,*,#742,.T.);
#943=ORIENTED_EDGE('',*,*,#743,.F.);
#944=ORIENTED_EDGE('',*,*,#626,.F.);
#945=ORIENTED_EDGE('',*,*,#744,.F.);
#946=ORIENTED_EDGE('',*,*,#732,.F.);
#947=ORIENTED_EDGE('',*,*,#684,.T.);
#948=ORIENTED_EDGE('',*,*,#678,.T.);
#949=ORIENTED_EDGE('',*,*,#623,.F.);
#950=ORIENTED_EDGE('',*,*,#745,.F.);
#951=ORIENTED_EDGE('',*,*,#685,.T.);
#952=ORIENTED_EDGE('',*,*,#745,.T.);
#953=ORIENTED_EDGE('',*,*,#622,.F.);
#954=ORIENTED_EDGE('',*,*,#746,.F.);
#955=ORIENTED_EDGE('',*,*,#686,.F.);
#956=ORIENTED_EDGE('',*,*,#746,.T.);
#957=ORIENTED_EDGE('',*,*,#621,.F.);
#958=ORIENTED_EDGE('',*,*,#668,.F.);
#959=ORIENTED_EDGE('',*,*,#747,.T.);
#960=ORIENTED_EDGE('',*,*,#665,.F.);
#961=ORIENTED_EDGE('',*,*,#748,.F.);
#962=ORIENTED_EDGE('',*,*,#741,.F.);
#963=ORIENTED_EDGE('',*,*,#748,.T.);
#964=ORIENTED_EDGE('',*,*,#664,.F.);
#965=ORIENTED_EDGE('',*,*,#671,.F.);
#966=ORIENTED_EDGE('',*,*,#679,.F.);
#967=ORIENTED_EDGE('',*,*,#669,.T.);
#968=ORIENTED_EDGE('',*,*,#619,.F.);
#969=ORIENTED_EDGE('',*,*,#743,.T.);
#970=ORIENTED_EDGE('',*,*,#742,.F.);
#971=ORIENTED_EDGE('',*,*,#680,.T.);
#972=ORIENTED_EDGE('',*,*,#672,.T.);
#973=ORIENTED_EDGE('',*,*,#662,.F.);
#974=ORIENTED_EDGE('',*,*,#749,.F.);
#975=ORIENTED_EDGE('',*,*,#681,.T.);
#976=ORIENTED_EDGE('',*,*,#749,.T.);
#977=ORIENTED_EDGE('',*,*,#661,.F.);
#978=ORIENTED_EDGE('',*,*,#750,.F.);
#979=ORIENTED_EDGE('',*,*,#682,.F.);
#980=ORIENTED_EDGE('',*,*,#750,.T.);
#981=ORIENTED_EDGE('',*,*,#660,.F.);
#982=ORIENTED_EDGE('',*,*,#674,.F.);
#983=ORIENTED_EDGE('',*,*,#751,.F.);
#984=ORIENTED_EDGE('',*,*,#733,.F.);
#985=ORIENTED_EDGE('',*,*,#744,.T.);
#986=ORIENTED_EDGE('',*,*,#625,.F.);
#987=ORIENTED_EDGE('',*,*,#677,.F.);
#988=ORIENTED_EDGE('',*,*,#683,.F.);
#989=ORIENTED_EDGE('',*,*,#675,.T.);
#990=ORIENTED_EDGE('',*,*,#658,.F.);
#991=ORIENTED_EDGE('',*,*,#751,.T.);
#992=ORIENTED_EDGE('',*,*,#657,.F.);
#993=ORIENTED_EDGE('',*,*,#752,.F.);
#994=ORIENTED_EDGE('',*,*,#734,.F.);
#995=ORIENTED_EDGE('',*,*,#714,.T.);
#996=ORIENTED_EDGE('',*,*,#753,.T.);
#997=ORIENTED_EDGE('',*,*,#655,.F.);
#998=ORIENTED_EDGE('',*,*,#754,.F.);
#999=ORIENTED_EDGE('',*,*,#715,.T.);
#1000=ORIENTED_EDGE('',*,*,#754,.T.);
#1001=ORIENTED_EDGE('',*,*,#654,.F.);
#1002=ORIENTED_EDGE('',*,*,#755,.F.);
#1003=ORIENTED_EDGE('',*,*,#716,.T.);
#1004=ORIENTED_EDGE('',*,*,#755,.T.);
#1005=ORIENTED_EDGE('',*,*,#653,.F.);
#1006=ORIENTED_EDGE('',*,*,#756,.F.);
#1007=ORIENTED_EDGE('',*,*,#717,.T.);
#1008=ORIENTED_EDGE('',*,*,#756,.T.);
#1009=ORIENTED_EDGE('',*,*,#652,.F.);
#1010=ORIENTED_EDGE('',*,*,#757,.F.);
#1011=ORIENTED_EDGE('',*,*,#718,.T.);
#1012=ORIENTED_EDGE('',*,*,#757,.T.);
#1013=ORIENTED_EDGE('',*,*,#651,.F.);
#1014=ORIENTED_EDGE('',*,*,#758,.F.);
#1015=ORIENTED_EDGE('',*,*,#708,.F.);
#1016=ORIENTED_EDGE('',*,*,#759,.T.);
#1017=ORIENTED_EDGE('',*,*,#760,.F.);
#1018=ORIENTED_EDGE('',*,*,#761,.F.);
#1019=ORIENTED_EDGE('',*,*,#709,.T.);
#1020=ORIENTED_EDGE('',*,*,#761,.T.);
#1021=ORIENTED_EDGE('',*,*,#762,.F.);
#1022=ORIENTED_EDGE('',*,*,#763,.F.);
#1023=ORIENTED_EDGE('',*,*,#710,.T.);
#1024=ORIENTED_EDGE('',*,*,#763,.T.);
#1025=ORIENTED_EDGE('',*,*,#764,.F.);
#1026=ORIENTED_EDGE('',*,*,#765,.F.);
#1027=ORIENTED_EDGE('',*,*,#711,.T.);
#1028=ORIENTED_EDGE('',*,*,#765,.T.);
#1029=ORIENTED_EDGE('',*,*,#766,.F.);
#1030=ORIENTED_EDGE('',*,*,#767,.F.);
#1031=ORIENTED_EDGE('',*,*,#712,.F.);
#1032=ORIENTED_EDGE('',*,*,#767,.T.);
#1033=ORIENTED_EDGE('',*,*,#768,.F.);
#1034=ORIENTED_EDGE('',*,*,#769,.F.);
#1035=ORIENTED_EDGE('',*,*,#726,.T.);
#1036=ORIENTED_EDGE('',*,*,#770,.T.);
#1037=ORIENTED_EDGE('',*,*,#771,.F.);
#1038=ORIENTED_EDGE('',*,*,#772,.F.);
#1039=ORIENTED_EDGE('',*,*,#727,.T.);
#1040=ORIENTED_EDGE('',*,*,#772,.T.);
#1041=ORIENTED_EDGE('',*,*,#773,.F.);
#1042=ORIENTED_EDGE('',*,*,#774,.F.);
#1043=ORIENTED_EDGE('',*,*,#728,.T.);
#1044=ORIENTED_EDGE('',*,*,#774,.T.);
#1045=ORIENTED_EDGE('',*,*,#775,.F.);
#1046=ORIENTED_EDGE('',*,*,#776,.F.);
#1047=ORIENTED_EDGE('',*,*,#729,.T.);
#1048=ORIENTED_EDGE('',*,*,#776,.T.);
#1049=ORIENTED_EDGE('',*,*,#777,.F.);
#1050=ORIENTED_EDGE('',*,*,#778,.F.);
#1051=ORIENTED_EDGE('',*,*,#730,.T.);
#1052=ORIENTED_EDGE('',*,*,#778,.T.);
#1053=ORIENTED_EDGE('',*,*,#779,.F.);
#1054=ORIENTED_EDGE('',*,*,#780,.F.);
#1055=ORIENTED_EDGE('',*,*,#779,.T.);
#1056=ORIENTED_EDGE('',*,*,#777,.T.);
#1057=ORIENTED_EDGE('',*,*,#775,.T.);
#1058=ORIENTED_EDGE('',*,*,#773,.T.);
#1059=ORIENTED_EDGE('',*,*,#771,.T.);
#1060=ORIENTED_EDGE('',*,*,#781,.T.);
#1061=ORIENTED_EDGE('',*,*,#768,.T.);
#1062=ORIENTED_EDGE('',*,*,#766,.T.);
#1063=ORIENTED_EDGE('',*,*,#764,.T.);
#1064=ORIENTED_EDGE('',*,*,#762,.T.);
#1065=ORIENTED_EDGE('',*,*,#760,.T.);
#1066=ORIENTED_EDGE('',*,*,#782,.T.);
#1067=ORIENTED_EDGE('',*,*,#701,.F.);
#1068=ORIENTED_EDGE('',*,*,#783,.T.);
#1069=ORIENTED_EDGE('',*,*,#629,.F.);
#1070=ORIENTED_EDGE('',*,*,#784,.F.);
#1071=ORIENTED_EDGE('',*,*,#785,.F.);
#1072=ORIENTED_EDGE('',*,*,#699,.T.);
#1073=ORIENTED_EDGE('',*,*,#692,.T.);
#1074=ORIENTED_EDGE('',*,*,#631,.F.);
#1075=ORIENTED_EDGE('',*,*,#700,.T.);
#1076=ORIENTED_EDGE('',*,*,#785,.T.);
#1077=ORIENTED_EDGE('',*,*,#630,.F.);
#1078=ORIENTED_EDGE('',*,*,#783,.F.);
#1079=ORIENTED_EDGE('',*,*,#723,.T.);
#1080=ORIENTED_EDGE('',*,*,#786,.T.);
#1081=ORIENTED_EDGE('',*,*,#650,.F.);
#1082=ORIENTED_EDGE('',*,*,#787,.F.);
#1083=ORIENTED_EDGE('',*,*,#724,.F.);
#1084=ORIENTED_EDGE('',*,*,#787,.T.);
#1085=ORIENTED_EDGE('',*,*,#649,.F.);
#1086=ORIENTED_EDGE('',*,*,#788,.F.);
#1087=ORIENTED_EDGE('',*,*,#788,.T.);
#1088=ORIENTED_EDGE('',*,*,#648,.F.);
#1089=ORIENTED_EDGE('',*,*,#789,.F.);
#1090=ORIENTED_EDGE('',*,*,#735,.F.);
#1091=ORIENTED_EDGE('',*,*,#752,.T.);
#1092=ORIENTED_EDGE('',*,*,#656,.F.);
#1093=ORIENTED_EDGE('',*,*,#753,.F.);
#1094=ORIENTED_EDGE('',*,*,#713,.F.);
#1095=ORIENTED_EDGE('',*,*,#769,.T.);
#1096=ORIENTED_EDGE('',*,*,#781,.F.);
#1097=ORIENTED_EDGE('',*,*,#770,.F.);
#1098=ORIENTED_EDGE('',*,*,#725,.F.);
#1099=ORIENTED_EDGE('',*,*,#789,.T.);
#1100=ORIENTED_EDGE('',*,*,#647,.F.);
#1101=ORIENTED_EDGE('',*,*,#790,.F.);
#1102=ORIENTED_EDGE('',*,*,#736,.F.);
#1103=ORIENTED_EDGE('',*,*,#790,.T.);
#1104=ORIENTED_EDGE('',*,*,#646,.F.);
#1105=ORIENTED_EDGE('',*,*,#688,.F.);
#1106=ORIENTED_EDGE('',*,*,#702,.F.);
#1107=ORIENTED_EDGE('',*,*,#784,.T.);
#1108=ORIENTED_EDGE('',*,*,#628,.F.);
#1109=ORIENTED_EDGE('',*,*,#707,.F.);
#1110=ORIENTED_EDGE('',*,*,#737,.F.);
#1111=ORIENTED_EDGE('',*,*,#693,.T.);
#1112=ORIENTED_EDGE('',*,*,#689,.T.);
#1113=ORIENTED_EDGE('',*,*,#644,.F.);
#1114=ORIENTED_EDGE('',*,*,#791,.F.);
#1115=ORIENTED_EDGE('',*,*,#694,.T.);
#1116=ORIENTED_EDGE('',*,*,#791,.T.);
#1117=ORIENTED_EDGE('',*,*,#643,.F.);
#1118=ORIENTED_EDGE('',*,*,#792,.F.);
#1119=ORIENTED_EDGE('',*,*,#695,.T.);
#1120=ORIENTED_EDGE('',*,*,#792,.T.);
#1121=ORIENTED_EDGE('',*,*,#642,.F.);
#1122=ORIENTED_EDGE('',*,*,#793,.F.);
#1123=ORIENTED_EDGE('',*,*,#696,.F.);
#1124=ORIENTED_EDGE('',*,*,#793,.T.);
#1125=ORIENTED_EDGE('',*,*,#641,.F.);
#1126=ORIENTED_EDGE('',*,*,#703,.F.);
#1127=ORIENTED_EDGE('',*,*,#705,.T.);
#1128=ORIENTED_EDGE('',*,*,#638,.F.);
#1129=ORIENTED_EDGE('',*,*,#794,.F.);
#1130=ORIENTED_EDGE('',*,*,#738,.F.);
#1131=ORIENTED_EDGE('',*,*,#794,.T.);
#1132=ORIENTED_EDGE('',*,*,#637,.F.);
#1133=ORIENTED_EDGE('',*,*,#795,.F.);
#1134=ORIENTED_EDGE('',*,*,#739,.F.);
#1135=ORIENTED_EDGE('',*,*,#795,.T.);
#1136=ORIENTED_EDGE('',*,*,#636,.F.);
#1137=ORIENTED_EDGE('',*,*,#796,.F.);
#1138=ORIENTED_EDGE('',*,*,#731,.F.);
#1139=ORIENTED_EDGE('',*,*,#780,.T.);
#1140=ORIENTED_EDGE('',*,*,#782,.F.);
#1141=ORIENTED_EDGE('',*,*,#759,.F.);
#1142=ORIENTED_EDGE('',*,*,#719,.F.);
#1143=ORIENTED_EDGE('',*,*,#758,.T.);
#1144=ORIENTED_EDGE('',*,*,#666,.F.);
#1145=ORIENTED_EDGE('',*,*,#747,.F.);
#1146=ORIENTED_EDGE('',*,*,#740,.F.);
#1147=ORIENTED_EDGE('',*,*,#720,.F.);
#1148=ORIENTED_EDGE('',*,*,#796,.T.);
#1149=ORIENTED_EDGE('',*,*,#635,.F.);
#1150=ORIENTED_EDGE('',*,*,#797,.F.);
#1151=ORIENTED_EDGE('',*,*,#721,.T.);
#1152=ORIENTED_EDGE('',*,*,#797,.T.);
#1153=ORIENTED_EDGE('',*,*,#634,.F.);
#1154=ORIENTED_EDGE('',*,*,#798,.F.);
#1155=ORIENTED_EDGE('',*,*,#722,.T.);
#1156=ORIENTED_EDGE('',*,*,#798,.T.);
#1157=ORIENTED_EDGE('',*,*,#633,.F.);
#1158=ORIENTED_EDGE('',*,*,#786,.F.);
#1159=PLANE('',#1297);
#1160=PLANE('',#1298);
#1161=PLANE('',#1299);
#1162=PLANE('',#1300);
#1163=PLANE('',#1301);
#1164=PLANE('',#1302);
#1165=PLANE('',#1303);
#1166=PLANE('',#1304);
#1167=PLANE('',#1305);
#1168=PLANE('',#1306);
#1169=PLANE('',#1307);
#1170=PLANE('',#1308);
#1171=PLANE('',#1309);
#1172=PLANE('',#1310);
#1173=PLANE('',#1311);
#1174=PLANE('',#1312);
#1175=PLANE('',#1313);
#1176=PLANE('',#1314);
#1177=PLANE('',#1315);
#1178=PLANE('',#1316);
#1179=PLANE('',#1317);
#1180=PLANE('',#1318);
#1181=PLANE('',#1319);
#1182=PLANE('',#1320);
#1183=PLANE('',#1321);
#1184=PLANE('',#1322);
#1185=PLANE('',#1323);
#1186=PLANE('',#1324);
#1187=PLANE('',#1325);
#1188=PLANE('',#1326);
#1189=PLANE('',#1327);
#1190=PLANE('',#1328);
#1191=PLANE('',#1329);
#1192=PLANE('',#1330);
#1193=PLANE('',#1331);
#1194=PLANE('',#1332);
#1195=PLANE('',#1333);
#1196=PLANE('',#1334);
#1197=PLANE('',#1335);
#1198=PLANE('',#1336);
#1199=PLANE('',#1337);
#1200=PLANE('',#1338);
#1201=PLANE('',#1339);
#1202=PLANE('',#1340);
#1203=PLANE('',#1341);
#1204=PLANE('',#1342);
#1205=PLANE('',#1343);
#1206=PLANE('',#1344);
#1207=PLANE('',#1345);
#1208=PLANE('',#1346);
#1209=PLANE('',#1347);
#1210=PLANE('',#1348);
#1211=PLANE('',#1349);
#1212=PLANE('',#1350);
#1213=PLANE('',#1351);
#1214=PLANE('',#1352);
#1215=PLANE('',#1353);
#1216=PLANE('',#1354);
#1217=PLANE('',#1355);
#1218=PLANE('',#1356);
#1219=PLANE('',#1357);
#1220=PLANE('',#1358);
#1221=ADVANCED_FACE('',(#15),#1159,.T.);
#1222=ADVANCED_FACE('',(#16),#1160,.T.);
#1223=ADVANCED_FACE('',(#17),#1161,.T.);
#1224=ADVANCED_FACE('',(#18),#1162,.T.);
#1225=ADVANCED_FACE('',(#19),#1163,.T.);
#1226=ADVANCED_FACE('',(#20),#1164,.T.);
#1227=ADVANCED_FACE('',(#21),#1165,.T.);
#1228=ADVANCED_FACE('',(#22),#1166,.T.);
#1229=ADVANCED_FACE('',(#23),#1167,.F.);
#1230=ADVANCED_FACE('',(#24),#1168,.T.);
#1231=ADVANCED_FACE('',(#25),#1169,.T.);
#1232=ADVANCED_FACE('',(#26),#1170,.F.);
#1233=ADVANCED_FACE('',(#27),#1171,.T.);
#1234=ADVANCED_FACE('',(#28),#1172,.T.);
#1235=ADVANCED_FACE('',(#29),#1173,.F.);
#1236=ADVANCED_FACE('',(#30),#1174,.F.);
#1237=ADVANCED_FACE('',(#31),#1175,.T.);
#1238=ADVANCED_FACE('',(#32),#1176,.T.);
#1239=ADVANCED_FACE('',(#33),#1177,.T.);
#1240=ADVANCED_FACE('',(#34),#1178,.T.);
#1241=ADVANCED_FACE('',(#35),#1179,.T.);
#1242=ADVANCED_FACE('',(#36),#1180,.T.);
#1243=ADVANCED_FACE('',(#37),#1181,.T.);
#1244=ADVANCED_FACE('',(#38),#1182,.T.);
#1245=ADVANCED_FACE('',(#39),#1183,.T.);
#1246=ADVANCED_FACE('',(#40),#1184,.T.);
#1247=ADVANCED_FACE('',(#41),#1185,.T.);
#1248=ADVANCED_FACE('',(#42),#1186,.T.);
#1249=ADVANCED_FACE('',(#43),#1187,.T.);
#1250=ADVANCED_FACE('',(#44),#1188,.T.);
#1251=ADVANCED_FACE('',(#45),#1189,.T.);
#1252=ADVANCED_FACE('',(#46),#1190,.T.);
#1253=ADVANCED_FACE('',(#47),#1191,.T.);
#1254=ADVANCED_FACE('',(#48),#1192,.T.);
#1255=ADVANCED_FACE('',(#49),#1193,.T.);
#1256=ADVANCED_FACE('',(#50),#1194,.T.);
#1257=ADVANCED_FACE('',(#51),#1195,.T.);
#1258=ADVANCED_FACE('',(#52),#1196,.T.);
#1259=ADVANCED_FACE('',(#53),#1197,.T.);
#1260=ADVANCED_FACE('',(#54),#1198,.T.);
#1261=ADVANCED_FACE('',(#55),#1199,.T.);
#1262=ADVANCED_FACE('',(#56),#1200,.T.);
#1263=ADVANCED_FACE('',(#57),#1201,.T.);
#1264=ADVANCED_FACE('',(#58),#1202,.T.);
#1265=ADVANCED_FACE('',(#59),#1203,.T.);
#1266=ADVANCED_FACE('',(#60),#1204,.T.);
#1267=ADVANCED_FACE('',(#61),#1205,.T.);
#1268=ADVANCED_FACE('',(#62),#1206,.T.);
#1269=ADVANCED_FACE('',(#63),#1207,.T.);
#1270=ADVANCED_FACE('',(#64),#1208,.T.);
#1271=ADVANCED_FACE('',(#65),#1209,.T.);
#1272=ADVANCED_FACE('',(#66),#1210,.T.);
#1273=ADVANCED_FACE('',(#67),#1211,.T.);
#1274=ADVANCED_FACE('',(#68),#1212,.T.);
#1275=ADVANCED_FACE('',(#69),#1213,.T.);
#1276=ADVANCED_FACE('',(#70),#1214,.T.);
#1277=ADVANCED_FACE('',(#71),#1215,.T.);
#1278=ADVANCED_FACE('',(#72),#1216,.T.);
#1279=ADVANCED_FACE('',(#73),#1217,.T.);
#1280=ADVANCED_FACE('',(#74),#1218,.T.);
#1281=ADVANCED_FACE('',(#75),#1219,.T.);
#1282=ADVANCED_FACE('',(#76),#1220,.T.);
#1283=CLOSED_SHELL('',(#1221,#1222,#1223,#1224,#1225,#1226,#1227,#1228,
#1229,#1230,#1231,#1232,#1233,#1234,#1235,#1236,#1237,#1238,#1239,#1240,
#1241,#1242,#1243,#1244,#1245,#1246,#1247,#1248,#1249,#1250,#1251,#1252,
#1253,#1254,#1255,#1256,#1257,#1258,#1259,#1260,#1261,#1262,#1263,#1264,
#1265,#1266,#1267,#1268,#1269,#1270,#1271,#1272,#1273,#1274,#1275,#1276,
#1277,#1278,#1279,#1280,#1281,#1282));
#1284=DERIVED_UNIT_ELEMENT(#1286,1.);
#1285=DERIVED_UNIT_ELEMENT(#2033,-3.);
#1286=(
MASS_UNIT()
NAMED_UNIT(*)
SI_UNIT(.KILO.,.GRAM.)
);
#1287=DERIVED_UNIT((#1284,#1285));
#1288=MEASURE_REPRESENTATION_ITEM('density measure',
POSITIVE_RATIO_MEASURE(7850.),#1287);
#1289=PROPERTY_DEFINITION_REPRESENTATION(#1294,#1291);
#1290=PROPERTY_DEFINITION_REPRESENTATION(#1295,#1292);
#1291=REPRESENTATION('material name',(#1293),#2030);
#1292=REPRESENTATION('density',(#1288),#2030);
#1293=DESCRIPTIVE_REPRESENTATION_ITEM('Steel','Steel');
#1294=PROPERTY_DEFINITION('material property','material name',#2040);
#1295=PROPERTY_DEFINITION('material property','density of part',#2040);
#1296=AXIS2_PLACEMENT_3D('',#1665,#1359,#1360);
#1297=AXIS2_PLACEMENT_3D('',#1666,#1361,#1362);
#1298=AXIS2_PLACEMENT_3D('',#1683,#1371,#1372);
#1299=AXIS2_PLACEMENT_3D('',#1696,#1379,#1380);
#1300=AXIS2_PLACEMENT_3D('',#1733,#1399,#1400);
#1301=AXIS2_PLACEMENT_3D('',#1766,#1417,#1418);
#1302=AXIS2_PLACEMENT_3D('',#1772,#1422,#1423);
#1303=AXIS2_PLACEMENT_3D('',#1778,#1427,#1428);
#1304=AXIS2_PLACEMENT_3D('',#1784,#1432,#1433);
#1305=AXIS2_PLACEMENT_3D('',#1790,#1437,#1438);
#1306=AXIS2_PLACEMENT_3D('',#1803,#1447,#1448);
#1307=AXIS2_PLACEMENT_3D('',#1809,#1452,#1453);
#1308=AXIS2_PLACEMENT_3D('',#1815,#1457,#1458);
#1309=AXIS2_PLACEMENT_3D('',#1834,#1469,#1470);
#1310=AXIS2_PLACEMENT_3D('',#1837,#1473,#1474);
#1311=AXIS2_PLACEMENT_3D('',#1843,#1478,#1479);
#1312=AXIS2_PLACEMENT_3D('',#1868,#1492,#1493);
#1313=AXIS2_PLACEMENT_3D('',#1893,#1506,#1507);
#1314=AXIS2_PLACEMENT_3D('',#1915,#1519,#1520);
#1315=AXIS2_PLACEMENT_3D('',#1918,#1523,#1524);
#1316=AXIS2_PLACEMENT_3D('',#1920,#1526,#1527);
#1317=AXIS2_PLACEMENT_3D('',#1922,#1529,#1530);
#1318=AXIS2_PLACEMENT_3D('',#1923,#1531,#1532);
#1319=AXIS2_PLACEMENT_3D('',#1926,#1535,#1536);
#1320=AXIS2_PLACEMENT_3D('',#1927,#1537,#1538);
#1321=AXIS2_PLACEMENT_3D('',#1929,#1540,#1541);
#1322=AXIS2_PLACEMENT_3D('',#1931,#1543,#1544);
#1323=AXIS2_PLACEMENT_3D('',#1932,#1545,#1546);
#1324=AXIS2_PLACEMENT_3D('',#1934,#1548,#1549);
#1325=AXIS2_PLACEMENT_3D('',#1936,#1551,#1552);
#1326=AXIS2_PLACEMENT_3D('',#1939,#1555,#1556);
#1327=AXIS2_PLACEMENT_3D('',#1941,#1558,#1559);
#1328=AXIS2_PLACEMENT_3D('',#1943,#1561,#1562);
#1329=AXIS2_PLACEMENT_3D('',#1945,#1564,#1565);
#1330=AXIS2_PLACEMENT_3D('',#1947,#1567,#1568);
#1331=AXIS2_PLACEMENT_3D('',#1953,#1572,#1573);
#1332=AXIS2_PLACEMENT_3D('',#1957,#1576,#1577);
#1333=AXIS2_PLACEMENT_3D('',#1961,#1580,#1581);
#1334=AXIS2_PLACEMENT_3D('',#1965,#1584,#1585);
#1335=AXIS2_PLACEMENT_3D('',#1969,#1588,#1589);
#1336=AXIS2_PLACEMENT_3D('',#1975,#1593,#1594);
#1337=AXIS2_PLACEMENT_3D('',#1979,#1597,#1598);
#1338=AXIS2_PLACEMENT_3D('',#1983,#1601,#1602);
#1339=AXIS2_PLACEMENT_3D('',#1987,#1605,#1606);
#1340=AXIS2_PLACEMENT_3D('',#1991,#1609,#1610);
#1341=AXIS2_PLACEMENT_3D('',#1994,#1613,#1614);
#1342=AXIS2_PLACEMENT_3D('',#1997,#1617,#1618);
#1343=AXIS2_PLACEMENT_3D('',#1999,#1620,#1621);
#1344=AXIS2_PLACEMENT_3D('',#2000,#1622,#1623);
#1345=AXIS2_PLACEMENT_3D('',#2003,#1626,#1627);
#1346=AXIS2_PLACEMENT_3D('',#2005,#1629,#1630);
#1347=AXIS2_PLACEMENT_3D('',#2007,#1632,#1633);
#1348=AXIS2_PLACEMENT_3D('',#2009,#1635,#1636);
#1349=AXIS2_PLACEMENT_3D('',#2010,#1637,#1638);
#1350=AXIS2_PLACEMENT_3D('',#2012,#1640,#1641);
#1351=AXIS2_PLACEMENT_3D('',#2014,#1643,#1644);
#1352=AXIS2_PLACEMENT_3D('',#2016,#1646,#1647);
#1353=AXIS2_PLACEMENT_3D('',#2017,#1648,#1649);
#1354=AXIS2_PLACEMENT_3D('',#2019,#1651,#1652);
#1355=AXIS2_PLACEMENT_3D('',#2021,#1654,#1655);
#1356=AXIS2_PLACEMENT_3D('',#2023,#1657,#1658);
#1357=AXIS2_PLACEMENT_3D('',#2025,#1660,#1661);
#1358=AXIS2_PLACEMENT_3D('',#2027,#1663,#1664);
#1359=DIRECTION('axis',(0.,0.,1.));
#1360=DIRECTION('refdir',(1.,0.,0.));
#1361=DIRECTION('center_axis',(0.,0.,1.));
#1362=DIRECTION('ref_axis',(1.,0.,0.));
#1363=DIRECTION('',(-1.,0.,0.));
#1364=DIRECTION('',(0.,-1.,0.));
#1365=DIRECTION('',(1.,0.,0.));
#1366=DIRECTION('',(5.73018335290403E-16,-1.,0.));
#1367=DIRECTION('',(-1.,-3.1720657846433E-16,0.));
#1368=DIRECTION('',(0.,-1.,0.));
#1369=DIRECTION('',(1.,0.,0.));
#1370=DIRECTION('',(0.,1.,0.));
#1371=DIRECTION('center_axis',(0.,0.,1.));
#1372=DIRECTION('ref_axis',(1.,0.,0.));
#1373=DIRECTION('',(0.,-1.,0.));
#1374=DIRECTION('',(1.,0.,0.));
#1375=DIRECTION('',(0.,1.,0.));
#1376=DIRECTION('',(-1.,0.,0.));
#1377=DIRECTION('',(0.,1.,0.));
#1378=DIRECTION('',(-1.,0.,0.));
#1379=DIRECTION('center_axis',(0.,0.,1.));
#1380=DIRECTION('ref_axis',(1.,0.,0.));
#1381=DIRECTION('',(-2.73285667600039E-16,1.,0.));
#1382=DIRECTION('',(1.,6.125368411725E-16,0.));
#1383=DIRECTION('',(0.,1.,0.));
#1384=DIRECTION('',(-1.,0.,0.));
#1385=DIRECTION('',(0.,1.,0.));
#1386=DIRECTION('',(-1.,0.,0.));
#1387=DIRECTION('',(0.,-1.,0.));
#1388=DIRECTION('',(1.,0.,0.));
#1389=DIRECTION('',(0.,1.,0.));
#1390=DIRECTION('',(1.,0.,0.));
#1391=DIRECTION('',(0.,-1.,0.));
#1392=DIRECTION('',(-1.,0.,0.));
#1393=DIRECTION('',(0.,-1.,0.));
#1394=DIRECTION('',(1.,0.,0.));
#1395=DIRECTION('',(0.,1.,0.));
#1396=DIRECTION('',(1.,0.,0.));
#1397=DIRECTION('',(0.,1.,0.));
#1398=DIRECTION('',(-1.,0.,0.));
#1399=DIRECTION('center_axis',(0.,0.,1.));
#1400=DIRECTION('ref_axis',(1.,0.,0.));
#1401=DIRECTION('',(0.,-1.,0.));
#1402=DIRECTION('',(1.,0.,0.));
#1403=DIRECTION('',(2.73285667600038E-16,-1.,0.));
#1404=DIRECTION('',(-1.,-3.0626842058625E-16,0.));
#1405=DIRECTION('',(0.,-1.,0.));
#1406=DIRECTION('',(1.,0.,0.));
#1407=DIRECTION('',(0.,1.,0.));
#1408=DIRECTION('',(1.,0.,0.));
#1409=DIRECTION('',(0.,1.,0.));
#1410=DIRECTION('',(-1.,0.,0.));
#1411=DIRECTION('',(-2.86509167645202E-16,1.,0.));
#1412=DIRECTION('',(1.,3.1720657846433E-16,0.));
#1413=DIRECTION('',(0.,1.,0.));
#1414=DIRECTION('',(-1.,0.,0.));
#1415=DIRECTION('',(0.,1.,0.));
#1416=DIRECTION('',(-1.,0.,0.));
#1417=DIRECTION('center_axis',(-1.,0.,0.));
#1418=DIRECTION('ref_axis',(0.,0.,1.));
#1419=DIRECTION('',(0.,1.,0.));
#1420=DIRECTION('',(0.,0.,1.));
#1421=DIRECTION('',(0.,0.,1.));
#1422=DIRECTION('center_axis',(1.,0.,0.));
#1423=DIRECTION('ref_axis',(0.,0.,-1.));
#1424=DIRECTION('',(0.,-1.,0.));
#1425=DIRECTION('',(0.,0.,1.));
#1426=DIRECTION('',(0.,0.,1.));
#1427=DIRECTION('center_axis',(1.,0.,0.));
#1428=DIRECTION('ref_axis',(0.,0.,-1.));
#1429=DIRECTION('',(0.,-1.,0.));
#1430=DIRECTION('',(0.,0.,1.));
#1431=DIRECTION('',(0.,0.,1.));
#1432=DIRECTION('center_axis',(-1.,0.,0.));
#1433=DIRECTION('ref_axis',(0.,0.,1.));
#1434=DIRECTION('',(0.,1.,0.));
#1435=DIRECTION('',(0.,0.,1.));
#1436=DIRECTION('',(0.,0.,1.));
#1437=DIRECTION('center_axis',(0.,0.,-1.));
#1438=DIRECTION('ref_axis',(1.,0.,0.));
#1439=DIRECTION('',(-1.,0.,0.));
#1440=DIRECTION('',(1.,3.1720657846433E-16,0.));
#1441=DIRECTION('',(-2.86509167645202E-16,1.,0.));
#1442=DIRECTION('',(1.,0.,0.));
#1443=DIRECTION('',(1.,0.,0.));
#1444=DIRECTION('',(-1.,-3.1720657846433E-16,0.));
#1445=DIRECTION('',(5.73018335290403E-16,-1.,0.));
#1446=DIRECTION('',(-1.,0.,0.));
#1447=DIRECTION('center_axis',(-1.,0.,0.));
#1448=DIRECTION('ref_axis',(0.,0.,1.));
#1449=DIRECTION('',(0.,1.,0.));
#1450=DIRECTION('',(0.,0.,1.));
#1451=DIRECTION('',(0.,0.,1.));
#1452=DIRECTION('center_axis',(0.,1.,0.));
#1453=DIRECTION('ref_axis',(0.,0.,1.));
#1454=DIRECTION('',(1.,0.,0.));
#1455=DIRECTION('',(0.,0.,1.));
#1456=DIRECTION('',(0.,0.,1.));
#1457=DIRECTION('center_axis',(0.,0.,-1.));
#1458=DIRECTION('ref_axis',(1.,0.,0.));
#1459=DIRECTION('',(-1.,0.,0.));
#1460=DIRECTION('',(0.,-1.,0.));
#1461=DIRECTION('',(1.,0.,0.));
#1462=DIRECTION('',(0.,-1.,0.));
#1463=DIRECTION('',(-1.,0.,0.));
#1464=DIRECTION('',(0.,1.,0.));
#1465=DIRECTION('',(0.,1.,0.));
#1466=DIRECTION('',(-1.,0.,0.));
#1467=DIRECTION('',(0.,-1.,0.));
#1468=DIRECTION('',(1.,0.,0.));
#1469=DIRECTION('center_axis',(0.,-1.,0.));
#1470=DIRECTION('ref_axis',(0.,0.,-1.));
#1471=DIRECTION('',(0.,0.,1.));
#1472=DIRECTION('',(0.,0.,1.));
#1473=DIRECTION('center_axis',(-1.,0.,0.));
#1474=DIRECTION('ref_axis',(0.,-1.,0.));
#1475=DIRECTION('',(0.,0.,1.));
#1476=DIRECTION('',(0.,1.,0.));
#1477=DIRECTION('',(0.,0.,1.));
#1478=DIRECTION('center_axis',(0.,0.,-1.));
#1479=DIRECTION('ref_axis',(1.,0.,0.));
#1480=DIRECTION('',(0.,-1.,0.));
#1481=DIRECTION('',(1.,0.,0.));
#1482=DIRECTION('',(-2.73285667600038E-16,1.,0.));
#1483=DIRECTION('',(-1.,-3.0626842058625E-16,0.));
#1484=DIRECTION('',(0.,-1.,0.));
#1485=DIRECTION('',(1.,0.,0.));
#1486=DIRECTION('',(0.,-1.,0.));
#1487=DIRECTION('',(-1.,-3.0626842058625E-16,0.));
#1488=DIRECTION('',(2.73285667600038E-16,-1.,0.));
#1489=DIRECTION('',(1.,0.,0.));
#1490=DIRECTION('',(0.,-1.,0.));
#1491=DIRECTION('',(-1.,0.,0.));
#1492=DIRECTION('center_axis',(0.,0.,-1.));
#1493=DIRECTION('ref_axis',(1.,0.,0.));
#1494=DIRECTION('',(0.,-1.,0.));
#1495=DIRECTION('',(1.,6.125368411725E-16,0.));
#1496=DIRECTION('',(-2.73285667600039E-16,1.,0.));
#1497=DIRECTION('',(-1.,0.,0.));
#1498=DIRECTION('',(0.,-1.,0.));
#1499=DIRECTION('',(1.,0.,0.));
#1500=DIRECTION('',(0.,-1.,0.));
#1501=DIRECTION('',(-1.,0.,0.));
#1502=DIRECTION('',(2.73285667600038E-16,-1.,0.));
#1503=DIRECTION('',(1.,6.125368411725E-16,0.));
#1504=DIRECTION('',(0.,-1.,0.));
#1505=DIRECTION('',(-1.,0.,0.));
#1506=DIRECTION('center_axis',(0.,0.,-1.));
#1507=DIRECTION('ref_axis',(-1.,0.,0.));
#1508=DIRECTION('',(0.,-1.,0.));
#1509=DIRECTION('',(-1.,0.,0.));
#1510=DIRECTION('',(0.,-1.,0.));
#1511=DIRECTION('',(-1.,0.,0.));
#1512=DIRECTION('',(0.,-1.,0.));
#1513=DIRECTION('',(-1.,0.,0.));
#1514=DIRECTION('',(1.,0.,0.));
#1515=DIRECTION('',(0.,-1.,0.));
#1516=DIRECTION('',(1.,0.,0.));
#1517=DIRECTION('',(0.,-1.,0.));
#1518=DIRECTION('',(1.,0.,0.));
#1519=DIRECTION('center_axis',(1.,0.,0.));
#1520=DIRECTION('ref_axis',(0.,1.,0.));
#1521=DIRECTION('',(0.,0.,-1.));
#1522=DIRECTION('',(0.,0.,1.));
#1523=DIRECTION('center_axis',(-3.1720657846433E-16,1.,0.));
#1524=DIRECTION('ref_axis',(-1.,-3.1720657846433E-16,0.));
#1525=DIRECTION('',(0.,0.,1.));
#1526=DIRECTION('center_axis',(-1.,-5.73018335290403E-16,0.));
#1527=DIRECTION('ref_axis',(5.73018335290403E-16,-1.,0.));
#1528=DIRECTION('',(0.,0.,1.));
#1529=DIRECTION('center_axis',(3.1720657846433E-16,-1.,0.));
#1530=DIRECTION('ref_axis',(1.,3.1720657846433E-16,0.));
#1531=DIRECTION('center_axis',(1.,0.,0.));
#1532=DIRECTION('ref_axis',(0.,1.,0.));
#1533=DIRECTION('',(0.,0.,1.));
#1534=DIRECTION('',(0.,0.,1.));
#1535=DIRECTION('center_axis',(0.,1.,0.));
#1536=DIRECTION('ref_axis',(-1.,0.,0.));
#1537=DIRECTION('center_axis',(3.1720657846433E-16,-1.,0.));
#1538=DIRECTION('ref_axis',(1.,3.1720657846433E-16,0.));
#1539=DIRECTION('',(0.,0.,1.));
#1540=DIRECTION('center_axis',(1.,2.86509167645202E-16,0.));
#1541=DIRECTION('ref_axis',(-2.86509167645202E-16,1.,0.));
#1542=DIRECTION('',(0.,0.,1.));
#1543=DIRECTION('center_axis',(-3.1720657846433E-16,1.,0.));
#1544=DIRECTION('ref_axis',(-1.,-3.1720657846433E-16,0.));
#1545=DIRECTION('center_axis',(0.,-1.,0.));
#1546=DIRECTION('ref_axis',(1.,0.,0.));
#1547=DIRECTION('',(0.,0.,1.));
#1548=DIRECTION('center_axis',(1.,0.,0.));
#1549=DIRECTION('ref_axis',(0.,1.,0.));
#1550=DIRECTION('',(0.,0.,1.));
#1551=DIRECTION('center_axis',(-1.,0.,0.));
#1552=DIRECTION('ref_axis',(0.,-1.,0.));
#1553=DIRECTION('',(0.,0.,1.));
#1554=DIRECTION('',(0.,0.,1.));
#1555=DIRECTION('center_axis',(-3.0626842058625E-16,1.,0.));
#1556=DIRECTION('ref_axis',(-1.,-3.0626842058625E-16,0.));
#1557=DIRECTION('',(0.,0.,1.));
#1558=DIRECTION('center_axis',(-1.,-2.73285667600038E-16,0.));
#1559=DIRECTION('ref_axis',(2.73285667600038E-16,-1.,0.));
#1560=DIRECTION('',(0.,0.,1.));
#1561=DIRECTION('center_axis',(0.,-1.,0.));
#1562=DIRECTION('ref_axis',(1.,0.,0.));
#1563=DIRECTION('',(0.,0.,1.));
#1564=DIRECTION('center_axis',(-1.,0.,0.));
#1565=DIRECTION('ref_axis',(0.,-1.,0.));
#1566=DIRECTION('',(0.,0.,1.));
#1567=DIRECTION('center_axis',(1.,0.,0.));
#1568=DIRECTION('ref_axis',(0.,1.,0.));
#1569=DIRECTION('',(0.,0.,1.));
#1570=DIRECTION('',(0.,1.,0.));
#1571=DIRECTION('',(0.,0.,1.));
#1572=DIRECTION('center_axis',(0.,-1.,0.));
#1573=DIRECTION('ref_axis',(1.,0.,0.));
#1574=DIRECTION('',(1.,0.,0.));
#1575=DIRECTION('',(0.,0.,1.));
#1576=DIRECTION('center_axis',(1.,2.73285667600038E-16,0.));
#1577=DIRECTION('ref_axis',(-2.73285667600038E-16,1.,0.));
#1578=DIRECTION('',(-2.73285667600038E-16,1.,0.));
#1579=DIRECTION('',(0.,0.,1.));
#1580=DIRECTION('center_axis',(-3.0626842058625E-16,1.,0.));
#1581=DIRECTION('ref_axis',(-1.,-3.0626842058625E-16,0.));
#1582=DIRECTION('',(-1.,-3.0626842058625E-16,0.));
#1583=DIRECTION('',(0.,0.,1.));
#1584=DIRECTION('center_axis',(1.,0.,0.));
#1585=DIRECTION('ref_axis',(0.,1.,0.));
#1586=DIRECTION('',(0.,1.,0.));
#1587=DIRECTION('',(0.,0.,1.));
#1588=DIRECTION('center_axis',(-1.,0.,0.));
#1589=DIRECTION('ref_axis',(0.,-1.,0.));
#1590=DIRECTION('',(0.,0.,1.));
#1591=DIRECTION('',(0.,-1.,0.));
#1592=DIRECTION('',(0.,0.,1.));
#1593=DIRECTION('center_axis',(0.,1.,0.));
#1594=DIRECTION('ref_axis',(-1.,0.,0.));
#1595=DIRECTION('',(-1.,0.,0.));
#1596=DIRECTION('',(0.,0.,1.));
#1597=DIRECTION('center_axis',(-1.,-2.73285667600038E-16,0.));
#1598=DIRECTION('ref_axis',(2.73285667600038E-16,-1.,0.));
#1599=DIRECTION('',(2.73285667600038E-16,-1.,0.));
#1600=DIRECTION('',(0.,0.,1.));
#1601=DIRECTION('center_axis',(6.125368411725E-16,-1.,0.));
#1602=DIRECTION('ref_axis',(1.,6.125368411725E-16,0.));
#1603=DIRECTION('',(1.,6.125368411725E-16,0.));
#1604=DIRECTION('',(0.,0.,1.));
#1605=DIRECTION('center_axis',(-1.,0.,0.));
#1606=DIRECTION('ref_axis',(0.,-1.,0.));
#1607=DIRECTION('',(0.,-1.,0.));
#1608=DIRECTION('',(0.,0.,1.));
#1609=DIRECTION('center_axis',(0.,0.,1.));
#1610=DIRECTION('ref_axis',(1.,0.,0.));
#1611=DIRECTION('',(1.,0.,0.));
#1612=DIRECTION('',(-1.,0.,0.));
#1613=DIRECTION('center_axis',(1.,0.,0.));
#1614=DIRECTION('ref_axis',(0.,1.,0.));
#1615=DIRECTION('',(0.,0.,1.));
#1616=DIRECTION('',(0.,0.,1.));
#1617=DIRECTION('center_axis',(1.,0.,0.));
#1618=DIRECTION('ref_axis',(0.,1.,0.));
#1619=DIRECTION('',(0.,0.,1.));
#1620=DIRECTION('center_axis',(0.,1.,0.));
#1621=DIRECTION('ref_axis',(-1.,0.,0.));
#1622=DIRECTION('center_axis',(0.,1.,0.));
#1623=DIRECTION('ref_axis',(-1.,0.,0.));
#1624=DIRECTION('',(0.,0.,1.));
#1625=DIRECTION('',(0.,0.,1.));
#1626=DIRECTION('center_axis',(1.,0.,0.));
#1627=DIRECTION('ref_axis',(0.,1.,0.));
#1628=DIRECTION('',(0.,0.,1.));
#1629=DIRECTION('center_axis',(0.,-1.,0.));
#1630=DIRECTION('ref_axis',(1.,0.,0.));
#1631=DIRECTION('',(0.,0.,1.));
#1632=DIRECTION('center_axis',(1.,0.,0.));
#1633=DIRECTION('ref_axis',(0.,1.,0.));
#1634=DIRECTION('',(0.,0.,1.));
#1635=DIRECTION('center_axis',(0.,-1.,0.));
#1636=DIRECTION('ref_axis',(1.,0.,0.));
#1637=DIRECTION('center_axis',(0.,1.,0.));
#1638=DIRECTION('ref_axis',(-1.,0.,0.));
#1639=DIRECTION('',(0.,0.,1.));
#1640=DIRECTION('center_axis',(-1.,0.,0.));
#1641=DIRECTION('ref_axis',(0.,-1.,0.));
#1642=DIRECTION('',(0.,0.,1.));
#1643=DIRECTION('center_axis',(0.,-1.,0.));
#1644=DIRECTION('ref_axis',(1.,0.,0.));
#1645=DIRECTION('',(0.,0.,1.));
#1646=DIRECTION('center_axis',(1.,0.,0.));
#1647=DIRECTION('ref_axis',(0.,1.,0.));
#1648=DIRECTION('center_axis',(0.,1.,0.));
#1649=DIRECTION('ref_axis',(-1.,0.,0.));
#1650=DIRECTION('',(0.,0.,1.));
#1651=DIRECTION('center_axis',(1.,0.,0.));
#1652=DIRECTION('ref_axis',(0.,1.,0.));
#1653=DIRECTION('',(0.,0.,1.));
#1654=DIRECTION('center_axis',(0.,1.,0.));
#1655=DIRECTION('ref_axis',(-1.,0.,0.));
#1656=DIRECTION('',(0.,0.,1.));
#1657=DIRECTION('center_axis',(1.,0.,0.));
#1658=DIRECTION('ref_axis',(0.,1.,0.));
#1659=DIRECTION('',(0.,0.,1.));
#1660=DIRECTION('center_axis',(6.125368411725E-16,-1.,0.));
#1661=DIRECTION('ref_axis',(1.,6.125368411725E-16,0.));
#1662=DIRECTION('',(0.,0.,1.));
#1663=DIRECTION('center_axis',(1.,2.73285667600039E-16,0.));
#1664=DIRECTION('ref_axis',(-2.73285667600039E-16,1.,0.));
#1665=CARTESIAN_POINT('',(0.,0.,0.));
#1666=CARTESIAN_POINT('Origin',(197.000002935529,1.25000001862645,20.));
#1667=CARTESIAN_POINT('',(209.000003114343,34.0000005066395,20.));
#1668=CARTESIAN_POINT('',(181.000002756715,34.0000005066395,20.));
#1669=CARTESIAN_POINT('',(150.000002235174,34.0000005066395,20.));
#1670=CARTESIAN_POINT('',(181.000002756715,32.3879268407822,20.));
#1671=CARTESIAN_POINT('',(181.000002756715,34.0000005066395,20.));
#1672=CARTESIAN_POINT('',(206.987933665514,32.3879268407823,20.));
#1673=CARTESIAN_POINT('',(185.000002756715,32.3879268407822,20.));
#1674=CARTESIAN_POINT('',(206.987933665514,-29.6120731592178,20.));
#1675=CARTESIAN_POINT('',(206.987933665514,32.3879268407823,20.));
#1676=CARTESIAN_POINT('',(188.873226425437,-29.6120731592178,20.));
#1677=CARTESIAN_POINT('',(206.987933665514,-29.6120731592178,20.));
#1678=CARTESIAN_POINT('',(188.873226425437,-31.5000004693866,20.));
#1679=CARTESIAN_POINT('',(188.873226425437,-29.6120731592178,20.));
#1680=CARTESIAN_POINT('',(209.000003114343,-31.5000004693866,20.));
#1681=CARTESIAN_POINT('',(192.873226425437,-31.5000004693866,20.));
#1682=CARTESIAN_POINT('',(209.000003114343,34.0000005066395,20.));
#1683=CARTESIAN_POINT('Origin',(10.5000001564622,-22.0000002533197,20.));
#1684=CARTESIAN_POINT('',(-42.0000006258488,-15.,20.));
#1685=CARTESIAN_POINT('',(-42.0000006258488,-34.0000005066395,20.));
#1686=CARTESIAN_POINT('',(-42.0000006258488,-34.0000005066395,20.));
#1687=CARTESIAN_POINT('',(63.0000009387732,-34.0000005066395,20.));
#1688=CARTESIAN_POINT('',(88.0000013113022,-34.0000005066395,20.));
#1689=CARTESIAN_POINT('',(63.0000009387732,-32.0000004768372,20.));
#1690=CARTESIAN_POINT('',(63.0000009387732,-32.0000004768372,20.));
#1691=CARTESIAN_POINT('',(-40.,-32.,20.));
#1692=CARTESIAN_POINT('',(87.,-32.,20.));
#1693=CARTESIAN_POINT('',(-40.,-15.,20.));
#1694=CARTESIAN_POINT('',(-40.,-32.,20.));
#1695=CARTESIAN_POINT('',(-14.7499999217689,-15.,20.));
#1696=CARTESIAN_POINT('Origin',(24.0000005885959,1.50000002235174,20.));
#1697=CARTESIAN_POINT('',(89.1068644821644,-31.1068655252456,20.));
#1698=CARTESIAN_POINT('',(89.1068644821644,33.8931344747544,20.));
#1699=CARTESIAN_POINT('',(89.1068644821644,-31.1068655252456,20.));
#1700=CARTESIAN_POINT('',(90.0000018030405,33.8931344747544,20.));
#1701=CARTESIAN_POINT('',(89.1068644821644,33.8931344747544,20.));
#1702=CARTESIAN_POINT('',(90.0000018030405,36.0000005364418,20.));
#1703=CARTESIAN_POINT('',(90.0000018030405,36.0000005364418,20.));
#1704=CARTESIAN_POINT('',(88.0000013113022,36.0000005364418,20.));
#1705=CARTESIAN_POINT('',(88.0000013113022,36.0000005364418,20.));
#1706=CARTESIAN_POINT('',(88.0000013113022,37.000000551343,20.));
#1707=CARTESIAN_POINT('',(88.0000013113022,37.000000551343,20.));
#1708=CARTESIAN_POINT('',(-42.0000006258488,37.000000551343,20.));
#1709=CARTESIAN_POINT('',(-42.0000006258488,37.000000551343,20.));
#1710=CARTESIAN_POINT('',(-42.0000006258488,-3.99999992549419,20.));
#1711=CARTESIAN_POINT('',(-42.0000006258488,-34.0000005066395,20.));
#1712=CARTESIAN_POINT('',(-40.0000005960464,-3.99999992549419,20.));
#1713=CARTESIAN_POINT('',(-40.0000005960464,-3.99999992549419,20.));
#1714=CARTESIAN_POINT('',(-40.,35.,20.));
#1715=CARTESIAN_POINT('',(-40.0000005960464,5.00000007450581,20.));
#1716=CARTESIAN_POINT('',(87.,35.,20.));
#1717=CARTESIAN_POINT('',(-40.,35.,20.));
#1718=CARTESIAN_POINT('',(87.,-32.,20.));
#1719=CARTESIAN_POINT('',(87.,35.,20.));
#1720=CARTESIAN_POINT('',(75.0000012665987,-32.0000004768372,20.));
#1721=CARTESIAN_POINT('',(87.,-32.,20.));
#1722=CARTESIAN_POINT('',(75.0000012665987,-34.0000005066395,20.));
#1723=CARTESIAN_POINT('',(75.0000012665987,-32.0000004768372,20.));
#1724=CARTESIAN_POINT('',(88.0000013113022,-34.0000005066395,20.));
#1725=CARTESIAN_POINT('',(85.0000012665987,-34.0000005066395,20.));
#1726=CARTESIAN_POINT('',(88.0000013113022,-33.0000004917383,20.));
#1727=CARTESIAN_POINT('',(88.0000013113022,37.000000551343,20.));
#1728=CARTESIAN_POINT('',(89.4252094528675,-33.0000004917383,20.));
#1729=CARTESIAN_POINT('',(150.000002235174,-33.0000004917383,20.));
#1730=CARTESIAN_POINT('',(89.4252094528675,-31.1068655252456,20.));
#1731=CARTESIAN_POINT('',(89.4252094528675,-31.1068655252456,20.));
#1732=CARTESIAN_POINT('',(118.106864482164,-31.1068655252456,20.));
#1733=CARTESIAN_POINT('Origin',(157.4232437523,1.50000002235174,20.));
#1734=CARTESIAN_POINT('',(148.500002212822,36.0000005364418,20.));
#1735=CARTESIAN_POINT('',(148.500002212822,33.8931344747544,20.));
#1736=CARTESIAN_POINT('',(148.500002212822,36.0000005364418,20.));
#1737=CARTESIAN_POINT('',(149.1068649441,33.8931344747544,20.));
#1738=CARTESIAN_POINT('',(120.1068649441,33.8931344747544,20.));
#1739=CARTESIAN_POINT('',(149.1068649441,-31.1068655252456,20.));
#1740=CARTESIAN_POINT('',(149.1068649441,33.8931344747544,20.));
#1741=CARTESIAN_POINT('',(148.500002212822,-31.1068655252456,20.));
#1742=CARTESIAN_POINT('',(149.1068649441,-31.1068655252456,20.));
#1743=CARTESIAN_POINT('',(148.500002212822,-32.9999992623925,20.));
#1744=CARTESIAN_POINT('',(148.500002212822,-31.1068655252456,20.));
#1745=CARTESIAN_POINT('',(150.000002235174,-33.0000004917383,20.));
#1746=CARTESIAN_POINT('',(150.000002235174,-33.0000004917383,20.));
#1747=CARTESIAN_POINT('',(150.000002235174,-31.5000004693866,20.));
#1748=CARTESIAN_POINT('',(150.000002235174,36.0000005364418,20.));
#1749=CARTESIAN_POINT('',(170.346485291778,-31.5000004693866,20.));
#1750=CARTESIAN_POINT('',(209.000003114343,-31.5000004693866,20.));
#1751=CARTESIAN_POINT('',(170.346485291778,-29.6120731592178,20.));
#1752=CARTESIAN_POINT('',(170.346485291778,-29.6120731592178,20.));
#1753=CARTESIAN_POINT('',(150.987933665514,-29.6120731592178,20.));
#1754=CARTESIAN_POINT('',(166.346485291778,-29.6120731592178,20.));
#1755=CARTESIAN_POINT('',(150.987933665514,32.3879268407822,20.));
#1756=CARTESIAN_POINT('',(150.987933665514,-29.6120731592178,20.));
#1757=CARTESIAN_POINT('',(162.000002324581,32.3879268407822,20.));
#1758=CARTESIAN_POINT('',(150.987933665514,32.3879268407822,20.));
#1759=CARTESIAN_POINT('',(162.000002324581,34.0000005066395,20.));
#1760=CARTESIAN_POINT('',(162.000002324581,34.0000005066395,20.));
#1761=CARTESIAN_POINT('',(150.000002235174,34.0000005066395,20.));
#1762=CARTESIAN_POINT('',(156.000002324581,34.0000005066395,20.));
#1763=CARTESIAN_POINT('',(150.000002235174,36.0000005364418,20.));
#1764=CARTESIAN_POINT('',(150.000002235174,36.0000005364418,20.));
#1765=CARTESIAN_POINT('',(88.0000013113022,36.0000005364418,20.));
#1766=CARTESIAN_POINT('Origin',(181.000002756715,34.0000005066395,0.));
#1767=CARTESIAN_POINT('',(181.000002756715,32.3879268407822,0.));
#1768=CARTESIAN_POINT('',(181.000002756715,34.0000005066395,0.));
#1769=CARTESIAN_POINT('',(181.000002756715,17.7500002644956,0.));
#1770=CARTESIAN_POINT('',(181.000002756715,32.3879268407822,0.));
#1771=CARTESIAN_POINT('',(181.000002756715,34.0000005066395,10.));
#1772=CARTESIAN_POINT('Origin',(162.000002324581,32.3879268407822,0.));
#1773=CARTESIAN_POINT('',(162.000002324581,34.0000005066395,0.));
#1774=CARTESIAN_POINT('',(162.000002324581,32.3879268407822,0.));
#1775=CARTESIAN_POINT('',(162.000002324581,16.943963431567,0.));
#1776=CARTESIAN_POINT('',(162.000002324581,34.0000005066395,0.));
#1777=CARTESIAN_POINT('',(162.000002324581,32.3879268407822,10.));
#1778=CARTESIAN_POINT('Origin',(170.346485291778,-31.5000004693866,0.));
#1779=CARTESIAN_POINT('',(170.346485291778,-29.6120731592178,0.));
#1780=CARTESIAN_POINT('',(170.346485291778,-31.5000004693866,0.));
#1781=CARTESIAN_POINT('',(170.346485291778,-15.0000002235174,0.));
#1782=CARTESIAN_POINT('',(170.346485291778,-29.6120731592178,0.));
#1783=CARTESIAN_POINT('',(170.346485291778,-31.5000004693866,10.));
#1784=CARTESIAN_POINT('Origin',(188.873226425437,-29.6120731592178,0.));
#1785=CARTESIAN_POINT('',(188.873226425437,-31.5000004693866,0.));
#1786=CARTESIAN_POINT('',(188.873226425437,-29.6120731592178,0.));
#1787=CARTESIAN_POINT('',(188.873226425437,-14.056036568433,0.));
#1788=CARTESIAN_POINT('',(188.873226425437,-31.5000004693866,0.));
#1789=CARTESIAN_POINT('',(188.873226425437,-29.6120731592178,10.));
#1790=CARTESIAN_POINT('Origin',(83.500001244247,1.50000002235174,0.));
#1791=CARTESIAN_POINT('',(209.000003114343,34.0000005066395,0.));
#1792=CARTESIAN_POINT('',(150.987933665514,32.3879268407822,0.));
#1793=CARTESIAN_POINT('',(150.987933665514,32.3879268407822,0.));
#1794=CARTESIAN_POINT('',(150.987933665514,-29.6120731592178,0.));
#1795=CARTESIAN_POINT('',(150.987933665514,-29.6120731592178,0.));
#1796=CARTESIAN_POINT('',(124.923243268012,-29.6120731592178,0.));
#1797=CARTESIAN_POINT('',(150.000002235174,-31.5000005625188,0.));
#1798=CARTESIAN_POINT('',(206.987933665514,-29.6120731592178,0.));
#1799=CARTESIAN_POINT('',(206.987933665514,-29.6120731592178,0.));
#1800=CARTESIAN_POINT('',(206.987933665514,32.3879268407823,0.));
#1801=CARTESIAN_POINT('',(206.987933665514,32.3879268407823,0.));
#1802=CARTESIAN_POINT('',(134.250002000481,32.3879268407822,0.));
#1803=CARTESIAN_POINT('Origin',(75.0000012665987,-32.0000004768372,0.));
#1804=CARTESIAN_POINT('',(75.0000012665987,-34.0000005066395,0.));
#1805=CARTESIAN_POINT('',(75.0000012665987,-32.0000004768372,0.));
#1806=CARTESIAN_POINT('',(75.0000012665987,-15.2500002272427,0.));
#1807=CARTESIAN_POINT('',(75.0000012665987,-34.0000005066395,0.));
#1808=CARTESIAN_POINT('',(75.0000012665987,-32.0000004768372,10.));
#1809=CARTESIAN_POINT('Origin',(-40.,-15.,0.));
#1810=CARTESIAN_POINT('',(-42.0000006258488,-15.,0.));
#1811=CARTESIAN_POINT('',(-40.,-15.,0.));
#1812=CARTESIAN_POINT('',(21.7500006221235,-15.,0.));
#1813=CARTESIAN_POINT('',(-42.0000006258488,-15.,0.));
#1814=CARTESIAN_POINT('',(-40.,-15.,10.));
#1815=CARTESIAN_POINT('Origin',(83.500001244247,1.50000002235174,0.));
#1816=CARTESIAN_POINT('',(87.,-32.,0.));
#1817=CARTESIAN_POINT('',(87.,-32.,0.));
#1818=CARTESIAN_POINT('',(87.,35.,0.));
#1819=CARTESIAN_POINT('',(87.,35.,0.));
#1820=CARTESIAN_POINT('',(-40.,35.,0.));
#1821=CARTESIAN_POINT('',(-40.,35.,0.));
#1822=CARTESIAN_POINT('',(-40.0000005960464,-3.99999992549419,0.));
#1823=CARTESIAN_POINT('',(-40.0000005960464,3.25000004842877,0.));
#1824=CARTESIAN_POINT('',(-42.0000006258488,-3.99999992549419,0.));
#1825=CARTESIAN_POINT('',(20.7500003091991,-3.99999992549419,0.));
#1826=CARTESIAN_POINT('',(-42.0000006258488,13.5000002756715,0.));
#1827=CARTESIAN_POINT('',(-40.,-32.,0.));
#1828=CARTESIAN_POINT('',(-40.,-32.,0.));
#1829=CARTESIAN_POINT('',(63.0000009387732,-32.0000004768372,0.));
#1830=CARTESIAN_POINT('',(87.,-32.,0.));
#1831=CARTESIAN_POINT('',(63.0000009387732,-34.0000005066395,0.));
#1832=CARTESIAN_POINT('',(63.0000009387732,-32.0000004768372,0.));
#1833=CARTESIAN_POINT('',(-42.0000006258488,-34.0000005066395,0.));
#1834=CARTESIAN_POINT('Origin',(-42.0000006258488,-3.99999992549419,0.));
#1835=CARTESIAN_POINT('',(-40.0000005960464,-3.99999992549419,0.));
#1836=CARTESIAN_POINT('',(-42.0000006258488,-3.99999992549419,10.));
#1837=CARTESIAN_POINT('Origin',(-42.0000006258488,37.000000551343,0.));
#1838=CARTESIAN_POINT('',(-42.0000006258488,37.000000551343,-2.));
#1839=CARTESIAN_POINT('',(-42.0000006258488,37.000000551343,0.));
#1840=CARTESIAN_POINT('',(-42.0000006258488,-34.0000005066395,-2.));
#1841=CARTESIAN_POINT('',(-42.0000006258488,37.000000551343,-2.));
#1842=CARTESIAN_POINT('',(-42.0000006258488,-34.0000005066395,0.));
#1843=CARTESIAN_POINT('Origin',(83.500001244247,1.50000002235174,0.));
#1844=CARTESIAN_POINT('',(121.000001803041,36.0000005364418,0.));
#1845=CARTESIAN_POINT('',(121.000001803041,33.8931344747544,0.));
#1846=CARTESIAN_POINT('',(121.000001803041,36.0000005364418,0.));
#1847=CARTESIAN_POINT('',(120.1068649441,33.8931344747544,0.));
#1848=CARTESIAN_POINT('',(120.1068649441,33.8931344747544,0.));
#1849=CARTESIAN_POINT('',(120.1068649441,-31.1068655252456,0.));
#1850=CARTESIAN_POINT('',(120.1068649441,-31.1068655252456,0.));
#1851=CARTESIAN_POINT('',(120.425209452867,-31.1068655252456,0.));
#1852=CARTESIAN_POINT('',(149.1068649441,-31.1068655252456,0.));
#1853=CARTESIAN_POINT('',(120.425209452867,-33.0000004917383,0.));
#1854=CARTESIAN_POINT('',(120.425209452867,-31.1068655252456,0.));
#1855=CARTESIAN_POINT('',(148.500002212822,-32.9999992623925,0.));
#1856=CARTESIAN_POINT('',(88.0000013113022,-33.0000004917383,0.));
#1857=CARTESIAN_POINT('',(148.500002212822,-31.1068655252456,0.));
#1858=CARTESIAN_POINT('',(148.500002212822,-31.1068655252456,0.));
#1859=CARTESIAN_POINT('',(149.1068649441,-31.1068655252456,0.));
#1860=CARTESIAN_POINT('',(149.1068649441,-31.1068655252456,0.));
#1861=CARTESIAN_POINT('',(149.1068649441,33.8931344747544,0.));
#1862=CARTESIAN_POINT('',(149.1068649441,33.8931344747544,0.));
#1863=CARTESIAN_POINT('',(148.500002212822,33.8931344747544,0.));
#1864=CARTESIAN_POINT('',(120.1068649441,33.8931344747544,0.));
#1865=CARTESIAN_POINT('',(148.500002212822,36.0000005364418,0.));
#1866=CARTESIAN_POINT('',(148.500002212822,36.0000005364418,0.));
#1867=CARTESIAN_POINT('',(150.000002235174,36.0000005364418,0.));
#1868=CARTESIAN_POINT('Origin',(83.500001244247,1.50000002235174,0.));
#1869=CARTESIAN_POINT('',(90.0000018030405,36.0000005364418,0.));
#1870=CARTESIAN_POINT('',(90.0000018030405,33.8931344747544,0.));
#1871=CARTESIAN_POINT('',(90.0000018030405,36.0000005364418,0.));
#1872=CARTESIAN_POINT('',(89.1068644821644,33.8931344747544,0.));
#1873=CARTESIAN_POINT('',(89.1068644821644,33.8931344747544,0.));
#1874=CARTESIAN_POINT('',(89.1068644821644,-31.1068655252456,0.));
#1875=CARTESIAN_POINT('',(89.1068644821644,-31.1068655252456,0.));
#1876=CARTESIAN_POINT('',(89.4252094528675,-31.1068655252456,0.));
#1877=CARTESIAN_POINT('',(118.106864482164,-31.1068655252456,0.));
#1878=CARTESIAN_POINT('',(89.4252094528675,-33.0000004917383,0.));
#1879=CARTESIAN_POINT('',(89.4252094528675,-31.1068655252456,0.));
#1880=CARTESIAN_POINT('',(117.500002212822,-32.9999992623925,0.));
#1881=CARTESIAN_POINT('',(88.0000013113022,-33.0000004917383,0.));
#1882=CARTESIAN_POINT('',(117.500002212822,-31.1068655252456,0.));
#1883=CARTESIAN_POINT('',(117.500002212822,-31.1068655252456,0.));
#1884=CARTESIAN_POINT('',(118.106864482164,-31.1068655252456,0.));
#1885=CARTESIAN_POINT('',(118.106864482164,-31.1068655252456,0.));
#1886=CARTESIAN_POINT('',(118.106864482164,33.8931344747544,0.));
#1887=CARTESIAN_POINT('',(118.106864482164,33.8931344747544,0.));
#1888=CARTESIAN_POINT('',(117.500002212822,33.8931344747544,0.));
#1889=CARTESIAN_POINT('',(89.1068644821644,33.8931344747544,0.));
#1890=CARTESIAN_POINT('',(117.500002212822,36.0000005364418,0.));
#1891=CARTESIAN_POINT('',(117.500002212822,36.0000005364418,0.));
#1892=CARTESIAN_POINT('',(150.000002235174,36.0000005364418,0.));
#1893=CARTESIAN_POINT('Origin',(83.500001244247,1.50000002235174,-2.));
#1894=CARTESIAN_POINT('',(209.000003114343,34.0000005066395,-2.));
#1895=CARTESIAN_POINT('',(209.000003114343,-31.5000005625188,-2.));
#1896=CARTESIAN_POINT('',(209.000003114343,-31.5000005625188,-2.));
#1897=CARTESIAN_POINT('',(150.000002235174,-31.5000005625188,-2.));
#1898=CARTESIAN_POINT('',(150.000002235174,-31.5000005625188,-2.));
#1899=CARTESIAN_POINT('',(150.000002235174,-33.0000004917383,-2.));
#1900=CARTESIAN_POINT('',(150.000002235174,-33.0000004917383,-2.));
#1901=CARTESIAN_POINT('',(88.0000013113022,-33.0000004917383,-2.));
#1902=CARTESIAN_POINT('',(88.0000013113022,-33.0000004917383,-2.));
#1903=CARTESIAN_POINT('',(88.0000013113022,-34.0000005066395,-2.));
#1904=CARTESIAN_POINT('',(88.0000013113022,-34.0000005066395,-2.));
#1905=CARTESIAN_POINT('',(-42.0000006258488,-34.0000005066395,-2.));
#1906=CARTESIAN_POINT('',(88.0000013113022,37.000000551343,-2.));
#1907=CARTESIAN_POINT('',(88.0000013113022,37.000000551343,-2.));
#1908=CARTESIAN_POINT('',(88.0000013113022,36.0000005364418,-2.));
#1909=CARTESIAN_POINT('',(88.0000013113022,-34.0000005066395,-2.));
#1910=CARTESIAN_POINT('',(150.000002235174,36.0000005364418,-2.));
#1911=CARTESIAN_POINT('',(150.000002235174,36.0000005364418,-2.));
#1912=CARTESIAN_POINT('',(150.000002235174,34.0000005066395,-2.));
#1913=CARTESIAN_POINT('',(150.000002235174,-33.0000004917383,-2.));
#1914=CARTESIAN_POINT('',(209.000003114343,34.0000005066395,-2.));
#1915=CARTESIAN_POINT('Origin',(209.000003114343,-31.5000004693866,0.));
#1916=CARTESIAN_POINT('',(209.000003114343,34.0000005066395,0.));
#1917=CARTESIAN_POINT('',(209.000003114343,-31.5000004693866,0.));
#1918=CARTESIAN_POINT('Origin',(206.987933665514,-29.6120731592178,0.));
#1919=CARTESIAN_POINT('',(206.987933665514,-29.6120731592178,0.));
#1920=CARTESIAN_POINT('Origin',(206.987933665514,32.3879268407823,0.));
#1921=CARTESIAN_POINT('',(206.987933665514,32.3879268407823,0.));
#1922=CARTESIAN_POINT('Origin',(185.000002756715,32.3879268407822,0.));
#1923=CARTESIAN_POINT('Origin',(150.000002235174,34.0000005066395,0.));
#1924=CARTESIAN_POINT('',(150.000002235174,36.0000005364418,0.));
#1925=CARTESIAN_POINT('',(150.000002235174,34.0000005066395,0.));
#1926=CARTESIAN_POINT('Origin',(156.000002324581,34.0000005066395,0.));
#1927=CARTESIAN_POINT('Origin',(150.987933665514,32.3879268407822,0.));
#1928=CARTESIAN_POINT('',(150.987933665514,32.3879268407822,0.));
#1929=CARTESIAN_POINT('Origin',(150.987933665514,-29.6120731592178,0.));
#1930=CARTESIAN_POINT('',(150.987933665514,-29.6120731592178,0.));
#1931=CARTESIAN_POINT('Origin',(166.346485291778,-29.6120731592178,0.));
#1932=CARTESIAN_POINT('Origin',(150.000002235174,-31.5000004693866,0.));
#1933=CARTESIAN_POINT('',(150.000002235174,-31.5000004693866,0.));
#1934=CARTESIAN_POINT('Origin',(150.000002235174,-33.0000004917383,0.));
#1935=CARTESIAN_POINT('',(150.000002235174,-33.0000004917383,0.));
#1936=CARTESIAN_POINT('Origin',(148.500002212822,-31.1068655252456,0.));
#1937=CARTESIAN_POINT('',(148.500002212822,-32.9999992623925,0.));
#1938=CARTESIAN_POINT('',(148.500002212822,-31.1068655252456,0.));
#1939=CARTESIAN_POINT('Origin',(149.1068649441,-31.1068655252456,0.));
#1940=CARTESIAN_POINT('',(149.1068649441,-31.1068655252456,0.));
#1941=CARTESIAN_POINT('Origin',(149.1068649441,33.8931344747544,0.));
#1942=CARTESIAN_POINT('',(149.1068649441,33.8931344747544,0.));
#1943=CARTESIAN_POINT('Origin',(148.500002212822,33.8931344747544,0.));
#1944=CARTESIAN_POINT('',(148.500002212822,33.8931344747544,0.));
#1945=CARTESIAN_POINT('Origin',(148.500002212822,36.0000005364418,0.));
#1946=CARTESIAN_POINT('',(148.500002212822,36.0000005364418,0.));
#1947=CARTESIAN_POINT('Origin',(121.000001803041,33.8931344747544,0.));
#1948=CARTESIAN_POINT('',(121.000001803041,36.0000005364418,10.));
#1949=CARTESIAN_POINT('',(121.000001803041,36.0000005364418,0.));
#1950=CARTESIAN_POINT('',(121.000001803041,33.8931344747544,10.));
#1951=CARTESIAN_POINT('',(121.000001803041,36.0000005364418,10.));
#1952=CARTESIAN_POINT('',(121.000001803041,33.8931344747544,0.));
#1953=CARTESIAN_POINT('Origin',(120.1068649441,33.8931344747544,0.));
#1954=CARTESIAN_POINT('',(120.1068649441,33.8931344747544,10.));
#1955=CARTESIAN_POINT('',(120.1068649441,33.8931344747544,10.));
#1956=CARTESIAN_POINT('',(120.1068649441,33.8931344747544,0.));
#1957=CARTESIAN_POINT('Origin',(120.1068649441,-31.1068655252456,0.));
#1958=CARTESIAN_POINT('',(120.1068649441,-31.1068655252456,10.));
#1959=CARTESIAN_POINT('',(120.1068649441,-31.1068655252456,10.));
#1960=CARTESIAN_POINT('',(120.1068649441,-31.1068655252456,0.));
#1961=CARTESIAN_POINT('Origin',(120.425209452867,-31.1068655252456,0.));
#1962=CARTESIAN_POINT('',(120.425209452867,-31.1068655252456,10.));
#1963=CARTESIAN_POINT('',(149.1068649441,-31.1068655252456,10.));
#1964=CARTESIAN_POINT('',(120.425209452867,-31.1068655252456,0.));
#1965=CARTESIAN_POINT('Origin',(120.425209452867,-33.0000004917383,0.));
#1966=CARTESIAN_POINT('',(120.425209452867,-33.0000004917383,10.));
#1967=CARTESIAN_POINT('',(120.425209452867,-31.1068655252456,10.));
#1968=CARTESIAN_POINT('',(120.425209452867,-33.0000004917383,0.));
#1969=CARTESIAN_POINT('Origin',(117.500002212822,-31.1068655252456,0.));
#1970=CARTESIAN_POINT('',(117.500002212822,-32.9999992623925,10.));
#1971=CARTESIAN_POINT('',(117.500002212822,-32.9999992623925,0.));
#1972=CARTESIAN_POINT('',(117.500002212822,-31.1068655252456,10.));
#1973=CARTESIAN_POINT('',(117.500002212822,-31.1068655252456,10.));
#1974=CARTESIAN_POINT('',(117.500002212822,-31.1068655252456,0.));
#1975=CARTESIAN_POINT('Origin',(118.106864482164,-31.1068655252456,0.));
#1976=CARTESIAN_POINT('',(118.106864482164,-31.1068655252456,10.));
#1977=CARTESIAN_POINT('',(118.106864482164,-31.1068655252456,10.));
#1978=CARTESIAN_POINT('',(118.106864482164,-31.1068655252456,0.));
#1979=CARTESIAN_POINT('Origin',(118.106864482164,33.8931344747544,0.));
#1980=CARTESIAN_POINT('',(118.106864482164,33.8931344747544,10.));
#1981=CARTESIAN_POINT('',(118.106864482164,33.8931344747544,10.));
#1982=CARTESIAN_POINT('',(118.106864482164,33.8931344747544,0.));
#1983=CARTESIAN_POINT('Origin',(117.500002212822,33.8931344747544,0.));
#1984=CARTESIAN_POINT('',(117.500002212822,33.8931344747544,10.));
#1985=CARTESIAN_POINT('',(89.1068644821644,33.8931344747544,10.));
#1986=CARTESIAN_POINT('',(117.500002212822,33.8931344747544,0.));
#1987=CARTESIAN_POINT('Origin',(117.500002212822,36.0000005364418,0.));
#1988=CARTESIAN_POINT('',(117.500002212822,36.0000005364418,10.));
#1989=CARTESIAN_POINT('',(117.500002212822,36.0000005364418,10.));
#1990=CARTESIAN_POINT('',(117.500002212822,36.0000005364418,0.));
#1991=CARTESIAN_POINT('Origin',(119.250002007931,1.50000002235174,10.));
#1992=CARTESIAN_POINT('',(150.000002235174,-33.0000004917383,10.));
#1993=CARTESIAN_POINT('',(88.0000013113022,36.0000005364418,10.));
#1994=CARTESIAN_POINT('Origin',(63.0000009387732,-34.0000005066395,0.));
#1995=CARTESIAN_POINT('',(63.0000009387732,-32.0000004768372,0.));
#1996=CARTESIAN_POINT('',(63.0000009387732,-34.0000005066395,0.));
#1997=CARTESIAN_POINT('Origin',(-40.,-32.,0.));
#1998=CARTESIAN_POINT('',(-40.,-32.,0.));
#1999=CARTESIAN_POINT('Origin',(63.0000009387732,-32.,0.));
#2000=CARTESIAN_POINT('Origin',(89.4252094528675,-31.1068655252456,0.));
#2001=CARTESIAN_POINT('',(89.1068644821644,-31.1068655252456,0.));
#2002=CARTESIAN_POINT('',(89.4252094528675,-31.1068655252456,0.));
#2003=CARTESIAN_POINT('Origin',(89.4252094528675,-33.0000004917383,0.));
#2004=CARTESIAN_POINT('',(89.4252094528675,-33.0000004917383,0.));
#2005=CARTESIAN_POINT('Origin',(88.0000013113022,-33.0000004917383,0.));
#2006=CARTESIAN_POINT('',(88.0000013113022,-33.0000004917383,0.));
#2007=CARTESIAN_POINT('Origin',(88.0000013113022,-34.0000005066395,0.));
#2008=CARTESIAN_POINT('',(88.0000013113022,-34.0000005066395,0.));
#2009=CARTESIAN_POINT('Origin',(85.0000012665987,-34.0000005066395,0.));
#2010=CARTESIAN_POINT('Origin',(87.,-32.,0.));
#2011=CARTESIAN_POINT('',(87.,-32.,0.));
#2012=CARTESIAN_POINT('Origin',(87.,35.,0.));
#2013=CARTESIAN_POINT('',(87.,35.,0.));
#2014=CARTESIAN_POINT('Origin',(-40.,35.,0.));
#2015=CARTESIAN_POINT('',(-40.,35.,0.));
#2016=CARTESIAN_POINT('Origin',(-40.,5.00000007450581,0.));
#2017=CARTESIAN_POINT('Origin',(88.0000013113022,37.000000551343,0.));
#2018=CARTESIAN_POINT('',(88.0000013113022,37.000000551343,0.));
#2019=CARTESIAN_POINT('Origin',(88.0000013113022,36.0000005364418,0.));
#2020=CARTESIAN_POINT('',(88.0000013113022,36.0000005364418,0.));
#2021=CARTESIAN_POINT('Origin',(90.0000018030405,36.0000005364418,0.));
#2022=CARTESIAN_POINT('',(90.0000018030405,36.0000005364418,0.));
#2023=CARTESIAN_POINT('Origin',(90.0000018030405,33.8931344747544,0.));
#2024=CARTESIAN_POINT('',(90.0000018030405,33.8931344747544,0.));
#2025=CARTESIAN_POINT('Origin',(89.1068644821644,33.8931344747544,0.));
#2026=CARTESIAN_POINT('',(89.1068644821644,33.8931344747544,0.));
#2027=CARTESIAN_POINT('Origin',(89.1068644821644,-31.1068655252456,0.));
#2028=UNCERTAINTY_MEASURE_WITH_UNIT(LENGTH_MEASURE(0.01),#2032,
'DISTANCE_ACCURACY_VALUE',
'Maximum model space distance between geometric entities at asserted c
onnectivities');
#2029=UNCERTAINTY_MEASURE_WITH_UNIT(LENGTH_MEASURE(0.01),#2032,
'DISTANCE_ACCURACY_VALUE',
'Maximum model space distance between geometric entities at asserted c
onnectivities');
#2030=(
GEOMETRIC_REPRESENTATION_CONTEXT(3)
GLOBAL_UNCERTAINTY_ASSIGNED_CONTEXT((#2028))
GLOBAL_UNIT_ASSIGNED_CONTEXT((#2032,#2034,#2035))
REPRESENTATION_CONTEXT('','3D')
);
#2031=(
GEOMETRIC_REPRESENTATION_CONTEXT(3)
GLOBAL_UNCERTAINTY_ASSIGNED_CONTEXT((#2029))
GLOBAL_UNIT_ASSIGNED_CONTEXT((#2032,#2034,#2035))
REPRESENTATION_CONTEXT('','3D')
);
#2032=(
LENGTH_UNIT()
NAMED_UNIT(*)
SI_UNIT(.MILLI.,.METRE.)
);
#2033=(
LENGTH_UNIT()
NAMED_UNIT(*)
SI_UNIT($,.METRE.)
);
#2034=(
NAMED_UNIT(*)
PLANE_ANGLE_UNIT()
SI_UNIT($,.RADIAN.)
);
#2035=(
NAMED_UNIT(*)
SI_UNIT($,.STERADIAN.)
SOLID_ANGLE_UNIT()
);
#2036=SHAPE_DEFINITION_REPRESENTATION(#2037,#2038);
#2037=PRODUCT_DEFINITION_SHAPE('',$,#2040);
#2038=SHAPE_REPRESENTATION('',(#1296),#2030);
#2039=PRODUCT_DEFINITION_CONTEXT('part definition',#2044,'design');
#2040=PRODUCT_DEFINITION('PowerSupply','PowerSupply v5',#2041,#2039);
#2041=PRODUCT_DEFINITION_FORMATION('',$,#2046);
#2042=PRODUCT_RELATED_PRODUCT_CATEGORY('PowerSupply v5',
'PowerSupply v5',(#2046));
#2043=APPLICATION_PROTOCOL_DEFINITION('international standard',
'automotive_design',2009,#2044);
#2044=APPLICATION_CONTEXT(
'Core Data for Automotive Mechanical Design Process');
#2045=PRODUCT_CONTEXT('part definition',#2044,'mechanical');
#2046=PRODUCT('PowerSupply','PowerSupply v5',$,(#2045));
#2047=PRESENTATION_STYLE_ASSIGNMENT((#2048));
#2048=SURFACE_STYLE_USAGE(.BOTH.,#2049);
#2049=SURFACE_SIDE_STYLE('',(#2050));
#2050=SURFACE_STYLE_FILL_AREA(#2051);
#2051=FILL_AREA_STYLE('Steel - Satin',(#2052));
#2052=FILL_AREA_STYLE_COLOUR('Steel - Satin',#2053);
#2053=COLOUR_RGB('Steel - Satin',0.627450980392157,0.627450980392157,0.627450980392157);
ENDSEC;
END-ISO-10303-21;
