ISO-10303-21;
HEADER;
/* Generated by software containing ST-Developer
 * from STEP Tools, Inc. (www.steptools.com) 
 */

FILE_DESCRIPTION(
/* description */ (''),
/* implementation_level */ '2;1');

FILE_NAME(
/* name */ 'ServoCase.step',
/* time_stamp */ '2026-02-04T07:51:25+02:00',
/* author */ (''),
/* organization */ (''),
/* preprocessor_version */ 'ST-DEVELOPER v20.1',
/* originating_system */ 'Autodesk Translation Framework v14.21.0.0',
/* authorisation */ '');

FILE_SCHEMA (('AUTOMOTIVE_DESIGN { 1 0 10303 214 3 1 1 }'));
ENDSEC;

DATA;
#10=MECHANICAL_DESIGN_GEOMETRIC_PRESENTATION_REPRESENTATION('',(#13),#2185);
#11=SHAPE_REPRESENTATION_RELATIONSHIP('SRR','None',#2192,#12);
#12=ADVANCED_BREP_SHAPE_REPRESENTATION('',(#14),#2184);
#13=STYLED_ITEM('',(#2201),#14);
#14=MANIFOLD_SOLID_BREP('Body1',#1351);
#15=FACE_BOUND('',#191,.T.);
#16=FACE_BOUND('',#192,.T.);
#17=FACE_BOUND('',#193,.T.);
#18=FACE_BOUND('',#194,.T.);
#19=FACE_BOUND('',#195,.T.);
#20=FACE_BOUND('',#196,.T.);
#21=FACE_BOUND('',#205,.T.);
#22=FACE_BOUND('',#208,.T.);
#23=FACE_BOUND('',#211,.T.);
#24=FACE_BOUND('',#214,.T.);
#25=FACE_BOUND('',#217,.T.);
#26=FACE_BOUND('',#220,.T.);
#27=FACE_BOUND('',#222,.T.);
#28=FACE_BOUND('',#223,.T.);
#29=FACE_BOUND('',#224,.T.);
#30=FACE_BOUND('',#225,.T.);
#31=FACE_BOUND('',#226,.T.);
#32=FACE_BOUND('',#227,.T.);
#33=FACE_BOUND('',#229,.T.);
#34=FACE_BOUND('',#230,.T.);
#35=FACE_BOUND('',#231,.T.);
#36=FACE_BOUND('',#232,.T.);
#37=FACE_BOUND('',#233,.T.);
#38=FACE_BOUND('',#234,.T.);
#39=FACE_BOUND('',#248,.T.);
#40=FACE_BOUND('',#249,.T.);
#41=FACE_BOUND('',#250,.T.);
#42=FACE_BOUND('',#251,.T.);
#43=FACE_BOUND('',#252,.T.);
#44=FACE_BOUND('',#253,.T.);
#45=PLANE('',#1368);
#46=PLANE('',#1369);
#47=PLANE('',#1373);
#48=PLANE('',#1374);
#49=PLANE('',#1375);
#50=PLANE('',#1376);
#51=PLANE('',#1377);
#52=PLANE('',#1378);
#53=PLANE('',#1379);
#54=PLANE('',#1380);
#55=PLANE('',#1381);
#56=PLANE('',#1382);
#57=PLANE('',#1383);
#58=PLANE('',#1384);
#59=PLANE('',#1385);
#60=PLANE('',#1386);
#61=PLANE('',#1387);
#62=PLANE('',#1388);
#63=PLANE('',#1389);
#64=PLANE('',#1390);
#65=PLANE('',#1391);
#66=PLANE('',#1392);
#67=PLANE('',#1414);
#68=PLANE('',#1418);
#69=PLANE('',#1422);
#70=PLANE('',#1426);
#71=PLANE('',#1430);
#72=PLANE('',#1434);
#73=PLANE('',#1435);
#74=PLANE('',#1436);
#75=PLANE('',#1437);
#76=PLANE('',#1438);
#77=PLANE('',#1439);
#78=PLANE('',#1440);
#79=PLANE('',#1441);
#80=PLANE('',#1442);
#81=PLANE('',#1443);
#82=PLANE('',#1444);
#83=PLANE('',#1445);
#84=PLANE('',#1446);
#85=PLANE('',#1447);
#86=PLANE('',#1448);
#87=PLANE('',#1449);
#88=PLANE('',#1450);
#89=PLANE('',#1451);
#90=PLANE('',#1452);
#91=PLANE('',#1453);
#92=PLANE('',#1454);
#93=PLANE('',#1455);
#94=PLANE('',#1456);
#95=PLANE('',#1457);
#96=PLANE('',#1458);
#97=PLANE('',#1459);
#98=PLANE('',#1460);
#99=FACE_OUTER_BOUND('',#167,.T.);
#100=FACE_OUTER_BOUND('',#168,.T.);
#101=FACE_OUTER_BOUND('',#169,.T.);
#102=FACE_OUTER_BOUND('',#170,.T.);
#103=FACE_OUTER_BOUND('',#171,.T.);
#104=FACE_OUTER_BOUND('',#172,.T.);
#105=FACE_OUTER_BOUND('',#173,.T.);
#106=FACE_OUTER_BOUND('',#174,.T.);
#107=FACE_OUTER_BOUND('',#175,.T.);
#108=FACE_OUTER_BOUND('',#176,.T.);
#109=FACE_OUTER_BOUND('',#177,.T.);
#110=FACE_OUTER_BOUND('',#178,.T.);
#111=FACE_OUTER_BOUND('',#179,.T.);
#112=FACE_OUTER_BOUND('',#180,.T.);
#113=FACE_OUTER_BOUND('',#181,.T.);
#114=FACE_OUTER_BOUND('',#182,.T.);
#115=FACE_OUTER_BOUND('',#183,.T.);
#116=FACE_OUTER_BOUND('',#184,.T.);
#117=FACE_OUTER_BOUND('',#185,.T.);
#118=FACE_OUTER_BOUND('',#186,.T.);
#119=FACE_OUTER_BOUND('',#187,.T.);
#120=FACE_OUTER_BOUND('',#188,.T.);
#121=FACE_OUTER_BOUND('',#189,.T.);
#122=FACE_OUTER_BOUND('',#190,.T.);
#123=FACE_OUTER_BOUND('',#197,.T.);
#124=FACE_OUTER_BOUND('',#198,.T.);
#125=FACE_OUTER_BOUND('',#199,.T.);
#126=FACE_OUTER_BOUND('',#200,.T.);
#127=FACE_OUTER_BOUND('',#201,.T.);
#128=FACE_OUTER_BOUND('',#202,.T.);
#129=FACE_OUTER_BOUND('',#203,.T.);
#130=FACE_OUTER_BOUND('',#204,.T.);
#131=FACE_OUTER_BOUND('',#206,.T.);
#132=FACE_OUTER_BOUND('',#207,.T.);
#133=FACE_OUTER_BOUND('',#209,.T.);
#134=FACE_OUTER_BOUND('',#210,.T.);
#135=FACE_OUTER_BOUND('',#212,.T.);
#136=FACE_OUTER_BOUND('',#213,.T.);
#137=FACE_OUTER_BOUND('',#215,.T.);
#138=FACE_OUTER_BOUND('',#216,.T.);
#139=FACE_OUTER_BOUND('',#218,.T.);
#140=FACE_OUTER_BOUND('',#219,.T.);
#141=FACE_OUTER_BOUND('',#221,.T.);
#142=FACE_OUTER_BOUND('',#228,.T.);
#143=FACE_OUTER_BOUND('',#235,.T.);
#144=FACE_OUTER_BOUND('',#236,.T.);
#145=FACE_OUTER_BOUND('',#237,.T.);
#146=FACE_OUTER_BOUND('',#238,.T.);
#147=FACE_OUTER_BOUND('',#239,.T.);
#148=FACE_OUTER_BOUND('',#240,.T.);
#149=FACE_OUTER_BOUND('',#241,.T.);
#150=FACE_OUTER_BOUND('',#242,.T.);
#151=FACE_OUTER_BOUND('',#243,.T.);
#152=FACE_OUTER_BOUND('',#244,.T.);
#153=FACE_OUTER_BOUND('',#245,.T.);
#154=FACE_OUTER_BOUND('',#246,.T.);
#155=FACE_OUTER_BOUND('',#247,.T.);
#156=FACE_OUTER_BOUND('',#254,.T.);
#157=FACE_OUTER_BOUND('',#255,.T.);
#158=FACE_OUTER_BOUND('',#256,.T.);
#159=FACE_OUTER_BOUND('',#257,.T.);
#160=FACE_OUTER_BOUND('',#258,.T.);
#161=FACE_OUTER_BOUND('',#259,.T.);
#162=FACE_OUTER_BOUND('',#260,.T.);
#163=FACE_OUTER_BOUND('',#261,.T.);
#164=FACE_OUTER_BOUND('',#262,.T.);
#165=FACE_OUTER_BOUND('',#263,.T.);
#166=FACE_OUTER_BOUND('',#264,.T.);
#167=EDGE_LOOP('',(#905,#906,#907,#908));
#168=EDGE_LOOP('',(#909,#910,#911,#912,#913,#914,#915));
#169=EDGE_LOOP('',(#916,#917,#918,#919,#920,#921,#922,#923));
#170=EDGE_LOOP('',(#924,#925,#926,#927));
#171=EDGE_LOOP('',(#928,#929,#930,#931,#932));
#172=EDGE_LOOP('',(#933,#934,#935,#936,#937));
#173=EDGE_LOOP('',(#938,#939,#940,#941));
#174=EDGE_LOOP('',(#942,#943,#944,#945));
#175=EDGE_LOOP('',(#946,#947,#948,#949,#950,#951,#952,#953,#954));
#176=EDGE_LOOP('',(#955,#956,#957,#958));
#177=EDGE_LOOP('',(#959,#960,#961,#962));
#178=EDGE_LOOP('',(#963,#964,#965,#966));
#179=EDGE_LOOP('',(#967,#968,#969,#970));
#180=EDGE_LOOP('',(#971,#972,#973,#974));
#181=EDGE_LOOP('',(#975,#976,#977,#978));
#182=EDGE_LOOP('',(#979,#980,#981,#982));
#183=EDGE_LOOP('',(#983,#984,#985,#986));
#184=EDGE_LOOP('',(#987,#988,#989,#990));
#185=EDGE_LOOP('',(#991,#992,#993,#994));
#186=EDGE_LOOP('',(#995,#996,#997,#998));
#187=EDGE_LOOP('',(#999,#1000,#1001,#1002));
#188=EDGE_LOOP('',(#1003,#1004,#1005,#1006));
#189=EDGE_LOOP('',(#1007,#1008,#1009,#1010));
#190=EDGE_LOOP('',(#1011,#1012,#1013,#1014));
#191=EDGE_LOOP('',(#1015,#1016,#1017,#1018));
#192=EDGE_LOOP('',(#1019,#1020,#1021,#1022));
#193=EDGE_LOOP('',(#1023,#1024,#1025,#1026));
#194=EDGE_LOOP('',(#1027,#1028,#1029,#1030));
#195=EDGE_LOOP('',(#1031,#1032,#1033,#1034));
#196=EDGE_LOOP('',(#1035,#1036,#1037,#1038));
#197=EDGE_LOOP('',(#1039,#1040,#1041,#1042));
#198=EDGE_LOOP('',(#1043,#1044,#1045,#1046));
#199=EDGE_LOOP('',(#1047,#1048,#1049,#1050));
#200=EDGE_LOOP('',(#1051,#1052,#1053,#1054));
#201=EDGE_LOOP('',(#1055,#1056,#1057,#1058));
#202=EDGE_LOOP('',(#1059,#1060,#1061,#1062));
#203=EDGE_LOOP('',(#1063,#1064,#1065,#1066));
#204=EDGE_LOOP('',(#1067));
#205=EDGE_LOOP('',(#1068));
#206=EDGE_LOOP('',(#1069,#1070,#1071,#1072));
#207=EDGE_LOOP('',(#1073));
#208=EDGE_LOOP('',(#1074));
#209=EDGE_LOOP('',(#1075,#1076,#1077,#1078));
#210=EDGE_LOOP('',(#1079));
#211=EDGE_LOOP('',(#1080));
#212=EDGE_LOOP('',(#1081,#1082,#1083,#1084));
#213=EDGE_LOOP('',(#1085));
#214=EDGE_LOOP('',(#1086));
#215=EDGE_LOOP('',(#1087,#1088,#1089,#1090));
#216=EDGE_LOOP('',(#1091));
#217=EDGE_LOOP('',(#1092));
#218=EDGE_LOOP('',(#1093,#1094,#1095,#1096));
#219=EDGE_LOOP('',(#1097));
#220=EDGE_LOOP('',(#1098));
#221=EDGE_LOOP('',(#1099,#1100,#1101,#1102,#1103,#1104));
#222=EDGE_LOOP('',(#1105));
#223=EDGE_LOOP('',(#1106));
#224=EDGE_LOOP('',(#1107));
#225=EDGE_LOOP('',(#1108));
#226=EDGE_LOOP('',(#1109));
#227=EDGE_LOOP('',(#1110));
#228=EDGE_LOOP('',(#1111,#1112,#1113,#1114));
#229=EDGE_LOOP('',(#1115));
#230=EDGE_LOOP('',(#1116));
#231=EDGE_LOOP('',(#1117));
#232=EDGE_LOOP('',(#1118));
#233=EDGE_LOOP('',(#1119));
#234=EDGE_LOOP('',(#1120));
#235=EDGE_LOOP('',(#1121,#1122,#1123,#1124));
#236=EDGE_LOOP('',(#1125,#1126,#1127,#1128,#1129,#1130));
#237=EDGE_LOOP('',(#1131,#1132,#1133,#1134));
#238=EDGE_LOOP('',(#1135,#1136,#1137,#1138,#1139,#1140));
#239=EDGE_LOOP('',(#1141,#1142,#1143,#1144));
#240=EDGE_LOOP('',(#1145,#1146,#1147,#1148,#1149,#1150));
#241=EDGE_LOOP('',(#1151,#1152,#1153,#1154));
#242=EDGE_LOOP('',(#1155,#1156,#1157,#1158,#1159,#1160));
#243=EDGE_LOOP('',(#1161,#1162,#1163,#1164));
#244=EDGE_LOOP('',(#1165,#1166,#1167,#1168,#1169,#1170));
#245=EDGE_LOOP('',(#1171,#1172,#1173,#1174));
#246=EDGE_LOOP('',(#1175,#1176,#1177,#1178,#1179,#1180));
#247=EDGE_LOOP('',(#1181,#1182,#1183,#1184,#1185,#1186,#1187,#1188));
#248=EDGE_LOOP('',(#1189,#1190,#1191,#1192));
#249=EDGE_LOOP('',(#1193,#1194,#1195,#1196));
#250=EDGE_LOOP('',(#1197,#1198,#1199,#1200));
#251=EDGE_LOOP('',(#1201,#1202,#1203,#1204));
#252=EDGE_LOOP('',(#1205,#1206,#1207,#1208));
#253=EDGE_LOOP('',(#1209,#1210,#1211,#1212));
#254=EDGE_LOOP('',(#1213,#1214,#1215,#1216,#1217,#1218));
#255=EDGE_LOOP('',(#1219,#1220,#1221,#1222));
#256=EDGE_LOOP('',(#1223,#1224,#1225,#1226,#1227,#1228));
#257=EDGE_LOOP('',(#1229,#1230,#1231,#1232,#1233,#1234));
#258=EDGE_LOOP('',(#1235,#1236,#1237,#1238));
#259=EDGE_LOOP('',(#1239,#1240,#1241,#1242,#1243,#1244));
#260=EDGE_LOOP('',(#1245,#1246,#1247,#1248));
#261=EDGE_LOOP('',(#1249,#1250,#1251,#1252));
#262=EDGE_LOOP('',(#1253,#1254,#1255,#1256,#1257,#1258));
#263=EDGE_LOOP('',(#1259,#1260,#1261,#1262,#1263,#1264));
#264=EDGE_LOOP('',(#1265,#1266,#1267,#1268));
#265=LINE('',#1815,#419);
#266=LINE('',#1818,#420);
#267=LINE('',#1821,#421);
#268=LINE('',#1823,#422);
#269=LINE('',#1825,#423);
#270=LINE('',#1827,#424);
#271=LINE('',#1829,#425);
#272=LINE('',#1830,#426);
#273=LINE('',#1833,#427);
#274=LINE('',#1835,#428);
#275=LINE('',#1837,#429);
#276=LINE('',#1839,#430);
#277=LINE('',#1841,#431);
#278=LINE('',#1842,#432);
#279=LINE('',#1848,#433);
#280=LINE('',#1851,#434);
#281=LINE('',#1853,#435);
#282=LINE('',#1854,#436);
#283=LINE('',#1857,#437);
#284=LINE('',#1859,#438);
#285=LINE('',#1860,#439);
#286=LINE('',#1862,#440);
#287=LINE('',#1865,#441);
#288=LINE('',#1866,#442);
#289=LINE('',#1869,#443);
#290=LINE('',#1871,#444);
#291=LINE('',#1873,#445);
#292=LINE('',#1875,#446);
#293=LINE('',#1877,#447);
#294=LINE('',#1878,#448);
#295=LINE('',#1882,#449);
#296=LINE('',#1884,#450);
#297=LINE('',#1886,#451);
#298=LINE('',#1887,#452);
#299=LINE('',#1891,#453);
#300=LINE('',#1893,#454);
#301=LINE('',#1895,#455);
#302=LINE('',#1896,#456);
#303=LINE('',#1900,#457);
#304=LINE('',#1902,#458);
#305=LINE('',#1904,#459);
#306=LINE('',#1905,#460);
#307=LINE('',#1909,#461);
#308=LINE('',#1911,#462);
#309=LINE('',#1913,#463);
#310=LINE('',#1914,#464);
#311=LINE('',#1918,#465);
#312=LINE('',#1920,#466);
#313=LINE('',#1922,#467);
#314=LINE('',#1923,#468);
#315=LINE('',#1925,#469);
#316=LINE('',#1926,#470);
#317=LINE('',#1930,#471);
#318=LINE('',#1932,#472);
#319=LINE('',#1934,#473);
#320=LINE('',#1935,#474);
#321=LINE('',#1939,#475);
#322=LINE('',#1941,#476);
#323=LINE('',#1943,#477);
#324=LINE('',#1944,#478);
#325=LINE('',#1948,#479);
#326=LINE('',#1950,#480);
#327=LINE('',#1952,#481);
#328=LINE('',#1953,#482);
#329=LINE('',#1957,#483);
#330=LINE('',#1959,#484);
#331=LINE('',#1961,#485);
#332=LINE('',#1962,#486);
#333=LINE('',#1966,#487);
#334=LINE('',#1968,#488);
#335=LINE('',#1970,#489);
#336=LINE('',#1971,#490);
#337=LINE('',#1975,#491);
#338=LINE('',#1977,#492);
#339=LINE('',#1979,#493);
#340=LINE('',#1980,#494);
#341=LINE('',#1984,#495);
#342=LINE('',#1986,#496);
#343=LINE('',#1988,#497);
#344=LINE('',#1989,#498);
#345=LINE('',#1992,#499);
#346=LINE('',#1994,#500);
#347=LINE('',#1995,#501);
#348=LINE('',#1997,#502);
#349=LINE('',#1998,#503);
#350=LINE('',#1999,#504);
#351=LINE('',#2000,#505);
#352=LINE('',#2001,#506);
#353=LINE('',#2002,#507);
#354=LINE('',#2003,#508);
#355=LINE('',#2004,#509);
#356=LINE('',#2005,#510);
#357=LINE('',#2006,#511);
#358=LINE('',#2007,#512);
#359=LINE('',#2008,#513);
#360=LINE('',#2009,#514);
#361=LINE('',#2014,#515);
#362=LINE('',#2020,#516);
#363=LINE('',#2026,#517);
#364=LINE('',#2032,#518);
#365=LINE('',#2038,#519);
#366=LINE('',#2044,#520);
#367=LINE('',#2050,#521);
#368=LINE('',#2057,#522);
#369=LINE('',#2064,#523);
#370=LINE('',#2071,#524);
#371=LINE('',#2078,#525);
#372=LINE('',#2085,#526);
#373=LINE('',#2090,#527);
#374=LINE('',#2093,#528);
#375=LINE('',#2095,#529);
#376=LINE('',#2096,#530);
#377=LINE('',#2099,#531);
#378=LINE('',#2100,#532);
#379=LINE('',#2103,#533);
#380=LINE('',#2105,#534);
#381=LINE('',#2106,#535);
#382=LINE('',#2109,#536);
#383=LINE('',#2110,#537);
#384=LINE('',#2113,#538);
#385=LINE('',#2115,#539);
#386=LINE('',#2116,#540);
#387=LINE('',#2119,#541);
#388=LINE('',#2120,#542);
#389=LINE('',#2123,#543);
#390=LINE('',#2125,#544);
#391=LINE('',#2126,#545);
#392=LINE('',#2128,#546);
#393=LINE('',#2131,#547);
#394=LINE('',#2133,#548);
#395=LINE('',#2134,#549);
#396=LINE('',#2137,#550);
#397=LINE('',#2138,#551);
#398=LINE('',#2141,#552);
#399=LINE('',#2143,#553);
#400=LINE('',#2144,#554);
#401=LINE('',#2147,#555);
#402=LINE('',#2148,#556);
#403=LINE('',#2151,#557);
#404=LINE('',#2152,#558);
#405=LINE('',#2153,#559);
#406=LINE('',#2155,#560);
#407=LINE('',#2156,#561);
#408=LINE('',#2158,#562);
#409=LINE('',#2159,#563);
#410=LINE('',#2161,#564);
#411=LINE('',#2162,#565);
#412=LINE('',#2164,#566);
#413=LINE('',#2165,#567);
#414=LINE('',#2168,#568);
#415=LINE('',#2171,#569);
#416=LINE('',#2174,#570);
#417=LINE('',#2177,#571);
#418=LINE('',#2180,#572);
#419=VECTOR('',#1467,10.);
#420=VECTOR('',#1470,10.);
#421=VECTOR('',#1473,10.);
#422=VECTOR('',#1474,10.);
#423=VECTOR('',#1475,10.);
#424=VECTOR('',#1476,10.);
#425=VECTOR('',#1477,10.);
#426=VECTOR('',#1478,10.);
#427=VECTOR('',#1481,10.);
#428=VECTOR('',#1482,10.);
#429=VECTOR('',#1483,10.);
#430=VECTOR('',#1484,10.);
#431=VECTOR('',#1485,10.);
#432=VECTOR('',#1486,10.);
#433=VECTOR('',#1493,10.);
#434=VECTOR('',#1496,10.);
#435=VECTOR('',#1497,10.);
#436=VECTOR('',#1498,10.);
#437=VECTOR('',#1501,10.);
#438=VECTOR('',#1502,10.);
#439=VECTOR('',#1503,10.);
#440=VECTOR('',#1506,10.);
#441=VECTOR('',#1509,10.);
#442=VECTOR('',#1510,10.);
#443=VECTOR('',#1513,10.);
#444=VECTOR('',#1514,10.);
#445=VECTOR('',#1515,10.);
#446=VECTOR('',#1516,10.);
#447=VECTOR('',#1517,10.);
#448=VECTOR('',#1518,10.);
#449=VECTOR('',#1521,10.);
#450=VECTOR('',#1522,10.);
#451=VECTOR('',#1523,10.);
#452=VECTOR('',#1524,10.);
#453=VECTOR('',#1527,10.);
#454=VECTOR('',#1528,10.);
#455=VECTOR('',#1529,10.);
#456=VECTOR('',#1530,10.);
#457=VECTOR('',#1533,10.);
#458=VECTOR('',#1534,10.);
#459=VECTOR('',#1535,10.);
#460=VECTOR('',#1536,10.);
#461=VECTOR('',#1539,10.);
#462=VECTOR('',#1540,10.);
#463=VECTOR('',#1541,10.);
#464=VECTOR('',#1542,10.);
#465=VECTOR('',#1545,10.);
#466=VECTOR('',#1546,10.);
#467=VECTOR('',#1547,10.);
#468=VECTOR('',#1548,10.);
#469=VECTOR('',#1551,10.);
#470=VECTOR('',#1552,10.);
#471=VECTOR('',#1555,10.);
#472=VECTOR('',#1556,10.);
#473=VECTOR('',#1557,10.);
#474=VECTOR('',#1558,10.);
#475=VECTOR('',#1561,10.);
#476=VECTOR('',#1562,10.);
#477=VECTOR('',#1563,10.);
#478=VECTOR('',#1564,10.);
#479=VECTOR('',#1567,10.);
#480=VECTOR('',#1568,10.);
#481=VECTOR('',#1569,10.);
#482=VECTOR('',#1570,10.);
#483=VECTOR('',#1573,10.);
#484=VECTOR('',#1574,10.);
#485=VECTOR('',#1575,10.);
#486=VECTOR('',#1576,10.);
#487=VECTOR('',#1579,10.);
#488=VECTOR('',#1580,10.);
#489=VECTOR('',#1581,10.);
#490=VECTOR('',#1582,10.);
#491=VECTOR('',#1585,10.);
#492=VECTOR('',#1586,10.);
#493=VECTOR('',#1587,10.);
#494=VECTOR('',#1588,10.);
#495=VECTOR('',#1591,10.);
#496=VECTOR('',#1592,10.);
#497=VECTOR('',#1593,10.);
#498=VECTOR('',#1594,10.);
#499=VECTOR('',#1597,10.);
#500=VECTOR('',#1598,10.);
#501=VECTOR('',#1599,10.);
#502=VECTOR('',#1602,10.);
#503=VECTOR('',#1603,10.);
#504=VECTOR('',#1604,10.);
#505=VECTOR('',#1605,10.);
#506=VECTOR('',#1606,10.);
#507=VECTOR('',#1607,10.);
#508=VECTOR('',#1608,10.);
#509=VECTOR('',#1609,10.);
#510=VECTOR('',#1610,10.);
#511=VECTOR('',#1611,10.);
#512=VECTOR('',#1612,10.);
#513=VECTOR('',#1613,10.);
#514=VECTOR('',#1614,10.);
#515=VECTOR('',#1619,0.749999999999997);
#516=VECTOR('',#1626,0.749999999999993);
#517=VECTOR('',#1633,0.75);
#518=VECTOR('',#1640,0.750000000000002);
#519=VECTOR('',#1647,0.749999999999993);
#520=VECTOR('',#1654,0.749999999999997);
#521=VECTOR('',#1661,2.15);
#522=VECTOR('',#1670,2.15);
#523=VECTOR('',#1679,2.15);
#524=VECTOR('',#1688,2.15);
#525=VECTOR('',#1697,2.15);
#526=VECTOR('',#1706,2.15);
#527=VECTOR('',#1715,10.);
#528=VECTOR('',#1718,10.);
#529=VECTOR('',#1719,10.);
#530=VECTOR('',#1720,10.);
#531=VECTOR('',#1723,10.);
#532=VECTOR('',#1724,10.);
#533=VECTOR('',#1727,10.);
#534=VECTOR('',#1728,10.);
#535=VECTOR('',#1729,10.);
#536=VECTOR('',#1732,10.);
#537=VECTOR('',#1733,10.);
#538=VECTOR('',#1736,10.);
#539=VECTOR('',#1737,10.);
#540=VECTOR('',#1738,10.);
#541=VECTOR('',#1741,10.);
#542=VECTOR('',#1742,10.);
#543=VECTOR('',#1745,10.);
#544=VECTOR('',#1746,10.);
#545=VECTOR('',#1747,10.);
#546=VECTOR('',#1750,10.);
#547=VECTOR('',#1753,10.);
#548=VECTOR('',#1754,10.);
#549=VECTOR('',#1755,10.);
#550=VECTOR('',#1758,10.);
#551=VECTOR('',#1759,10.);
#552=VECTOR('',#1762,10.);
#553=VECTOR('',#1763,10.);
#554=VECTOR('',#1764,10.);
#555=VECTOR('',#1767,10.);
#556=VECTOR('',#1768,10.);
#557=VECTOR('',#1771,10.);
#558=VECTOR('',#1772,10.);
#559=VECTOR('',#1773,10.);
#560=VECTOR('',#1774,10.);
#561=VECTOR('',#1775,10.);
#562=VECTOR('',#1776,10.);
#563=VECTOR('',#1777,10.);
#564=VECTOR('',#1778,10.);
#565=VECTOR('',#1779,10.);
#566=VECTOR('',#1780,10.);
#567=VECTOR('',#1781,10.);
#568=VECTOR('',#1786,10.);
#569=VECTOR('',#1791,10.);
#570=VECTOR('',#1796,10.);
#571=VECTOR('',#1801,10.);
#572=VECTOR('',#1806,10.);
#573=CIRCLE('',#1366,6.);
#574=CIRCLE('',#1367,6.);
#575=CIRCLE('',#1371,6.);
#576=CIRCLE('',#1372,6.);
#577=CIRCLE('',#1394,0.749999999999997);
#578=CIRCLE('',#1395,0.749999999999997);
#579=CIRCLE('',#1397,0.749999999999993);
#580=CIRCLE('',#1398,0.749999999999993);
#581=CIRCLE('',#1400,0.75);
#582=CIRCLE('',#1401,0.75);
#583=CIRCLE('',#1403,0.750000000000002);
#584=CIRCLE('',#1404,0.750000000000002);
#585=CIRCLE('',#1406,0.749999999999993);
#586=CIRCLE('',#1407,0.749999999999993);
#587=CIRCLE('',#1409,0.749999999999997);
#588=CIRCLE('',#1410,0.749999999999997);
#589=CIRCLE('',#1412,2.15);
#590=CIRCLE('',#1413,2.15);
#591=CIRCLE('',#1416,2.15);
#592=CIRCLE('',#1417,2.15);
#593=CIRCLE('',#1420,2.15);
#594=CIRCLE('',#1421,2.15);
#595=CIRCLE('',#1424,2.15);
#596=CIRCLE('',#1425,2.15);
#597=CIRCLE('',#1428,2.15);
#598=CIRCLE('',#1429,2.15);
#599=CIRCLE('',#1432,2.15);
#600=CIRCLE('',#1433,2.15);
#601=VERTEX_POINT('',#1811);
#602=VERTEX_POINT('',#1812);
#603=VERTEX_POINT('',#1814);
#604=VERTEX_POINT('',#1816);
#605=VERTEX_POINT('',#1820);
#606=VERTEX_POINT('',#1822);
#607=VERTEX_POINT('',#1824);
#608=VERTEX_POINT('',#1826);
#609=VERTEX_POINT('',#1828);
#610=VERTEX_POINT('',#1832);
#611=VERTEX_POINT('',#1834);
#612=VERTEX_POINT('',#1836);
#613=VERTEX_POINT('',#1838);
#614=VERTEX_POINT('',#1840);
#615=VERTEX_POINT('',#1844);
#616=VERTEX_POINT('',#1846);
#617=VERTEX_POINT('',#1850);
#618=VERTEX_POINT('',#1852);
#619=VERTEX_POINT('',#1856);
#620=VERTEX_POINT('',#1858);
#621=VERTEX_POINT('',#1864);
#622=VERTEX_POINT('',#1868);
#623=VERTEX_POINT('',#1870);
#624=VERTEX_POINT('',#1872);
#625=VERTEX_POINT('',#1874);
#626=VERTEX_POINT('',#1876);
#627=VERTEX_POINT('',#1880);
#628=VERTEX_POINT('',#1881);
#629=VERTEX_POINT('',#1883);
#630=VERTEX_POINT('',#1885);
#631=VERTEX_POINT('',#1889);
#632=VERTEX_POINT('',#1890);
#633=VERTEX_POINT('',#1892);
#634=VERTEX_POINT('',#1894);
#635=VERTEX_POINT('',#1898);
#636=VERTEX_POINT('',#1899);
#637=VERTEX_POINT('',#1901);
#638=VERTEX_POINT('',#1903);
#639=VERTEX_POINT('',#1907);
#640=VERTEX_POINT('',#1908);
#641=VERTEX_POINT('',#1910);
#642=VERTEX_POINT('',#1912);
#643=VERTEX_POINT('',#1916);
#644=VERTEX_POINT('',#1917);
#645=VERTEX_POINT('',#1919);
#646=VERTEX_POINT('',#1921);
#647=VERTEX_POINT('',#1928);
#648=VERTEX_POINT('',#1929);
#649=VERTEX_POINT('',#1931);
#650=VERTEX_POINT('',#1933);
#651=VERTEX_POINT('',#1937);
#652=VERTEX_POINT('',#1938);
#653=VERTEX_POINT('',#1940);
#654=VERTEX_POINT('',#1942);
#655=VERTEX_POINT('',#1946);
#656=VERTEX_POINT('',#1947);
#657=VERTEX_POINT('',#1949);
#658=VERTEX_POINT('',#1951);
#659=VERTEX_POINT('',#1955);
#660=VERTEX_POINT('',#1956);
#661=VERTEX_POINT('',#1958);
#662=VERTEX_POINT('',#1960);
#663=VERTEX_POINT('',#1964);
#664=VERTEX_POINT('',#1965);
#665=VERTEX_POINT('',#1967);
#666=VERTEX_POINT('',#1969);
#667=VERTEX_POINT('',#1973);
#668=VERTEX_POINT('',#1974);
#669=VERTEX_POINT('',#1976);
#670=VERTEX_POINT('',#1978);
#671=VERTEX_POINT('',#1982);
#672=VERTEX_POINT('',#1983);
#673=VERTEX_POINT('',#1985);
#674=VERTEX_POINT('',#1987);
#675=VERTEX_POINT('',#1991);
#676=VERTEX_POINT('',#1993);
#677=VERTEX_POINT('',#2011);
#678=VERTEX_POINT('',#2013);
#679=VERTEX_POINT('',#2017);
#680=VERTEX_POINT('',#2019);
#681=VERTEX_POINT('',#2023);
#682=VERTEX_POINT('',#2025);
#683=VERTEX_POINT('',#2029);
#684=VERTEX_POINT('',#2031);
#685=VERTEX_POINT('',#2035);
#686=VERTEX_POINT('',#2037);
#687=VERTEX_POINT('',#2041);
#688=VERTEX_POINT('',#2043);
#689=VERTEX_POINT('',#2047);
#690=VERTEX_POINT('',#2049);
#691=VERTEX_POINT('',#2054);
#692=VERTEX_POINT('',#2056);
#693=VERTEX_POINT('',#2061);
#694=VERTEX_POINT('',#2063);
#695=VERTEX_POINT('',#2068);
#696=VERTEX_POINT('',#2070);
#697=VERTEX_POINT('',#2075);
#698=VERTEX_POINT('',#2077);
#699=VERTEX_POINT('',#2082);
#700=VERTEX_POINT('',#2084);
#701=VERTEX_POINT('',#2092);
#702=VERTEX_POINT('',#2094);
#703=VERTEX_POINT('',#2098);
#704=VERTEX_POINT('',#2102);
#705=VERTEX_POINT('',#2104);
#706=VERTEX_POINT('',#2108);
#707=VERTEX_POINT('',#2112);
#708=VERTEX_POINT('',#2114);
#709=VERTEX_POINT('',#2118);
#710=VERTEX_POINT('',#2122);
#711=VERTEX_POINT('',#2124);
#712=VERTEX_POINT('',#2130);
#713=VERTEX_POINT('',#2132);
#714=VERTEX_POINT('',#2136);
#715=VERTEX_POINT('',#2140);
#716=VERTEX_POINT('',#2142);
#717=VERTEX_POINT('',#2146);
#718=VERTEX_POINT('',#2150);
#719=VERTEX_POINT('',#2154);
#720=VERTEX_POINT('',#2157);
#721=VERTEX_POINT('',#2160);
#722=VERTEX_POINT('',#2163);
#723=EDGE_CURVE('',#601,#602,#573,.T.);
#724=EDGE_CURVE('',#602,#603,#265,.T.);
#725=EDGE_CURVE('',#603,#604,#574,.T.);
#726=EDGE_CURVE('',#604,#601,#266,.T.);
#727=EDGE_CURVE('',#605,#601,#267,.T.);
#728=EDGE_CURVE('',#605,#606,#268,.T.);
#729=EDGE_CURVE('',#607,#606,#269,.T.);
#730=EDGE_CURVE('',#607,#608,#270,.T.);
#731=EDGE_CURVE('',#609,#608,#271,.T.);
#732=EDGE_CURVE('',#609,#602,#272,.T.);
#733=EDGE_CURVE('',#604,#610,#273,.T.);
#734=EDGE_CURVE('',#610,#611,#274,.T.);
#735=EDGE_CURVE('',#611,#612,#275,.T.);
#736=EDGE_CURVE('',#613,#612,#276,.T.);
#737=EDGE_CURVE('',#614,#613,#277,.T.);
#738=EDGE_CURVE('',#605,#614,#278,.T.);
#739=EDGE_CURVE('',#615,#613,#575,.T.);
#740=EDGE_CURVE('',#612,#616,#576,.T.);
#741=EDGE_CURVE('',#616,#615,#279,.T.);
#742=EDGE_CURVE('',#617,#611,#280,.T.);
#743=EDGE_CURVE('',#618,#617,#281,.T.);
#744=EDGE_CURVE('',#616,#618,#282,.T.);
#745=EDGE_CURVE('',#619,#603,#283,.T.);
#746=EDGE_CURVE('',#620,#619,#284,.T.);
#747=EDGE_CURVE('',#610,#620,#285,.T.);
#748=EDGE_CURVE('',#619,#609,#286,.T.);
#749=EDGE_CURVE('',#618,#621,#287,.T.);
#750=EDGE_CURVE('',#615,#621,#288,.T.);
#751=EDGE_CURVE('',#621,#622,#289,.T.);
#752=EDGE_CURVE('',#622,#623,#290,.T.);
#753=EDGE_CURVE('',#623,#624,#291,.T.);
#754=EDGE_CURVE('',#624,#625,#292,.T.);
#755=EDGE_CURVE('',#625,#626,#293,.T.);
#756=EDGE_CURVE('',#626,#614,#294,.T.);
#757=EDGE_CURVE('',#627,#628,#295,.T.);
#758=EDGE_CURVE('',#629,#627,#296,.T.);
#759=EDGE_CURVE('',#629,#630,#297,.T.);
#760=EDGE_CURVE('',#630,#628,#298,.T.);
#761=EDGE_CURVE('',#631,#632,#299,.T.);
#762=EDGE_CURVE('',#632,#633,#300,.T.);
#763=EDGE_CURVE('',#634,#633,#301,.T.);
#764=EDGE_CURVE('',#631,#634,#302,.T.);
#765=EDGE_CURVE('',#635,#636,#303,.T.);
#766=EDGE_CURVE('',#637,#636,#304,.T.);
#767=EDGE_CURVE('',#637,#638,#305,.T.);
#768=EDGE_CURVE('',#638,#635,#306,.T.);
#769=EDGE_CURVE('',#639,#640,#307,.T.);
#770=EDGE_CURVE('',#640,#641,#308,.T.);
#771=EDGE_CURVE('',#641,#642,#309,.T.);
#772=EDGE_CURVE('',#639,#642,#310,.T.);
#773=EDGE_CURVE('',#643,#644,#311,.T.);
#774=EDGE_CURVE('',#644,#645,#312,.T.);
#775=EDGE_CURVE('',#645,#646,#313,.T.);
#776=EDGE_CURVE('',#643,#646,#314,.T.);
#777=EDGE_CURVE('',#606,#624,#315,.T.);
#778=EDGE_CURVE('',#607,#623,#316,.T.);
#779=EDGE_CURVE('',#647,#648,#317,.T.);
#780=EDGE_CURVE('',#648,#649,#318,.T.);
#781=EDGE_CURVE('',#649,#650,#319,.T.);
#782=EDGE_CURVE('',#647,#650,#320,.T.);
#783=EDGE_CURVE('',#651,#652,#321,.T.);
#784=EDGE_CURVE('',#653,#651,#322,.T.);
#785=EDGE_CURVE('',#654,#653,#323,.T.);
#786=EDGE_CURVE('',#652,#654,#324,.T.);
#787=EDGE_CURVE('',#655,#656,#325,.T.);
#788=EDGE_CURVE('',#657,#655,#326,.T.);
#789=EDGE_CURVE('',#658,#657,#327,.T.);
#790=EDGE_CURVE('',#656,#658,#328,.T.);
#791=EDGE_CURVE('',#659,#660,#329,.T.);
#792=EDGE_CURVE('',#661,#659,#330,.T.);
#793=EDGE_CURVE('',#662,#661,#331,.T.);
#794=EDGE_CURVE('',#660,#662,#332,.T.);
#795=EDGE_CURVE('',#663,#664,#333,.T.);
#796=EDGE_CURVE('',#665,#663,#334,.T.);
#797=EDGE_CURVE('',#666,#665,#335,.T.);
#798=EDGE_CURVE('',#664,#666,#336,.T.);
#799=EDGE_CURVE('',#667,#668,#337,.T.);
#800=EDGE_CURVE('',#669,#667,#338,.T.);
#801=EDGE_CURVE('',#670,#669,#339,.T.);
#802=EDGE_CURVE('',#668,#670,#340,.T.);
#803=EDGE_CURVE('',#671,#672,#341,.T.);
#804=EDGE_CURVE('',#673,#671,#342,.T.);
#805=EDGE_CURVE('',#674,#673,#343,.T.);
#806=EDGE_CURVE('',#672,#674,#344,.T.);
#807=EDGE_CURVE('',#656,#675,#345,.T.);
#808=EDGE_CURVE('',#676,#675,#346,.T.);
#809=EDGE_CURVE('',#655,#676,#347,.T.);
#810=EDGE_CURVE('',#608,#622,#348,.T.);
#811=EDGE_CURVE('',#648,#668,#349,.T.);
#812=EDGE_CURVE('',#670,#649,#350,.T.);
#813=EDGE_CURVE('',#644,#664,#351,.T.);
#814=EDGE_CURVE('',#666,#645,#352,.T.);
#815=EDGE_CURVE('',#638,#658,#353,.T.);
#816=EDGE_CURVE('',#657,#635,#354,.T.);
#817=EDGE_CURVE('',#640,#652,#355,.T.);
#818=EDGE_CURVE('',#654,#641,#356,.T.);
#819=EDGE_CURVE('',#632,#660,#357,.T.);
#820=EDGE_CURVE('',#662,#633,#358,.T.);
#821=EDGE_CURVE('',#630,#672,#359,.T.);
#822=EDGE_CURVE('',#674,#628,#360,.T.);
#823=EDGE_CURVE('',#677,#677,#577,.T.);
#824=EDGE_CURVE('',#677,#678,#361,.T.);
#825=EDGE_CURVE('',#678,#678,#578,.T.);
#826=EDGE_CURVE('',#679,#679,#579,.T.);
#827=EDGE_CURVE('',#679,#680,#362,.T.);
#828=EDGE_CURVE('',#680,#680,#580,.T.);
#829=EDGE_CURVE('',#681,#681,#581,.T.);
#830=EDGE_CURVE('',#681,#682,#363,.T.);
#831=EDGE_CURVE('',#682,#682,#582,.T.);
#832=EDGE_CURVE('',#683,#683,#583,.T.);
#833=EDGE_CURVE('',#683,#684,#364,.T.);
#834=EDGE_CURVE('',#684,#684,#584,.T.);
#835=EDGE_CURVE('',#685,#685,#585,.T.);
#836=EDGE_CURVE('',#685,#686,#365,.T.);
#837=EDGE_CURVE('',#686,#686,#586,.T.);
#838=EDGE_CURVE('',#687,#687,#587,.T.);
#839=EDGE_CURVE('',#687,#688,#366,.T.);
#840=EDGE_CURVE('',#688,#688,#588,.T.);
#841=EDGE_CURVE('',#689,#689,#589,.T.);
#842=EDGE_CURVE('',#689,#690,#367,.T.);
#843=EDGE_CURVE('',#690,#690,#590,.T.);
#844=EDGE_CURVE('',#691,#691,#591,.T.);
#845=EDGE_CURVE('',#691,#692,#368,.T.);
#846=EDGE_CURVE('',#692,#692,#592,.T.);
#847=EDGE_CURVE('',#693,#693,#593,.T.);
#848=EDGE_CURVE('',#693,#694,#369,.T.);
#849=EDGE_CURVE('',#694,#694,#594,.T.);
#850=EDGE_CURVE('',#695,#695,#595,.T.);
#851=EDGE_CURVE('',#695,#696,#370,.T.);
#852=EDGE_CURVE('',#696,#696,#596,.T.);
#853=EDGE_CURVE('',#697,#697,#597,.T.);
#854=EDGE_CURVE('',#697,#698,#371,.T.);
#855=EDGE_CURVE('',#698,#698,#598,.T.);
#856=EDGE_CURVE('',#699,#699,#599,.T.);
#857=EDGE_CURVE('',#699,#700,#372,.T.);
#858=EDGE_CURVE('',#700,#700,#600,.T.);
#859=EDGE_CURVE('',#617,#620,#373,.T.);
#860=EDGE_CURVE('',#701,#627,#374,.T.);
#861=EDGE_CURVE('',#701,#702,#375,.T.);
#862=EDGE_CURVE('',#629,#702,#376,.T.);
#863=EDGE_CURVE('',#703,#702,#377,.T.);
#864=EDGE_CURVE('',#671,#703,#378,.T.);
#865=EDGE_CURVE('',#704,#642,#379,.T.);
#866=EDGE_CURVE('',#704,#705,#380,.T.);
#867=EDGE_CURVE('',#639,#705,#381,.T.);
#868=EDGE_CURVE('',#706,#705,#382,.T.);
#869=EDGE_CURVE('',#651,#706,#383,.T.);
#870=EDGE_CURVE('',#707,#650,#384,.T.);
#871=EDGE_CURVE('',#707,#708,#385,.T.);
#872=EDGE_CURVE('',#647,#708,#386,.T.);
#873=EDGE_CURVE('',#709,#708,#387,.T.);
#874=EDGE_CURVE('',#667,#709,#388,.T.);
#875=EDGE_CURVE('',#710,#636,#389,.T.);
#876=EDGE_CURVE('',#710,#711,#390,.T.);
#877=EDGE_CURVE('',#637,#711,#391,.T.);
#878=EDGE_CURVE('',#675,#711,#392,.T.);
#879=EDGE_CURVE('',#712,#646,#393,.T.);
#880=EDGE_CURVE('',#712,#713,#394,.T.);
#881=EDGE_CURVE('',#643,#713,#395,.T.);
#882=EDGE_CURVE('',#714,#713,#396,.T.);
#883=EDGE_CURVE('',#663,#714,#397,.T.);
#884=EDGE_CURVE('',#715,#634,#398,.T.);
#885=EDGE_CURVE('',#715,#716,#399,.T.);
#886=EDGE_CURVE('',#631,#716,#400,.T.);
#887=EDGE_CURVE('',#717,#716,#401,.T.);
#888=EDGE_CURVE('',#659,#717,#402,.T.);
#889=EDGE_CURVE('',#701,#718,#403,.T.);
#890=EDGE_CURVE('',#718,#703,#404,.T.);
#891=EDGE_CURVE('',#710,#676,#405,.T.);
#892=EDGE_CURVE('',#719,#706,#406,.T.);
#893=EDGE_CURVE('',#704,#719,#407,.T.);
#894=EDGE_CURVE('',#715,#720,#408,.T.);
#895=EDGE_CURVE('',#720,#717,#409,.T.);
#896=EDGE_CURVE('',#721,#714,#410,.T.);
#897=EDGE_CURVE('',#712,#721,#411,.T.);
#898=EDGE_CURVE('',#722,#709,#412,.T.);
#899=EDGE_CURVE('',#707,#722,#413,.T.);
#900=EDGE_CURVE('',#673,#718,#414,.T.);
#901=EDGE_CURVE('',#669,#722,#415,.T.);
#902=EDGE_CURVE('',#665,#721,#416,.T.);
#903=EDGE_CURVE('',#661,#720,#417,.T.);
#904=EDGE_CURVE('',#653,#719,#418,.T.);
#905=ORIENTED_EDGE('',*,*,#723,.T.);
#906=ORIENTED_EDGE('',*,*,#724,.T.);
#907=ORIENTED_EDGE('',*,*,#725,.T.);
#908=ORIENTED_EDGE('',*,*,#726,.T.);
#909=ORIENTED_EDGE('',*,*,#723,.F.);
#910=ORIENTED_EDGE('',*,*,#727,.F.);
#911=ORIENTED_EDGE('',*,*,#728,.T.);
#912=ORIENTED_EDGE('',*,*,#729,.F.);
#913=ORIENTED_EDGE('',*,*,#730,.T.);
#914=ORIENTED_EDGE('',*,*,#731,.F.);
#915=ORIENTED_EDGE('',*,*,#732,.T.);
#916=ORIENTED_EDGE('',*,*,#726,.F.);
#917=ORIENTED_EDGE('',*,*,#733,.T.);
#918=ORIENTED_EDGE('',*,*,#734,.T.);
#919=ORIENTED_EDGE('',*,*,#735,.T.);
#920=ORIENTED_EDGE('',*,*,#736,.F.);
#921=ORIENTED_EDGE('',*,*,#737,.F.);
#922=ORIENTED_EDGE('',*,*,#738,.F.);
#923=ORIENTED_EDGE('',*,*,#727,.T.);
#924=ORIENTED_EDGE('',*,*,#739,.T.);
#925=ORIENTED_EDGE('',*,*,#736,.T.);
#926=ORIENTED_EDGE('',*,*,#740,.T.);
#927=ORIENTED_EDGE('',*,*,#741,.T.);
#928=ORIENTED_EDGE('',*,*,#740,.F.);
#929=ORIENTED_EDGE('',*,*,#735,.F.);
#930=ORIENTED_EDGE('',*,*,#742,.F.);
#931=ORIENTED_EDGE('',*,*,#743,.F.);
#932=ORIENTED_EDGE('',*,*,#744,.F.);
#933=ORIENTED_EDGE('',*,*,#725,.F.);
#934=ORIENTED_EDGE('',*,*,#745,.F.);
#935=ORIENTED_EDGE('',*,*,#746,.F.);
#936=ORIENTED_EDGE('',*,*,#747,.F.);
#937=ORIENTED_EDGE('',*,*,#733,.F.);
#938=ORIENTED_EDGE('',*,*,#724,.F.);
#939=ORIENTED_EDGE('',*,*,#732,.F.);
#940=ORIENTED_EDGE('',*,*,#748,.F.);
#941=ORIENTED_EDGE('',*,*,#745,.T.);
#942=ORIENTED_EDGE('',*,*,#741,.F.);
#943=ORIENTED_EDGE('',*,*,#744,.T.);
#944=ORIENTED_EDGE('',*,*,#749,.T.);
#945=ORIENTED_EDGE('',*,*,#750,.F.);
#946=ORIENTED_EDGE('',*,*,#739,.F.);
#947=ORIENTED_EDGE('',*,*,#750,.T.);
#948=ORIENTED_EDGE('',*,*,#751,.T.);
#949=ORIENTED_EDGE('',*,*,#752,.T.);
#950=ORIENTED_EDGE('',*,*,#753,.T.);
#951=ORIENTED_EDGE('',*,*,#754,.T.);
#952=ORIENTED_EDGE('',*,*,#755,.T.);
#953=ORIENTED_EDGE('',*,*,#756,.T.);
#954=ORIENTED_EDGE('',*,*,#737,.T.);
#955=ORIENTED_EDGE('',*,*,#757,.F.);
#956=ORIENTED_EDGE('',*,*,#758,.F.);
#957=ORIENTED_EDGE('',*,*,#759,.T.);
#958=ORIENTED_EDGE('',*,*,#760,.T.);
#959=ORIENTED_EDGE('',*,*,#761,.T.);
#960=ORIENTED_EDGE('',*,*,#762,.T.);
#961=ORIENTED_EDGE('',*,*,#763,.F.);
#962=ORIENTED_EDGE('',*,*,#764,.F.);
#963=ORIENTED_EDGE('',*,*,#765,.T.);
#964=ORIENTED_EDGE('',*,*,#766,.F.);
#965=ORIENTED_EDGE('',*,*,#767,.T.);
#966=ORIENTED_EDGE('',*,*,#768,.T.);
#967=ORIENTED_EDGE('',*,*,#769,.T.);
#968=ORIENTED_EDGE('',*,*,#770,.T.);
#969=ORIENTED_EDGE('',*,*,#771,.T.);
#970=ORIENTED_EDGE('',*,*,#772,.F.);
#971=ORIENTED_EDGE('',*,*,#773,.T.);
#972=ORIENTED_EDGE('',*,*,#774,.T.);
#973=ORIENTED_EDGE('',*,*,#775,.T.);
#974=ORIENTED_EDGE('',*,*,#776,.F.);
#975=ORIENTED_EDGE('',*,*,#777,.T.);
#976=ORIENTED_EDGE('',*,*,#753,.F.);
#977=ORIENTED_EDGE('',*,*,#778,.F.);
#978=ORIENTED_EDGE('',*,*,#729,.T.);
#979=ORIENTED_EDGE('',*,*,#779,.T.);
#980=ORIENTED_EDGE('',*,*,#780,.T.);
#981=ORIENTED_EDGE('',*,*,#781,.T.);
#982=ORIENTED_EDGE('',*,*,#782,.F.);
#983=ORIENTED_EDGE('',*,*,#783,.F.);
#984=ORIENTED_EDGE('',*,*,#784,.F.);
#985=ORIENTED_EDGE('',*,*,#785,.F.);
#986=ORIENTED_EDGE('',*,*,#786,.F.);
#987=ORIENTED_EDGE('',*,*,#787,.F.);
#988=ORIENTED_EDGE('',*,*,#788,.F.);
#989=ORIENTED_EDGE('',*,*,#789,.F.);
#990=ORIENTED_EDGE('',*,*,#790,.F.);
#991=ORIENTED_EDGE('',*,*,#791,.F.);
#992=ORIENTED_EDGE('',*,*,#792,.F.);
#993=ORIENTED_EDGE('',*,*,#793,.F.);
#994=ORIENTED_EDGE('',*,*,#794,.F.);
#995=ORIENTED_EDGE('',*,*,#795,.F.);
#996=ORIENTED_EDGE('',*,*,#796,.F.);
#997=ORIENTED_EDGE('',*,*,#797,.F.);
#998=ORIENTED_EDGE('',*,*,#798,.F.);
#999=ORIENTED_EDGE('',*,*,#799,.F.);
#1000=ORIENTED_EDGE('',*,*,#800,.F.);
#1001=ORIENTED_EDGE('',*,*,#801,.F.);
#1002=ORIENTED_EDGE('',*,*,#802,.F.);
#1003=ORIENTED_EDGE('',*,*,#803,.F.);
#1004=ORIENTED_EDGE('',*,*,#804,.F.);
#1005=ORIENTED_EDGE('',*,*,#805,.F.);
#1006=ORIENTED_EDGE('',*,*,#806,.F.);
#1007=ORIENTED_EDGE('',*,*,#787,.T.);
#1008=ORIENTED_EDGE('',*,*,#807,.T.);
#1009=ORIENTED_EDGE('',*,*,#808,.F.);
#1010=ORIENTED_EDGE('',*,*,#809,.F.);
#1011=ORIENTED_EDGE('',*,*,#730,.F.);
#1012=ORIENTED_EDGE('',*,*,#778,.T.);
#1013=ORIENTED_EDGE('',*,*,#752,.F.);
#1014=ORIENTED_EDGE('',*,*,#810,.F.);
#1015=ORIENTED_EDGE('',*,*,#811,.T.);
#1016=ORIENTED_EDGE('',*,*,#802,.T.);
#1017=ORIENTED_EDGE('',*,*,#812,.T.);
#1018=ORIENTED_EDGE('',*,*,#780,.F.);
#1019=ORIENTED_EDGE('',*,*,#813,.T.);
#1020=ORIENTED_EDGE('',*,*,#798,.T.);
#1021=ORIENTED_EDGE('',*,*,#814,.T.);
#1022=ORIENTED_EDGE('',*,*,#774,.F.);
#1023=ORIENTED_EDGE('',*,*,#768,.F.);
#1024=ORIENTED_EDGE('',*,*,#815,.T.);
#1025=ORIENTED_EDGE('',*,*,#789,.T.);
#1026=ORIENTED_EDGE('',*,*,#816,.T.);
#1027=ORIENTED_EDGE('',*,*,#817,.T.);
#1028=ORIENTED_EDGE('',*,*,#786,.T.);
#1029=ORIENTED_EDGE('',*,*,#818,.T.);
#1030=ORIENTED_EDGE('',*,*,#770,.F.);
#1031=ORIENTED_EDGE('',*,*,#819,.T.);
#1032=ORIENTED_EDGE('',*,*,#794,.T.);
#1033=ORIENTED_EDGE('',*,*,#820,.T.);
#1034=ORIENTED_EDGE('',*,*,#762,.F.);
#1035=ORIENTED_EDGE('',*,*,#760,.F.);
#1036=ORIENTED_EDGE('',*,*,#821,.T.);
#1037=ORIENTED_EDGE('',*,*,#806,.T.);
#1038=ORIENTED_EDGE('',*,*,#822,.T.);
#1039=ORIENTED_EDGE('',*,*,#823,.F.);
#1040=ORIENTED_EDGE('',*,*,#824,.T.);
#1041=ORIENTED_EDGE('',*,*,#825,.F.);
#1042=ORIENTED_EDGE('',*,*,#824,.F.);
#1043=ORIENTED_EDGE('',*,*,#826,.F.);
#1044=ORIENTED_EDGE('',*,*,#827,.T.);
#1045=ORIENTED_EDGE('',*,*,#828,.F.);
#1046=ORIENTED_EDGE('',*,*,#827,.F.);
#1047=ORIENTED_EDGE('',*,*,#829,.F.);
#1048=ORIENTED_EDGE('',*,*,#830,.T.);
#1049=ORIENTED_EDGE('',*,*,#831,.F.);
#1050=ORIENTED_EDGE('',*,*,#830,.F.);
#1051=ORIENTED_EDGE('',*,*,#832,.F.);
#1052=ORIENTED_EDGE('',*,*,#833,.T.);
#1053=ORIENTED_EDGE('',*,*,#834,.F.);
#1054=ORIENTED_EDGE('',*,*,#833,.F.);
#1055=ORIENTED_EDGE('',*,*,#835,.F.);
#1056=ORIENTED_EDGE('',*,*,#836,.T.);
#1057=ORIENTED_EDGE('',*,*,#837,.F.);
#1058=ORIENTED_EDGE('',*,*,#836,.F.);
#1059=ORIENTED_EDGE('',*,*,#838,.F.);
#1060=ORIENTED_EDGE('',*,*,#839,.T.);
#1061=ORIENTED_EDGE('',*,*,#840,.F.);
#1062=ORIENTED_EDGE('',*,*,#839,.F.);
#1063=ORIENTED_EDGE('',*,*,#841,.F.);
#1064=ORIENTED_EDGE('',*,*,#842,.T.);
#1065=ORIENTED_EDGE('',*,*,#843,.T.);
#1066=ORIENTED_EDGE('',*,*,#842,.F.);
#1067=ORIENTED_EDGE('',*,*,#843,.F.);
#1068=ORIENTED_EDGE('',*,*,#823,.T.);
#1069=ORIENTED_EDGE('',*,*,#844,.F.);
#1070=ORIENTED_EDGE('',*,*,#845,.T.);
#1071=ORIENTED_EDGE('',*,*,#846,.T.);
#1072=ORIENTED_EDGE('',*,*,#845,.F.);
#1073=ORIENTED_EDGE('',*,*,#846,.F.);
#1074=ORIENTED_EDGE('',*,*,#826,.T.);
#1075=ORIENTED_EDGE('',*,*,#847,.F.);
#1076=ORIENTED_EDGE('',*,*,#848,.T.);
#1077=ORIENTED_EDGE('',*,*,#849,.T.);
#1078=ORIENTED_EDGE('',*,*,#848,.F.);
#1079=ORIENTED_EDGE('',*,*,#849,.F.);
#1080=ORIENTED_EDGE('',*,*,#829,.T.);
#1081=ORIENTED_EDGE('',*,*,#850,.F.);
#1082=ORIENTED_EDGE('',*,*,#851,.T.);
#1083=ORIENTED_EDGE('',*,*,#852,.T.);
#1084=ORIENTED_EDGE('',*,*,#851,.F.);
#1085=ORIENTED_EDGE('',*,*,#852,.F.);
#1086=ORIENTED_EDGE('',*,*,#832,.T.);
#1087=ORIENTED_EDGE('',*,*,#853,.F.);
#1088=ORIENTED_EDGE('',*,*,#854,.T.);
#1089=ORIENTED_EDGE('',*,*,#855,.T.);
#1090=ORIENTED_EDGE('',*,*,#854,.F.);
#1091=ORIENTED_EDGE('',*,*,#855,.F.);
#1092=ORIENTED_EDGE('',*,*,#835,.T.);
#1093=ORIENTED_EDGE('',*,*,#856,.F.);
#1094=ORIENTED_EDGE('',*,*,#857,.T.);
#1095=ORIENTED_EDGE('',*,*,#858,.T.);
#1096=ORIENTED_EDGE('',*,*,#857,.F.);
#1097=ORIENTED_EDGE('',*,*,#858,.F.);
#1098=ORIENTED_EDGE('',*,*,#838,.T.);
#1099=ORIENTED_EDGE('',*,*,#728,.F.);
#1100=ORIENTED_EDGE('',*,*,#738,.T.);
#1101=ORIENTED_EDGE('',*,*,#756,.F.);
#1102=ORIENTED_EDGE('',*,*,#755,.F.);
#1103=ORIENTED_EDGE('',*,*,#754,.F.);
#1104=ORIENTED_EDGE('',*,*,#777,.F.);
#1105=ORIENTED_EDGE('',*,*,#841,.T.);
#1106=ORIENTED_EDGE('',*,*,#844,.T.);
#1107=ORIENTED_EDGE('',*,*,#847,.T.);
#1108=ORIENTED_EDGE('',*,*,#850,.T.);
#1109=ORIENTED_EDGE('',*,*,#853,.T.);
#1110=ORIENTED_EDGE('',*,*,#856,.T.);
#1111=ORIENTED_EDGE('',*,*,#734,.F.);
#1112=ORIENTED_EDGE('',*,*,#747,.T.);
#1113=ORIENTED_EDGE('',*,*,#859,.F.);
#1114=ORIENTED_EDGE('',*,*,#742,.T.);
#1115=ORIENTED_EDGE('',*,*,#825,.T.);
#1116=ORIENTED_EDGE('',*,*,#831,.T.);
#1117=ORIENTED_EDGE('',*,*,#834,.T.);
#1118=ORIENTED_EDGE('',*,*,#837,.T.);
#1119=ORIENTED_EDGE('',*,*,#840,.T.);
#1120=ORIENTED_EDGE('',*,*,#828,.T.);
#1121=ORIENTED_EDGE('',*,*,#758,.T.);
#1122=ORIENTED_EDGE('',*,*,#860,.F.);
#1123=ORIENTED_EDGE('',*,*,#861,.T.);
#1124=ORIENTED_EDGE('',*,*,#862,.F.);
#1125=ORIENTED_EDGE('',*,*,#862,.T.);
#1126=ORIENTED_EDGE('',*,*,#863,.F.);
#1127=ORIENTED_EDGE('',*,*,#864,.F.);
#1128=ORIENTED_EDGE('',*,*,#803,.T.);
#1129=ORIENTED_EDGE('',*,*,#821,.F.);
#1130=ORIENTED_EDGE('',*,*,#759,.F.);
#1131=ORIENTED_EDGE('',*,*,#772,.T.);
#1132=ORIENTED_EDGE('',*,*,#865,.F.);
#1133=ORIENTED_EDGE('',*,*,#866,.T.);
#1134=ORIENTED_EDGE('',*,*,#867,.F.);
#1135=ORIENTED_EDGE('',*,*,#867,.T.);
#1136=ORIENTED_EDGE('',*,*,#868,.F.);
#1137=ORIENTED_EDGE('',*,*,#869,.F.);
#1138=ORIENTED_EDGE('',*,*,#783,.T.);
#1139=ORIENTED_EDGE('',*,*,#817,.F.);
#1140=ORIENTED_EDGE('',*,*,#769,.F.);
#1141=ORIENTED_EDGE('',*,*,#782,.T.);
#1142=ORIENTED_EDGE('',*,*,#870,.F.);
#1143=ORIENTED_EDGE('',*,*,#871,.T.);
#1144=ORIENTED_EDGE('',*,*,#872,.F.);
#1145=ORIENTED_EDGE('',*,*,#872,.T.);
#1146=ORIENTED_EDGE('',*,*,#873,.F.);
#1147=ORIENTED_EDGE('',*,*,#874,.F.);
#1148=ORIENTED_EDGE('',*,*,#799,.T.);
#1149=ORIENTED_EDGE('',*,*,#811,.F.);
#1150=ORIENTED_EDGE('',*,*,#779,.F.);
#1151=ORIENTED_EDGE('',*,*,#766,.T.);
#1152=ORIENTED_EDGE('',*,*,#875,.F.);
#1153=ORIENTED_EDGE('',*,*,#876,.T.);
#1154=ORIENTED_EDGE('',*,*,#877,.F.);
#1155=ORIENTED_EDGE('',*,*,#877,.T.);
#1156=ORIENTED_EDGE('',*,*,#878,.F.);
#1157=ORIENTED_EDGE('',*,*,#807,.F.);
#1158=ORIENTED_EDGE('',*,*,#790,.T.);
#1159=ORIENTED_EDGE('',*,*,#815,.F.);
#1160=ORIENTED_EDGE('',*,*,#767,.F.);
#1161=ORIENTED_EDGE('',*,*,#776,.T.);
#1162=ORIENTED_EDGE('',*,*,#879,.F.);
#1163=ORIENTED_EDGE('',*,*,#880,.T.);
#1164=ORIENTED_EDGE('',*,*,#881,.F.);
#1165=ORIENTED_EDGE('',*,*,#881,.T.);
#1166=ORIENTED_EDGE('',*,*,#882,.F.);
#1167=ORIENTED_EDGE('',*,*,#883,.F.);
#1168=ORIENTED_EDGE('',*,*,#795,.T.);
#1169=ORIENTED_EDGE('',*,*,#813,.F.);
#1170=ORIENTED_EDGE('',*,*,#773,.F.);
#1171=ORIENTED_EDGE('',*,*,#764,.T.);
#1172=ORIENTED_EDGE('',*,*,#884,.F.);
#1173=ORIENTED_EDGE('',*,*,#885,.T.);
#1174=ORIENTED_EDGE('',*,*,#886,.F.);
#1175=ORIENTED_EDGE('',*,*,#886,.T.);
#1176=ORIENTED_EDGE('',*,*,#887,.F.);
#1177=ORIENTED_EDGE('',*,*,#888,.F.);
#1178=ORIENTED_EDGE('',*,*,#791,.T.);
#1179=ORIENTED_EDGE('',*,*,#819,.F.);
#1180=ORIENTED_EDGE('',*,*,#761,.F.);
#1181=ORIENTED_EDGE('',*,*,#748,.T.);
#1182=ORIENTED_EDGE('',*,*,#731,.T.);
#1183=ORIENTED_EDGE('',*,*,#810,.T.);
#1184=ORIENTED_EDGE('',*,*,#751,.F.);
#1185=ORIENTED_EDGE('',*,*,#749,.F.);
#1186=ORIENTED_EDGE('',*,*,#743,.T.);
#1187=ORIENTED_EDGE('',*,*,#859,.T.);
#1188=ORIENTED_EDGE('',*,*,#746,.T.);
#1189=ORIENTED_EDGE('',*,*,#889,.T.);
#1190=ORIENTED_EDGE('',*,*,#890,.T.);
#1191=ORIENTED_EDGE('',*,*,#863,.T.);
#1192=ORIENTED_EDGE('',*,*,#861,.F.);
#1193=ORIENTED_EDGE('',*,*,#876,.F.);
#1194=ORIENTED_EDGE('',*,*,#891,.T.);
#1195=ORIENTED_EDGE('',*,*,#808,.T.);
#1196=ORIENTED_EDGE('',*,*,#878,.T.);
#1197=ORIENTED_EDGE('',*,*,#892,.T.);
#1198=ORIENTED_EDGE('',*,*,#868,.T.);
#1199=ORIENTED_EDGE('',*,*,#866,.F.);
#1200=ORIENTED_EDGE('',*,*,#893,.T.);
#1201=ORIENTED_EDGE('',*,*,#885,.F.);
#1202=ORIENTED_EDGE('',*,*,#894,.T.);
#1203=ORIENTED_EDGE('',*,*,#895,.T.);
#1204=ORIENTED_EDGE('',*,*,#887,.T.);
#1205=ORIENTED_EDGE('',*,*,#896,.T.);
#1206=ORIENTED_EDGE('',*,*,#882,.T.);
#1207=ORIENTED_EDGE('',*,*,#880,.F.);
#1208=ORIENTED_EDGE('',*,*,#897,.T.);
#1209=ORIENTED_EDGE('',*,*,#898,.T.);
#1210=ORIENTED_EDGE('',*,*,#873,.T.);
#1211=ORIENTED_EDGE('',*,*,#871,.F.);
#1212=ORIENTED_EDGE('',*,*,#899,.T.);
#1213=ORIENTED_EDGE('',*,*,#875,.T.);
#1214=ORIENTED_EDGE('',*,*,#765,.F.);
#1215=ORIENTED_EDGE('',*,*,#816,.F.);
#1216=ORIENTED_EDGE('',*,*,#788,.T.);
#1217=ORIENTED_EDGE('',*,*,#809,.T.);
#1218=ORIENTED_EDGE('',*,*,#891,.F.);
#1219=ORIENTED_EDGE('',*,*,#804,.T.);
#1220=ORIENTED_EDGE('',*,*,#864,.T.);
#1221=ORIENTED_EDGE('',*,*,#890,.F.);
#1222=ORIENTED_EDGE('',*,*,#900,.F.);
#1223=ORIENTED_EDGE('',*,*,#860,.T.);
#1224=ORIENTED_EDGE('',*,*,#757,.T.);
#1225=ORIENTED_EDGE('',*,*,#822,.F.);
#1226=ORIENTED_EDGE('',*,*,#805,.T.);
#1227=ORIENTED_EDGE('',*,*,#900,.T.);
#1228=ORIENTED_EDGE('',*,*,#889,.F.);
#1229=ORIENTED_EDGE('',*,*,#870,.T.);
#1230=ORIENTED_EDGE('',*,*,#781,.F.);
#1231=ORIENTED_EDGE('',*,*,#812,.F.);
#1232=ORIENTED_EDGE('',*,*,#801,.T.);
#1233=ORIENTED_EDGE('',*,*,#901,.T.);
#1234=ORIENTED_EDGE('',*,*,#899,.F.);
#1235=ORIENTED_EDGE('',*,*,#800,.T.);
#1236=ORIENTED_EDGE('',*,*,#874,.T.);
#1237=ORIENTED_EDGE('',*,*,#898,.F.);
#1238=ORIENTED_EDGE('',*,*,#901,.F.);
#1239=ORIENTED_EDGE('',*,*,#879,.T.);
#1240=ORIENTED_EDGE('',*,*,#775,.F.);
#1241=ORIENTED_EDGE('',*,*,#814,.F.);
#1242=ORIENTED_EDGE('',*,*,#797,.T.);
#1243=ORIENTED_EDGE('',*,*,#902,.T.);
#1244=ORIENTED_EDGE('',*,*,#897,.F.);
#1245=ORIENTED_EDGE('',*,*,#796,.T.);
#1246=ORIENTED_EDGE('',*,*,#883,.T.);
#1247=ORIENTED_EDGE('',*,*,#896,.F.);
#1248=ORIENTED_EDGE('',*,*,#902,.F.);
#1249=ORIENTED_EDGE('',*,*,#792,.T.);
#1250=ORIENTED_EDGE('',*,*,#888,.T.);
#1251=ORIENTED_EDGE('',*,*,#895,.F.);
#1252=ORIENTED_EDGE('',*,*,#903,.F.);
#1253=ORIENTED_EDGE('',*,*,#884,.T.);
#1254=ORIENTED_EDGE('',*,*,#763,.T.);
#1255=ORIENTED_EDGE('',*,*,#820,.F.);
#1256=ORIENTED_EDGE('',*,*,#793,.T.);
#1257=ORIENTED_EDGE('',*,*,#903,.T.);
#1258=ORIENTED_EDGE('',*,*,#894,.F.);
#1259=ORIENTED_EDGE('',*,*,#865,.T.);
#1260=ORIENTED_EDGE('',*,*,#771,.F.);
#1261=ORIENTED_EDGE('',*,*,#818,.F.);
#1262=ORIENTED_EDGE('',*,*,#785,.T.);
#1263=ORIENTED_EDGE('',*,*,#904,.T.);
#1264=ORIENTED_EDGE('',*,*,#893,.F.);
#1265=ORIENTED_EDGE('',*,*,#784,.T.);
#1266=ORIENTED_EDGE('',*,*,#869,.T.);
#1267=ORIENTED_EDGE('',*,*,#892,.F.);
#1268=ORIENTED_EDGE('',*,*,#904,.F.);
#1269=CYLINDRICAL_SURFACE('',#1365,6.);
#1270=CYLINDRICAL_SURFACE('',#1370,6.);
#1271=CYLINDRICAL_SURFACE('',#1393,0.749999999999997);
#1272=CYLINDRICAL_SURFACE('',#1396,0.749999999999993);
#1273=CYLINDRICAL_SURFACE('',#1399,0.75);
#1274=CYLINDRICAL_SURFACE('',#1402,0.750000000000002);
#1275=CYLINDRICAL_SURFACE('',#1405,0.749999999999993);
#1276=CYLINDRICAL_SURFACE('',#1408,0.749999999999997);
#1277=CYLINDRICAL_SURFACE('',#1411,2.15);
#1278=CYLINDRICAL_SURFACE('',#1415,2.15);
#1279=CYLINDRICAL_SURFACE('',#1419,2.15);
#1280=CYLINDRICAL_SURFACE('',#1423,2.15);
#1281=CYLINDRICAL_SURFACE('',#1427,2.15);
#1282=CYLINDRICAL_SURFACE('',#1431,2.15);
#1283=ADVANCED_FACE('',(#99),#1269,.T.);
#1284=ADVANCED_FACE('',(#100),#45,.T.);
#1285=ADVANCED_FACE('',(#101),#46,.T.);
#1286=ADVANCED_FACE('',(#102),#1270,.T.);
#1287=ADVANCED_FACE('',(#103),#47,.F.);
#1288=ADVANCED_FACE('',(#104),#48,.F.);
#1289=ADVANCED_FACE('',(#105),#49,.T.);
#1290=ADVANCED_FACE('',(#106),#50,.T.);
#1291=ADVANCED_FACE('',(#107),#51,.T.);
#1292=ADVANCED_FACE('',(#108),#52,.F.);
#1293=ADVANCED_FACE('',(#109),#53,.F.);
#1294=ADVANCED_FACE('',(#110),#54,.F.);
#1295=ADVANCED_FACE('',(#111),#55,.F.);
#1296=ADVANCED_FACE('',(#112),#56,.F.);
#1297=ADVANCED_FACE('',(#113),#57,.T.);
#1298=ADVANCED_FACE('',(#114),#58,.F.);
#1299=ADVANCED_FACE('',(#115),#59,.F.);
#1300=ADVANCED_FACE('',(#116),#60,.F.);
#1301=ADVANCED_FACE('',(#117),#61,.F.);
#1302=ADVANCED_FACE('',(#118),#62,.F.);
#1303=ADVANCED_FACE('',(#119),#63,.F.);
#1304=ADVANCED_FACE('',(#120),#64,.F.);
#1305=ADVANCED_FACE('',(#121),#65,.T.);
#1306=ADVANCED_FACE('',(#122,#15,#16,#17,#18,#19,#20),#66,.T.);
#1307=ADVANCED_FACE('',(#123),#1271,.F.);
#1308=ADVANCED_FACE('',(#124),#1272,.F.);
#1309=ADVANCED_FACE('',(#125),#1273,.F.);
#1310=ADVANCED_FACE('',(#126),#1274,.F.);
#1311=ADVANCED_FACE('',(#127),#1275,.F.);
#1312=ADVANCED_FACE('',(#128),#1276,.F.);
#1313=ADVANCED_FACE('',(#129),#1277,.F.);
#1314=ADVANCED_FACE('',(#130,#21),#67,.T.);
#1315=ADVANCED_FACE('',(#131),#1278,.F.);
#1316=ADVANCED_FACE('',(#132,#22),#68,.T.);
#1317=ADVANCED_FACE('',(#133),#1279,.F.);
#1318=ADVANCED_FACE('',(#134,#23),#69,.T.);
#1319=ADVANCED_FACE('',(#135),#1280,.F.);
#1320=ADVANCED_FACE('',(#136,#24),#70,.T.);
#1321=ADVANCED_FACE('',(#137),#1281,.F.);
#1322=ADVANCED_FACE('',(#138,#25),#71,.T.);
#1323=ADVANCED_FACE('',(#139),#1282,.F.);
#1324=ADVANCED_FACE('',(#140,#26),#72,.T.);
#1325=ADVANCED_FACE('',(#141,#27,#28,#29,#30,#31,#32),#73,.T.);
#1326=ADVANCED_FACE('',(#142,#33,#34,#35,#36,#37,#38),#74,.T.);
#1327=ADVANCED_FACE('',(#143),#75,.T.);
#1328=ADVANCED_FACE('',(#144),#76,.T.);
#1329=ADVANCED_FACE('',(#145),#77,.T.);
#1330=ADVANCED_FACE('',(#146),#78,.T.);
#1331=ADVANCED_FACE('',(#147),#79,.T.);
#1332=ADVANCED_FACE('',(#148),#80,.T.);
#1333=ADVANCED_FACE('',(#149),#81,.T.);
#1334=ADVANCED_FACE('',(#150),#82,.T.);
#1335=ADVANCED_FACE('',(#151),#83,.T.);
#1336=ADVANCED_FACE('',(#152),#84,.T.);
#1337=ADVANCED_FACE('',(#153),#85,.T.);
#1338=ADVANCED_FACE('',(#154),#86,.T.);
#1339=ADVANCED_FACE('',(#155,#39,#40,#41,#42,#43,#44),#87,.T.);
#1340=ADVANCED_FACE('',(#156),#88,.T.);
#1341=ADVANCED_FACE('',(#157),#89,.T.);
#1342=ADVANCED_FACE('',(#158),#90,.T.);
#1343=ADVANCED_FACE('',(#159),#91,.T.);
#1344=ADVANCED_FACE('',(#160),#92,.T.);
#1345=ADVANCED_FACE('',(#161),#93,.T.);
#1346=ADVANCED_FACE('',(#162),#94,.T.);
#1347=ADVANCED_FACE('',(#163),#95,.T.);
#1348=ADVANCED_FACE('',(#164),#96,.T.);
#1349=ADVANCED_FACE('',(#165),#97,.T.);
#1350=ADVANCED_FACE('',(#166),#98,.T.);
#1351=CLOSED_SHELL('',(#1283,#1284,#1285,#1286,#1287,#1288,#1289,#1290,
#1291,#1292,#1293,#1294,#1295,#1296,#1297,#1298,#1299,#1300,#1301,#1302,
#1303,#1304,#1305,#1306,#1307,#1308,#1309,#1310,#1311,#1312,#1313,#1314,
#1315,#1316,#1317,#1318,#1319,#1320,#1321,#1322,#1323,#1324,#1325,#1326,
#1327,#1328,#1329,#1330,#1331,#1332,#1333,#1334,#1335,#1336,#1337,#1338,
#1339,#1340,#1341,#1342,#1343,#1344,#1345,#1346,#1347,#1348,#1349,#1350));
#1352=DERIVED_UNIT_ELEMENT(#1354,1.);
#1353=DERIVED_UNIT_ELEMENT(#2187,-3.);
#1354=(
MASS_UNIT()
NAMED_UNIT(*)
SI_UNIT(.KILO.,.GRAM.)
);
#1355=DERIVED_UNIT((#1352,#1353));
#1356=MEASURE_REPRESENTATION_ITEM('density measure',
POSITIVE_RATIO_MEASURE(7850.),#1355);
#1357=PROPERTY_DEFINITION_REPRESENTATION(#1362,#1359);
#1358=PROPERTY_DEFINITION_REPRESENTATION(#1363,#1360);
#1359=REPRESENTATION('material name',(#1361),#2184);
#1360=REPRESENTATION('density',(#1356),#2184);
#1361=DESCRIPTIVE_REPRESENTATION_ITEM('Steel','Steel');
#1362=PROPERTY_DEFINITION('material property','material name',#2194);
#1363=PROPERTY_DEFINITION('material property','density of part',#2194);
#1364=AXIS2_PLACEMENT_3D('',#1809,#1461,#1462);
#1365=AXIS2_PLACEMENT_3D('',#1810,#1463,#1464);
#1366=AXIS2_PLACEMENT_3D('',#1813,#1465,#1466);
#1367=AXIS2_PLACEMENT_3D('',#1817,#1468,#1469);
#1368=AXIS2_PLACEMENT_3D('',#1819,#1471,#1472);
#1369=AXIS2_PLACEMENT_3D('',#1831,#1479,#1480);
#1370=AXIS2_PLACEMENT_3D('',#1843,#1487,#1488);
#1371=AXIS2_PLACEMENT_3D('',#1845,#1489,#1490);
#1372=AXIS2_PLACEMENT_3D('',#1847,#1491,#1492);
#1373=AXIS2_PLACEMENT_3D('',#1849,#1494,#1495);
#1374=AXIS2_PLACEMENT_3D('',#1855,#1499,#1500);
#1375=AXIS2_PLACEMENT_3D('',#1861,#1504,#1505);
#1376=AXIS2_PLACEMENT_3D('',#1863,#1507,#1508);
#1377=AXIS2_PLACEMENT_3D('',#1867,#1511,#1512);
#1378=AXIS2_PLACEMENT_3D('',#1879,#1519,#1520);
#1379=AXIS2_PLACEMENT_3D('',#1888,#1525,#1526);
#1380=AXIS2_PLACEMENT_3D('',#1897,#1531,#1532);
#1381=AXIS2_PLACEMENT_3D('',#1906,#1537,#1538);
#1382=AXIS2_PLACEMENT_3D('',#1915,#1543,#1544);
#1383=AXIS2_PLACEMENT_3D('',#1924,#1549,#1550);
#1384=AXIS2_PLACEMENT_3D('',#1927,#1553,#1554);
#1385=AXIS2_PLACEMENT_3D('',#1936,#1559,#1560);
#1386=AXIS2_PLACEMENT_3D('',#1945,#1565,#1566);
#1387=AXIS2_PLACEMENT_3D('',#1954,#1571,#1572);
#1388=AXIS2_PLACEMENT_3D('',#1963,#1577,#1578);
#1389=AXIS2_PLACEMENT_3D('',#1972,#1583,#1584);
#1390=AXIS2_PLACEMENT_3D('',#1981,#1589,#1590);
#1391=AXIS2_PLACEMENT_3D('',#1990,#1595,#1596);
#1392=AXIS2_PLACEMENT_3D('',#1996,#1600,#1601);
#1393=AXIS2_PLACEMENT_3D('',#2010,#1615,#1616);
#1394=AXIS2_PLACEMENT_3D('',#2012,#1617,#1618);
#1395=AXIS2_PLACEMENT_3D('',#2015,#1620,#1621);
#1396=AXIS2_PLACEMENT_3D('',#2016,#1622,#1623);
#1397=AXIS2_PLACEMENT_3D('',#2018,#1624,#1625);
#1398=AXIS2_PLACEMENT_3D('',#2021,#1627,#1628);
#1399=AXIS2_PLACEMENT_3D('',#2022,#1629,#1630);
#1400=AXIS2_PLACEMENT_3D('',#2024,#1631,#1632);
#1401=AXIS2_PLACEMENT_3D('',#2027,#1634,#1635);
#1402=AXIS2_PLACEMENT_3D('',#2028,#1636,#1637);
#1403=AXIS2_PLACEMENT_3D('',#2030,#1638,#1639);
#1404=AXIS2_PLACEMENT_3D('',#2033,#1641,#1642);
#1405=AXIS2_PLACEMENT_3D('',#2034,#1643,#1644);
#1406=AXIS2_PLACEMENT_3D('',#2036,#1645,#1646);
#1407=AXIS2_PLACEMENT_3D('',#2039,#1648,#1649);
#1408=AXIS2_PLACEMENT_3D('',#2040,#1650,#1651);
#1409=AXIS2_PLACEMENT_3D('',#2042,#1652,#1653);
#1410=AXIS2_PLACEMENT_3D('',#2045,#1655,#1656);
#1411=AXIS2_PLACEMENT_3D('',#2046,#1657,#1658);
#1412=AXIS2_PLACEMENT_3D('',#2048,#1659,#1660);
#1413=AXIS2_PLACEMENT_3D('',#2051,#1662,#1663);
#1414=AXIS2_PLACEMENT_3D('',#2052,#1664,#1665);
#1415=AXIS2_PLACEMENT_3D('',#2053,#1666,#1667);
#1416=AXIS2_PLACEMENT_3D('',#2055,#1668,#1669);
#1417=AXIS2_PLACEMENT_3D('',#2058,#1671,#1672);
#1418=AXIS2_PLACEMENT_3D('',#2059,#1673,#1674);
#1419=AXIS2_PLACEMENT_3D('',#2060,#1675,#1676);
#1420=AXIS2_PLACEMENT_3D('',#2062,#1677,#1678);
#1421=AXIS2_PLACEMENT_3D('',#2065,#1680,#1681);
#1422=AXIS2_PLACEMENT_3D('',#2066,#1682,#1683);
#1423=AXIS2_PLACEMENT_3D('',#2067,#1684,#1685);
#1424=AXIS2_PLACEMENT_3D('',#2069,#1686,#1687);
#1425=AXIS2_PLACEMENT_3D('',#2072,#1689,#1690);
#1426=AXIS2_PLACEMENT_3D('',#2073,#1691,#1692);
#1427=AXIS2_PLACEMENT_3D('',#2074,#1693,#1694);
#1428=AXIS2_PLACEMENT_3D('',#2076,#1695,#1696);
#1429=AXIS2_PLACEMENT_3D('',#2079,#1698,#1699);
#1430=AXIS2_PLACEMENT_3D('',#2080,#1700,#1701);
#1431=AXIS2_PLACEMENT_3D('',#2081,#1702,#1703);
#1432=AXIS2_PLACEMENT_3D('',#2083,#1704,#1705);
#1433=AXIS2_PLACEMENT_3D('',#2086,#1707,#1708);
#1434=AXIS2_PLACEMENT_3D('',#2087,#1709,#1710);
#1435=AXIS2_PLACEMENT_3D('',#2088,#1711,#1712);
#1436=AXIS2_PLACEMENT_3D('',#2089,#1713,#1714);
#1437=AXIS2_PLACEMENT_3D('',#2091,#1716,#1717);
#1438=AXIS2_PLACEMENT_3D('',#2097,#1721,#1722);
#1439=AXIS2_PLACEMENT_3D('',#2101,#1725,#1726);
#1440=AXIS2_PLACEMENT_3D('',#2107,#1730,#1731);
#1441=AXIS2_PLACEMENT_3D('',#2111,#1734,#1735);
#1442=AXIS2_PLACEMENT_3D('',#2117,#1739,#1740);
#1443=AXIS2_PLACEMENT_3D('',#2121,#1743,#1744);
#1444=AXIS2_PLACEMENT_3D('',#2127,#1748,#1749);
#1445=AXIS2_PLACEMENT_3D('',#2129,#1751,#1752);
#1446=AXIS2_PLACEMENT_3D('',#2135,#1756,#1757);
#1447=AXIS2_PLACEMENT_3D('',#2139,#1760,#1761);
#1448=AXIS2_PLACEMENT_3D('',#2145,#1765,#1766);
#1449=AXIS2_PLACEMENT_3D('',#2149,#1769,#1770);
#1450=AXIS2_PLACEMENT_3D('',#2166,#1782,#1783);
#1451=AXIS2_PLACEMENT_3D('',#2167,#1784,#1785);
#1452=AXIS2_PLACEMENT_3D('',#2169,#1787,#1788);
#1453=AXIS2_PLACEMENT_3D('',#2170,#1789,#1790);
#1454=AXIS2_PLACEMENT_3D('',#2172,#1792,#1793);
#1455=AXIS2_PLACEMENT_3D('',#2173,#1794,#1795);
#1456=AXIS2_PLACEMENT_3D('',#2175,#1797,#1798);
#1457=AXIS2_PLACEMENT_3D('',#2176,#1799,#1800);
#1458=AXIS2_PLACEMENT_3D('',#2178,#1802,#1803);
#1459=AXIS2_PLACEMENT_3D('',#2179,#1804,#1805);
#1460=AXIS2_PLACEMENT_3D('',#2181,#1807,#1808);
#1461=DIRECTION('axis',(0.,0.,1.));
#1462=DIRECTION('refdir',(1.,0.,0.));
#1463=DIRECTION('center_axis',(1.,0.,0.));
#1464=DIRECTION('ref_axis',(0.,-0.707106781186548,0.707106781186547));
#1465=DIRECTION('center_axis',(1.,0.,0.));
#1466=DIRECTION('ref_axis',(0.,-0.707106781186548,0.707106781186547));
#1467=DIRECTION('',(1.,0.,0.));
#1468=DIRECTION('center_axis',(-1.,0.,0.));
#1469=DIRECTION('ref_axis',(0.,-0.707106781186548,0.707106781186547));
#1470=DIRECTION('',(-1.,0.,0.));
#1471=DIRECTION('center_axis',(-1.,0.,0.));
#1472=DIRECTION('ref_axis',(0.,-1.,0.));
#1473=DIRECTION('',(0.,-1.,0.));
#1474=DIRECTION('',(0.,0.,-1.));
#1475=DIRECTION('',(0.,1.,0.));
#1476=DIRECTION('',(0.,0.,1.));
#1477=DIRECTION('',(0.,-1.,0.));
#1478=DIRECTION('',(0.,0.,1.));
#1479=DIRECTION('center_axis',(0.,0.,1.));
#1480=DIRECTION('ref_axis',(1.,0.,0.));
#1481=DIRECTION('',(0.,1.,0.));
#1482=DIRECTION('',(1.,0.,0.));
#1483=DIRECTION('',(0.,-1.,0.));
#1484=DIRECTION('',(-1.,0.,0.));
#1485=DIRECTION('',(0.,-1.,0.));
#1486=DIRECTION('',(1.,0.,0.));
#1487=DIRECTION('center_axis',(1.,0.,0.));
#1488=DIRECTION('ref_axis',(0.,-0.707106781186548,0.707106781186547));
#1489=DIRECTION('center_axis',(-1.,0.,0.));
#1490=DIRECTION('ref_axis',(0.,-0.707106781186548,0.707106781186547));
#1491=DIRECTION('center_axis',(1.,0.,0.));
#1492=DIRECTION('ref_axis',(0.,-0.707106781186548,0.707106781186547));
#1493=DIRECTION('',(1.,0.,0.));
#1494=DIRECTION('center_axis',(1.,0.,0.));
#1495=DIRECTION('ref_axis',(0.,0.,-1.));
#1496=DIRECTION('',(0.,0.,1.));
#1497=DIRECTION('',(0.,1.,0.));
#1498=DIRECTION('',(0.,0.,-1.));
#1499=DIRECTION('center_axis',(-1.,0.,0.));
#1500=DIRECTION('ref_axis',(0.,0.,1.));
#1501=DIRECTION('',(0.,0.,1.));
#1502=DIRECTION('',(0.,-1.,0.));
#1503=DIRECTION('',(0.,0.,-1.));
#1504=DIRECTION('center_axis',(0.,-1.,0.));
#1505=DIRECTION('ref_axis',(1.,0.,0.));
#1506=DIRECTION('',(-1.,0.,0.));
#1507=DIRECTION('center_axis',(0.,-1.,0.));
#1508=DIRECTION('ref_axis',(1.,0.,0.));
#1509=DIRECTION('',(1.,0.,0.));
#1510=DIRECTION('',(0.,0.,-1.));
#1511=DIRECTION('center_axis',(1.,0.,0.));
#1512=DIRECTION('ref_axis',(0.,0.,-1.));
#1513=DIRECTION('',(0.,-1.,0.));
#1514=DIRECTION('',(0.,0.,-1.));
#1515=DIRECTION('',(0.,1.,0.));
#1516=DIRECTION('',(0.,0.,1.));
#1517=DIRECTION('',(0.,0.,1.));
#1518=DIRECTION('',(0.,0.,1.));
#1519=DIRECTION('center_axis',(0.,0.,-1.));
#1520=DIRECTION('ref_axis',(1.,0.,0.));
#1521=DIRECTION('',(0.,-1.,0.));
#1522=DIRECTION('',(1.,0.,0.));
#1523=DIRECTION('',(0.,-1.,0.));
#1524=DIRECTION('',(1.,0.,0.));
#1525=DIRECTION('center_axis',(0.,0.,-1.));
#1526=DIRECTION('ref_axis',(1.,0.,0.));
#1527=DIRECTION('',(0.,-1.,0.));
#1528=DIRECTION('',(1.,0.,0.));
#1529=DIRECTION('',(0.,-1.,0.));
#1530=DIRECTION('',(1.,0.,0.));
#1531=DIRECTION('center_axis',(0.,0.,-1.));
#1532=DIRECTION('ref_axis',(1.,0.,0.));
#1533=DIRECTION('',(0.,1.,0.));
#1534=DIRECTION('',(1.,0.,0.));
#1535=DIRECTION('',(0.,-1.,0.));
#1536=DIRECTION('',(1.,0.,0.));
#1537=DIRECTION('center_axis',(0.,0.,-1.));
#1538=DIRECTION('ref_axis',(1.,0.,0.));
#1539=DIRECTION('',(0.,-1.,0.));
#1540=DIRECTION('',(1.,0.,0.));
#1541=DIRECTION('',(0.,1.,0.));
#1542=DIRECTION('',(1.,0.,0.));
#1543=DIRECTION('center_axis',(0.,0.,-1.));
#1544=DIRECTION('ref_axis',(1.,0.,0.));
#1545=DIRECTION('',(0.,-1.,0.));
#1546=DIRECTION('',(1.,0.,0.));
#1547=DIRECTION('',(0.,1.,0.));
#1548=DIRECTION('',(1.,0.,0.));
#1549=DIRECTION('center_axis',(0.,0.,-1.));
#1550=DIRECTION('ref_axis',(-1.,0.,0.));
#1551=DIRECTION('',(1.,0.,0.));
#1552=DIRECTION('',(1.,0.,0.));
#1553=DIRECTION('center_axis',(0.,0.,-1.));
#1554=DIRECTION('ref_axis',(1.,0.,0.));
#1555=DIRECTION('',(0.,-1.,0.));
#1556=DIRECTION('',(1.,0.,0.));
#1557=DIRECTION('',(0.,1.,0.));
#1558=DIRECTION('',(1.,0.,0.));
#1559=DIRECTION('center_axis',(0.,0.,1.));
#1560=DIRECTION('ref_axis',(1.,0.,0.));
#1561=DIRECTION('',(0.,-1.,0.));
#1562=DIRECTION('',(-1.,0.,0.));
#1563=DIRECTION('',(0.,1.,0.));
#1564=DIRECTION('',(1.,0.,0.));
#1565=DIRECTION('center_axis',(0.,0.,1.));
#1566=DIRECTION('ref_axis',(1.,0.,0.));
#1567=DIRECTION('',(-1.,0.,0.));
#1568=DIRECTION('',(0.,1.,0.));
#1569=DIRECTION('',(1.,0.,0.));
#1570=DIRECTION('',(0.,-1.,0.));
#1571=DIRECTION('center_axis',(0.,0.,1.));
#1572=DIRECTION('ref_axis',(1.,0.,0.));
#1573=DIRECTION('',(0.,-1.,0.));
#1574=DIRECTION('',(-1.,0.,0.));
#1575=DIRECTION('',(0.,1.,0.));
#1576=DIRECTION('',(1.,0.,0.));
#1577=DIRECTION('center_axis',(0.,0.,1.));
#1578=DIRECTION('ref_axis',(1.,0.,0.));
#1579=DIRECTION('',(0.,-1.,0.));
#1580=DIRECTION('',(-1.,0.,0.));
#1581=DIRECTION('',(0.,1.,0.));
#1582=DIRECTION('',(1.,0.,0.));
#1583=DIRECTION('center_axis',(0.,0.,1.));
#1584=DIRECTION('ref_axis',(1.,0.,0.));
#1585=DIRECTION('',(0.,-1.,0.));
#1586=DIRECTION('',(-1.,0.,0.));
#1587=DIRECTION('',(0.,1.,0.));
#1588=DIRECTION('',(1.,0.,0.));
#1589=DIRECTION('center_axis',(0.,0.,1.));
#1590=DIRECTION('ref_axis',(1.,0.,0.));
#1591=DIRECTION('',(0.,-1.,0.));
#1592=DIRECTION('',(-1.,0.,0.));
#1593=DIRECTION('',(0.,1.,0.));
#1594=DIRECTION('',(1.,0.,0.));
#1595=DIRECTION('center_axis',(0.,1.,0.));
#1596=DIRECTION('ref_axis',(-1.,0.,0.));
#1597=DIRECTION('',(0.,0.,1.));
#1598=DIRECTION('',(-1.,0.,0.));
#1599=DIRECTION('',(0.,0.,1.));
#1600=DIRECTION('center_axis',(0.,-1.,0.));
#1601=DIRECTION('ref_axis',(1.,0.,0.));
#1602=DIRECTION('',(1.,0.,0.));
#1603=DIRECTION('',(0.,0.,1.));
#1604=DIRECTION('',(0.,0.,-1.));
#1605=DIRECTION('',(0.,0.,1.));
#1606=DIRECTION('',(0.,0.,-1.));
#1607=DIRECTION('',(0.,0.,1.));
#1608=DIRECTION('',(0.,0.,-1.));
#1609=DIRECTION('',(0.,0.,1.));
#1610=DIRECTION('',(0.,0.,-1.));
#1611=DIRECTION('',(0.,0.,1.));
#1612=DIRECTION('',(0.,0.,-1.));
#1613=DIRECTION('',(0.,0.,1.));
#1614=DIRECTION('',(0.,0.,-1.));
#1615=DIRECTION('center_axis',(0.,-1.,0.));
#1616=DIRECTION('ref_axis',(-1.,0.,0.));
#1617=DIRECTION('center_axis',(0.,-1.,0.));
#1618=DIRECTION('ref_axis',(-1.,0.,0.));
#1619=DIRECTION('',(0.,-1.,0.));
#1620=DIRECTION('center_axis',(0.,1.,0.));
#1621=DIRECTION('ref_axis',(-1.,0.,0.));
#1622=DIRECTION('center_axis',(0.,-1.,0.));
#1623=DIRECTION('ref_axis',(-1.,0.,0.));
#1624=DIRECTION('center_axis',(0.,-1.,0.));
#1625=DIRECTION('ref_axis',(-1.,0.,0.));
#1626=DIRECTION('',(0.,-1.,0.));
#1627=DIRECTION('center_axis',(0.,1.,0.));
#1628=DIRECTION('ref_axis',(-1.,0.,0.));
#1629=DIRECTION('center_axis',(0.,-1.,0.));
#1630=DIRECTION('ref_axis',(-1.,0.,0.));
#1631=DIRECTION('center_axis',(0.,-1.,0.));
#1632=DIRECTION('ref_axis',(-1.,0.,0.));
#1633=DIRECTION('',(0.,-1.,0.));
#1634=DIRECTION('center_axis',(0.,1.,0.));
#1635=DIRECTION('ref_axis',(-1.,0.,0.));
#1636=DIRECTION('center_axis',(0.,-1.,0.));
#1637=DIRECTION('ref_axis',(-1.,0.,0.));
#1638=DIRECTION('center_axis',(0.,-1.,0.));
#1639=DIRECTION('ref_axis',(-1.,0.,0.));
#1640=DIRECTION('',(0.,-1.,0.));
#1641=DIRECTION('center_axis',(0.,1.,0.));
#1642=DIRECTION('ref_axis',(-1.,0.,0.));
#1643=DIRECTION('center_axis',(0.,-1.,0.));
#1644=DIRECTION('ref_axis',(-1.,0.,0.));
#1645=DIRECTION('center_axis',(0.,-1.,0.));
#1646=DIRECTION('ref_axis',(-1.,0.,0.));
#1647=DIRECTION('',(0.,-1.,0.));
#1648=DIRECTION('center_axis',(0.,1.,0.));
#1649=DIRECTION('ref_axis',(-1.,0.,0.));
#1650=DIRECTION('center_axis',(0.,-1.,0.));
#1651=DIRECTION('ref_axis',(-1.,0.,0.));
#1652=DIRECTION('center_axis',(0.,-1.,0.));
#1653=DIRECTION('ref_axis',(-1.,0.,0.));
#1654=DIRECTION('',(0.,-1.,0.));
#1655=DIRECTION('center_axis',(0.,1.,0.));
#1656=DIRECTION('ref_axis',(-1.,0.,0.));
#1657=DIRECTION('center_axis',(0.,-1.,0.));
#1658=DIRECTION('ref_axis',(-1.,0.,0.));
#1659=DIRECTION('center_axis',(0.,-1.,0.));
#1660=DIRECTION('ref_axis',(-1.,0.,0.));
#1661=DIRECTION('',(0.,-1.,0.));
#1662=DIRECTION('center_axis',(0.,-1.,0.));
#1663=DIRECTION('ref_axis',(-1.,0.,0.));
#1664=DIRECTION('center_axis',(0.,1.,0.));
#1665=DIRECTION('ref_axis',(-1.,0.,0.));
#1666=DIRECTION('center_axis',(0.,-1.,0.));
#1667=DIRECTION('ref_axis',(-1.,0.,0.));
#1668=DIRECTION('center_axis',(0.,-1.,0.));
#1669=DIRECTION('ref_axis',(-1.,0.,0.));
#1670=DIRECTION('',(0.,-1.,0.));
#1671=DIRECTION('center_axis',(0.,-1.,0.));
#1672=DIRECTION('ref_axis',(-1.,0.,0.));
#1673=DIRECTION('center_axis',(0.,1.,0.));
#1674=DIRECTION('ref_axis',(-1.,0.,0.));
#1675=DIRECTION('center_axis',(0.,-1.,0.));
#1676=DIRECTION('ref_axis',(-1.,0.,0.));
#1677=DIRECTION('center_axis',(0.,-1.,0.));
#1678=DIRECTION('ref_axis',(-1.,0.,0.));
#1679=DIRECTION('',(0.,-1.,0.));
#1680=DIRECTION('center_axis',(0.,-1.,0.));
#1681=DIRECTION('ref_axis',(-1.,0.,0.));
#1682=DIRECTION('center_axis',(0.,1.,0.));
#1683=DIRECTION('ref_axis',(-1.,0.,0.));
#1684=DIRECTION('center_axis',(0.,-1.,0.));
#1685=DIRECTION('ref_axis',(-1.,0.,0.));
#1686=DIRECTION('center_axis',(0.,-1.,0.));
#1687=DIRECTION('ref_axis',(-1.,0.,0.));
#1688=DIRECTION('',(0.,-1.,0.));
#1689=DIRECTION('center_axis',(0.,-1.,0.));
#1690=DIRECTION('ref_axis',(-1.,0.,0.));
#1691=DIRECTION('center_axis',(0.,1.,0.));
#1692=DIRECTION('ref_axis',(-1.,0.,0.));
#1693=DIRECTION('center_axis',(0.,-1.,0.));
#1694=DIRECTION('ref_axis',(-1.,0.,0.));
#1695=DIRECTION('center_axis',(0.,-1.,0.));
#1696=DIRECTION('ref_axis',(-1.,0.,0.));
#1697=DIRECTION('',(0.,-1.,0.));
#1698=DIRECTION('center_axis',(0.,-1.,0.));
#1699=DIRECTION('ref_axis',(-1.,0.,0.));
#1700=DIRECTION('center_axis',(0.,1.,0.));
#1701=DIRECTION('ref_axis',(-1.,0.,0.));
#1702=DIRECTION('center_axis',(0.,-1.,0.));
#1703=DIRECTION('ref_axis',(-1.,0.,0.));
#1704=DIRECTION('center_axis',(0.,-1.,0.));
#1705=DIRECTION('ref_axis',(-1.,0.,0.));
#1706=DIRECTION('',(0.,-1.,0.));
#1707=DIRECTION('center_axis',(0.,-1.,0.));
#1708=DIRECTION('ref_axis',(-1.,0.,0.));
#1709=DIRECTION('center_axis',(0.,1.,0.));
#1710=DIRECTION('ref_axis',(-1.,0.,0.));
#1711=DIRECTION('center_axis',(0.,1.,0.));
#1712=DIRECTION('ref_axis',(0.,0.,1.));
#1713=DIRECTION('center_axis',(0.,-1.,0.));
#1714=DIRECTION('ref_axis',(1.,0.,0.));
#1715=DIRECTION('',(-1.,0.,0.));
#1716=DIRECTION('center_axis',(0.,-1.,0.));
#1717=DIRECTION('ref_axis',(0.,0.,-1.));
#1718=DIRECTION('',(0.,0.,-1.));
#1719=DIRECTION('',(-1.,0.,0.));
#1720=DIRECTION('',(0.,0.,1.));
#1721=DIRECTION('center_axis',(1.,0.,0.));
#1722=DIRECTION('ref_axis',(0.,1.,0.));
#1723=DIRECTION('',(0.,1.,0.));
#1724=DIRECTION('',(0.,0.,1.));
#1725=DIRECTION('center_axis',(0.,-1.,0.));
#1726=DIRECTION('ref_axis',(0.,0.,-1.));
#1727=DIRECTION('',(0.,0.,-1.));
#1728=DIRECTION('',(-1.,0.,0.));
#1729=DIRECTION('',(0.,0.,1.));
#1730=DIRECTION('center_axis',(1.,0.,0.));
#1731=DIRECTION('ref_axis',(0.,1.,0.));
#1732=DIRECTION('',(0.,1.,0.));
#1733=DIRECTION('',(0.,0.,1.));
#1734=DIRECTION('center_axis',(0.,-1.,0.));
#1735=DIRECTION('ref_axis',(0.,0.,-1.));
#1736=DIRECTION('',(0.,0.,-1.));
#1737=DIRECTION('',(-1.,0.,0.));
#1738=DIRECTION('',(0.,0.,1.));
#1739=DIRECTION('center_axis',(1.,0.,0.));
#1740=DIRECTION('ref_axis',(0.,1.,0.));
#1741=DIRECTION('',(0.,1.,0.));
#1742=DIRECTION('',(0.,0.,1.));
#1743=DIRECTION('center_axis',(0.,-1.,0.));
#1744=DIRECTION('ref_axis',(0.,0.,-1.));
#1745=DIRECTION('',(0.,0.,-1.));
#1746=DIRECTION('',(-1.,0.,0.));
#1747=DIRECTION('',(0.,0.,1.));
#1748=DIRECTION('center_axis',(1.,0.,0.));
#1749=DIRECTION('ref_axis',(0.,1.,0.));
#1750=DIRECTION('',(0.,1.,0.));
#1751=DIRECTION('center_axis',(0.,-1.,0.));
#1752=DIRECTION('ref_axis',(0.,0.,-1.));
#1753=DIRECTION('',(0.,0.,-1.));
#1754=DIRECTION('',(-1.,0.,0.));
#1755=DIRECTION('',(0.,0.,1.));
#1756=DIRECTION('center_axis',(1.,0.,0.));
#1757=DIRECTION('ref_axis',(0.,1.,0.));
#1758=DIRECTION('',(0.,1.,0.));
#1759=DIRECTION('',(0.,0.,1.));
#1760=DIRECTION('center_axis',(0.,-1.,0.));
#1761=DIRECTION('ref_axis',(0.,0.,-1.));
#1762=DIRECTION('',(0.,0.,-1.));
#1763=DIRECTION('',(-1.,0.,0.));
#1764=DIRECTION('',(0.,0.,1.));
#1765=DIRECTION('center_axis',(1.,0.,0.));
#1766=DIRECTION('ref_axis',(0.,1.,0.));
#1767=DIRECTION('',(0.,1.,0.));
#1768=DIRECTION('',(0.,0.,1.));
#1769=DIRECTION('center_axis',(0.,0.,1.));
#1770=DIRECTION('ref_axis',(1.,0.,0.));
#1771=DIRECTION('',(0.,-1.,0.));
#1772=DIRECTION('',(-1.,0.,0.));
#1773=DIRECTION('',(0.,-1.,0.));
#1774=DIRECTION('',(-1.,0.,0.));
#1775=DIRECTION('',(0.,-1.,0.));
#1776=DIRECTION('',(0.,-1.,0.));
#1777=DIRECTION('',(-1.,0.,0.));
#1778=DIRECTION('',(-1.,0.,0.));
#1779=DIRECTION('',(0.,-1.,0.));
#1780=DIRECTION('',(-1.,0.,0.));
#1781=DIRECTION('',(0.,-1.,0.));
#1782=DIRECTION('center_axis',(-1.,0.,0.));
#1783=DIRECTION('ref_axis',(0.,-1.,0.));
#1784=DIRECTION('center_axis',(0.,1.,0.));
#1785=DIRECTION('ref_axis',(-1.,0.,0.));
#1786=DIRECTION('',(0.,0.,1.));
#1787=DIRECTION('center_axis',(-1.,0.,0.));
#1788=DIRECTION('ref_axis',(0.,-1.,0.));
#1789=DIRECTION('center_axis',(-1.,0.,0.));
#1790=DIRECTION('ref_axis',(0.,-1.,0.));
#1791=DIRECTION('',(0.,0.,1.));
#1792=DIRECTION('center_axis',(0.,1.,0.));
#1793=DIRECTION('ref_axis',(-1.,0.,0.));
#1794=DIRECTION('center_axis',(-1.,0.,0.));
#1795=DIRECTION('ref_axis',(0.,-1.,0.));
#1796=DIRECTION('',(0.,0.,1.));
#1797=DIRECTION('center_axis',(0.,1.,0.));
#1798=DIRECTION('ref_axis',(-1.,0.,0.));
#1799=DIRECTION('center_axis',(0.,1.,0.));
#1800=DIRECTION('ref_axis',(-1.,0.,0.));
#1801=DIRECTION('',(0.,0.,1.));
#1802=DIRECTION('center_axis',(-1.,0.,0.));
#1803=DIRECTION('ref_axis',(0.,-1.,0.));
#1804=DIRECTION('center_axis',(-1.,0.,0.));
#1805=DIRECTION('ref_axis',(0.,-1.,0.));
#1806=DIRECTION('',(0.,0.,1.));
#1807=DIRECTION('center_axis',(0.,1.,0.));
#1808=DIRECTION('ref_axis',(-1.,0.,0.));
#1809=CARTESIAN_POINT('',(0.,0.,0.));
#1810=CARTESIAN_POINT('Origin',(6.80000231787563,13.,45.8));
#1811=CARTESIAN_POINT('',(-42.,13.,51.8));
#1812=CARTESIAN_POINT('',(-42.,7.,45.8));
#1813=CARTESIAN_POINT('Origin',(-42.,13.,45.8));
#1814=CARTESIAN_POINT('',(-37.,7.,45.8));
#1815=CARTESIAN_POINT('',(6.80000231787563,7.,45.8));
#1816=CARTESIAN_POINT('',(-37.,13.,51.8));
#1817=CARTESIAN_POINT('Origin',(-37.,13.,45.8));
#1818=CARTESIAN_POINT('',(6.80000231787563,13.,51.8));
#1819=CARTESIAN_POINT('Origin',(-42.,22.,0.));
#1820=CARTESIAN_POINT('',(-42.,34.0000007124618,51.8));
#1821=CARTESIAN_POINT('',(-42.,34.0000007124618,51.8));
#1822=CARTESIAN_POINT('',(-42.,34.,-2.));
#1823=CARTESIAN_POINT('',(-42.,34.,0.));
#1824=CARTESIAN_POINT('',(-42.,-40.,-2.));
#1825=CARTESIAN_POINT('',(-42.,34.,-2.));
#1826=CARTESIAN_POINT('',(-42.,-40.,28.));
#1827=CARTESIAN_POINT('',(-42.,-40.,0.));
#1828=CARTESIAN_POINT('',(-42.,7.,28.));
#1829=CARTESIAN_POINT('',(-42.,-40.,28.));
#1830=CARTESIAN_POINT('',(-42.,7.,28.));
#1831=CARTESIAN_POINT('Origin',(55.6000046357513,20.5000003562309,51.8));
#1832=CARTESIAN_POINT('',(-37.,14.,51.8));
#1833=CARTESIAN_POINT('',(-37.,13.7500001781154,51.8));
#1834=CARTESIAN_POINT('',(158.2,14.,51.8));
#1835=CARTESIAN_POINT('',(12.8000023178756,14.,51.8));
#1836=CARTESIAN_POINT('',(158.2,13.,51.8));
#1837=CARTESIAN_POINT('',(158.2,17.2500001781154,51.8));
#1838=CARTESIAN_POINT('',(163.200009271502,13.,51.8));
#1839=CARTESIAN_POINT('',(98.4000023178756,13.,51.8));
#1840=CARTESIAN_POINT('',(163.200009271502,34.0000007124618,51.8));
#1841=CARTESIAN_POINT('',(163.200009271502,7.,51.8));
#1842=CARTESIAN_POINT('',(153.200009271502,34.0000007124618,51.8));
#1843=CARTESIAN_POINT('Origin',(98.4000023178756,13.,45.8));
#1844=CARTESIAN_POINT('',(163.200009271502,7.,45.8));
#1845=CARTESIAN_POINT('Origin',(163.2,13.,45.8));
#1846=CARTESIAN_POINT('',(158.2,7.,45.8));
#1847=CARTESIAN_POINT('Origin',(158.2,13.,45.8));
#1848=CARTESIAN_POINT('',(98.4000023178756,7.,45.8));
#1849=CARTESIAN_POINT('Origin',(158.2,14.,28.));
#1850=CARTESIAN_POINT('',(158.2,14.,28.));
#1851=CARTESIAN_POINT('',(158.2,14.,28.));
#1852=CARTESIAN_POINT('',(158.2,7.,28.));
#1853=CARTESIAN_POINT('',(158.2,2.5,28.));
#1854=CARTESIAN_POINT('',(158.2,7.,28.));
#1855=CARTESIAN_POINT('Origin',(-37.,7.,28.));
#1856=CARTESIAN_POINT('',(-37.,7.,28.));
#1857=CARTESIAN_POINT('',(-37.,7.,28.));
#1858=CARTESIAN_POINT('',(-37.,14.,28.));
#1859=CARTESIAN_POINT('',(-37.,-1.,28.));
#1860=CARTESIAN_POINT('',(-37.,14.,28.));
#1861=CARTESIAN_POINT('Origin',(-42.,7.,28.));
#1862=CARTESIAN_POINT('',(6.80000000000001,7.,28.));
#1863=CARTESIAN_POINT('Origin',(141.2,7.,28.));
#1864=CARTESIAN_POINT('',(163.200009271502,7.,28.));
#1865=CARTESIAN_POINT('',(153.200009271502,7.,28.));
#1866=CARTESIAN_POINT('',(163.200009271502,7.,28.));
#1867=CARTESIAN_POINT('Origin',(163.2,-40.,0.));
#1868=CARTESIAN_POINT('',(163.2,-40.,28.));
#1869=CARTESIAN_POINT('',(163.2,-40.,28.));
#1870=CARTESIAN_POINT('',(163.2,-40.,-2.));
#1871=CARTESIAN_POINT('',(163.2,-40.,0.));
#1872=CARTESIAN_POINT('',(163.2,34.,-2.));
#1873=CARTESIAN_POINT('',(163.2,-40.,-2.));
#1874=CARTESIAN_POINT('',(163.2,34.,28.));
#1875=CARTESIAN_POINT('',(163.2,34.,0.));
#1876=CARTESIAN_POINT('',(163.200009271502,34.0000007124618,46.8));
#1877=CARTESIAN_POINT('',(163.200009271502,34.0000007124618,28.));
#1878=CARTESIAN_POINT('',(163.200009271502,34.0000007124618,46.8));
#1879=CARTESIAN_POINT('Origin',(55.6,-3.,0.));
#1880=CARTESIAN_POINT('',(141.2,7.,0.));
#1881=CARTESIAN_POINT('',(141.2,-40.,0.));
#1882=CARTESIAN_POINT('',(141.2,-38.,0.));
#1883=CARTESIAN_POINT('',(121.,7.,0.));
#1884=CARTESIAN_POINT('',(-42.,7.,0.));
#1885=CARTESIAN_POINT('',(121.,-40.,0.));
#1886=CARTESIAN_POINT('',(121.,-23.5,0.));
#1887=CARTESIAN_POINT('',(-42.,-40.,0.));
#1888=CARTESIAN_POINT('Origin',(55.6,-3.,0.));
#1889=CARTESIAN_POINT('',(90.8,7.,0.));
#1890=CARTESIAN_POINT('',(90.8,-40.0000005960464,0.));
#1891=CARTESIAN_POINT('',(90.8,-23.5,0.));
#1892=CARTESIAN_POINT('',(111.000001654029,-40.0000005960464,0.));
#1893=CARTESIAN_POINT('',(-42.,-40.,0.));
#1894=CARTESIAN_POINT('',(111.,7.,0.));
#1895=CARTESIAN_POINT('',(111.,20.,0.));
#1896=CARTESIAN_POINT('',(-42.,7.,0.));
#1897=CARTESIAN_POINT('Origin',(55.6,-3.,0.));
#1898=CARTESIAN_POINT('',(-9.8,-40.0000005960464,0.));
#1899=CARTESIAN_POINT('',(-9.8,7.,0.));
#1900=CARTESIAN_POINT('',(-9.8,-24.5000002980232,0.));
#1901=CARTESIAN_POINT('',(-30.,7.,0.));
#1902=CARTESIAN_POINT('',(-42.,7.,0.));
#1903=CARTESIAN_POINT('',(-30.0000004470348,-40.0000005960464,0.));
#1904=CARTESIAN_POINT('',(-30.0000004470348,-23.5,0.));
#1905=CARTESIAN_POINT('',(-42.,-40.,0.));
#1906=CARTESIAN_POINT('Origin',(55.6,-3.,0.));
#1907=CARTESIAN_POINT('',(60.6,7.,0.));
#1908=CARTESIAN_POINT('',(60.6,-40.0000005960464,0.));
#1909=CARTESIAN_POINT('',(60.6,-23.5,0.));
#1910=CARTESIAN_POINT('',(80.8,-40.0000005960464,0.));
#1911=CARTESIAN_POINT('',(-42.,-40.,0.));
#1912=CARTESIAN_POINT('',(80.8,7.,0.));
#1913=CARTESIAN_POINT('',(80.8,-24.5000002980232,0.));
#1914=CARTESIAN_POINT('',(-42.,7.,0.));
#1915=CARTESIAN_POINT('Origin',(55.6,-3.,0.));
#1916=CARTESIAN_POINT('',(30.4,7.,0.));
#1917=CARTESIAN_POINT('',(30.4,-40.,0.));
#1918=CARTESIAN_POINT('',(30.4,-23.5,0.));
#1919=CARTESIAN_POINT('',(50.6,-40.,0.));
#1920=CARTESIAN_POINT('',(-42.,-40.,0.));
#1921=CARTESIAN_POINT('',(50.6,7.,0.));
#1922=CARTESIAN_POINT('',(50.6,-24.5,0.));
#1923=CARTESIAN_POINT('',(-42.,7.,0.));
#1924=CARTESIAN_POINT('Origin',(55.6,-3.,-2.));
#1925=CARTESIAN_POINT('',(153.2,34.,-2.));
#1926=CARTESIAN_POINT('',(153.2,-40.,-2.));
#1927=CARTESIAN_POINT('Origin',(55.6,-3.,0.));
#1928=CARTESIAN_POINT('',(0.200000000000005,7.,0.));
#1929=CARTESIAN_POINT('',(0.200000000000005,-39.9999991059303,0.));
#1930=CARTESIAN_POINT('',(0.200000000000005,-23.5,0.));
#1931=CARTESIAN_POINT('',(20.3999995440245,-39.9999991059303,0.));
#1932=CARTESIAN_POINT('',(-42.,-40.,0.));
#1933=CARTESIAN_POINT('',(20.4,7.,0.));
#1934=CARTESIAN_POINT('',(20.3999995440245,-24.4999995529652,0.));
#1935=CARTESIAN_POINT('',(-42.,7.,0.));
#1936=CARTESIAN_POINT('Origin',(70.7,-39.0000002980232,12.));
#1937=CARTESIAN_POINT('',(60.6,-38.,12.));
#1938=CARTESIAN_POINT('',(60.6,-40.0000005960464,12.));
#1939=CARTESIAN_POINT('',(60.6,-40.0000005960464,12.));
#1940=CARTESIAN_POINT('',(80.8,-38.,12.));
#1941=CARTESIAN_POINT('',(75.75,-38.,12.));
#1942=CARTESIAN_POINT('',(80.8,-40.0000005960464,12.));
#1943=CARTESIAN_POINT('',(80.8,-38.,12.));
#1944=CARTESIAN_POINT('',(14.35,-40.,12.));
#1945=CARTESIAN_POINT('Origin',(-19.9000002235174,-39.0000002980232,12.));
#1946=CARTESIAN_POINT('',(-9.8,-38.,12.));
#1947=CARTESIAN_POINT('',(-30.0000004470348,-38.,12.));
#1948=CARTESIAN_POINT('',(-14.8500001117587,-38.,12.));
#1949=CARTESIAN_POINT('',(-9.8,-40.0000005960464,12.));
#1950=CARTESIAN_POINT('',(-9.8,-40.0000005960464,12.));
#1951=CARTESIAN_POINT('',(-30.0000004470348,-40.0000005960464,12.));
#1952=CARTESIAN_POINT('',(-30.9500001117587,-40.,12.));
#1953=CARTESIAN_POINT('',(-30.0000004470348,-38.,12.));
#1954=CARTESIAN_POINT('Origin',(100.900000827014,-39.0000002980232,12.));
#1955=CARTESIAN_POINT('',(90.8,-38.,12.));
#1956=CARTESIAN_POINT('',(90.8,-40.0000005960464,12.));
#1957=CARTESIAN_POINT('',(90.8,-40.0000005960464,12.));
#1958=CARTESIAN_POINT('',(111.000001654029,-38.,12.));
#1959=CARTESIAN_POINT('',(105.950000413507,-38.,12.));
#1960=CARTESIAN_POINT('',(111.000001654029,-40.0000005960464,12.));
#1961=CARTESIAN_POINT('',(111.000001654029,-38.,12.));
#1962=CARTESIAN_POINT('',(29.4500004135072,-40.,12.));
#1963=CARTESIAN_POINT('Origin',(40.5,-39.,12.));
#1964=CARTESIAN_POINT('',(30.4,-38.,12.));
#1965=CARTESIAN_POINT('',(30.4,-40.,12.));
#1966=CARTESIAN_POINT('',(30.4,-40.,12.));
#1967=CARTESIAN_POINT('',(50.6,-38.,12.));
#1968=CARTESIAN_POINT('',(45.55,-38.,12.));
#1969=CARTESIAN_POINT('',(50.6,-40.,12.));
#1970=CARTESIAN_POINT('',(50.6,-38.,12.));
#1971=CARTESIAN_POINT('',(-0.749999999999997,-40.,12.));
#1972=CARTESIAN_POINT('Origin',(10.2999997720122,-38.9999995529652,12.));
#1973=CARTESIAN_POINT('',(0.200000000000005,-38.,12.));
#1974=CARTESIAN_POINT('',(0.200000000000005,-39.9999991059303,12.));
#1975=CARTESIAN_POINT('',(0.200000000000005,-39.9999991059303,12.));
#1976=CARTESIAN_POINT('',(20.3999995440245,-38.,12.));
#1977=CARTESIAN_POINT('',(15.3499998860061,-38.,12.));
#1978=CARTESIAN_POINT('',(20.3999995440245,-39.9999991059303,12.));
#1979=CARTESIAN_POINT('',(20.3999995440245,-38.,12.));
#1980=CARTESIAN_POINT('',(-15.8500001139939,-40.,12.));
#1981=CARTESIAN_POINT('Origin',(131.1,-39.,12.));
#1982=CARTESIAN_POINT('',(121.,-38.,12.));
#1983=CARTESIAN_POINT('',(121.,-40.,12.));
#1984=CARTESIAN_POINT('',(121.,-40.,12.));
#1985=CARTESIAN_POINT('',(141.2,-38.,12.));
#1986=CARTESIAN_POINT('',(136.15,-38.,12.));
#1987=CARTESIAN_POINT('',(141.2,-40.,12.));
#1988=CARTESIAN_POINT('',(141.2,-38.,12.));
#1989=CARTESIAN_POINT('',(44.55,-40.,12.));
#1990=CARTESIAN_POINT('Origin',(-9.8,-38.,0.));
#1991=CARTESIAN_POINT('',(-30.,-38.,28.));
#1992=CARTESIAN_POINT('',(-30.,-38.,0.));
#1993=CARTESIAN_POINT('',(-9.8,-38.,28.));
#1994=CARTESIAN_POINT('',(-42.,-38.,28.));
#1995=CARTESIAN_POINT('',(-9.8,-38.,0.));
#1996=CARTESIAN_POINT('Origin',(-42.,-40.,0.));
#1997=CARTESIAN_POINT('',(-40.,-40.,28.));
#1998=CARTESIAN_POINT('',(0.200000000000005,-40.,0.));
#1999=CARTESIAN_POINT('',(20.3999995440245,-40.,0.));
#2000=CARTESIAN_POINT('',(30.4,-40.,0.));
#2001=CARTESIAN_POINT('',(50.6,-40.,0.));
#2002=CARTESIAN_POINT('',(-30.0000004470348,-40.,0.));
#2003=CARTESIAN_POINT('',(-9.8,-40.,0.));
#2004=CARTESIAN_POINT('',(60.6,-40.,0.));
#2005=CARTESIAN_POINT('',(80.8,-40.,0.));
#2006=CARTESIAN_POINT('',(90.8,-40.,0.));
#2007=CARTESIAN_POINT('',(111.000001654029,-40.,0.));
#2008=CARTESIAN_POINT('',(121.,-40.,0.));
#2009=CARTESIAN_POINT('',(141.2,-40.,0.));
#2010=CARTESIAN_POINT('Origin',(60.5,22.,46.8));
#2011=CARTESIAN_POINT('',(61.25,22.,46.8));
#2012=CARTESIAN_POINT('Origin',(60.5,22.,46.8));
#2013=CARTESIAN_POINT('',(61.25,14.,46.8));
#2014=CARTESIAN_POINT('',(61.25,22.,46.8));
#2015=CARTESIAN_POINT('Origin',(60.5,14.,46.8));
#2016=CARTESIAN_POINT('Origin',(151.1,22.,46.8));
#2017=CARTESIAN_POINT('',(151.85,22.,46.8));
#2018=CARTESIAN_POINT('Origin',(151.1,22.,46.8));
#2019=CARTESIAN_POINT('',(151.85,14.,46.8));
#2020=CARTESIAN_POINT('',(151.85,22.,46.8));
#2021=CARTESIAN_POINT('Origin',(151.1,14.,46.8));
#2022=CARTESIAN_POINT('Origin',(30.3,22.,46.8));
#2023=CARTESIAN_POINT('',(31.05,22.,46.8));
#2024=CARTESIAN_POINT('Origin',(30.3,22.,46.8));
#2025=CARTESIAN_POINT('',(31.05,14.,46.8));
#2026=CARTESIAN_POINT('',(31.05,22.,46.8));
#2027=CARTESIAN_POINT('Origin',(30.3,14.,46.8));
#2028=CARTESIAN_POINT('Origin',(90.7,22.,46.8));
#2029=CARTESIAN_POINT('',(91.45,22.,46.8));
#2030=CARTESIAN_POINT('Origin',(90.7,22.,46.8));
#2031=CARTESIAN_POINT('',(91.45,14.,46.8));
#2032=CARTESIAN_POINT('',(91.45,22.,46.8));
#2033=CARTESIAN_POINT('Origin',(90.7,14.,46.8));
#2034=CARTESIAN_POINT('Origin',(120.9,22.,46.8));
#2035=CARTESIAN_POINT('',(121.65,22.,46.8));
#2036=CARTESIAN_POINT('Origin',(120.9,22.,46.8));
#2037=CARTESIAN_POINT('',(121.65,14.,46.8));
#2038=CARTESIAN_POINT('',(121.65,22.,46.8));
#2039=CARTESIAN_POINT('Origin',(120.9,14.,46.8));
#2040=CARTESIAN_POINT('Origin',(0.0999999999999979,22.,46.8));
#2041=CARTESIAN_POINT('',(0.849999999999995,22.,46.8));
#2042=CARTESIAN_POINT('Origin',(0.0999999999999979,22.,46.8));
#2043=CARTESIAN_POINT('',(0.849999999999995,14.,46.8));
#2044=CARTESIAN_POINT('',(0.849999999999995,22.,46.8));
#2045=CARTESIAN_POINT('Origin',(0.0999999999999979,14.,46.8));
#2046=CARTESIAN_POINT('Origin',(60.5,34.,46.8));
#2047=CARTESIAN_POINT('',(62.65,34.,46.8));
#2048=CARTESIAN_POINT('Origin',(60.5,34.,46.8));
#2049=CARTESIAN_POINT('',(62.65,22.,46.8));
#2050=CARTESIAN_POINT('',(62.65,34.,46.8));
#2051=CARTESIAN_POINT('Origin',(60.5,22.,46.8));
#2052=CARTESIAN_POINT('Origin',(35.5,22.,46.8));
#2053=CARTESIAN_POINT('Origin',(151.100077755892,34.,46.8));
#2054=CARTESIAN_POINT('',(153.250077755892,34.,46.8));
#2055=CARTESIAN_POINT('Origin',(151.100077755892,34.,46.8));
#2056=CARTESIAN_POINT('',(153.250077755892,22.,46.8));
#2057=CARTESIAN_POINT('',(153.250077755892,34.,46.8));
#2058=CARTESIAN_POINT('Origin',(151.100077755892,22.,46.8));
#2059=CARTESIAN_POINT('Origin',(126.100077755892,22.,46.8));
#2060=CARTESIAN_POINT('Origin',(30.300077755892,34.,46.8));
#2061=CARTESIAN_POINT('',(32.450077755892,34.,46.8));
#2062=CARTESIAN_POINT('Origin',(30.300077755892,34.,46.8));
#2063=CARTESIAN_POINT('',(32.450077755892,22.,46.8));
#2064=CARTESIAN_POINT('',(32.450077755892,34.,46.8));
#2065=CARTESIAN_POINT('Origin',(30.300077755892,22.,46.8));
#2066=CARTESIAN_POINT('Origin',(5.30007775589197,22.,46.8));
#2067=CARTESIAN_POINT('Origin',(90.700077755892,34.,46.8));
#2068=CARTESIAN_POINT('',(92.850077755892,34.,46.8));
#2069=CARTESIAN_POINT('Origin',(90.700077755892,34.,46.8));
#2070=CARTESIAN_POINT('',(92.850077755892,22.,46.8));
#2071=CARTESIAN_POINT('',(92.850077755892,34.,46.8));
#2072=CARTESIAN_POINT('Origin',(90.700077755892,22.,46.8));
#2073=CARTESIAN_POINT('Origin',(65.700077755892,22.,46.8));
#2074=CARTESIAN_POINT('Origin',(120.9,34.,46.8));
#2075=CARTESIAN_POINT('',(123.05,34.,46.8));
#2076=CARTESIAN_POINT('Origin',(120.9,34.,46.8));
#2077=CARTESIAN_POINT('',(123.05,22.,46.8));
#2078=CARTESIAN_POINT('',(123.05,34.,46.8));
#2079=CARTESIAN_POINT('Origin',(120.9,22.,46.8));
#2080=CARTESIAN_POINT('Origin',(95.9,22.,46.8));
#2081=CARTESIAN_POINT('Origin',(0.0999999999999979,34.,46.8));
#2082=CARTESIAN_POINT('',(2.25,34.,46.8));
#2083=CARTESIAN_POINT('Origin',(0.0999999999999979,34.,46.8));
#2084=CARTESIAN_POINT('',(2.25,22.,46.8));
#2085=CARTESIAN_POINT('',(2.25,34.,46.8));
#2086=CARTESIAN_POINT('Origin',(0.0999999999999979,22.,46.8));
#2087=CARTESIAN_POINT('Origin',(-24.9,22.,46.8));
#2088=CARTESIAN_POINT('Origin',(153.2,34.,0.));
#2089=CARTESIAN_POINT('Origin',(-30.,14.,28.));
#2090=CARTESIAN_POINT('',(12.8,14.,28.));
#2091=CARTESIAN_POINT('Origin',(121.,7.,0.));
#2092=CARTESIAN_POINT('',(141.2,7.,28.));
#2093=CARTESIAN_POINT('',(141.2,7.,0.));
#2094=CARTESIAN_POINT('',(121.,7.,28.));
#2095=CARTESIAN_POINT('',(-42.,7.,28.));
#2096=CARTESIAN_POINT('',(121.,7.,0.));
#2097=CARTESIAN_POINT('Origin',(121.,-38.,0.));
#2098=CARTESIAN_POINT('',(121.,-38.,28.));
#2099=CARTESIAN_POINT('',(121.,-38.,28.));
#2100=CARTESIAN_POINT('',(121.,-38.,0.));
#2101=CARTESIAN_POINT('Origin',(60.6,7.,0.));
#2102=CARTESIAN_POINT('',(80.8,7.,28.));
#2103=CARTESIAN_POINT('',(80.8,7.,0.));
#2104=CARTESIAN_POINT('',(60.6,7.,28.));
#2105=CARTESIAN_POINT('',(-42.,7.,28.));
#2106=CARTESIAN_POINT('',(60.6,7.,0.));
#2107=CARTESIAN_POINT('Origin',(60.6,-38.,0.));
#2108=CARTESIAN_POINT('',(60.6,-38.,28.));
#2109=CARTESIAN_POINT('',(60.6,-38.,28.));
#2110=CARTESIAN_POINT('',(60.6,-38.,0.));
#2111=CARTESIAN_POINT('Origin',(0.200000000000005,7.,0.));
#2112=CARTESIAN_POINT('',(20.4,7.,28.));
#2113=CARTESIAN_POINT('',(20.4,7.,0.));
#2114=CARTESIAN_POINT('',(0.199999999999996,7.,28.));
#2115=CARTESIAN_POINT('',(-42.,7.,28.));
#2116=CARTESIAN_POINT('',(0.2,7.,0.));
#2117=CARTESIAN_POINT('Origin',(0.2,-38.,0.));
#2118=CARTESIAN_POINT('',(0.199999999999996,-38.,28.));
#2119=CARTESIAN_POINT('',(0.2,-38.,28.));
#2120=CARTESIAN_POINT('',(0.200000000000005,-38.,0.));
#2121=CARTESIAN_POINT('Origin',(-30.,7.,0.));
#2122=CARTESIAN_POINT('',(-9.8,7.,28.));
#2123=CARTESIAN_POINT('',(-9.8,7.,0.));
#2124=CARTESIAN_POINT('',(-30.,7.,28.));
#2125=CARTESIAN_POINT('',(-42.,7.,28.));
#2126=CARTESIAN_POINT('',(-30.,7.,0.));
#2127=CARTESIAN_POINT('Origin',(-30.,-38.,0.));
#2128=CARTESIAN_POINT('',(-30.,-38.,28.));
#2129=CARTESIAN_POINT('Origin',(30.4,7.,0.));
#2130=CARTESIAN_POINT('',(50.6,7.,28.));
#2131=CARTESIAN_POINT('',(50.6,7.,0.));
#2132=CARTESIAN_POINT('',(30.4,7.,28.));
#2133=CARTESIAN_POINT('',(-42.,7.,28.));
#2134=CARTESIAN_POINT('',(30.4,7.,0.));
#2135=CARTESIAN_POINT('Origin',(30.4,-38.,0.));
#2136=CARTESIAN_POINT('',(30.4,-38.,28.));
#2137=CARTESIAN_POINT('',(30.4,-38.,28.));
#2138=CARTESIAN_POINT('',(30.4,-38.,0.));
#2139=CARTESIAN_POINT('Origin',(90.8,7.,0.));
#2140=CARTESIAN_POINT('',(111.,7.,28.));
#2141=CARTESIAN_POINT('',(111.,7.,0.));
#2142=CARTESIAN_POINT('',(90.8,7.,28.));
#2143=CARTESIAN_POINT('',(-42.,7.,28.));
#2144=CARTESIAN_POINT('',(90.8,7.,0.));
#2145=CARTESIAN_POINT('Origin',(90.8,-38.,0.));
#2146=CARTESIAN_POINT('',(90.8,-38.,28.));
#2147=CARTESIAN_POINT('',(90.8,20.,28.));
#2148=CARTESIAN_POINT('',(90.8,-38.,0.));
#2149=CARTESIAN_POINT('Origin',(55.6,-9.,28.));
#2150=CARTESIAN_POINT('',(141.2,-38.,28.));
#2151=CARTESIAN_POINT('',(141.2,-38.,28.));
#2152=CARTESIAN_POINT('',(-42.,-38.,28.));
#2153=CARTESIAN_POINT('',(-9.8,20.,28.));
#2154=CARTESIAN_POINT('',(80.8,-38.,28.));
#2155=CARTESIAN_POINT('',(-42.,-38.,28.));
#2156=CARTESIAN_POINT('',(80.8,20.,28.));
#2157=CARTESIAN_POINT('',(111.,-38.,28.));
#2158=CARTESIAN_POINT('',(111.,20.,28.));
#2159=CARTESIAN_POINT('',(-42.,-38.,28.));
#2160=CARTESIAN_POINT('',(50.6,-38.,28.));
#2161=CARTESIAN_POINT('',(-42.,-38.,28.));
#2162=CARTESIAN_POINT('',(50.6,20.,28.));
#2163=CARTESIAN_POINT('',(20.4,-38.,28.));
#2164=CARTESIAN_POINT('',(-42.,-38.,28.));
#2165=CARTESIAN_POINT('',(20.4,20.,28.));
#2166=CARTESIAN_POINT('Origin',(-9.8,20.,0.));
#2167=CARTESIAN_POINT('Origin',(141.2,-38.,0.));
#2168=CARTESIAN_POINT('',(141.2,-38.,0.));
#2169=CARTESIAN_POINT('Origin',(141.2,20.,0.));
#2170=CARTESIAN_POINT('Origin',(20.4,20.,0.));
#2171=CARTESIAN_POINT('',(20.4,-38.,0.));
#2172=CARTESIAN_POINT('Origin',(20.4,-38.,0.));
#2173=CARTESIAN_POINT('Origin',(50.6,20.,0.));
#2174=CARTESIAN_POINT('',(50.6,-38.,0.));
#2175=CARTESIAN_POINT('Origin',(50.6,-38.,0.));
#2176=CARTESIAN_POINT('Origin',(111.,-38.,0.));
#2177=CARTESIAN_POINT('',(111.,-38.,0.));
#2178=CARTESIAN_POINT('Origin',(111.,20.,0.));
#2179=CARTESIAN_POINT('Origin',(80.8,20.,0.));
#2180=CARTESIAN_POINT('',(80.8,-38.,0.));
#2181=CARTESIAN_POINT('Origin',(80.8,-38.,0.));
#2182=UNCERTAINTY_MEASURE_WITH_UNIT(LENGTH_MEASURE(0.01),#2186,
'DISTANCE_ACCURACY_VALUE',
'Maximum model space distance between geometric entities at asserted c
onnectivities');
#2183=UNCERTAINTY_MEASURE_WITH_UNIT(LENGTH_MEASURE(0.01),#2186,
'DISTANCE_ACCURACY_VALUE',
'Maximum model space distance between geometric entities at asserted c
onnectivities');
#2184=(
GEOMETRIC_REPRESENTATION_CONTEXT(3)
GLOBAL_UNCERTAINTY_ASSIGNED_CONTEXT((#2182))
GLOBAL_UNIT_ASSIGNED_CONTEXT((#2186,#2188,#2189))
REPRESENTATION_CONTEXT('','3D')
);
#2185=(
GEOMETRIC_REPRESENTATION_CONTEXT(3)
GLOBAL_UNCERTAINTY_ASSIGNED_CONTEXT((#2183))
GLOBAL_UNIT_ASSIGNED_CONTEXT((#2186,#2188,#2189))
REPRESENTATION_CONTEXT('','3D')
);
#2186=(
LENGTH_UNIT()
NAMED_UNIT(*)
SI_UNIT(.MILLI.,.METRE.)
);
#2187=(
LENGTH_UNIT()
NAMED_UNIT(*)
SI_UNIT($,.METRE.)
);
#2188=(
NAMED_UNIT(*)
PLANE_ANGLE_UNIT()
SI_UNIT($,.RADIAN.)
);
#2189=(
NAMED_UNIT(*)
SI_UNIT($,.STERADIAN.)
SOLID_ANGLE_UNIT()
);
#2190=SHAPE_DEFINITION_REPRESENTATION(#2191,#2192);
#2191=PRODUCT_DEFINITION_SHAPE('',$,#2194);
#2192=SHAPE_REPRESENTATION('',(#1364),#2184);
#2193=PRODUCT_DEFINITION_CONTEXT('part definition',#2198,'design');
#2194=PRODUCT_DEFINITION('ServoCase','ServoCase v4',#2195,#2193);
#2195=PRODUCT_DEFINITION_FORMATION('',$,#2200);
#2196=PRODUCT_RELATED_PRODUCT_CATEGORY('ServoCase v4','ServoCase v4',(#2200));
#2197=APPLICATION_PROTOCOL_DEFINITION('international standard',
'automotive_design',2009,#2198);
#2198=APPLICATION_CONTEXT(
'Core Data for Automotive Mechanical Design Process');
#2199=PRODUCT_CONTEXT('part definition',#2198,'mechanical');
#2200=PRODUCT('ServoCase','ServoCase v4',$,(#2199));
#2201=PRESENTATION_STYLE_ASSIGNMENT((#2202));
#2202=SURFACE_STYLE_USAGE(.BOTH.,#2203);
#2203=SURFACE_SIDE_STYLE('',(#2204));
#2204=SURFACE_STYLE_FILL_AREA(#2205);
#2205=FILL_AREA_STYLE('Steel - Satin',(#2206));
#2206=FILL_AREA_STYLE_COLOUR('Steel - Satin',#2207);
#2207=COLOUR_RGB('Steel - Satin',0.627450980392157,0.627450980392157,0.627450980392157);
ENDSEC;
END-ISO-10303-21;
