ISO-10303-21;
HEADER;
/* Generated by software containing ST-Developer
 * from STEP Tools, Inc. (www.steptools.com) 
 */

FILE_DESCRIPTION(
/* description */ (''),
/* implementation_level */ '2;1');

FILE_NAME(
/* name */ 'ServoPick.step',
/* time_stamp */ '2026-02-04T07:51:40+02:00',
/* author */ (''),
/* organization */ (''),
/* preprocessor_version */ 'ST-DEVELOPER v20.1',
/* originating_system */ 'Autodesk Translation Framework v14.21.0.0',
/* authorisation */ '');

FILE_SCHEMA (('AUTOMOTIVE_DESIGN { 1 0 10303 214 3 1 1 }'));
ENDSEC;

DATA;
#10=MECHANICAL_DESIGN_GEOMETRIC_PRESENTATION_REPRESENTATION('',(#13),#529);
#11=SHAPE_REPRESENTATION_RELATIONSHIP('SRR','None',#536,#12);
#12=ADVANCED_BREP_SHAPE_REPRESENTATION('',(#14),#528);
#13=STYLED_ITEM('',(#545),#14);
#14=MANIFOLD_SOLID_BREP('Body1',#233);
#15=FACE_BOUND('',#48,.T.);
#16=FACE_BOUND('',#54,.T.);
#17=FACE_BOUND('',#57,.T.);
#18=(
BOUNDED_CURVE()
B_SPLINE_CURVE(5,(#419,#420,#421,#422,#423,#424,#425,#426,#427,#428,#429,
#430,#431,#432,#433,#434,#435,#436,#437,#438,#439,#440,#441,#442,#443,#444,
#445,#446,#447,#448,#449,#450,#451,#452),.UNSPECIFIED.,.F.,.F.)
B_SPLINE_CURVE_WITH_KNOTS((6,1,1,1,1,1,1,1,1,1,1,1,1,1,1,1,1,1,1,1,1,1,
1,1,1,1,1,1,1,6),(0.,0.0285714285714286,0.0571428571428571,0.0857142857142857,
0.114285714285714,0.142857142857143,0.171428571428571,0.2,0.228571428571429,
0.257142857142857,0.285714285714286,0.314285714285714,0.342857142857143,
0.371428571428571,0.4,0.428571428571429,0.457142857142857,0.485714285714286,
0.514285714285714,0.542857142857143,0.571428571428572,0.6,0.628571428571429,
0.657142857142857,0.685714285714286,0.714285714285714,0.742857142857143,
0.771428571428572,0.8,0.809174160357103),.UNSPECIFIED.)
CURVE()
GEOMETRIC_REPRESENTATION_ITEM()
RATIONAL_B_SPLINE_CURVE((1.,1.,1.,1.,1.,1.,1.,1.,1.,1.,1.,1.,1.,1.,1.,1.,
1.,1.,1.,1.,1.,1.,1.,1.,1.,1.,1.,1.,1.,1.,1.,1.,1.,1.))
REPRESENTATION_ITEM('')
);
#19=(
BOUNDED_CURVE()
B_SPLINE_CURVE(5,(#456,#457,#458,#459,#460,#461,#462,#463,#464,#465,#466,
#467,#468,#469,#470,#471,#472,#473,#474,#475,#476,#477,#478,#479,#480,#481,
#482,#483,#484,#485,#486,#487,#488,#489),.UNSPECIFIED.,.F.,.F.)
B_SPLINE_CURVE_WITH_KNOTS((6,1,1,1,1,1,1,1,1,1,1,1,1,1,1,1,1,1,1,1,1,1,
1,1,1,1,1,1,1,6),(-0.809174160357103,-0.8,-0.771428571428572,-0.742857142857143,
-0.714285714285714,-0.685714285714286,-0.657142857142857,-0.628571428571429,
-0.6,-0.571428571428572,-0.542857142857143,-0.514285714285714,-0.485714285714286,
-0.457142857142857,-0.428571428571429,-0.4,-0.371428571428571,-0.342857142857143,
-0.314285714285714,-0.285714285714286,-0.257142857142857,-0.228571428571429,
-0.2,-0.171428571428571,-0.142857142857143,-0.114285714285714,-0.0857142857142857,
-0.0571428571428571,-0.0285714285714286,0.),.UNSPECIFIED.)
CURVE()
GEOMETRIC_REPRESENTATION_ITEM()
RATIONAL_B_SPLINE_CURVE((1.,1.,1.,1.,1.,1.,1.,1.,1.,1.,1.,1.,1.,1.,1.,1.,
1.,1.,1.,1.,1.,1.,1.,1.,1.,1.,1.,1.,1.,1.,1.,1.,1.,1.))
REPRESENTATION_ITEM('')
);
#20=(
BOUNDED_SURFACE()
B_SPLINE_SURFACE(5,1,((#349,#350),(#351,#352),(#353,#354),(#355,#356),(#357,
#358),(#359,#360),(#361,#362),(#363,#364),(#365,#366),(#367,#368),(#369,
#370),(#371,#372),(#373,#374),(#375,#376),(#377,#378),(#379,#380),(#381,
#382),(#383,#384),(#385,#386),(#387,#388),(#389,#390),(#391,#392),(#393,
#394),(#395,#396),(#397,#398),(#399,#400),(#401,#402),(#403,#404),(#405,
#406),(#407,#408),(#409,#410),(#411,#412),(#413,#414),(#415,#416)),
 .UNSPECIFIED.,.F.,.F.,.F.)
B_SPLINE_SURFACE_WITH_KNOTS((6,1,1,1,1,1,1,1,1,1,1,1,1,1,1,1,1,1,1,1,1,
1,1,1,1,1,1,1,1,6),(2,2),(-0.809174160357103,-0.8,-0.771428571428572,-0.742857142857143,
-0.714285714285714,-0.685714285714286,-0.657142857142857,-0.628571428571429,
-0.6,-0.571428571428572,-0.542857142857143,-0.514285714285714,-0.485714285714286,
-0.457142857142857,-0.428571428571429,-0.4,-0.371428571428571,-0.342857142857143,
-0.314285714285714,-0.285714285714286,-0.257142857142857,-0.228571428571429,
-0.2,-0.171428571428571,-0.142857142857143,-0.114285714285714,-0.0857142857142857,
-0.0571428571428571,-0.0285714285714286,0.),(0.,0.08),.UNSPECIFIED.)
GEOMETRIC_REPRESENTATION_ITEM()
RATIONAL_B_SPLINE_SURFACE(((1.,1.),(1.,1.),(1.,1.),(1.,1.),(1.,1.),(1.,
1.),(1.,1.),(1.,1.),(1.,1.),(1.,1.),(1.,1.),(1.,1.),(1.,1.),(1.,1.),(1.,
1.),(1.,1.),(1.,1.),(1.,1.),(1.,1.),(1.,1.),(1.,1.),(1.,1.),(1.,1.),(1.,
1.),(1.,1.),(1.,1.),(1.,1.),(1.,1.),(1.,1.),(1.,1.),(1.,1.),(1.,1.),(1.,
1.),(1.,1.)))
REPRESENTATION_ITEM('')
SURFACE()
);
#21=PLANE('',#250);
#22=PLANE('',#252);
#23=PLANE('',#253);
#24=PLANE('',#254);
#25=PLANE('',#257);
#26=PLANE('',#258);
#27=PLANE('',#262);
#28=PLANE('',#266);
#29=FACE_OUTER_BOUND('',#42,.T.);
#30=FACE_OUTER_BOUND('',#43,.T.);
#31=FACE_OUTER_BOUND('',#44,.T.);
#32=FACE_OUTER_BOUND('',#45,.T.);
#33=FACE_OUTER_BOUND('',#46,.T.);
#34=FACE_OUTER_BOUND('',#47,.T.);
#35=FACE_OUTER_BOUND('',#49,.T.);
#36=FACE_OUTER_BOUND('',#50,.T.);
#37=FACE_OUTER_BOUND('',#51,.T.);
#38=FACE_OUTER_BOUND('',#52,.T.);
#39=FACE_OUTER_BOUND('',#53,.T.);
#40=FACE_OUTER_BOUND('',#55,.T.);
#41=FACE_OUTER_BOUND('',#56,.T.);
#42=EDGE_LOOP('',(#156,#157,#158,#159));
#43=EDGE_LOOP('',(#160,#161,#162,#163,#164,#165));
#44=EDGE_LOOP('',(#166,#167,#168,#169));
#45=EDGE_LOOP('',(#170,#171,#172,#173,#174,#175));
#46=EDGE_LOOP('',(#176,#177,#178,#179));
#47=EDGE_LOOP('',(#180,#181,#182,#183,#184,#185));
#48=EDGE_LOOP('',(#186));
#49=EDGE_LOOP('',(#187,#188,#189,#190));
#50=EDGE_LOOP('',(#191,#192,#193,#194,#195,#196));
#51=EDGE_LOOP('',(#197,#198,#199,#200));
#52=EDGE_LOOP('',(#201,#202,#203,#204));
#53=EDGE_LOOP('',(#205));
#54=EDGE_LOOP('',(#206));
#55=EDGE_LOOP('',(#207,#208,#209,#210));
#56=EDGE_LOOP('',(#211,#212,#213,#214));
#57=EDGE_LOOP('',(#215));
#58=LINE('',#335,#78);
#59=LINE('',#338,#79);
#60=LINE('',#341,#80);
#61=LINE('',#343,#81);
#62=LINE('',#347,#82);
#63=LINE('',#348,#83);
#64=LINE('',#454,#84);
#65=LINE('',#490,#85);
#66=LINE('',#493,#86);
#67=LINE('',#494,#87);
#68=LINE('',#495,#88);
#69=LINE('',#498,#89);
#70=LINE('',#499,#90);
#71=LINE('',#504,#91);
#72=LINE('',#505,#92);
#73=LINE('',#509,#93);
#74=LINE('',#510,#94);
#75=LINE('',#512,#95);
#76=LINE('',#516,#96);
#77=LINE('',#523,#97);
#78=VECTOR('',#273,10.);
#79=VECTOR('',#276,10.);
#80=VECTOR('',#279,10.);
#81=VECTOR('',#280,10.);
#82=VECTOR('',#283,10.);
#83=VECTOR('',#284,10.);
#84=VECTOR('',#285,10.);
#85=VECTOR('',#286,10.);
#86=VECTOR('',#289,10.);
#87=VECTOR('',#290,10.);
#88=VECTOR('',#291,10.);
#89=VECTOR('',#294,10.);
#90=VECTOR('',#295,10.);
#91=VECTOR('',#300,10.);
#92=VECTOR('',#301,10.);
#93=VECTOR('',#306,10.);
#94=VECTOR('',#307,10.);
#95=VECTOR('',#310,10.);
#96=VECTOR('',#315,2.4);
#97=VECTOR('',#324,0.95);
#98=CIRCLE('',#248,2.81664088237235);
#99=CIRCLE('',#249,2.81664088237235);
#100=CIRCLE('',#251,3.4);
#101=CIRCLE('',#255,3.4);
#102=CIRCLE('',#256,2.4);
#103=CIRCLE('',#261,2.4);
#104=CIRCLE('',#263,0.95);
#105=CIRCLE('',#265,0.95);
#106=VERTEX_POINT('',#331);
#107=VERTEX_POINT('',#332);
#108=VERTEX_POINT('',#334);
#109=VERTEX_POINT('',#336);
#110=VERTEX_POINT('',#340);
#111=VERTEX_POINT('',#342);
#112=VERTEX_POINT('',#344);
#113=VERTEX_POINT('',#346);
#114=VERTEX_POINT('',#417);
#115=VERTEX_POINT('',#418);
#116=VERTEX_POINT('',#453);
#117=VERTEX_POINT('',#455);
#118=VERTEX_POINT('',#492);
#119=VERTEX_POINT('',#497);
#120=VERTEX_POINT('',#501);
#121=VERTEX_POINT('',#503);
#122=VERTEX_POINT('',#506);
#123=VERTEX_POINT('',#515);
#124=VERTEX_POINT('',#519);
#125=VERTEX_POINT('',#522);
#126=EDGE_CURVE('',#106,#107,#98,.T.);
#127=EDGE_CURVE('',#108,#106,#58,.T.);
#128=EDGE_CURVE('',#109,#108,#99,.T.);
#129=EDGE_CURVE('',#107,#109,#59,.T.);
#130=EDGE_CURVE('',#110,#108,#60,.T.);
#131=EDGE_CURVE('',#110,#111,#61,.T.);
#132=EDGE_CURVE('',#111,#112,#100,.T.);
#133=EDGE_CURVE('',#112,#113,#62,.T.);
#134=EDGE_CURVE('',#109,#113,#63,.T.);
#135=EDGE_CURVE('',#114,#115,#18,.T.);
#136=EDGE_CURVE('',#116,#114,#64,.T.);
#137=EDGE_CURVE('',#117,#116,#19,.T.);
#138=EDGE_CURVE('',#115,#117,#65,.T.);
#139=EDGE_CURVE('',#113,#118,#66,.T.);
#140=EDGE_CURVE('',#117,#118,#67,.T.);
#141=EDGE_CURVE('',#107,#116,#68,.T.);
#142=EDGE_CURVE('',#119,#112,#69,.T.);
#143=EDGE_CURVE('',#118,#119,#70,.T.);
#144=EDGE_CURVE('',#119,#120,#101,.T.);
#145=EDGE_CURVE('',#120,#121,#71,.T.);
#146=EDGE_CURVE('',#121,#115,#72,.T.);
#147=EDGE_CURVE('',#122,#122,#102,.T.);
#148=EDGE_CURVE('',#111,#120,#73,.T.);
#149=EDGE_CURVE('',#110,#121,#74,.T.);
#150=EDGE_CURVE('',#114,#106,#75,.T.);
#151=EDGE_CURVE('',#122,#123,#76,.T.);
#152=EDGE_CURVE('',#123,#123,#103,.T.);
#153=EDGE_CURVE('',#124,#124,#104,.T.);
#154=EDGE_CURVE('',#124,#125,#77,.T.);
#155=EDGE_CURVE('',#125,#125,#105,.T.);
#156=ORIENTED_EDGE('',*,*,#126,.F.);
#157=ORIENTED_EDGE('',*,*,#127,.F.);
#158=ORIENTED_EDGE('',*,*,#128,.F.);
#159=ORIENTED_EDGE('',*,*,#129,.F.);
#160=ORIENTED_EDGE('',*,*,#130,.F.);
#161=ORIENTED_EDGE('',*,*,#131,.T.);
#162=ORIENTED_EDGE('',*,*,#132,.T.);
#163=ORIENTED_EDGE('',*,*,#133,.T.);
#164=ORIENTED_EDGE('',*,*,#134,.F.);
#165=ORIENTED_EDGE('',*,*,#128,.T.);
#166=ORIENTED_EDGE('',*,*,#135,.F.);
#167=ORIENTED_EDGE('',*,*,#136,.F.);
#168=ORIENTED_EDGE('',*,*,#137,.F.);
#169=ORIENTED_EDGE('',*,*,#138,.F.);
#170=ORIENTED_EDGE('',*,*,#139,.T.);
#171=ORIENTED_EDGE('',*,*,#140,.F.);
#172=ORIENTED_EDGE('',*,*,#137,.T.);
#173=ORIENTED_EDGE('',*,*,#141,.F.);
#174=ORIENTED_EDGE('',*,*,#129,.T.);
#175=ORIENTED_EDGE('',*,*,#134,.T.);
#176=ORIENTED_EDGE('',*,*,#142,.F.);
#177=ORIENTED_EDGE('',*,*,#143,.F.);
#178=ORIENTED_EDGE('',*,*,#139,.F.);
#179=ORIENTED_EDGE('',*,*,#133,.F.);
#180=ORIENTED_EDGE('',*,*,#138,.T.);
#181=ORIENTED_EDGE('',*,*,#140,.T.);
#182=ORIENTED_EDGE('',*,*,#143,.T.);
#183=ORIENTED_EDGE('',*,*,#144,.T.);
#184=ORIENTED_EDGE('',*,*,#145,.T.);
#185=ORIENTED_EDGE('',*,*,#146,.T.);
#186=ORIENTED_EDGE('',*,*,#147,.T.);
#187=ORIENTED_EDGE('',*,*,#148,.F.);
#188=ORIENTED_EDGE('',*,*,#131,.F.);
#189=ORIENTED_EDGE('',*,*,#149,.T.);
#190=ORIENTED_EDGE('',*,*,#145,.F.);
#191=ORIENTED_EDGE('',*,*,#127,.T.);
#192=ORIENTED_EDGE('',*,*,#150,.F.);
#193=ORIENTED_EDGE('',*,*,#135,.T.);
#194=ORIENTED_EDGE('',*,*,#146,.F.);
#195=ORIENTED_EDGE('',*,*,#149,.F.);
#196=ORIENTED_EDGE('',*,*,#130,.T.);
#197=ORIENTED_EDGE('',*,*,#148,.T.);
#198=ORIENTED_EDGE('',*,*,#144,.F.);
#199=ORIENTED_EDGE('',*,*,#142,.T.);
#200=ORIENTED_EDGE('',*,*,#132,.F.);
#201=ORIENTED_EDGE('',*,*,#147,.F.);
#202=ORIENTED_EDGE('',*,*,#151,.T.);
#203=ORIENTED_EDGE('',*,*,#152,.T.);
#204=ORIENTED_EDGE('',*,*,#151,.F.);
#205=ORIENTED_EDGE('',*,*,#152,.F.);
#206=ORIENTED_EDGE('',*,*,#153,.F.);
#207=ORIENTED_EDGE('',*,*,#153,.T.);
#208=ORIENTED_EDGE('',*,*,#154,.T.);
#209=ORIENTED_EDGE('',*,*,#155,.T.);
#210=ORIENTED_EDGE('',*,*,#154,.F.);
#211=ORIENTED_EDGE('',*,*,#126,.T.);
#212=ORIENTED_EDGE('',*,*,#141,.T.);
#213=ORIENTED_EDGE('',*,*,#136,.T.);
#214=ORIENTED_EDGE('',*,*,#150,.T.);
#215=ORIENTED_EDGE('',*,*,#155,.F.);
#216=CYLINDRICAL_SURFACE('',#247,2.81664088237235);
#217=CYLINDRICAL_SURFACE('',#259,3.4);
#218=CYLINDRICAL_SURFACE('',#260,2.4);
#219=CYLINDRICAL_SURFACE('',#264,0.95);
#220=ADVANCED_FACE('',(#29),#216,.F.);
#221=ADVANCED_FACE('',(#30),#21,.T.);
#222=ADVANCED_FACE('',(#31),#20,.T.);
#223=ADVANCED_FACE('',(#32),#22,.F.);
#224=ADVANCED_FACE('',(#33),#23,.F.);
#225=ADVANCED_FACE('',(#34,#15),#24,.T.);
#226=ADVANCED_FACE('',(#35),#25,.F.);
#227=ADVANCED_FACE('',(#36),#26,.F.);
#228=ADVANCED_FACE('',(#37),#217,.T.);
#229=ADVANCED_FACE('',(#38),#218,.F.);
#230=ADVANCED_FACE('',(#39,#16),#27,.T.);
#231=ADVANCED_FACE('',(#40),#219,.F.);
#232=ADVANCED_FACE('',(#41,#17),#28,.F.);
#233=CLOSED_SHELL('',(#220,#221,#222,#223,#224,#225,#226,#227,#228,#229,
#230,#231,#232));
#234=DERIVED_UNIT_ELEMENT(#236,1.);
#235=DERIVED_UNIT_ELEMENT(#531,-3.);
#236=(
MASS_UNIT()
NAMED_UNIT(*)
SI_UNIT(.KILO.,.GRAM.)
);
#237=DERIVED_UNIT((#234,#235));
#238=MEASURE_REPRESENTATION_ITEM('density measure',
POSITIVE_RATIO_MEASURE(7850.),#237);
#239=PROPERTY_DEFINITION_REPRESENTATION(#244,#241);
#240=PROPERTY_DEFINITION_REPRESENTATION(#245,#242);
#241=REPRESENTATION('material name',(#243),#528);
#242=REPRESENTATION('density',(#238),#528);
#243=DESCRIPTIVE_REPRESENTATION_ITEM('Steel','Steel');
#244=PROPERTY_DEFINITION('material property','material name',#538);
#245=PROPERTY_DEFINITION('material property','density of part',#538);
#246=AXIS2_PLACEMENT_3D('',#329,#267,#268);
#247=AXIS2_PLACEMENT_3D('',#330,#269,#270);
#248=AXIS2_PLACEMENT_3D('',#333,#271,#272);
#249=AXIS2_PLACEMENT_3D('',#337,#274,#275);
#250=AXIS2_PLACEMENT_3D('',#339,#277,#278);
#251=AXIS2_PLACEMENT_3D('',#345,#281,#282);
#252=AXIS2_PLACEMENT_3D('',#491,#287,#288);
#253=AXIS2_PLACEMENT_3D('',#496,#292,#293);
#254=AXIS2_PLACEMENT_3D('',#500,#296,#297);
#255=AXIS2_PLACEMENT_3D('',#502,#298,#299);
#256=AXIS2_PLACEMENT_3D('',#507,#302,#303);
#257=AXIS2_PLACEMENT_3D('',#508,#304,#305);
#258=AXIS2_PLACEMENT_3D('',#511,#308,#309);
#259=AXIS2_PLACEMENT_3D('',#513,#311,#312);
#260=AXIS2_PLACEMENT_3D('',#514,#313,#314);
#261=AXIS2_PLACEMENT_3D('',#517,#316,#317);
#262=AXIS2_PLACEMENT_3D('',#518,#318,#319);
#263=AXIS2_PLACEMENT_3D('',#520,#320,#321);
#264=AXIS2_PLACEMENT_3D('',#521,#322,#323);
#265=AXIS2_PLACEMENT_3D('',#524,#325,#326);
#266=AXIS2_PLACEMENT_3D('',#525,#327,#328);
#267=DIRECTION('axis',(0.,0.,1.));
#268=DIRECTION('refdir',(1.,0.,0.));
#269=DIRECTION('center_axis',(0.,0.,-1.));
#270=DIRECTION('ref_axis',(-1.,4.00842813352134E-9,0.));
#271=DIRECTION('center_axis',(0.,0.,-1.));
#272=DIRECTION('ref_axis',(1.,0.,0.));
#273=DIRECTION('',(0.,0.,1.));
#274=DIRECTION('center_axis',(0.,0.,1.));
#275=DIRECTION('ref_axis',(1.,0.,0.));
#276=DIRECTION('',(0.,0.,-1.));
#277=DIRECTION('center_axis',(0.,0.,-1.));
#278=DIRECTION('ref_axis',(1.,0.,0.));
#279=DIRECTION('',(-1.,0.,0.));
#280=DIRECTION('',(0.,-1.,0.));
#281=DIRECTION('center_axis',(0.,0.,-1.));
#282=DIRECTION('ref_axis',(1.,0.,0.));
#283=DIRECTION('',(-5.5511151231257E-15,-1.,0.));
#284=DIRECTION('',(1.,0.,0.));
#285=DIRECTION('',(0.,-1.,0.));
#286=DIRECTION('',(0.,1.,0.));
#287=DIRECTION('center_axis',(0.,-1.,0.));
#288=DIRECTION('ref_axis',(0.,0.,-1.));
#289=DIRECTION('',(0.,0.,1.));
#290=DIRECTION('',(-1.,0.,0.));
#291=DIRECTION('',(-1.,0.,0.));
#292=DIRECTION('center_axis',(-1.,0.,0.));
#293=DIRECTION('ref_axis',(0.,0.,-1.));
#294=DIRECTION('',(0.,0.,-1.));
#295=DIRECTION('',(0.,1.,0.));
#296=DIRECTION('center_axis',(0.,0.,1.));
#297=DIRECTION('ref_axis',(1.,0.,0.));
#298=DIRECTION('center_axis',(0.,0.,1.));
#299=DIRECTION('ref_axis',(1.,0.,0.));
#300=DIRECTION('',(0.,1.,0.));
#301=DIRECTION('',(1.,0.,0.));
#302=DIRECTION('center_axis',(0.,0.,-1.));
#303=DIRECTION('ref_axis',(1.,0.,0.));
#304=DIRECTION('center_axis',(-1.,0.,0.));
#305=DIRECTION('ref_axis',(0.,0.,1.));
#306=DIRECTION('',(0.,0.,1.));
#307=DIRECTION('',(0.,0.,1.));
#308=DIRECTION('center_axis',(0.,1.,0.));
#309=DIRECTION('ref_axis',(0.,0.,1.));
#310=DIRECTION('',(1.,0.,0.));
#311=DIRECTION('center_axis',(0.,0.,1.));
#312=DIRECTION('ref_axis',(-1.,3.32315140926645E-9,0.));
#313=DIRECTION('center_axis',(0.,0.,-1.));
#314=DIRECTION('ref_axis',(-1.,0.,0.));
#315=DIRECTION('',(0.,0.,-1.));
#316=DIRECTION('center_axis',(0.,0.,-1.));
#317=DIRECTION('ref_axis',(-1.,0.,0.));
#318=DIRECTION('center_axis',(0.,0.,1.));
#319=DIRECTION('ref_axis',(-1.,0.,0.));
#320=DIRECTION('center_axis',(0.,0.,1.));
#321=DIRECTION('ref_axis',(1.,0.,0.));
#322=DIRECTION('center_axis',(0.,0.,1.));
#323=DIRECTION('ref_axis',(1.,0.,0.));
#324=DIRECTION('',(0.,0.,-1.));
#325=DIRECTION('center_axis',(0.,0.,-1.));
#326=DIRECTION('ref_axis',(1.,0.,0.));
#327=DIRECTION('center_axis',(0.,0.,1.));
#328=DIRECTION('ref_axis',(1.,0.,0.));
#329=CARTESIAN_POINT('',(0.,0.,0.));
#330=CARTESIAN_POINT('Origin',(-4.98732999343332E-17,2.4980018054066E-15,
0.));
#331=CARTESIAN_POINT('',(2.78809358725825,-0.400000011175871,0.));
#332=CARTESIAN_POINT('',(2.788093590465,0.399999988824129,0.));
#333=CARTESIAN_POINT('Origin',(-4.98732999343332E-17,2.4980018054066E-15,
0.));
#334=CARTESIAN_POINT('',(2.78809358725825,-0.400000011175871,-1.));
#335=CARTESIAN_POINT('',(2.78809358725825,-0.400000011175871,0.));
#336=CARTESIAN_POINT('',(2.788093590465,0.399999988824129,-1.));
#337=CARTESIAN_POINT('Origin',(-4.98732999343332E-17,2.4980018054066E-15,
-1.));
#338=CARTESIAN_POINT('',(2.788093590465,0.399999988824129,0.));
#339=CARTESIAN_POINT('Origin',(-0.0184828270891885,2.22044604925031E-15,
-1.));
#340=CARTESIAN_POINT('',(3.36303434249847,-0.400000011175871,-1.));
#341=CARTESIAN_POINT('',(9.24075854733986,-0.400000011175871,-1.));
#342=CARTESIAN_POINT('',(3.36303434249847,-0.500000011175871,-1.));
#343=CARTESIAN_POINT('',(3.36303434249847,-0.400000011175871,-1.));
#344=CARTESIAN_POINT('',(3.36303434582162,0.499999988824129,-1.));
#345=CARTESIAN_POINT('Origin',(-4.98732999343332E-17,2.4980018054066E-15,
-1.));
#346=CARTESIAN_POINT('',(3.36303434582162,0.399999988824129,-1.));
#347=CARTESIAN_POINT('',(3.36303434582162,0.499999988824131,-1.));
#348=CARTESIAN_POINT('',(1.74075854733986,0.399999988824129,-1.));
#349=CARTESIAN_POINT('Ctrl Pts',(15.0827015476446,-0.400000011175871,3.));
#350=CARTESIAN_POINT('Ctrl Pts',(15.0827015476446,0.399999988824129,3.));
#351=CARTESIAN_POINT('Ctrl Pts',(15.1529188037281,-0.400000011175871,2.99987908535793));
#352=CARTESIAN_POINT('Ctrl Pts',(15.1529188037281,0.399999988824129,2.99987908535793));
#353=CARTESIAN_POINT('Ctrl Pts',(15.4396689345701,-0.400000011175871,2.99942737977182));
#354=CARTESIAN_POINT('Ctrl Pts',(15.4396689345701,0.399999988824129,2.99942737977182));
#355=CARTESIAN_POINT('Ctrl Pts',(15.9291683091175,-0.400000011175871,2.99899745103317));
#356=CARTESIAN_POINT('Ctrl Pts',(15.9291683091175,0.399999988824129,2.99899745103317));
#357=CARTESIAN_POINT('Ctrl Pts',(16.6067205906422,-0.400000011175871,2.99963826867583));
#358=CARTESIAN_POINT('Ctrl Pts',(16.6067205906422,0.399999988824129,2.99963826867583));
#359=CARTESIAN_POINT('Ctrl Pts',(17.4953872301043,-0.400000011175871,3.00384119913674));
#360=CARTESIAN_POINT('Ctrl Pts',(17.4953872301043,0.399999988824129,3.00384119913674));
#361=CARTESIAN_POINT('Ctrl Pts',(18.6125985998711,-0.400000011175871,3.01087268082238));
#362=CARTESIAN_POINT('Ctrl Pts',(18.6125985998711,0.399999988824129,3.01087268082238));
#363=CARTESIAN_POINT('Ctrl Pts',(19.8631015574603,-0.400000011175871,3.00949786789253));
#364=CARTESIAN_POINT('Ctrl Pts',(19.8631015574603,0.399999988824129,3.00949786789253));
#365=CARTESIAN_POINT('Ctrl Pts',(21.2316788043505,-0.400000011175871,2.97748596361464));
#366=CARTESIAN_POINT('Ctrl Pts',(21.2316788043505,0.399999988824129,2.97748596361464));
#367=CARTESIAN_POINT('Ctrl Pts',(22.6151726219129,-0.400000011175871,2.87647017057041));
#368=CARTESIAN_POINT('Ctrl Pts',(22.6151726219129,0.399999988824129,2.87647017057041));
#369=CARTESIAN_POINT('Ctrl Pts',(23.8573837704726,-0.400000011175871,2.66372241670793));
#370=CARTESIAN_POINT('Ctrl Pts',(23.8573837704726,0.399999988824129,2.66372241670793));
#371=CARTESIAN_POINT('Ctrl Pts',(24.7911511906667,-0.400000011175871,2.30641032898037));
#372=CARTESIAN_POINT('Ctrl Pts',(24.7911511906667,0.399999988824129,2.30641032898037));
#373=CARTESIAN_POINT('Ctrl Pts',(25.2739983960445,-0.400000011175871,1.79286418330981));
#374=CARTESIAN_POINT('Ctrl Pts',(25.2739983960445,0.399999988824129,1.79286418330981));
#375=CARTESIAN_POINT('Ctrl Pts',(25.2354480740961,-0.400000011175871,1.15028791680453));
#376=CARTESIAN_POINT('Ctrl Pts',(25.2354480740961,0.399999988824129,1.15028791680453));
#377=CARTESIAN_POINT('Ctrl Pts',(24.6875655007164,-0.400000011175871,0.441699202307082));
#378=CARTESIAN_POINT('Ctrl Pts',(24.6875655007164,0.399999988824129,0.441699202307082));
#379=CARTESIAN_POINT('Ctrl Pts',(23.6903135166281,-0.400000011175871,-0.26135595628827));
#380=CARTESIAN_POINT('Ctrl Pts',(23.6903135166281,0.399999988824129,-0.26135595628827));
#381=CARTESIAN_POINT('Ctrl Pts',(22.3257006379671,-0.400000011175871,-0.903670055319197));
#382=CARTESIAN_POINT('Ctrl Pts',(22.3257006379671,0.399999988824129,-0.903670055319197));
#383=CARTESIAN_POINT('Ctrl Pts',(20.6775312296478,-0.400000011175871,-1.46049572350588));
#384=CARTESIAN_POINT('Ctrl Pts',(20.6775312296478,0.399999988824129,-1.46049572350588));
#385=CARTESIAN_POINT('Ctrl Pts',(18.8316873431258,-0.400000011175871,-1.92644823091462));
#386=CARTESIAN_POINT('Ctrl Pts',(18.8316873431258,0.399999988824129,-1.92644823091462));
#387=CARTESIAN_POINT('Ctrl Pts',(16.8714289621175,-0.400000011175871,-2.3103053566277));
#388=CARTESIAN_POINT('Ctrl Pts',(16.8714289621175,0.399999988824129,-2.3103053566277));
#389=CARTESIAN_POINT('Ctrl Pts',(14.8748093720146,-0.400000011175871,-2.62764780534093));
#390=CARTESIAN_POINT('Ctrl Pts',(14.8748093720146,0.399999988824129,-2.62764780534093));
#391=CARTESIAN_POINT('Ctrl Pts',(12.911013420009,-0.400000011175871,-2.89419960414847));
#392=CARTESIAN_POINT('Ctrl Pts',(12.911013420009,0.399999988824129,-2.89419960414847));
#393=CARTESIAN_POINT('Ctrl Pts',(11.037503190622,-0.400000011175871,-3.11955309416686));
#394=CARTESIAN_POINT('Ctrl Pts',(11.037503190622,0.399999988824129,-3.11955309416686));
#395=CARTESIAN_POINT('Ctrl Pts',(9.29581047829268,-0.400000011175871,-3.29906516386015));
#396=CARTESIAN_POINT('Ctrl Pts',(9.29581047829268,0.399999988824129,-3.29906516386015));
#397=CARTESIAN_POINT('Ctrl Pts',(7.71157861965525,-0.400000011175871,-3.41304387129451));
#398=CARTESIAN_POINT('Ctrl Pts',(7.71157861965525,0.399999988824129,-3.41304387129451));
#399=CARTESIAN_POINT('Ctrl Pts',(6.29864438023815,-0.400000011175871,-3.43315570694953));
#400=CARTESIAN_POINT('Ctrl Pts',(6.29864438023815,0.399999988824129,-3.43315570694953));
#401=CARTESIAN_POINT('Ctrl Pts',(5.06193421584852,-0.400000011175871,-3.32679328685371));
#402=CARTESIAN_POINT('Ctrl Pts',(5.06193421584852,0.399999988824129,-3.32679328685371));
#403=CARTESIAN_POINT('Ctrl Pts',(4.0007865817581,-0.400000011175871,-3.06229747357842));
#404=CARTESIAN_POINT('Ctrl Pts',(4.0007865817581,0.399999988824129,-3.06229747357842));
#405=CARTESIAN_POINT('Ctrl Pts',(3.11199697184362,-0.400000011175871,-2.61372813625319));
#406=CARTESIAN_POINT('Ctrl Pts',(3.11199697184362,0.399999988824129,-2.61372813625319));
#407=CARTESIAN_POINT('Ctrl Pts',(2.39304156699236,-0.400000011175871,-1.96613237109742));
#408=CARTESIAN_POINT('Ctrl Pts',(2.39304156699236,0.399999988824129,-1.96613237109742));
#409=CARTESIAN_POINT('Ctrl Pts',(1.95233756157401,-0.400000011175871,-1.28340503451123));
#410=CARTESIAN_POINT('Ctrl Pts',(1.95233756157401,0.399999988824129,-1.28340503451123));
#411=CARTESIAN_POINT('Ctrl Pts',(1.69697599187739,-0.400000011175871,-0.677971274590332));
#412=CARTESIAN_POINT('Ctrl Pts',(1.69697599187739,0.399999988824129,-0.677971274590332));
#413=CARTESIAN_POINT('Ctrl Pts',(1.56009812143768,-0.400000011175871,-0.232898785145019));
#414=CARTESIAN_POINT('Ctrl Pts',(1.56009812143768,0.399999988824129,-0.232898785145019));
#415=CARTESIAN_POINT('Ctrl Pts',(1.49999996647239,-0.400000011175871,0.));
#416=CARTESIAN_POINT('Ctrl Pts',(1.49999996647239,0.399999988824129,0.));
#417=CARTESIAN_POINT('',(1.49999996647239,-0.400000011175871,0.));
#418=CARTESIAN_POINT('',(15.0827015476447,-0.400000011175871,3.));
#419=CARTESIAN_POINT('Ctrl Pts',(1.49999996647239,-0.400000011175871,0.));
#420=CARTESIAN_POINT('Ctrl Pts',(1.56009812143768,-0.400000011175871,-0.232898785145019));
#421=CARTESIAN_POINT('Ctrl Pts',(1.69697599187739,-0.400000011175871,-0.677971274590332));
#422=CARTESIAN_POINT('Ctrl Pts',(1.95233756157401,-0.400000011175871,-1.28340503451123));
#423=CARTESIAN_POINT('Ctrl Pts',(2.39304156699236,-0.400000011175871,-1.96613237109742));
#424=CARTESIAN_POINT('Ctrl Pts',(3.11199697184362,-0.400000011175871,-2.61372813625319));
#425=CARTESIAN_POINT('Ctrl Pts',(4.0007865817581,-0.400000011175871,-3.06229747357842));
#426=CARTESIAN_POINT('Ctrl Pts',(5.06193421584852,-0.400000011175871,-3.32679328685371));
#427=CARTESIAN_POINT('Ctrl Pts',(6.29864438023815,-0.400000011175871,-3.43315570694953));
#428=CARTESIAN_POINT('Ctrl Pts',(7.71157861965525,-0.400000011175871,-3.41304387129451));
#429=CARTESIAN_POINT('Ctrl Pts',(9.29581047829268,-0.400000011175871,-3.29906516386015));
#430=CARTESIAN_POINT('Ctrl Pts',(11.037503190622,-0.400000011175871,-3.11955309416686));
#431=CARTESIAN_POINT('Ctrl Pts',(12.911013420009,-0.400000011175871,-2.89419960414847));
#432=CARTESIAN_POINT('Ctrl Pts',(14.8748093720146,-0.400000011175871,-2.62764780534093));
#433=CARTESIAN_POINT('Ctrl Pts',(16.8714289621175,-0.400000011175871,-2.3103053566277));
#434=CARTESIAN_POINT('Ctrl Pts',(18.8316873431258,-0.400000011175871,-1.92644823091462));
#435=CARTESIAN_POINT('Ctrl Pts',(20.6775312296478,-0.400000011175871,-1.46049572350588));
#436=CARTESIAN_POINT('Ctrl Pts',(22.3257006379671,-0.400000011175871,-0.903670055319197));
#437=CARTESIAN_POINT('Ctrl Pts',(23.6903135166281,-0.400000011175871,-0.26135595628827));
#438=CARTESIAN_POINT('Ctrl Pts',(24.6875655007164,-0.400000011175871,0.441699202307082));
#439=CARTESIAN_POINT('Ctrl Pts',(25.2354480740961,-0.400000011175871,1.15028791680453));
#440=CARTESIAN_POINT('Ctrl Pts',(25.2739983960445,-0.400000011175871,1.79286418330981));
#441=CARTESIAN_POINT('Ctrl Pts',(24.7911511906667,-0.400000011175871,2.30641032898037));
#442=CARTESIAN_POINT('Ctrl Pts',(23.8573837704726,-0.400000011175871,2.66372241670793));
#443=CARTESIAN_POINT('Ctrl Pts',(22.6151726219129,-0.400000011175871,2.87647017057041));
#444=CARTESIAN_POINT('Ctrl Pts',(21.2316788043505,-0.400000011175871,2.97748596361464));
#445=CARTESIAN_POINT('Ctrl Pts',(19.8631015574603,-0.400000011175871,3.00949786789253));
#446=CARTESIAN_POINT('Ctrl Pts',(18.6125985998711,-0.400000011175871,3.01087268082238));
#447=CARTESIAN_POINT('Ctrl Pts',(17.4953872301043,-0.400000011175871,3.00384119913674));
#448=CARTESIAN_POINT('Ctrl Pts',(16.6067205906422,-0.400000011175871,2.99963826867583));
#449=CARTESIAN_POINT('Ctrl Pts',(15.9291683091175,-0.400000011175871,2.99899745103317));
#450=CARTESIAN_POINT('Ctrl Pts',(15.4396689345701,-0.400000011175871,2.99942737977182));
#451=CARTESIAN_POINT('Ctrl Pts',(15.1529188037281,-0.400000011175871,2.99987908535793));
#452=CARTESIAN_POINT('Ctrl Pts',(15.0827015476446,-0.400000011175871,3.));
#453=CARTESIAN_POINT('',(1.49999996647239,0.399999988824129,0.));
#454=CARTESIAN_POINT('',(1.49999996647239,-0.400000011175871,0.));
#455=CARTESIAN_POINT('',(15.0827015476446,0.399999988824129,3.));
#456=CARTESIAN_POINT('Ctrl Pts',(15.0827015476446,0.399999988824129,3.));
#457=CARTESIAN_POINT('Ctrl Pts',(15.1529188037281,0.399999988824129,2.99987908535793));
#458=CARTESIAN_POINT('Ctrl Pts',(15.4396689345701,0.399999988824129,2.99942737977182));
#459=CARTESIAN_POINT('Ctrl Pts',(15.9291683091175,0.399999988824129,2.99899745103317));
#460=CARTESIAN_POINT('Ctrl Pts',(16.6067205906422,0.399999988824129,2.99963826867583));
#461=CARTESIAN_POINT('Ctrl Pts',(17.4953872301043,0.399999988824129,3.00384119913674));
#462=CARTESIAN_POINT('Ctrl Pts',(18.6125985998711,0.399999988824129,3.01087268082238));
#463=CARTESIAN_POINT('Ctrl Pts',(19.8631015574603,0.399999988824129,3.00949786789253));
#464=CARTESIAN_POINT('Ctrl Pts',(21.2316788043505,0.399999988824129,2.97748596361464));
#465=CARTESIAN_POINT('Ctrl Pts',(22.6151726219129,0.399999988824129,2.87647017057041));
#466=CARTESIAN_POINT('Ctrl Pts',(23.8573837704726,0.399999988824129,2.66372241670793));
#467=CARTESIAN_POINT('Ctrl Pts',(24.7911511906667,0.399999988824129,2.30641032898037));
#468=CARTESIAN_POINT('Ctrl Pts',(25.2739983960445,0.399999988824129,1.79286418330981));
#469=CARTESIAN_POINT('Ctrl Pts',(25.2354480740961,0.399999988824129,1.15028791680453));
#470=CARTESIAN_POINT('Ctrl Pts',(24.6875655007164,0.399999988824129,0.441699202307082));
#471=CARTESIAN_POINT('Ctrl Pts',(23.6903135166281,0.399999988824129,-0.26135595628827));
#472=CARTESIAN_POINT('Ctrl Pts',(22.3257006379671,0.399999988824129,-0.903670055319197));
#473=CARTESIAN_POINT('Ctrl Pts',(20.6775312296478,0.399999988824129,-1.46049572350588));
#474=CARTESIAN_POINT('Ctrl Pts',(18.8316873431258,0.399999988824129,-1.92644823091462));
#475=CARTESIAN_POINT('Ctrl Pts',(16.8714289621175,0.399999988824129,-2.3103053566277));
#476=CARTESIAN_POINT('Ctrl Pts',(14.8748093720146,0.399999988824129,-2.62764780534093));
#477=CARTESIAN_POINT('Ctrl Pts',(12.911013420009,0.399999988824129,-2.89419960414847));
#478=CARTESIAN_POINT('Ctrl Pts',(11.037503190622,0.399999988824129,-3.11955309416686));
#479=CARTESIAN_POINT('Ctrl Pts',(9.29581047829268,0.399999988824129,-3.29906516386015));
#480=CARTESIAN_POINT('Ctrl Pts',(7.71157861965525,0.399999988824129,-3.41304387129451));
#481=CARTESIAN_POINT('Ctrl Pts',(6.29864438023815,0.399999988824129,-3.43315570694953));
#482=CARTESIAN_POINT('Ctrl Pts',(5.06193421584852,0.399999988824129,-3.32679328685371));
#483=CARTESIAN_POINT('Ctrl Pts',(4.0007865817581,0.399999988824129,-3.06229747357842));
#484=CARTESIAN_POINT('Ctrl Pts',(3.11199697184362,0.399999988824129,-2.61372813625319));
#485=CARTESIAN_POINT('Ctrl Pts',(2.39304156699236,0.399999988824129,-1.96613237109742));
#486=CARTESIAN_POINT('Ctrl Pts',(1.95233756157401,0.399999988824129,-1.28340503451123));
#487=CARTESIAN_POINT('Ctrl Pts',(1.69697599187739,0.399999988824129,-0.677971274590332));
#488=CARTESIAN_POINT('Ctrl Pts',(1.56009812143768,0.399999988824129,-0.232898785145019));
#489=CARTESIAN_POINT('Ctrl Pts',(1.49999996647239,0.399999988824129,0.));
#490=CARTESIAN_POINT('',(15.0827015476446,0.399999988824129,3.));
#491=CARTESIAN_POINT('Origin',(3.4999999217689,0.399999988824129,3.));
#492=CARTESIAN_POINT('',(3.36303434582162,0.399999988824129,3.));
#493=CARTESIAN_POINT('',(3.36303434582162,0.399999988824129,1.5));
#494=CARTESIAN_POINT('',(1.74999996088445,0.399999988824129,3.));
#495=CARTESIAN_POINT('',(6.69349959062923,0.399999988824129,0.));
#496=CARTESIAN_POINT('Origin',(3.36303434582162,0.499999988824129,3.));
#497=CARTESIAN_POINT('',(3.36303434582162,0.499999988824129,3.));
#498=CARTESIAN_POINT('',(3.36303434582162,0.499999988824129,0.));
#499=CARTESIAN_POINT('',(3.36303434582162,0.249999994412065,3.));
#500=CARTESIAN_POINT('Origin',(0.,0.,3.));
#501=CARTESIAN_POINT('',(3.36303434249847,-0.500000011175871,3.));
#502=CARTESIAN_POINT('Origin',(0.,0.,3.));
#503=CARTESIAN_POINT('',(3.36303434249847,-0.400000011175871,3.));
#504=CARTESIAN_POINT('',(3.36303434249847,-0.250000005587935,3.));
#505=CARTESIAN_POINT('',(9.24999996088445,-0.400000011175871,3.));
#506=CARTESIAN_POINT('',(2.4,2.93915231795365E-16,3.));
#507=CARTESIAN_POINT('Origin',(0.,0.,3.));
#508=CARTESIAN_POINT('Origin',(3.36303434249847,-0.500000011175871,-5.55111512312578E-16));
#509=CARTESIAN_POINT('',(3.36303434249847,-0.500000011175871,0.));
#510=CARTESIAN_POINT('',(3.36303434249847,-0.400000011175871,0.));
#511=CARTESIAN_POINT('Origin',(18.4999999217689,-0.400000011175871,3.));
#512=CARTESIAN_POINT('',(6.69349959062923,-0.400000011175871,0.));
#513=CARTESIAN_POINT('Origin',(0.,0.,0.));
#514=CARTESIAN_POINT('Origin',(0.,0.,3.5));
#515=CARTESIAN_POINT('',(2.4,2.93915231795365E-16,0.499999999999999));
#516=CARTESIAN_POINT('',(2.4,-2.93915231795365E-16,3.5));
#517=CARTESIAN_POINT('Origin',(0.,0.,0.499999999999999));
#518=CARTESIAN_POINT('Origin',(0.,0.,0.499999999999999));
#519=CARTESIAN_POINT('',(-0.95,-1.16341445918999E-16,0.499999999999999));
#520=CARTESIAN_POINT('Origin',(0.,0.,0.499999999999999));
#521=CARTESIAN_POINT('Origin',(0.,0.,0.));
#522=CARTESIAN_POINT('',(-0.95,-1.16341445918999E-16,0.));
#523=CARTESIAN_POINT('',(-0.95,-1.16341445918999E-16,0.));
#524=CARTESIAN_POINT('Origin',(0.,0.,0.));
#525=CARTESIAN_POINT('Origin',(0.,0.,0.));
#526=UNCERTAINTY_MEASURE_WITH_UNIT(LENGTH_MEASURE(0.01),#530,
'DISTANCE_ACCURACY_VALUE',
'Maximum model space distance between geometric entities at asserted c
onnectivities');
#527=UNCERTAINTY_MEASURE_WITH_UNIT(LENGTH_MEASURE(0.01),#530,
'DISTANCE_ACCURACY_VALUE',
'Maximum model space distance between geometric entities at asserted c
onnectivities');
#528=(
GEOMETRIC_REPRESENTATION_CONTEXT(3)
GLOBAL_UNCERTAINTY_ASSIGNED_CONTEXT((#526))
GLOBAL_UNIT_ASSIGNED_CONTEXT((#530,#532,#533))
REPRESENTATION_CONTEXT('','3D')
);
#529=(
GEOMETRIC_REPRESENTATION_CONTEXT(3)
GLOBAL_UNCERTAINTY_ASSIGNED_CONTEXT((#527))
GLOBAL_UNIT_ASSIGNED_CONTEXT((#530,#532,#533))
REPRESENTATION_CONTEXT('','3D')
);
#530=(
LENGTH_UNIT()
NAMED_UNIT(*)
SI_UNIT(.MILLI.,.METRE.)
);
#531=(
LENGTH_UNIT()
NAMED_UNIT(*)
SI_UNIT($,.METRE.)
);
#532=(
NAMED_UNIT(*)
PLANE_ANGLE_UNIT()
SI_UNIT($,.RADIAN.)
);
#533=(
NAMED_UNIT(*)
SI_UNIT($,.STERADIAN.)
SOLID_ANGLE_UNIT()
);
#534=SHAPE_DEFINITION_REPRESENTATION(#535,#536);
#535=PRODUCT_DEFINITION_SHAPE('',$,#538);
#536=SHAPE_REPRESENTATION('',(#246),#528);
#537=PRODUCT_DEFINITION_CONTEXT('part definition',#542,'design');
#538=PRODUCT_DEFINITION('ServoPick','ServoPick v3',#539,#537);
#539=PRODUCT_DEFINITION_FORMATION('',$,#544);
#540=PRODUCT_RELATED_PRODUCT_CATEGORY('ServoPick v3','ServoPick v3',(#544));
#541=APPLICATION_PROTOCOL_DEFINITION('international standard',
'automotive_design',2009,#542);
#542=APPLICATION_CONTEXT(
'Core Data for Automotive Mechanical Design Process');
#543=PRODUCT_CONTEXT('part definition',#542,'mechanical');
#544=PRODUCT('ServoPick','ServoPick v3',$,(#543));
#545=PRESENTATION_STYLE_ASSIGNMENT((#546));
#546=SURFACE_STYLE_USAGE(.BOTH.,#547);
#547=SURFACE_SIDE_STYLE('',(#548));
#548=SURFACE_STYLE_FILL_AREA(#549);
#549=FILL_AREA_STYLE('Steel - Satin',(#550));
#550=FILL_AREA_STYLE_COLOUR('Steel - Satin',#551);
#551=COLOUR_RGB('Steel - Satin',0.627450980392157,0.627450980392157,0.627450980392157);
ENDSEC;
END-ISO-10303-21;
